G04 #@! TF.GenerationSoftware,KiCad,Pcbnew,(5.0.1)-3*
G04 #@! TF.CreationDate,2020-03-15T12:24:32-04:00*
G04 #@! TF.ProjectId,viparspectra-adapter,7669706172737065637472612D616461,rev?*
G04 #@! TF.SameCoordinates,Original*
G04 #@! TF.FileFunction,Legend,Bot*
G04 #@! TF.FilePolarity,Positive*
%FSLAX46Y46*%
G04 Gerber Fmt 4.6, Leading zero omitted, Abs format (unit mm)*
G04 Created by KiCad (PCBNEW (5.0.1)-3) date 3/15/2020 12:24:32 PM*
%MOMM*%
%LPD*%
G01*
G04 APERTURE LIST*
%ADD10C,0.010000*%
G04 APERTURE END LIST*
D10*
G04 #@! TO.C,G\002A\002A\002A*
G36*
X117277746Y-90861015D02*
X117739619Y-90894479D01*
X118493598Y-90819872D01*
X119526748Y-90638095D01*
X120139902Y-90508201D01*
X121267332Y-90335611D01*
X122134950Y-90374577D01*
X122742098Y-90624860D01*
X123088119Y-91086216D01*
X123176543Y-91622865D01*
X123107839Y-91992870D01*
X122926138Y-92553836D01*
X122668056Y-93195397D01*
X122616913Y-93309609D01*
X122253062Y-94168760D01*
X122013597Y-94864136D01*
X121908720Y-95356800D01*
X121948631Y-95607814D01*
X122008544Y-95631842D01*
X122198256Y-95494782D01*
X122278354Y-95337471D01*
X122386084Y-95060766D01*
X122592780Y-94559615D01*
X122863463Y-93918178D01*
X123030028Y-93528899D01*
X123441428Y-92447497D01*
X123642242Y-91592746D01*
X123637340Y-90932917D01*
X123490673Y-90527670D01*
X123136373Y-90191673D01*
X122561055Y-89921660D01*
X121879551Y-89763945D01*
X121541880Y-89741692D01*
X121116512Y-89772747D01*
X120459493Y-89858911D01*
X119668407Y-89986113D01*
X119013298Y-90106276D01*
X118124282Y-90292526D01*
X117535345Y-90450856D01*
X117212405Y-90592292D01*
X117120914Y-90718579D01*
X117277746Y-90861015D01*
X117277746Y-90861015D01*
G37*
X117277746Y-90861015D02*
X117739619Y-90894479D01*
X118493598Y-90819872D01*
X119526748Y-90638095D01*
X120139902Y-90508201D01*
X121267332Y-90335611D01*
X122134950Y-90374577D01*
X122742098Y-90624860D01*
X123088119Y-91086216D01*
X123176543Y-91622865D01*
X123107839Y-91992870D01*
X122926138Y-92553836D01*
X122668056Y-93195397D01*
X122616913Y-93309609D01*
X122253062Y-94168760D01*
X122013597Y-94864136D01*
X121908720Y-95356800D01*
X121948631Y-95607814D01*
X122008544Y-95631842D01*
X122198256Y-95494782D01*
X122278354Y-95337471D01*
X122386084Y-95060766D01*
X122592780Y-94559615D01*
X122863463Y-93918178D01*
X123030028Y-93528899D01*
X123441428Y-92447497D01*
X123642242Y-91592746D01*
X123637340Y-90932917D01*
X123490673Y-90527670D01*
X123136373Y-90191673D01*
X122561055Y-89921660D01*
X121879551Y-89763945D01*
X121541880Y-89741692D01*
X121116512Y-89772747D01*
X120459493Y-89858911D01*
X119668407Y-89986113D01*
X119013298Y-90106276D01*
X118124282Y-90292526D01*
X117535345Y-90450856D01*
X117212405Y-90592292D01*
X117120914Y-90718579D01*
X117277746Y-90861015D01*
G36*
X116480841Y-88960201D02*
X116606503Y-89057464D01*
X116866056Y-89130962D01*
X117300505Y-89186010D01*
X117950854Y-89227921D01*
X118858108Y-89262009D01*
X119980517Y-89291636D01*
X120931832Y-89321245D01*
X121779582Y-89360852D01*
X122460222Y-89406458D01*
X122910205Y-89454066D01*
X123050384Y-89484817D01*
X123290539Y-89521700D01*
X123344755Y-89452998D01*
X123179975Y-89224082D01*
X122695226Y-89035775D01*
X121904893Y-88891440D01*
X120823364Y-88794437D01*
X120443100Y-88775017D01*
X119672770Y-88732469D01*
X119042818Y-88680517D01*
X118618895Y-88625782D01*
X118466609Y-88575651D01*
X118614649Y-88474286D01*
X118994764Y-88335740D01*
X119325040Y-88242321D01*
X119985958Y-88032499D01*
X120701859Y-87740891D01*
X121396347Y-87406833D01*
X121993025Y-87069663D01*
X122415497Y-86768718D01*
X122582531Y-86565004D01*
X122614647Y-86163295D01*
X122576594Y-85991105D01*
X122313621Y-85672296D01*
X121822660Y-85351592D01*
X121206837Y-85086633D01*
X120732764Y-84960600D01*
X120381242Y-84874321D01*
X120264798Y-84784864D01*
X120402062Y-84685804D01*
X120811664Y-84570716D01*
X121512234Y-84433173D01*
X122522402Y-84266753D01*
X122924225Y-84204805D01*
X123806673Y-84068734D01*
X124595340Y-83944041D01*
X125217669Y-83842419D01*
X125601101Y-83775563D01*
X125657669Y-83764256D01*
X125924295Y-83615660D01*
X126037658Y-83393336D01*
X125963012Y-83217237D01*
X125825881Y-83183524D01*
X125565975Y-83214344D01*
X125009090Y-83303484D01*
X124188483Y-83445060D01*
X123137416Y-83633185D01*
X121889148Y-83861973D01*
X120476939Y-84125539D01*
X120080465Y-84200273D01*
X119358247Y-84350168D01*
X118755942Y-84500249D01*
X118353787Y-84629155D01*
X118238545Y-84690635D01*
X118149007Y-84918264D01*
X118378900Y-85107684D01*
X118933454Y-85261220D01*
X119785784Y-85377987D01*
X120647400Y-85486728D01*
X121247719Y-85624494D01*
X121661843Y-85816260D01*
X121964872Y-86087004D01*
X121983208Y-86108768D01*
X122013484Y-86356845D01*
X121726160Y-86649519D01*
X121117722Y-86988682D01*
X120184654Y-87376226D01*
X118923441Y-87814045D01*
X118657964Y-87899400D01*
X117669520Y-88230757D01*
X116961631Y-88505375D01*
X116551101Y-88716148D01*
X116448066Y-88833860D01*
X116480841Y-88960201D01*
X116480841Y-88960201D01*
G37*
X116480841Y-88960201D02*
X116606503Y-89057464D01*
X116866056Y-89130962D01*
X117300505Y-89186010D01*
X117950854Y-89227921D01*
X118858108Y-89262009D01*
X119980517Y-89291636D01*
X120931832Y-89321245D01*
X121779582Y-89360852D01*
X122460222Y-89406458D01*
X122910205Y-89454066D01*
X123050384Y-89484817D01*
X123290539Y-89521700D01*
X123344755Y-89452998D01*
X123179975Y-89224082D01*
X122695226Y-89035775D01*
X121904893Y-88891440D01*
X120823364Y-88794437D01*
X120443100Y-88775017D01*
X119672770Y-88732469D01*
X119042818Y-88680517D01*
X118618895Y-88625782D01*
X118466609Y-88575651D01*
X118614649Y-88474286D01*
X118994764Y-88335740D01*
X119325040Y-88242321D01*
X119985958Y-88032499D01*
X120701859Y-87740891D01*
X121396347Y-87406833D01*
X121993025Y-87069663D01*
X122415497Y-86768718D01*
X122582531Y-86565004D01*
X122614647Y-86163295D01*
X122576594Y-85991105D01*
X122313621Y-85672296D01*
X121822660Y-85351592D01*
X121206837Y-85086633D01*
X120732764Y-84960600D01*
X120381242Y-84874321D01*
X120264798Y-84784864D01*
X120402062Y-84685804D01*
X120811664Y-84570716D01*
X121512234Y-84433173D01*
X122522402Y-84266753D01*
X122924225Y-84204805D01*
X123806673Y-84068734D01*
X124595340Y-83944041D01*
X125217669Y-83842419D01*
X125601101Y-83775563D01*
X125657669Y-83764256D01*
X125924295Y-83615660D01*
X126037658Y-83393336D01*
X125963012Y-83217237D01*
X125825881Y-83183524D01*
X125565975Y-83214344D01*
X125009090Y-83303484D01*
X124188483Y-83445060D01*
X123137416Y-83633185D01*
X121889148Y-83861973D01*
X120476939Y-84125539D01*
X120080465Y-84200273D01*
X119358247Y-84350168D01*
X118755942Y-84500249D01*
X118353787Y-84629155D01*
X118238545Y-84690635D01*
X118149007Y-84918264D01*
X118378900Y-85107684D01*
X118933454Y-85261220D01*
X119785784Y-85377987D01*
X120647400Y-85486728D01*
X121247719Y-85624494D01*
X121661843Y-85816260D01*
X121964872Y-86087004D01*
X121983208Y-86108768D01*
X122013484Y-86356845D01*
X121726160Y-86649519D01*
X121117722Y-86988682D01*
X120184654Y-87376226D01*
X118923441Y-87814045D01*
X118657964Y-87899400D01*
X117669520Y-88230757D01*
X116961631Y-88505375D01*
X116551101Y-88716148D01*
X116448066Y-88833860D01*
X116480841Y-88960201D01*
G04 #@! TD*
M02*
