G04 #@! TF.GenerationSoftware,KiCad,Pcbnew,(5.0.1)-3*
G04 #@! TF.CreationDate,2020-03-15T12:24:32-04:00*
G04 #@! TF.ProjectId,viparspectra-adapter,7669706172737065637472612D616461,rev?*
G04 #@! TF.SameCoordinates,Original*
G04 #@! TF.FileFunction,Legend,Top*
G04 #@! TF.FilePolarity,Positive*
%FSLAX46Y46*%
G04 Gerber Fmt 4.6, Leading zero omitted, Abs format (unit mm)*
G04 Created by KiCad (PCBNEW (5.0.1)-3) date 3/15/2020 12:24:32 PM*
%MOMM*%
%LPD*%
G01*
G04 APERTURE LIST*
%ADD10C,0.300000*%
%ADD11C,0.150000*%
%ADD12C,0.200000*%
%ADD13C,0.120000*%
G04 APERTURE END LIST*
D10*
X134901714Y-81299714D02*
X134973142Y-81371142D01*
X135044571Y-81585428D01*
X135044571Y-81728285D01*
X134973142Y-81942571D01*
X134830285Y-82085428D01*
X134687428Y-82156857D01*
X134401714Y-82228285D01*
X134187428Y-82228285D01*
X133901714Y-82156857D01*
X133758857Y-82085428D01*
X133616000Y-81942571D01*
X133544571Y-81728285D01*
X133544571Y-81585428D01*
X133616000Y-81371142D01*
X133687428Y-81299714D01*
X135044571Y-80656857D02*
X133544571Y-80656857D01*
X134258857Y-80656857D02*
X134258857Y-79799714D01*
X135044571Y-79799714D02*
X133544571Y-79799714D01*
X133687428Y-79156857D02*
X133616000Y-79085428D01*
X133544571Y-78942571D01*
X133544571Y-78585428D01*
X133616000Y-78442571D01*
X133687428Y-78371142D01*
X133830285Y-78299714D01*
X133973142Y-78299714D01*
X134187428Y-78371142D01*
X135044571Y-79228285D01*
X135044571Y-78299714D01*
D11*
X127103142Y-110672476D02*
X127150761Y-110720095D01*
X127198380Y-110862952D01*
X127198380Y-110958190D01*
X127150761Y-111101047D01*
X127055523Y-111196285D01*
X126960285Y-111243904D01*
X126769809Y-111291523D01*
X126626952Y-111291523D01*
X126436476Y-111243904D01*
X126341238Y-111196285D01*
X126246000Y-111101047D01*
X126198380Y-110958190D01*
X126198380Y-110862952D01*
X126246000Y-110720095D01*
X126293619Y-110672476D01*
X127198380Y-110243904D02*
X126198380Y-110243904D01*
X126674571Y-110243904D02*
X126674571Y-109672476D01*
X127198380Y-109672476D02*
X126198380Y-109672476D01*
X126293619Y-109243904D02*
X126246000Y-109196285D01*
X126198380Y-109101047D01*
X126198380Y-108862952D01*
X126246000Y-108767714D01*
X126293619Y-108720095D01*
X126388857Y-108672476D01*
X126484095Y-108672476D01*
X126626952Y-108720095D01*
X127198380Y-109291523D01*
X127198380Y-108672476D01*
X111069523Y-85193142D02*
X111021904Y-85240761D01*
X110879047Y-85288380D01*
X110783809Y-85288380D01*
X110640952Y-85240761D01*
X110545714Y-85145523D01*
X110498095Y-85050285D01*
X110450476Y-84859809D01*
X110450476Y-84716952D01*
X110498095Y-84526476D01*
X110545714Y-84431238D01*
X110640952Y-84336000D01*
X110783809Y-84288380D01*
X110879047Y-84288380D01*
X111021904Y-84336000D01*
X111069523Y-84383619D01*
X111498095Y-85288380D02*
X111498095Y-84288380D01*
X111498095Y-84764571D02*
X112069523Y-84764571D01*
X112069523Y-85288380D02*
X112069523Y-84288380D01*
X112498095Y-84383619D02*
X112545714Y-84336000D01*
X112640952Y-84288380D01*
X112879047Y-84288380D01*
X112974285Y-84336000D01*
X113021904Y-84383619D01*
X113069523Y-84478857D01*
X113069523Y-84574095D01*
X113021904Y-84716952D01*
X112450476Y-85288380D01*
X113069523Y-85288380D01*
X127103142Y-81462476D02*
X127150761Y-81510095D01*
X127198380Y-81652952D01*
X127198380Y-81748190D01*
X127150761Y-81891047D01*
X127055523Y-81986285D01*
X126960285Y-82033904D01*
X126769809Y-82081523D01*
X126626952Y-82081523D01*
X126436476Y-82033904D01*
X126341238Y-81986285D01*
X126246000Y-81891047D01*
X126198380Y-81748190D01*
X126198380Y-81652952D01*
X126246000Y-81510095D01*
X126293619Y-81462476D01*
X127198380Y-81033904D02*
X126198380Y-81033904D01*
X126674571Y-81033904D02*
X126674571Y-80462476D01*
X127198380Y-80462476D02*
X126198380Y-80462476D01*
X126293619Y-80033904D02*
X126246000Y-79986285D01*
X126198380Y-79891047D01*
X126198380Y-79652952D01*
X126246000Y-79557714D01*
X126293619Y-79510095D01*
X126388857Y-79462476D01*
X126484095Y-79462476D01*
X126626952Y-79510095D01*
X127198380Y-80081523D01*
X127198380Y-79462476D01*
X115165142Y-81462476D02*
X115212761Y-81510095D01*
X115260380Y-81652952D01*
X115260380Y-81748190D01*
X115212761Y-81891047D01*
X115117523Y-81986285D01*
X115022285Y-82033904D01*
X114831809Y-82081523D01*
X114688952Y-82081523D01*
X114498476Y-82033904D01*
X114403238Y-81986285D01*
X114308000Y-81891047D01*
X114260380Y-81748190D01*
X114260380Y-81652952D01*
X114308000Y-81510095D01*
X114355619Y-81462476D01*
X115260380Y-81033904D02*
X114260380Y-81033904D01*
X114736571Y-81033904D02*
X114736571Y-80462476D01*
X115260380Y-80462476D02*
X114260380Y-80462476D01*
X115260380Y-79462476D02*
X115260380Y-80033904D01*
X115260380Y-79748190D02*
X114260380Y-79748190D01*
X114403238Y-79843428D01*
X114498476Y-79938666D01*
X114546095Y-80033904D01*
X114911142Y-110672476D02*
X114958761Y-110720095D01*
X115006380Y-110862952D01*
X115006380Y-110958190D01*
X114958761Y-111101047D01*
X114863523Y-111196285D01*
X114768285Y-111243904D01*
X114577809Y-111291523D01*
X114434952Y-111291523D01*
X114244476Y-111243904D01*
X114149238Y-111196285D01*
X114054000Y-111101047D01*
X114006380Y-110958190D01*
X114006380Y-110862952D01*
X114054000Y-110720095D01*
X114101619Y-110672476D01*
X115006380Y-110243904D02*
X114006380Y-110243904D01*
X114482571Y-110243904D02*
X114482571Y-109672476D01*
X115006380Y-109672476D02*
X114006380Y-109672476D01*
X115006380Y-108672476D02*
X115006380Y-109243904D01*
X115006380Y-108958190D02*
X114006380Y-108958190D01*
X114149238Y-109053428D01*
X114244476Y-109148666D01*
X114292095Y-109243904D01*
X111069523Y-105005142D02*
X111021904Y-105052761D01*
X110879047Y-105100380D01*
X110783809Y-105100380D01*
X110640952Y-105052761D01*
X110545714Y-104957523D01*
X110498095Y-104862285D01*
X110450476Y-104671809D01*
X110450476Y-104528952D01*
X110498095Y-104338476D01*
X110545714Y-104243238D01*
X110640952Y-104148000D01*
X110783809Y-104100380D01*
X110879047Y-104100380D01*
X111021904Y-104148000D01*
X111069523Y-104195619D01*
X111498095Y-105100380D02*
X111498095Y-104100380D01*
X111498095Y-104576571D02*
X112069523Y-104576571D01*
X112069523Y-105100380D02*
X112069523Y-104100380D01*
X113069523Y-105100380D02*
X112498095Y-105100380D01*
X112783809Y-105100380D02*
X112783809Y-104100380D01*
X112688571Y-104243238D01*
X112593333Y-104338476D01*
X112498095Y-104386095D01*
D10*
X134647714Y-111271714D02*
X134719142Y-111343142D01*
X134790571Y-111557428D01*
X134790571Y-111700285D01*
X134719142Y-111914571D01*
X134576285Y-112057428D01*
X134433428Y-112128857D01*
X134147714Y-112200285D01*
X133933428Y-112200285D01*
X133647714Y-112128857D01*
X133504857Y-112057428D01*
X133362000Y-111914571D01*
X133290571Y-111700285D01*
X133290571Y-111557428D01*
X133362000Y-111343142D01*
X133433428Y-111271714D01*
X134790571Y-110628857D02*
X133290571Y-110628857D01*
X134004857Y-110628857D02*
X134004857Y-109771714D01*
X134790571Y-109771714D02*
X133290571Y-109771714D01*
X134790571Y-108271714D02*
X134790571Y-109128857D01*
X134790571Y-108700285D02*
X133290571Y-108700285D01*
X133504857Y-108843142D01*
X133647714Y-108986000D01*
X133719142Y-109128857D01*
D12*
X108489500Y-93167817D02*
X108489500Y-93644007D01*
X108965691Y-93691626D01*
X108918072Y-93644007D01*
X108870453Y-93548769D01*
X108870453Y-93310674D01*
X108918072Y-93215436D01*
X108965691Y-93167817D01*
X109060929Y-93120198D01*
X109299024Y-93120198D01*
X109394262Y-93167817D01*
X109441881Y-93215436D01*
X109489500Y-93310674D01*
X109489500Y-93548769D01*
X109441881Y-93644007D01*
X109394262Y-93691626D01*
X108822834Y-92786864D02*
X109489500Y-92548769D01*
X108822834Y-92310674D01*
X108568240Y-102855377D02*
X108568240Y-103331567D01*
X109044431Y-103379186D01*
X108996812Y-103331567D01*
X108949193Y-103236329D01*
X108949193Y-102998234D01*
X108996812Y-102902996D01*
X109044431Y-102855377D01*
X109139669Y-102807758D01*
X109377764Y-102807758D01*
X109473002Y-102855377D01*
X109520621Y-102902996D01*
X109568240Y-102998234D01*
X109568240Y-103236329D01*
X109520621Y-103331567D01*
X109473002Y-103379186D01*
X108901574Y-102474424D02*
X109568240Y-102236329D01*
X108901574Y-101998234D01*
X108626660Y-98387991D02*
X108626660Y-97768943D01*
X109007613Y-98102277D01*
X109007613Y-97959420D01*
X109055232Y-97864181D01*
X109102851Y-97816562D01*
X109198089Y-97768943D01*
X109436184Y-97768943D01*
X109531422Y-97816562D01*
X109579041Y-97864181D01*
X109626660Y-97959420D01*
X109626660Y-98245134D01*
X109579041Y-98340372D01*
X109531422Y-98387991D01*
X109531422Y-97340372D02*
X109579041Y-97292753D01*
X109626660Y-97340372D01*
X109579041Y-97387991D01*
X109531422Y-97340372D01*
X109626660Y-97340372D01*
X108626660Y-96959420D02*
X108626660Y-96340372D01*
X109007613Y-96673705D01*
X109007613Y-96530848D01*
X109055232Y-96435610D01*
X109102851Y-96387991D01*
X109198089Y-96340372D01*
X109436184Y-96340372D01*
X109531422Y-96387991D01*
X109579041Y-96435610D01*
X109626660Y-96530848D01*
X109626660Y-96816562D01*
X109579041Y-96911800D01*
X109531422Y-96959420D01*
X108959994Y-96007039D02*
X109626660Y-95768943D01*
X108959994Y-95530848D01*
X108438700Y-88789331D02*
X108438700Y-88170283D01*
X108819653Y-88503617D01*
X108819653Y-88360760D01*
X108867272Y-88265521D01*
X108914891Y-88217902D01*
X109010129Y-88170283D01*
X109248224Y-88170283D01*
X109343462Y-88217902D01*
X109391081Y-88265521D01*
X109438700Y-88360760D01*
X109438700Y-88646474D01*
X109391081Y-88741712D01*
X109343462Y-88789331D01*
X109343462Y-87741712D02*
X109391081Y-87694093D01*
X109438700Y-87741712D01*
X109391081Y-87789331D01*
X109343462Y-87741712D01*
X109438700Y-87741712D01*
X108438700Y-87360760D02*
X108438700Y-86741712D01*
X108819653Y-87075045D01*
X108819653Y-86932188D01*
X108867272Y-86836950D01*
X108914891Y-86789331D01*
X109010129Y-86741712D01*
X109248224Y-86741712D01*
X109343462Y-86789331D01*
X109391081Y-86836950D01*
X109438700Y-86932188D01*
X109438700Y-87217902D01*
X109391081Y-87313140D01*
X109343462Y-87360760D01*
X108772034Y-86408379D02*
X109438700Y-86170283D01*
X108772034Y-85932188D01*
D13*
G04 #@! TO.C,C1*
X147157221Y-92962000D02*
X147482779Y-92962000D01*
X147157221Y-93982000D02*
X147482779Y-93982000D01*
G04 #@! TO.C,D1*
X142512000Y-92720000D02*
X142512000Y-93650000D01*
X142512000Y-95880000D02*
X142512000Y-94950000D01*
X142512000Y-95880000D02*
X144672000Y-95880000D01*
X142512000Y-92720000D02*
X143972000Y-92720000D01*
G04 #@! TO.C,R13*
X135045267Y-88898000D02*
X134702733Y-88898000D01*
X135045267Y-89918000D02*
X134702733Y-89918000D01*
G04 #@! TO.C,R9*
X124712000Y-97618733D02*
X124712000Y-97961267D01*
X125732000Y-97618733D02*
X125732000Y-97961267D01*
D11*
G04 #@! TO.C,U1*
X138465000Y-92921000D02*
X138415000Y-92921000D01*
X138465000Y-97071000D02*
X138320000Y-97071000D01*
X133315000Y-97071000D02*
X133460000Y-97071000D01*
X133315000Y-92921000D02*
X133460000Y-92921000D01*
X138465000Y-92921000D02*
X138465000Y-97071000D01*
X133315000Y-92921000D02*
X133315000Y-97071000D01*
X138415000Y-92921000D02*
X138415000Y-91521000D01*
D13*
G04 #@! TO.C,J2*
X125760000Y-112660000D02*
X125760000Y-106690000D01*
X125760000Y-106690000D02*
X115640000Y-106690000D01*
X115640000Y-106690000D02*
X115640000Y-112660000D01*
X115640000Y-112660000D02*
X125760000Y-112660000D01*
X122450000Y-112650000D02*
X122450000Y-111900000D01*
X122450000Y-111900000D02*
X118950000Y-111900000D01*
X118950000Y-111900000D02*
X118950000Y-112650000D01*
X118950000Y-112650000D02*
X122450000Y-112650000D01*
X125750000Y-112650000D02*
X125750000Y-111900000D01*
X125750000Y-111900000D02*
X123950000Y-111900000D01*
X123950000Y-111900000D02*
X123950000Y-112650000D01*
X123950000Y-112650000D02*
X125750000Y-112650000D01*
X117450000Y-112650000D02*
X117450000Y-111900000D01*
X117450000Y-111900000D02*
X115650000Y-111900000D01*
X115650000Y-111900000D02*
X115650000Y-112650000D01*
X115650000Y-112650000D02*
X117450000Y-112650000D01*
X125750000Y-110400000D02*
X125000000Y-110400000D01*
X125000000Y-110400000D02*
X125000000Y-107450000D01*
X125000000Y-107450000D02*
X120700000Y-107450000D01*
X115650000Y-110400000D02*
X116400000Y-110400000D01*
X116400000Y-110400000D02*
X116400000Y-107450000D01*
X116400000Y-107450000D02*
X120700000Y-107450000D01*
X124800000Y-112950000D02*
X126050000Y-112950000D01*
X126050000Y-112950000D02*
X126050000Y-111700000D01*
G04 #@! TO.C,C2*
X147254279Y-88898000D02*
X146928721Y-88898000D01*
X147254279Y-89918000D02*
X146928721Y-89918000D01*
G04 #@! TO.C,C3*
X121410000Y-91831279D02*
X121410000Y-91505721D01*
X122430000Y-91831279D02*
X122430000Y-91505721D01*
G04 #@! TO.C,C4*
X121410000Y-97601721D02*
X121410000Y-97927279D01*
X122430000Y-97601721D02*
X122430000Y-97927279D01*
G04 #@! TO.C,C5*
X140578721Y-98296000D02*
X140904279Y-98296000D01*
X140578721Y-99316000D02*
X140904279Y-99316000D01*
G04 #@! TO.C,D2*
X116339000Y-93416000D02*
X119199000Y-93416000D01*
X119199000Y-93416000D02*
X119199000Y-91496000D01*
X119199000Y-91496000D02*
X116339000Y-91496000D01*
G04 #@! TO.C,D3*
X119471000Y-95814000D02*
X116611000Y-95814000D01*
X119471000Y-97734000D02*
X119471000Y-95814000D01*
X116611000Y-97734000D02*
X119471000Y-97734000D01*
G04 #@! TO.C,D4*
X145558000Y-88082000D02*
X148418000Y-88082000D01*
X148418000Y-88082000D02*
X148418000Y-86162000D01*
X148418000Y-86162000D02*
X145558000Y-86162000D01*
G04 #@! TO.C,D5*
X148164000Y-102926000D02*
X145304000Y-102926000D01*
X148164000Y-104846000D02*
X148164000Y-102926000D01*
X145304000Y-104846000D02*
X148164000Y-104846000D01*
G04 #@! TO.C,R1*
X147237267Y-94994000D02*
X146894733Y-94994000D01*
X147237267Y-96014000D02*
X146894733Y-96014000D01*
G04 #@! TO.C,R2*
X147007733Y-96772000D02*
X147350267Y-96772000D01*
X147007733Y-97792000D02*
X147350267Y-97792000D01*
G04 #@! TO.C,R3*
X147378267Y-90930000D02*
X147035733Y-90930000D01*
X147378267Y-91950000D02*
X147035733Y-91950000D01*
G04 #@! TO.C,R4*
X116922733Y-86358000D02*
X117265267Y-86358000D01*
X116922733Y-87378000D02*
X117265267Y-87378000D01*
G04 #@! TO.C,R5*
X117378267Y-89918000D02*
X117035733Y-89918000D01*
X117378267Y-88898000D02*
X117035733Y-88898000D01*
G04 #@! TO.C,R6*
X117317733Y-99820000D02*
X117660267Y-99820000D01*
X117317733Y-100840000D02*
X117660267Y-100840000D01*
G04 #@! TO.C,R7*
X117289733Y-102360000D02*
X117632267Y-102360000D01*
X117289733Y-103380000D02*
X117632267Y-103380000D01*
G04 #@! TO.C,R8*
X125732000Y-91752267D02*
X125732000Y-91409733D01*
X124712000Y-91752267D02*
X124712000Y-91409733D01*
G04 #@! TO.C,R10*
X134081733Y-102360000D02*
X134424267Y-102360000D01*
X134081733Y-103380000D02*
X134424267Y-103380000D01*
G04 #@! TO.C,R11*
X134396267Y-99820000D02*
X134053733Y-99820000D01*
X134396267Y-100840000D02*
X134053733Y-100840000D01*
G04 #@! TO.C,R12*
X134561733Y-86866000D02*
X134904267Y-86866000D01*
X134561733Y-87886000D02*
X134904267Y-87886000D01*
G04 #@! TO.C,R14*
X137129733Y-104392000D02*
X137472267Y-104392000D01*
X137129733Y-105412000D02*
X137472267Y-105412000D01*
G04 #@! TO.C,R15*
X134815733Y-85854000D02*
X135158267Y-85854000D01*
X134815733Y-84834000D02*
X135158267Y-84834000D01*
G04 #@! TO.C,J3*
X110501120Y-85969800D02*
X111831120Y-85969800D01*
X110501120Y-87299800D02*
X110501120Y-85969800D01*
X110501120Y-88569800D02*
X113161120Y-88569800D01*
X113161120Y-88569800D02*
X113161120Y-93709800D01*
X110501120Y-88569800D02*
X110501120Y-93709800D01*
X110501120Y-93709800D02*
X113161120Y-93709800D01*
G04 #@! TO.C,J4*
X113090000Y-95698000D02*
X110430000Y-95698000D01*
X113090000Y-100838000D02*
X113090000Y-95698000D01*
X110430000Y-100838000D02*
X110430000Y-95698000D01*
X113090000Y-100838000D02*
X110430000Y-100838000D01*
X113090000Y-102108000D02*
X113090000Y-103438000D01*
X113090000Y-103438000D02*
X111760000Y-103438000D01*
G04 #@! TO.C,J5*
X135326000Y-77006000D02*
X135326000Y-78256000D01*
X136576000Y-77006000D02*
X135326000Y-77006000D01*
X147476000Y-82506000D02*
X141926000Y-82506000D01*
X147476000Y-79556000D02*
X147476000Y-82506000D01*
X148226000Y-79556000D02*
X147476000Y-79556000D01*
X136376000Y-82506000D02*
X141926000Y-82506000D01*
X136376000Y-79556000D02*
X136376000Y-82506000D01*
X135626000Y-79556000D02*
X136376000Y-79556000D01*
X148226000Y-77306000D02*
X146426000Y-77306000D01*
X148226000Y-78056000D02*
X148226000Y-77306000D01*
X146426000Y-78056000D02*
X148226000Y-78056000D01*
X146426000Y-77306000D02*
X146426000Y-78056000D01*
X137426000Y-77306000D02*
X135626000Y-77306000D01*
X137426000Y-78056000D02*
X137426000Y-77306000D01*
X135626000Y-78056000D02*
X137426000Y-78056000D01*
X135626000Y-77306000D02*
X135626000Y-78056000D01*
X144926000Y-77306000D02*
X138926000Y-77306000D01*
X144926000Y-78056000D02*
X144926000Y-77306000D01*
X138926000Y-78056000D02*
X144926000Y-78056000D01*
X138926000Y-77306000D02*
X138926000Y-78056000D01*
X148236000Y-77296000D02*
X135616000Y-77296000D01*
X148236000Y-83266000D02*
X148236000Y-77296000D01*
X135616000Y-83266000D02*
X148236000Y-83266000D01*
X135616000Y-77296000D02*
X135616000Y-83266000D01*
G04 #@! TO.C,J6*
X135616000Y-106760000D02*
X135616000Y-112730000D01*
X135616000Y-112730000D02*
X148236000Y-112730000D01*
X148236000Y-112730000D02*
X148236000Y-106760000D01*
X148236000Y-106760000D02*
X135616000Y-106760000D01*
X138926000Y-106770000D02*
X138926000Y-107520000D01*
X138926000Y-107520000D02*
X144926000Y-107520000D01*
X144926000Y-107520000D02*
X144926000Y-106770000D01*
X144926000Y-106770000D02*
X138926000Y-106770000D01*
X135626000Y-106770000D02*
X135626000Y-107520000D01*
X135626000Y-107520000D02*
X137426000Y-107520000D01*
X137426000Y-107520000D02*
X137426000Y-106770000D01*
X137426000Y-106770000D02*
X135626000Y-106770000D01*
X146426000Y-106770000D02*
X146426000Y-107520000D01*
X146426000Y-107520000D02*
X148226000Y-107520000D01*
X148226000Y-107520000D02*
X148226000Y-106770000D01*
X148226000Y-106770000D02*
X146426000Y-106770000D01*
X135626000Y-109020000D02*
X136376000Y-109020000D01*
X136376000Y-109020000D02*
X136376000Y-111970000D01*
X136376000Y-111970000D02*
X141926000Y-111970000D01*
X148226000Y-109020000D02*
X147476000Y-109020000D01*
X147476000Y-109020000D02*
X147476000Y-111970000D01*
X147476000Y-111970000D02*
X141926000Y-111970000D01*
X136576000Y-106470000D02*
X135326000Y-106470000D01*
X135326000Y-106470000D02*
X135326000Y-107720000D01*
G04 #@! TO.C,C1*
D11*
X149693333Y-94083142D02*
X149645714Y-94130761D01*
X149502857Y-94178380D01*
X149407619Y-94178380D01*
X149264761Y-94130761D01*
X149169523Y-94035523D01*
X149121904Y-93940285D01*
X149074285Y-93749809D01*
X149074285Y-93606952D01*
X149121904Y-93416476D01*
X149169523Y-93321238D01*
X149264761Y-93226000D01*
X149407619Y-93178380D01*
X149502857Y-93178380D01*
X149645714Y-93226000D01*
X149693333Y-93273619D01*
X150645714Y-94178380D02*
X150074285Y-94178380D01*
X150360000Y-94178380D02*
X150360000Y-93178380D01*
X150264761Y-93321238D01*
X150169523Y-93416476D01*
X150074285Y-93464095D01*
G04 #@! TO.C,D1*
X142533904Y-97252380D02*
X142533904Y-96252380D01*
X142772000Y-96252380D01*
X142914857Y-96300000D01*
X143010095Y-96395238D01*
X143057714Y-96490476D01*
X143105333Y-96680952D01*
X143105333Y-96823809D01*
X143057714Y-97014285D01*
X143010095Y-97109523D01*
X142914857Y-97204761D01*
X142772000Y-97252380D01*
X142533904Y-97252380D01*
X144057714Y-97252380D02*
X143486285Y-97252380D01*
X143772000Y-97252380D02*
X143772000Y-96252380D01*
X143676761Y-96395238D01*
X143581523Y-96490476D01*
X143486285Y-96538095D01*
G04 #@! TO.C,R13*
X134231142Y-91290380D02*
X133897809Y-90814190D01*
X133659714Y-91290380D02*
X133659714Y-90290380D01*
X134040666Y-90290380D01*
X134135904Y-90338000D01*
X134183523Y-90385619D01*
X134231142Y-90480857D01*
X134231142Y-90623714D01*
X134183523Y-90718952D01*
X134135904Y-90766571D01*
X134040666Y-90814190D01*
X133659714Y-90814190D01*
X135183523Y-91290380D02*
X134612095Y-91290380D01*
X134897809Y-91290380D02*
X134897809Y-90290380D01*
X134802571Y-90433238D01*
X134707333Y-90528476D01*
X134612095Y-90576095D01*
X135516857Y-90290380D02*
X136135904Y-90290380D01*
X135802571Y-90671333D01*
X135945428Y-90671333D01*
X136040666Y-90718952D01*
X136088285Y-90766571D01*
X136135904Y-90861809D01*
X136135904Y-91099904D01*
X136088285Y-91195142D01*
X136040666Y-91242761D01*
X135945428Y-91290380D01*
X135659714Y-91290380D01*
X135564476Y-91242761D01*
X135516857Y-91195142D01*
G04 #@! TO.C,R9*
X127104380Y-97956666D02*
X126628190Y-98290000D01*
X127104380Y-98528095D02*
X126104380Y-98528095D01*
X126104380Y-98147142D01*
X126152000Y-98051904D01*
X126199619Y-98004285D01*
X126294857Y-97956666D01*
X126437714Y-97956666D01*
X126532952Y-98004285D01*
X126580571Y-98051904D01*
X126628190Y-98147142D01*
X126628190Y-98528095D01*
X127104380Y-97480476D02*
X127104380Y-97290000D01*
X127056761Y-97194761D01*
X127009142Y-97147142D01*
X126866285Y-97051904D01*
X126675809Y-97004285D01*
X126294857Y-97004285D01*
X126199619Y-97051904D01*
X126152000Y-97099523D01*
X126104380Y-97194761D01*
X126104380Y-97385238D01*
X126152000Y-97480476D01*
X126199619Y-97528095D01*
X126294857Y-97575714D01*
X126532952Y-97575714D01*
X126628190Y-97528095D01*
X126675809Y-97480476D01*
X126723428Y-97385238D01*
X126723428Y-97194761D01*
X126675809Y-97099523D01*
X126628190Y-97051904D01*
X126532952Y-97004285D01*
G04 #@! TO.C,U1*
X138842380Y-95757904D02*
X139651904Y-95757904D01*
X139747142Y-95710285D01*
X139794761Y-95662666D01*
X139842380Y-95567428D01*
X139842380Y-95376952D01*
X139794761Y-95281714D01*
X139747142Y-95234095D01*
X139651904Y-95186476D01*
X138842380Y-95186476D01*
X139842380Y-94186476D02*
X139842380Y-94757904D01*
X139842380Y-94472190D02*
X138842380Y-94472190D01*
X138985238Y-94567428D01*
X139080476Y-94662666D01*
X139128095Y-94757904D01*
G04 #@! TO.C,J2*
X123766666Y-107602380D02*
X123766666Y-108316666D01*
X123719047Y-108459523D01*
X123623809Y-108554761D01*
X123480952Y-108602380D01*
X123385714Y-108602380D01*
X124195238Y-107697619D02*
X124242857Y-107650000D01*
X124338095Y-107602380D01*
X124576190Y-107602380D01*
X124671428Y-107650000D01*
X124719047Y-107697619D01*
X124766666Y-107792857D01*
X124766666Y-107888095D01*
X124719047Y-108030952D01*
X124147619Y-108602380D01*
X124766666Y-108602380D01*
G04 #@! TO.C,C2*
X146924833Y-91195142D02*
X146877214Y-91242761D01*
X146734357Y-91290380D01*
X146639119Y-91290380D01*
X146496261Y-91242761D01*
X146401023Y-91147523D01*
X146353404Y-91052285D01*
X146305785Y-90861809D01*
X146305785Y-90718952D01*
X146353404Y-90528476D01*
X146401023Y-90433238D01*
X146496261Y-90338000D01*
X146639119Y-90290380D01*
X146734357Y-90290380D01*
X146877214Y-90338000D01*
X146924833Y-90385619D01*
X147305785Y-90385619D02*
X147353404Y-90338000D01*
X147448642Y-90290380D01*
X147686738Y-90290380D01*
X147781976Y-90338000D01*
X147829595Y-90385619D01*
X147877214Y-90480857D01*
X147877214Y-90576095D01*
X147829595Y-90718952D01*
X147258166Y-91290380D01*
X147877214Y-91290380D01*
G04 #@! TO.C,C3*
X120847142Y-91835166D02*
X120894761Y-91882785D01*
X120942380Y-92025642D01*
X120942380Y-92120880D01*
X120894761Y-92263738D01*
X120799523Y-92358976D01*
X120704285Y-92406595D01*
X120513809Y-92454214D01*
X120370952Y-92454214D01*
X120180476Y-92406595D01*
X120085238Y-92358976D01*
X119990000Y-92263738D01*
X119942380Y-92120880D01*
X119942380Y-92025642D01*
X119990000Y-91882785D01*
X120037619Y-91835166D01*
X119942380Y-91501833D02*
X119942380Y-90882785D01*
X120323333Y-91216119D01*
X120323333Y-91073261D01*
X120370952Y-90978023D01*
X120418571Y-90930404D01*
X120513809Y-90882785D01*
X120751904Y-90882785D01*
X120847142Y-90930404D01*
X120894761Y-90978023D01*
X120942380Y-91073261D01*
X120942380Y-91358976D01*
X120894761Y-91454214D01*
X120847142Y-91501833D01*
G04 #@! TO.C,C4*
X123707142Y-97931166D02*
X123754761Y-97978785D01*
X123802380Y-98121642D01*
X123802380Y-98216880D01*
X123754761Y-98359738D01*
X123659523Y-98454976D01*
X123564285Y-98502595D01*
X123373809Y-98550214D01*
X123230952Y-98550214D01*
X123040476Y-98502595D01*
X122945238Y-98454976D01*
X122850000Y-98359738D01*
X122802380Y-98216880D01*
X122802380Y-98121642D01*
X122850000Y-97978785D01*
X122897619Y-97931166D01*
X123135714Y-97074023D02*
X123802380Y-97074023D01*
X122754761Y-97312119D02*
X123469047Y-97550214D01*
X123469047Y-96931166D01*
G04 #@! TO.C,C5*
X140574833Y-97733142D02*
X140527214Y-97780761D01*
X140384357Y-97828380D01*
X140289119Y-97828380D01*
X140146261Y-97780761D01*
X140051023Y-97685523D01*
X140003404Y-97590285D01*
X139955785Y-97399809D01*
X139955785Y-97256952D01*
X140003404Y-97066476D01*
X140051023Y-96971238D01*
X140146261Y-96876000D01*
X140289119Y-96828380D01*
X140384357Y-96828380D01*
X140527214Y-96876000D01*
X140574833Y-96923619D01*
X141479595Y-96828380D02*
X141003404Y-96828380D01*
X140955785Y-97304571D01*
X141003404Y-97256952D01*
X141098642Y-97209333D01*
X141336738Y-97209333D01*
X141431976Y-97256952D01*
X141479595Y-97304571D01*
X141527214Y-97399809D01*
X141527214Y-97637904D01*
X141479595Y-97733142D01*
X141431976Y-97780761D01*
X141336738Y-97828380D01*
X141098642Y-97828380D01*
X141003404Y-97780761D01*
X140955785Y-97733142D01*
G04 #@! TO.C,D2*
X116600904Y-94558380D02*
X116600904Y-93558380D01*
X116839000Y-93558380D01*
X116981857Y-93606000D01*
X117077095Y-93701238D01*
X117124714Y-93796476D01*
X117172333Y-93986952D01*
X117172333Y-94129809D01*
X117124714Y-94320285D01*
X117077095Y-94415523D01*
X116981857Y-94510761D01*
X116839000Y-94558380D01*
X116600904Y-94558380D01*
X117553285Y-93653619D02*
X117600904Y-93606000D01*
X117696142Y-93558380D01*
X117934238Y-93558380D01*
X118029476Y-93606000D01*
X118077095Y-93653619D01*
X118124714Y-93748857D01*
X118124714Y-93844095D01*
X118077095Y-93986952D01*
X117505666Y-94558380D01*
X118124714Y-94558380D01*
G04 #@! TO.C,D3*
X116872904Y-98876380D02*
X116872904Y-97876380D01*
X117111000Y-97876380D01*
X117253857Y-97924000D01*
X117349095Y-98019238D01*
X117396714Y-98114476D01*
X117444333Y-98304952D01*
X117444333Y-98447809D01*
X117396714Y-98638285D01*
X117349095Y-98733523D01*
X117253857Y-98828761D01*
X117111000Y-98876380D01*
X116872904Y-98876380D01*
X117777666Y-97876380D02*
X118396714Y-97876380D01*
X118063380Y-98257333D01*
X118206238Y-98257333D01*
X118301476Y-98304952D01*
X118349095Y-98352571D01*
X118396714Y-98447809D01*
X118396714Y-98685904D01*
X118349095Y-98781142D01*
X118301476Y-98828761D01*
X118206238Y-98876380D01*
X117920523Y-98876380D01*
X117825285Y-98828761D01*
X117777666Y-98781142D01*
G04 #@! TO.C,D4*
X145819904Y-89224380D02*
X145819904Y-88224380D01*
X146058000Y-88224380D01*
X146200857Y-88272000D01*
X146296095Y-88367238D01*
X146343714Y-88462476D01*
X146391333Y-88652952D01*
X146391333Y-88795809D01*
X146343714Y-88986285D01*
X146296095Y-89081523D01*
X146200857Y-89176761D01*
X146058000Y-89224380D01*
X145819904Y-89224380D01*
X147248476Y-88557714D02*
X147248476Y-89224380D01*
X147010380Y-88176761D02*
X146772285Y-88891047D01*
X147391333Y-88891047D01*
G04 #@! TO.C,D5*
X148867904Y-104338380D02*
X148867904Y-103338380D01*
X149106000Y-103338380D01*
X149248857Y-103386000D01*
X149344095Y-103481238D01*
X149391714Y-103576476D01*
X149439333Y-103766952D01*
X149439333Y-103909809D01*
X149391714Y-104100285D01*
X149344095Y-104195523D01*
X149248857Y-104290761D01*
X149106000Y-104338380D01*
X148867904Y-104338380D01*
X150344095Y-103338380D02*
X149867904Y-103338380D01*
X149820285Y-103814571D01*
X149867904Y-103766952D01*
X149963142Y-103719333D01*
X150201238Y-103719333D01*
X150296476Y-103766952D01*
X150344095Y-103814571D01*
X150391714Y-103909809D01*
X150391714Y-104147904D01*
X150344095Y-104243142D01*
X150296476Y-104290761D01*
X150201238Y-104338380D01*
X149963142Y-104338380D01*
X149867904Y-104290761D01*
X149820285Y-104243142D01*
G04 #@! TO.C,R1*
X144105333Y-95956380D02*
X143772000Y-95480190D01*
X143533904Y-95956380D02*
X143533904Y-94956380D01*
X143914857Y-94956380D01*
X144010095Y-95004000D01*
X144057714Y-95051619D01*
X144105333Y-95146857D01*
X144105333Y-95289714D01*
X144057714Y-95384952D01*
X144010095Y-95432571D01*
X143914857Y-95480190D01*
X143533904Y-95480190D01*
X145057714Y-95956380D02*
X144486285Y-95956380D01*
X144772000Y-95956380D02*
X144772000Y-94956380D01*
X144676761Y-95099238D01*
X144581523Y-95194476D01*
X144486285Y-95242095D01*
G04 #@! TO.C,R2*
X149806333Y-97734380D02*
X149473000Y-97258190D01*
X149234904Y-97734380D02*
X149234904Y-96734380D01*
X149615857Y-96734380D01*
X149711095Y-96782000D01*
X149758714Y-96829619D01*
X149806333Y-96924857D01*
X149806333Y-97067714D01*
X149758714Y-97162952D01*
X149711095Y-97210571D01*
X149615857Y-97258190D01*
X149234904Y-97258190D01*
X150187285Y-96829619D02*
X150234904Y-96782000D01*
X150330142Y-96734380D01*
X150568238Y-96734380D01*
X150663476Y-96782000D01*
X150711095Y-96829619D01*
X150758714Y-96924857D01*
X150758714Y-97020095D01*
X150711095Y-97162952D01*
X150139666Y-97734380D01*
X150758714Y-97734380D01*
G04 #@! TO.C,R3*
X149834333Y-91892380D02*
X149501000Y-91416190D01*
X149262904Y-91892380D02*
X149262904Y-90892380D01*
X149643857Y-90892380D01*
X149739095Y-90940000D01*
X149786714Y-90987619D01*
X149834333Y-91082857D01*
X149834333Y-91225714D01*
X149786714Y-91320952D01*
X149739095Y-91368571D01*
X149643857Y-91416190D01*
X149262904Y-91416190D01*
X150167666Y-90892380D02*
X150786714Y-90892380D01*
X150453380Y-91273333D01*
X150596238Y-91273333D01*
X150691476Y-91320952D01*
X150739095Y-91368571D01*
X150786714Y-91463809D01*
X150786714Y-91701904D01*
X150739095Y-91797142D01*
X150691476Y-91844761D01*
X150596238Y-91892380D01*
X150310523Y-91892380D01*
X150215285Y-91844761D01*
X150167666Y-91797142D01*
G04 #@! TO.C,R4*
X116927333Y-85890380D02*
X116594000Y-85414190D01*
X116355904Y-85890380D02*
X116355904Y-84890380D01*
X116736857Y-84890380D01*
X116832095Y-84938000D01*
X116879714Y-84985619D01*
X116927333Y-85080857D01*
X116927333Y-85223714D01*
X116879714Y-85318952D01*
X116832095Y-85366571D01*
X116736857Y-85414190D01*
X116355904Y-85414190D01*
X117784476Y-85223714D02*
X117784476Y-85890380D01*
X117546380Y-84842761D02*
X117308285Y-85557047D01*
X117927333Y-85557047D01*
G04 #@! TO.C,R5*
X117040333Y-91290380D02*
X116707000Y-90814190D01*
X116468904Y-91290380D02*
X116468904Y-90290380D01*
X116849857Y-90290380D01*
X116945095Y-90338000D01*
X116992714Y-90385619D01*
X117040333Y-90480857D01*
X117040333Y-90623714D01*
X116992714Y-90718952D01*
X116945095Y-90766571D01*
X116849857Y-90814190D01*
X116468904Y-90814190D01*
X117945095Y-90290380D02*
X117468904Y-90290380D01*
X117421285Y-90766571D01*
X117468904Y-90718952D01*
X117564142Y-90671333D01*
X117802238Y-90671333D01*
X117897476Y-90718952D01*
X117945095Y-90766571D01*
X117992714Y-90861809D01*
X117992714Y-91099904D01*
X117945095Y-91195142D01*
X117897476Y-91242761D01*
X117802238Y-91290380D01*
X117564142Y-91290380D01*
X117468904Y-91242761D01*
X117421285Y-91195142D01*
G04 #@! TO.C,R6*
X117322333Y-99352380D02*
X116989000Y-98876190D01*
X116750904Y-99352380D02*
X116750904Y-98352380D01*
X117131857Y-98352380D01*
X117227095Y-98400000D01*
X117274714Y-98447619D01*
X117322333Y-98542857D01*
X117322333Y-98685714D01*
X117274714Y-98780952D01*
X117227095Y-98828571D01*
X117131857Y-98876190D01*
X116750904Y-98876190D01*
X118179476Y-98352380D02*
X117989000Y-98352380D01*
X117893761Y-98400000D01*
X117846142Y-98447619D01*
X117750904Y-98590476D01*
X117703285Y-98780952D01*
X117703285Y-99161904D01*
X117750904Y-99257142D01*
X117798523Y-99304761D01*
X117893761Y-99352380D01*
X118084238Y-99352380D01*
X118179476Y-99304761D01*
X118227095Y-99257142D01*
X118274714Y-99161904D01*
X118274714Y-98923809D01*
X118227095Y-98828571D01*
X118179476Y-98780952D01*
X118084238Y-98733333D01*
X117893761Y-98733333D01*
X117798523Y-98780952D01*
X117750904Y-98828571D01*
X117703285Y-98923809D01*
G04 #@! TO.C,R7*
X117294333Y-101892380D02*
X116961000Y-101416190D01*
X116722904Y-101892380D02*
X116722904Y-100892380D01*
X117103857Y-100892380D01*
X117199095Y-100940000D01*
X117246714Y-100987619D01*
X117294333Y-101082857D01*
X117294333Y-101225714D01*
X117246714Y-101320952D01*
X117199095Y-101368571D01*
X117103857Y-101416190D01*
X116722904Y-101416190D01*
X117627666Y-100892380D02*
X118294333Y-100892380D01*
X117865761Y-101892380D01*
G04 #@! TO.C,R8*
X124244380Y-91747666D02*
X123768190Y-92081000D01*
X124244380Y-92319095D02*
X123244380Y-92319095D01*
X123244380Y-91938142D01*
X123292000Y-91842904D01*
X123339619Y-91795285D01*
X123434857Y-91747666D01*
X123577714Y-91747666D01*
X123672952Y-91795285D01*
X123720571Y-91842904D01*
X123768190Y-91938142D01*
X123768190Y-92319095D01*
X123672952Y-91176238D02*
X123625333Y-91271476D01*
X123577714Y-91319095D01*
X123482476Y-91366714D01*
X123434857Y-91366714D01*
X123339619Y-91319095D01*
X123292000Y-91271476D01*
X123244380Y-91176238D01*
X123244380Y-90985761D01*
X123292000Y-90890523D01*
X123339619Y-90842904D01*
X123434857Y-90795285D01*
X123482476Y-90795285D01*
X123577714Y-90842904D01*
X123625333Y-90890523D01*
X123672952Y-90985761D01*
X123672952Y-91176238D01*
X123720571Y-91271476D01*
X123768190Y-91319095D01*
X123863428Y-91366714D01*
X124053904Y-91366714D01*
X124149142Y-91319095D01*
X124196761Y-91271476D01*
X124244380Y-91176238D01*
X124244380Y-90985761D01*
X124196761Y-90890523D01*
X124149142Y-90842904D01*
X124053904Y-90795285D01*
X123863428Y-90795285D01*
X123768190Y-90842904D01*
X123720571Y-90890523D01*
X123672952Y-90985761D01*
G04 #@! TO.C,R10*
X133610142Y-101892380D02*
X133276809Y-101416190D01*
X133038714Y-101892380D02*
X133038714Y-100892380D01*
X133419666Y-100892380D01*
X133514904Y-100940000D01*
X133562523Y-100987619D01*
X133610142Y-101082857D01*
X133610142Y-101225714D01*
X133562523Y-101320952D01*
X133514904Y-101368571D01*
X133419666Y-101416190D01*
X133038714Y-101416190D01*
X134562523Y-101892380D02*
X133991095Y-101892380D01*
X134276809Y-101892380D02*
X134276809Y-100892380D01*
X134181571Y-101035238D01*
X134086333Y-101130476D01*
X133991095Y-101178095D01*
X135181571Y-100892380D02*
X135276809Y-100892380D01*
X135372047Y-100940000D01*
X135419666Y-100987619D01*
X135467285Y-101082857D01*
X135514904Y-101273333D01*
X135514904Y-101511428D01*
X135467285Y-101701904D01*
X135419666Y-101797142D01*
X135372047Y-101844761D01*
X135276809Y-101892380D01*
X135181571Y-101892380D01*
X135086333Y-101844761D01*
X135038714Y-101797142D01*
X134991095Y-101701904D01*
X134943476Y-101511428D01*
X134943476Y-101273333D01*
X134991095Y-101082857D01*
X135038714Y-100987619D01*
X135086333Y-100940000D01*
X135181571Y-100892380D01*
G04 #@! TO.C,R11*
X133582142Y-102212380D02*
X133248809Y-101736190D01*
X133010714Y-102212380D02*
X133010714Y-101212380D01*
X133391666Y-101212380D01*
X133486904Y-101260000D01*
X133534523Y-101307619D01*
X133582142Y-101402857D01*
X133582142Y-101545714D01*
X133534523Y-101640952D01*
X133486904Y-101688571D01*
X133391666Y-101736190D01*
X133010714Y-101736190D01*
X134534523Y-102212380D02*
X133963095Y-102212380D01*
X134248809Y-102212380D02*
X134248809Y-101212380D01*
X134153571Y-101355238D01*
X134058333Y-101450476D01*
X133963095Y-101498095D01*
X135486904Y-102212380D02*
X134915476Y-102212380D01*
X135201190Y-102212380D02*
X135201190Y-101212380D01*
X135105952Y-101355238D01*
X135010714Y-101450476D01*
X134915476Y-101498095D01*
G04 #@! TO.C,R12*
X134090142Y-86398380D02*
X133756809Y-85922190D01*
X133518714Y-86398380D02*
X133518714Y-85398380D01*
X133899666Y-85398380D01*
X133994904Y-85446000D01*
X134042523Y-85493619D01*
X134090142Y-85588857D01*
X134090142Y-85731714D01*
X134042523Y-85826952D01*
X133994904Y-85874571D01*
X133899666Y-85922190D01*
X133518714Y-85922190D01*
X135042523Y-86398380D02*
X134471095Y-86398380D01*
X134756809Y-86398380D02*
X134756809Y-85398380D01*
X134661571Y-85541238D01*
X134566333Y-85636476D01*
X134471095Y-85684095D01*
X135423476Y-85493619D02*
X135471095Y-85446000D01*
X135566333Y-85398380D01*
X135804428Y-85398380D01*
X135899666Y-85446000D01*
X135947285Y-85493619D01*
X135994904Y-85588857D01*
X135994904Y-85684095D01*
X135947285Y-85826952D01*
X135375857Y-86398380D01*
X135994904Y-86398380D01*
G04 #@! TO.C,R14*
X133469142Y-105354380D02*
X133135809Y-104878190D01*
X132897714Y-105354380D02*
X132897714Y-104354380D01*
X133278666Y-104354380D01*
X133373904Y-104402000D01*
X133421523Y-104449619D01*
X133469142Y-104544857D01*
X133469142Y-104687714D01*
X133421523Y-104782952D01*
X133373904Y-104830571D01*
X133278666Y-104878190D01*
X132897714Y-104878190D01*
X134421523Y-105354380D02*
X133850095Y-105354380D01*
X134135809Y-105354380D02*
X134135809Y-104354380D01*
X134040571Y-104497238D01*
X133945333Y-104592476D01*
X133850095Y-104640095D01*
X135278666Y-104687714D02*
X135278666Y-105354380D01*
X135040571Y-104306761D02*
X134802476Y-105021047D01*
X135421523Y-105021047D01*
G04 #@! TO.C,R15*
X134344142Y-84366380D02*
X134010809Y-83890190D01*
X133772714Y-84366380D02*
X133772714Y-83366380D01*
X134153666Y-83366380D01*
X134248904Y-83414000D01*
X134296523Y-83461619D01*
X134344142Y-83556857D01*
X134344142Y-83699714D01*
X134296523Y-83794952D01*
X134248904Y-83842571D01*
X134153666Y-83890190D01*
X133772714Y-83890190D01*
X135296523Y-84366380D02*
X134725095Y-84366380D01*
X135010809Y-84366380D02*
X135010809Y-83366380D01*
X134915571Y-83509238D01*
X134820333Y-83604476D01*
X134725095Y-83652095D01*
X136201285Y-83366380D02*
X135725095Y-83366380D01*
X135677476Y-83842571D01*
X135725095Y-83794952D01*
X135820333Y-83747333D01*
X136058428Y-83747333D01*
X136153666Y-83794952D01*
X136201285Y-83842571D01*
X136248904Y-83937809D01*
X136248904Y-84175904D01*
X136201285Y-84271142D01*
X136153666Y-84318761D01*
X136058428Y-84366380D01*
X135820333Y-84366380D01*
X135725095Y-84318761D01*
X135677476Y-84271142D01*
G04 #@! TO.C,J3*
X111497786Y-84422180D02*
X111497786Y-85136466D01*
X111450167Y-85279323D01*
X111354929Y-85374561D01*
X111212072Y-85422180D01*
X111116834Y-85422180D01*
X111878739Y-84422180D02*
X112497786Y-84422180D01*
X112164453Y-84803133D01*
X112307310Y-84803133D01*
X112402548Y-84850752D01*
X112450167Y-84898371D01*
X112497786Y-84993609D01*
X112497786Y-85231704D01*
X112450167Y-85326942D01*
X112402548Y-85374561D01*
X112307310Y-85422180D01*
X112021596Y-85422180D01*
X111926358Y-85374561D01*
X111878739Y-85326942D01*
G04 #@! TO.C,J4*
X111426666Y-103890380D02*
X111426666Y-104604666D01*
X111379047Y-104747523D01*
X111283809Y-104842761D01*
X111140952Y-104890380D01*
X111045714Y-104890380D01*
X112331428Y-104223714D02*
X112331428Y-104890380D01*
X112093333Y-103842761D02*
X111855238Y-104557047D01*
X112474285Y-104557047D01*
G04 #@! TO.C,J5*
X141592666Y-75658380D02*
X141592666Y-76372666D01*
X141545047Y-76515523D01*
X141449809Y-76610761D01*
X141306952Y-76658380D01*
X141211714Y-76658380D01*
X142545047Y-75658380D02*
X142068857Y-75658380D01*
X142021238Y-76134571D01*
X142068857Y-76086952D01*
X142164095Y-76039333D01*
X142402190Y-76039333D01*
X142497428Y-76086952D01*
X142545047Y-76134571D01*
X142592666Y-76229809D01*
X142592666Y-76467904D01*
X142545047Y-76563142D01*
X142497428Y-76610761D01*
X142402190Y-76658380D01*
X142164095Y-76658380D01*
X142068857Y-76610761D01*
X142021238Y-76563142D01*
G04 #@! TO.C,J6*
X141592666Y-105122380D02*
X141592666Y-105836666D01*
X141545047Y-105979523D01*
X141449809Y-106074761D01*
X141306952Y-106122380D01*
X141211714Y-106122380D01*
X142497428Y-105122380D02*
X142306952Y-105122380D01*
X142211714Y-105170000D01*
X142164095Y-105217619D01*
X142068857Y-105360476D01*
X142021238Y-105550952D01*
X142021238Y-105931904D01*
X142068857Y-106027142D01*
X142116476Y-106074761D01*
X142211714Y-106122380D01*
X142402190Y-106122380D01*
X142497428Y-106074761D01*
X142545047Y-106027142D01*
X142592666Y-105931904D01*
X142592666Y-105693809D01*
X142545047Y-105598571D01*
X142497428Y-105550952D01*
X142402190Y-105503333D01*
X142211714Y-105503333D01*
X142116476Y-105550952D01*
X142068857Y-105598571D01*
X142021238Y-105693809D01*
G04 #@! TD*
M02*
