G04 #@! TF.GenerationSoftware,KiCad,Pcbnew,(5.0.1)-3*
G04 #@! TF.CreationDate,2020-03-15T12:24:32-04:00*
G04 #@! TF.ProjectId,viparspectra-adapter,7669706172737065637472612D616461,rev?*
G04 #@! TF.SameCoordinates,Original*
G04 #@! TF.FileFunction,Soldermask,Bot*
G04 #@! TF.FilePolarity,Negative*
%FSLAX46Y46*%
G04 Gerber Fmt 4.6, Leading zero omitted, Abs format (unit mm)*
G04 Created by KiCad (PCBNEW (5.0.1)-3) date 3/15/2020 12:24:32 PM*
%MOMM*%
%LPD*%
G01*
G04 APERTURE LIST*
%ADD10C,0.100000*%
G04 APERTURE END LIST*
D10*
G36*
X154045256Y-108627298D02*
X154151579Y-108648447D01*
X154452042Y-108772903D01*
X154669753Y-108918373D01*
X154722454Y-108953587D01*
X154952413Y-109183546D01*
X154952415Y-109183549D01*
X155133097Y-109453958D01*
X155246830Y-109728533D01*
X155257553Y-109754422D01*
X155321000Y-110073389D01*
X155321000Y-110398611D01*
X155278702Y-110611256D01*
X155257553Y-110717579D01*
X155133097Y-111018042D01*
X154991231Y-111230359D01*
X154952413Y-111288454D01*
X154722454Y-111518413D01*
X154722451Y-111518415D01*
X154452042Y-111699097D01*
X154151579Y-111823553D01*
X154045256Y-111844702D01*
X153832611Y-111887000D01*
X153507389Y-111887000D01*
X153294744Y-111844702D01*
X153188421Y-111823553D01*
X152887958Y-111699097D01*
X152617549Y-111518415D01*
X152617546Y-111518413D01*
X152387587Y-111288454D01*
X152348769Y-111230359D01*
X152206903Y-111018042D01*
X152082447Y-110717579D01*
X152061298Y-110611256D01*
X152019000Y-110398611D01*
X152019000Y-110073389D01*
X152082447Y-109754422D01*
X152093171Y-109728533D01*
X152206903Y-109453958D01*
X152387585Y-109183549D01*
X152387587Y-109183546D01*
X152617546Y-108953587D01*
X152670247Y-108918373D01*
X152887958Y-108772903D01*
X153188421Y-108648447D01*
X153294744Y-108627298D01*
X153507389Y-108585000D01*
X153832611Y-108585000D01*
X154045256Y-108627298D01*
X154045256Y-108627298D01*
G37*
G36*
X110611256Y-108627298D02*
X110717579Y-108648447D01*
X111018042Y-108772903D01*
X111235753Y-108918373D01*
X111288454Y-108953587D01*
X111518413Y-109183546D01*
X111518415Y-109183549D01*
X111699097Y-109453958D01*
X111812830Y-109728533D01*
X111823553Y-109754422D01*
X111887000Y-110073389D01*
X111887000Y-110398611D01*
X111844702Y-110611256D01*
X111823553Y-110717579D01*
X111699097Y-111018042D01*
X111557231Y-111230359D01*
X111518413Y-111288454D01*
X111288454Y-111518413D01*
X111288451Y-111518415D01*
X111018042Y-111699097D01*
X110717579Y-111823553D01*
X110611256Y-111844702D01*
X110398611Y-111887000D01*
X110073389Y-111887000D01*
X109860744Y-111844702D01*
X109754421Y-111823553D01*
X109453958Y-111699097D01*
X109183549Y-111518415D01*
X109183546Y-111518413D01*
X108953587Y-111288454D01*
X108914769Y-111230359D01*
X108772903Y-111018042D01*
X108648447Y-110717579D01*
X108627298Y-110611256D01*
X108585000Y-110398611D01*
X108585000Y-110073389D01*
X108648447Y-109754422D01*
X108659171Y-109728533D01*
X108772903Y-109453958D01*
X108953585Y-109183549D01*
X108953587Y-109183546D01*
X109183546Y-108953587D01*
X109236247Y-108918373D01*
X109453958Y-108772903D01*
X109754421Y-108648447D01*
X109860744Y-108627298D01*
X110073389Y-108585000D01*
X110398611Y-108585000D01*
X110611256Y-108627298D01*
X110611256Y-108627298D01*
G37*
G36*
X120876627Y-109187037D02*
X120989853Y-109221384D01*
X121046467Y-109238557D01*
X121185087Y-109312652D01*
X121202991Y-109322222D01*
X121238729Y-109351552D01*
X121340186Y-109434814D01*
X121423448Y-109536271D01*
X121452778Y-109572009D01*
X121536443Y-109728534D01*
X121587963Y-109898374D01*
X121601000Y-110030743D01*
X121601000Y-110369258D01*
X121587963Y-110501627D01*
X121553616Y-110614853D01*
X121536443Y-110671467D01*
X121511795Y-110717579D01*
X121452778Y-110827991D01*
X121423448Y-110863729D01*
X121340186Y-110965186D01*
X121202989Y-111077779D01*
X121046466Y-111161443D01*
X121005733Y-111173799D01*
X120876626Y-111212963D01*
X120700000Y-111230359D01*
X120523373Y-111212963D01*
X120394266Y-111173799D01*
X120353533Y-111161443D01*
X120197011Y-111077779D01*
X120197009Y-111077778D01*
X120154749Y-111043096D01*
X120059814Y-110965186D01*
X119947221Y-110827989D01*
X119863557Y-110671466D01*
X119846384Y-110614852D01*
X119812037Y-110501626D01*
X119799000Y-110369257D01*
X119799000Y-110030742D01*
X119812037Y-109898373D01*
X119863557Y-109728534D01*
X119863557Y-109728533D01*
X119947222Y-109572008D01*
X120059812Y-109434817D01*
X120154750Y-109356904D01*
X120197010Y-109322222D01*
X120214914Y-109312652D01*
X120353534Y-109238557D01*
X120410148Y-109221384D01*
X120523374Y-109187037D01*
X120700000Y-109169641D01*
X120876627Y-109187037D01*
X120876627Y-109187037D01*
G37*
G36*
X118376627Y-109187037D02*
X118489853Y-109221384D01*
X118546467Y-109238557D01*
X118685087Y-109312652D01*
X118702991Y-109322222D01*
X118738729Y-109351552D01*
X118840186Y-109434814D01*
X118923448Y-109536271D01*
X118952778Y-109572009D01*
X119036443Y-109728534D01*
X119087963Y-109898374D01*
X119101000Y-110030743D01*
X119101000Y-110369258D01*
X119087963Y-110501627D01*
X119053616Y-110614853D01*
X119036443Y-110671467D01*
X119011795Y-110717579D01*
X118952778Y-110827991D01*
X118923448Y-110863729D01*
X118840186Y-110965186D01*
X118702989Y-111077779D01*
X118546466Y-111161443D01*
X118505733Y-111173799D01*
X118376626Y-111212963D01*
X118200000Y-111230359D01*
X118023373Y-111212963D01*
X117894266Y-111173799D01*
X117853533Y-111161443D01*
X117697011Y-111077779D01*
X117697009Y-111077778D01*
X117654749Y-111043096D01*
X117559814Y-110965186D01*
X117447221Y-110827989D01*
X117363557Y-110671466D01*
X117346384Y-110614852D01*
X117312037Y-110501626D01*
X117299000Y-110369257D01*
X117299000Y-110030742D01*
X117312037Y-109898373D01*
X117363557Y-109728534D01*
X117363557Y-109728533D01*
X117447222Y-109572008D01*
X117559812Y-109434817D01*
X117654750Y-109356904D01*
X117697010Y-109322222D01*
X117714914Y-109312652D01*
X117853534Y-109238557D01*
X117910148Y-109221384D01*
X118023374Y-109187037D01*
X118200000Y-109169641D01*
X118376627Y-109187037D01*
X118376627Y-109187037D01*
G37*
G36*
X123958600Y-109177989D02*
X123991649Y-109188014D01*
X124022106Y-109204294D01*
X124048799Y-109226201D01*
X124070706Y-109252894D01*
X124086986Y-109283351D01*
X124097011Y-109316400D01*
X124101000Y-109356904D01*
X124101000Y-111043096D01*
X124097011Y-111083600D01*
X124086986Y-111116649D01*
X124070706Y-111147106D01*
X124048799Y-111173799D01*
X124022106Y-111195706D01*
X123991649Y-111211986D01*
X123958600Y-111222011D01*
X123918096Y-111226000D01*
X122481904Y-111226000D01*
X122441400Y-111222011D01*
X122408351Y-111211986D01*
X122377894Y-111195706D01*
X122351201Y-111173799D01*
X122329294Y-111147106D01*
X122313014Y-111116649D01*
X122302989Y-111083600D01*
X122299000Y-111043096D01*
X122299000Y-109356904D01*
X122302989Y-109316400D01*
X122313014Y-109283351D01*
X122329294Y-109252894D01*
X122351201Y-109226201D01*
X122377894Y-109204294D01*
X122408351Y-109188014D01*
X122441400Y-109177989D01*
X122481904Y-109174000D01*
X123918096Y-109174000D01*
X123958600Y-109177989D01*
X123958600Y-109177989D01*
G37*
G36*
X145852626Y-108207037D02*
X145965852Y-108241384D01*
X146022466Y-108258557D01*
X146178989Y-108342221D01*
X146316186Y-108454814D01*
X146399448Y-108556271D01*
X146428778Y-108592009D01*
X146428779Y-108592011D01*
X146512443Y-108748533D01*
X146519835Y-108772902D01*
X146563963Y-108918373D01*
X146577000Y-109050742D01*
X146577000Y-109389257D01*
X146563963Y-109521626D01*
X146512443Y-109691466D01*
X146428778Y-109847991D01*
X146428777Y-109847992D01*
X146316186Y-109985186D01*
X146221251Y-110063096D01*
X146178991Y-110097778D01*
X146178989Y-110097779D01*
X146022467Y-110181443D01*
X145981734Y-110193799D01*
X145852627Y-110232963D01*
X145676000Y-110250359D01*
X145499374Y-110232963D01*
X145370267Y-110193799D01*
X145329534Y-110181443D01*
X145173012Y-110097779D01*
X145173010Y-110097778D01*
X145035816Y-109985186D01*
X145035812Y-109985183D01*
X144923222Y-109847992D01*
X144839557Y-109691467D01*
X144803321Y-109572011D01*
X144788037Y-109521627D01*
X144775000Y-109389258D01*
X144775000Y-109050743D01*
X144788037Y-108918374D01*
X144839557Y-108748535D01*
X144839557Y-108748534D01*
X144923221Y-108592011D01*
X145035814Y-108454814D01*
X145137271Y-108371552D01*
X145173009Y-108342222D01*
X145190913Y-108332652D01*
X145329533Y-108258557D01*
X145386147Y-108241384D01*
X145499373Y-108207037D01*
X145676000Y-108189641D01*
X145852626Y-108207037D01*
X145852626Y-108207037D01*
G37*
G36*
X143352626Y-108207037D02*
X143465852Y-108241384D01*
X143522466Y-108258557D01*
X143678989Y-108342221D01*
X143816186Y-108454814D01*
X143899448Y-108556271D01*
X143928778Y-108592009D01*
X143928779Y-108592011D01*
X144012443Y-108748533D01*
X144019835Y-108772902D01*
X144063963Y-108918373D01*
X144077000Y-109050742D01*
X144077000Y-109389257D01*
X144063963Y-109521626D01*
X144012443Y-109691466D01*
X143928778Y-109847991D01*
X143928777Y-109847992D01*
X143816186Y-109985186D01*
X143721251Y-110063096D01*
X143678991Y-110097778D01*
X143678989Y-110097779D01*
X143522467Y-110181443D01*
X143481734Y-110193799D01*
X143352627Y-110232963D01*
X143176000Y-110250359D01*
X142999374Y-110232963D01*
X142870267Y-110193799D01*
X142829534Y-110181443D01*
X142673012Y-110097779D01*
X142673010Y-110097778D01*
X142535816Y-109985186D01*
X142535812Y-109985183D01*
X142423222Y-109847992D01*
X142339557Y-109691467D01*
X142303321Y-109572011D01*
X142288037Y-109521627D01*
X142275000Y-109389258D01*
X142275000Y-109050743D01*
X142288037Y-108918374D01*
X142339557Y-108748535D01*
X142339557Y-108748534D01*
X142423221Y-108592011D01*
X142535814Y-108454814D01*
X142637271Y-108371552D01*
X142673009Y-108342222D01*
X142690913Y-108332652D01*
X142829533Y-108258557D01*
X142886147Y-108241384D01*
X142999373Y-108207037D01*
X143176000Y-108189641D01*
X143352626Y-108207037D01*
X143352626Y-108207037D01*
G37*
G36*
X140852626Y-108207037D02*
X140965852Y-108241384D01*
X141022466Y-108258557D01*
X141178989Y-108342221D01*
X141316186Y-108454814D01*
X141399448Y-108556271D01*
X141428778Y-108592009D01*
X141428779Y-108592011D01*
X141512443Y-108748533D01*
X141519835Y-108772902D01*
X141563963Y-108918373D01*
X141577000Y-109050742D01*
X141577000Y-109389257D01*
X141563963Y-109521626D01*
X141512443Y-109691466D01*
X141428778Y-109847991D01*
X141428777Y-109847992D01*
X141316186Y-109985186D01*
X141221251Y-110063096D01*
X141178991Y-110097778D01*
X141178989Y-110097779D01*
X141022467Y-110181443D01*
X140981734Y-110193799D01*
X140852627Y-110232963D01*
X140676000Y-110250359D01*
X140499374Y-110232963D01*
X140370267Y-110193799D01*
X140329534Y-110181443D01*
X140173012Y-110097779D01*
X140173010Y-110097778D01*
X140035816Y-109985186D01*
X140035812Y-109985183D01*
X139923222Y-109847992D01*
X139839557Y-109691467D01*
X139803321Y-109572011D01*
X139788037Y-109521627D01*
X139775000Y-109389258D01*
X139775000Y-109050743D01*
X139788037Y-108918374D01*
X139839557Y-108748535D01*
X139839557Y-108748534D01*
X139923221Y-108592011D01*
X140035814Y-108454814D01*
X140137271Y-108371552D01*
X140173009Y-108342222D01*
X140190913Y-108332652D01*
X140329533Y-108258557D01*
X140386147Y-108241384D01*
X140499373Y-108207037D01*
X140676000Y-108189641D01*
X140852626Y-108207037D01*
X140852626Y-108207037D01*
G37*
G36*
X138934600Y-108197989D02*
X138967649Y-108208014D01*
X138998106Y-108224294D01*
X139024799Y-108246201D01*
X139046706Y-108272894D01*
X139062986Y-108303351D01*
X139073011Y-108336400D01*
X139077000Y-108376904D01*
X139077000Y-110063096D01*
X139073011Y-110103600D01*
X139062986Y-110136649D01*
X139046706Y-110167106D01*
X139024799Y-110193799D01*
X138998106Y-110215706D01*
X138967649Y-110231986D01*
X138934600Y-110242011D01*
X138894096Y-110246000D01*
X137457904Y-110246000D01*
X137417400Y-110242011D01*
X137384351Y-110231986D01*
X137353894Y-110215706D01*
X137327201Y-110193799D01*
X137305294Y-110167106D01*
X137289014Y-110136649D01*
X137278989Y-110103600D01*
X137275000Y-110063096D01*
X137275000Y-108376904D01*
X137278989Y-108336400D01*
X137289014Y-108303351D01*
X137305294Y-108272894D01*
X137327201Y-108246201D01*
X137353894Y-108224294D01*
X137384351Y-108208014D01*
X137417400Y-108197989D01*
X137457904Y-108194000D01*
X138894096Y-108194000D01*
X138934600Y-108197989D01*
X138934600Y-108197989D01*
G37*
G36*
X112661000Y-103009000D02*
X110859000Y-103009000D01*
X110859000Y-101207000D01*
X112661000Y-101207000D01*
X112661000Y-103009000D01*
X112661000Y-103009000D01*
G37*
G36*
X111870442Y-98673518D02*
X111936627Y-98680037D01*
X112049853Y-98714384D01*
X112106467Y-98731557D01*
X112245087Y-98805652D01*
X112262991Y-98815222D01*
X112298729Y-98844552D01*
X112400186Y-98927814D01*
X112483448Y-99029271D01*
X112512778Y-99065009D01*
X112512779Y-99065011D01*
X112596443Y-99221533D01*
X112596443Y-99221534D01*
X112647963Y-99391373D01*
X112665359Y-99568000D01*
X112647963Y-99744627D01*
X112613616Y-99857853D01*
X112596443Y-99914467D01*
X112522348Y-100053087D01*
X112512778Y-100070991D01*
X112483448Y-100106729D01*
X112400186Y-100208186D01*
X112298729Y-100291448D01*
X112262991Y-100320778D01*
X112262989Y-100320779D01*
X112106467Y-100404443D01*
X112049853Y-100421616D01*
X111936627Y-100455963D01*
X111870442Y-100462482D01*
X111804260Y-100469000D01*
X111715740Y-100469000D01*
X111649557Y-100462481D01*
X111583373Y-100455963D01*
X111470147Y-100421616D01*
X111413533Y-100404443D01*
X111257011Y-100320779D01*
X111257009Y-100320778D01*
X111221271Y-100291448D01*
X111119814Y-100208186D01*
X111036552Y-100106729D01*
X111007222Y-100070991D01*
X110997652Y-100053087D01*
X110923557Y-99914467D01*
X110906384Y-99857853D01*
X110872037Y-99744627D01*
X110854641Y-99568000D01*
X110872037Y-99391373D01*
X110923557Y-99221534D01*
X110923557Y-99221533D01*
X111007221Y-99065011D01*
X111007222Y-99065009D01*
X111036552Y-99029271D01*
X111119814Y-98927814D01*
X111221271Y-98844552D01*
X111257009Y-98815222D01*
X111274913Y-98805652D01*
X111413533Y-98731557D01*
X111470147Y-98714384D01*
X111583373Y-98680037D01*
X111649558Y-98673518D01*
X111715740Y-98667000D01*
X111804260Y-98667000D01*
X111870442Y-98673518D01*
X111870442Y-98673518D01*
G37*
G36*
X111870443Y-96133519D02*
X111936627Y-96140037D01*
X112049853Y-96174384D01*
X112106467Y-96191557D01*
X112245087Y-96265652D01*
X112262991Y-96275222D01*
X112298729Y-96304552D01*
X112400186Y-96387814D01*
X112483448Y-96489271D01*
X112512778Y-96525009D01*
X112512779Y-96525011D01*
X112596443Y-96681533D01*
X112596443Y-96681534D01*
X112647963Y-96851373D01*
X112665359Y-97028000D01*
X112647963Y-97204627D01*
X112613616Y-97317853D01*
X112596443Y-97374467D01*
X112522348Y-97513087D01*
X112512778Y-97530991D01*
X112483448Y-97566729D01*
X112400186Y-97668186D01*
X112298729Y-97751448D01*
X112262991Y-97780778D01*
X112262989Y-97780779D01*
X112106467Y-97864443D01*
X112049853Y-97881616D01*
X111936627Y-97915963D01*
X111870442Y-97922482D01*
X111804260Y-97929000D01*
X111715740Y-97929000D01*
X111649558Y-97922482D01*
X111583373Y-97915963D01*
X111470147Y-97881616D01*
X111413533Y-97864443D01*
X111257011Y-97780779D01*
X111257009Y-97780778D01*
X111221271Y-97751448D01*
X111119814Y-97668186D01*
X111036552Y-97566729D01*
X111007222Y-97530991D01*
X110997652Y-97513087D01*
X110923557Y-97374467D01*
X110906384Y-97317853D01*
X110872037Y-97204627D01*
X110854641Y-97028000D01*
X110872037Y-96851373D01*
X110923557Y-96681534D01*
X110923557Y-96681533D01*
X111007221Y-96525011D01*
X111007222Y-96525009D01*
X111036552Y-96489271D01*
X111119814Y-96387814D01*
X111221271Y-96304552D01*
X111257009Y-96275222D01*
X111274913Y-96265652D01*
X111413533Y-96191557D01*
X111470147Y-96174384D01*
X111583373Y-96140037D01*
X111649557Y-96133519D01*
X111715740Y-96127000D01*
X111804260Y-96127000D01*
X111870443Y-96133519D01*
X111870443Y-96133519D01*
G37*
G36*
X111941563Y-91485319D02*
X112007747Y-91491837D01*
X112120973Y-91526184D01*
X112177587Y-91543357D01*
X112316207Y-91617452D01*
X112334111Y-91627022D01*
X112369849Y-91656352D01*
X112471306Y-91739614D01*
X112554568Y-91841071D01*
X112583898Y-91876809D01*
X112583899Y-91876811D01*
X112667563Y-92033333D01*
X112667563Y-92033334D01*
X112719083Y-92203173D01*
X112736479Y-92379800D01*
X112719083Y-92556427D01*
X112684736Y-92669653D01*
X112667563Y-92726267D01*
X112593468Y-92864887D01*
X112583898Y-92882791D01*
X112554568Y-92918529D01*
X112471306Y-93019986D01*
X112369849Y-93103248D01*
X112334111Y-93132578D01*
X112334109Y-93132579D01*
X112177587Y-93216243D01*
X112120973Y-93233416D01*
X112007747Y-93267763D01*
X111941563Y-93274281D01*
X111875380Y-93280800D01*
X111786860Y-93280800D01*
X111720677Y-93274281D01*
X111654493Y-93267763D01*
X111541267Y-93233416D01*
X111484653Y-93216243D01*
X111328131Y-93132579D01*
X111328129Y-93132578D01*
X111292391Y-93103248D01*
X111190934Y-93019986D01*
X111107672Y-92918529D01*
X111078342Y-92882791D01*
X111068772Y-92864887D01*
X110994677Y-92726267D01*
X110977504Y-92669653D01*
X110943157Y-92556427D01*
X110925761Y-92379800D01*
X110943157Y-92203173D01*
X110994677Y-92033334D01*
X110994677Y-92033333D01*
X111078341Y-91876811D01*
X111078342Y-91876809D01*
X111107672Y-91841071D01*
X111190934Y-91739614D01*
X111292391Y-91656352D01*
X111328129Y-91627022D01*
X111346033Y-91617452D01*
X111484653Y-91543357D01*
X111541267Y-91526184D01*
X111654493Y-91491837D01*
X111720677Y-91485319D01*
X111786860Y-91478800D01*
X111875380Y-91478800D01*
X111941563Y-91485319D01*
X111941563Y-91485319D01*
G37*
G36*
X111941563Y-88945319D02*
X112007747Y-88951837D01*
X112120973Y-88986184D01*
X112177587Y-89003357D01*
X112316207Y-89077452D01*
X112334111Y-89087022D01*
X112369849Y-89116352D01*
X112471306Y-89199614D01*
X112554568Y-89301071D01*
X112583898Y-89336809D01*
X112583899Y-89336811D01*
X112667563Y-89493333D01*
X112667563Y-89493334D01*
X112719083Y-89663173D01*
X112736479Y-89839800D01*
X112719083Y-90016427D01*
X112684736Y-90129653D01*
X112667563Y-90186267D01*
X112593468Y-90324887D01*
X112583898Y-90342791D01*
X112554568Y-90378529D01*
X112471306Y-90479986D01*
X112369849Y-90563248D01*
X112334111Y-90592578D01*
X112334109Y-90592579D01*
X112177587Y-90676243D01*
X112120973Y-90693416D01*
X112007747Y-90727763D01*
X111941562Y-90734282D01*
X111875380Y-90740800D01*
X111786860Y-90740800D01*
X111720678Y-90734282D01*
X111654493Y-90727763D01*
X111541267Y-90693416D01*
X111484653Y-90676243D01*
X111328131Y-90592579D01*
X111328129Y-90592578D01*
X111292391Y-90563248D01*
X111190934Y-90479986D01*
X111107672Y-90378529D01*
X111078342Y-90342791D01*
X111068772Y-90324887D01*
X110994677Y-90186267D01*
X110977504Y-90129653D01*
X110943157Y-90016427D01*
X110925761Y-89839800D01*
X110943157Y-89663173D01*
X110994677Y-89493334D01*
X110994677Y-89493333D01*
X111078341Y-89336811D01*
X111078342Y-89336809D01*
X111107672Y-89301071D01*
X111190934Y-89199614D01*
X111292391Y-89116352D01*
X111328129Y-89087022D01*
X111346033Y-89077452D01*
X111484653Y-89003357D01*
X111541267Y-88986184D01*
X111654493Y-88951837D01*
X111720677Y-88945319D01*
X111786860Y-88938800D01*
X111875380Y-88938800D01*
X111941563Y-88945319D01*
X111941563Y-88945319D01*
G37*
G36*
X112732120Y-88200800D02*
X110930120Y-88200800D01*
X110930120Y-86398800D01*
X112732120Y-86398800D01*
X112732120Y-88200800D01*
X112732120Y-88200800D01*
G37*
G36*
X154045256Y-78401298D02*
X154151579Y-78422447D01*
X154452042Y-78546903D01*
X154718852Y-78725180D01*
X154722454Y-78727587D01*
X154952413Y-78957546D01*
X154952415Y-78957549D01*
X155133097Y-79227958D01*
X155257553Y-79528421D01*
X155269154Y-79586742D01*
X155321000Y-79847389D01*
X155321000Y-80172611D01*
X155310088Y-80227467D01*
X155257553Y-80491579D01*
X155186040Y-80664226D01*
X155133098Y-80792040D01*
X154952413Y-81062454D01*
X154722454Y-81292413D01*
X154722451Y-81292415D01*
X154452042Y-81473097D01*
X154151579Y-81597553D01*
X154045256Y-81618702D01*
X153832611Y-81661000D01*
X153507389Y-81661000D01*
X153294744Y-81618702D01*
X153188421Y-81597553D01*
X152887958Y-81473097D01*
X152617549Y-81292415D01*
X152617546Y-81292413D01*
X152387587Y-81062454D01*
X152206902Y-80792040D01*
X152153960Y-80664226D01*
X152082447Y-80491579D01*
X152029912Y-80227467D01*
X152019000Y-80172611D01*
X152019000Y-79847389D01*
X152070846Y-79586742D01*
X152082447Y-79528421D01*
X152206903Y-79227958D01*
X152387585Y-78957549D01*
X152387587Y-78957546D01*
X152617546Y-78727587D01*
X152621148Y-78725180D01*
X152887958Y-78546903D01*
X153188421Y-78422447D01*
X153294744Y-78401298D01*
X153507389Y-78359000D01*
X153832611Y-78359000D01*
X154045256Y-78401298D01*
X154045256Y-78401298D01*
G37*
G36*
X110611256Y-78401298D02*
X110717579Y-78422447D01*
X111018042Y-78546903D01*
X111284852Y-78725180D01*
X111288454Y-78727587D01*
X111518413Y-78957546D01*
X111518415Y-78957549D01*
X111699097Y-79227958D01*
X111823553Y-79528421D01*
X111835154Y-79586742D01*
X111887000Y-79847389D01*
X111887000Y-80172611D01*
X111876088Y-80227467D01*
X111823553Y-80491579D01*
X111752040Y-80664226D01*
X111699098Y-80792040D01*
X111518413Y-81062454D01*
X111288454Y-81292413D01*
X111288451Y-81292415D01*
X111018042Y-81473097D01*
X110717579Y-81597553D01*
X110611256Y-81618702D01*
X110398611Y-81661000D01*
X110073389Y-81661000D01*
X109860744Y-81618702D01*
X109754421Y-81597553D01*
X109453958Y-81473097D01*
X109183549Y-81292415D01*
X109183546Y-81292413D01*
X108953587Y-81062454D01*
X108772902Y-80792040D01*
X108719960Y-80664226D01*
X108648447Y-80491579D01*
X108595912Y-80227467D01*
X108585000Y-80172611D01*
X108585000Y-79847389D01*
X108636846Y-79586742D01*
X108648447Y-79528421D01*
X108772903Y-79227958D01*
X108953585Y-78957549D01*
X108953587Y-78957546D01*
X109183546Y-78727587D01*
X109187148Y-78725180D01*
X109453958Y-78546903D01*
X109754421Y-78422447D01*
X109860744Y-78401298D01*
X110073389Y-78359000D01*
X110398611Y-78359000D01*
X110611256Y-78401298D01*
X110611256Y-78401298D01*
G37*
G36*
X145852626Y-78743037D02*
X145965852Y-78777384D01*
X146022466Y-78794557D01*
X146178989Y-78878221D01*
X146316186Y-78990814D01*
X146399448Y-79092271D01*
X146428778Y-79128009D01*
X146428779Y-79128011D01*
X146512443Y-79284533D01*
X146529616Y-79341147D01*
X146563963Y-79454373D01*
X146577000Y-79586742D01*
X146577000Y-79925257D01*
X146563963Y-80057626D01*
X146512443Y-80227466D01*
X146428778Y-80383991D01*
X146428777Y-80383992D01*
X146316186Y-80521186D01*
X146221251Y-80599096D01*
X146178991Y-80633778D01*
X146178989Y-80633779D01*
X146022467Y-80717443D01*
X145981734Y-80729799D01*
X145852627Y-80768963D01*
X145676000Y-80786359D01*
X145499374Y-80768963D01*
X145370267Y-80729799D01*
X145329534Y-80717443D01*
X145173012Y-80633779D01*
X145173010Y-80633778D01*
X145035816Y-80521186D01*
X145035812Y-80521183D01*
X144923222Y-80383992D01*
X144839557Y-80227467D01*
X144822384Y-80170853D01*
X144788037Y-80057627D01*
X144775000Y-79925258D01*
X144775000Y-79586743D01*
X144788037Y-79454374D01*
X144839557Y-79284535D01*
X144839557Y-79284534D01*
X144923221Y-79128011D01*
X145035814Y-78990814D01*
X145137271Y-78907552D01*
X145173009Y-78878222D01*
X145190913Y-78868652D01*
X145329533Y-78794557D01*
X145386147Y-78777384D01*
X145499373Y-78743037D01*
X145676000Y-78725641D01*
X145852626Y-78743037D01*
X145852626Y-78743037D01*
G37*
G36*
X143352626Y-78743037D02*
X143465852Y-78777384D01*
X143522466Y-78794557D01*
X143678989Y-78878221D01*
X143816186Y-78990814D01*
X143899448Y-79092271D01*
X143928778Y-79128009D01*
X143928779Y-79128011D01*
X144012443Y-79284533D01*
X144029616Y-79341147D01*
X144063963Y-79454373D01*
X144077000Y-79586742D01*
X144077000Y-79925257D01*
X144063963Y-80057626D01*
X144012443Y-80227466D01*
X143928778Y-80383991D01*
X143928777Y-80383992D01*
X143816186Y-80521186D01*
X143721251Y-80599096D01*
X143678991Y-80633778D01*
X143678989Y-80633779D01*
X143522467Y-80717443D01*
X143481734Y-80729799D01*
X143352627Y-80768963D01*
X143176000Y-80786359D01*
X142999374Y-80768963D01*
X142870267Y-80729799D01*
X142829534Y-80717443D01*
X142673012Y-80633779D01*
X142673010Y-80633778D01*
X142535816Y-80521186D01*
X142535812Y-80521183D01*
X142423222Y-80383992D01*
X142339557Y-80227467D01*
X142322384Y-80170853D01*
X142288037Y-80057627D01*
X142275000Y-79925258D01*
X142275000Y-79586743D01*
X142288037Y-79454374D01*
X142339557Y-79284535D01*
X142339557Y-79284534D01*
X142423221Y-79128011D01*
X142535814Y-78990814D01*
X142637271Y-78907552D01*
X142673009Y-78878222D01*
X142690913Y-78868652D01*
X142829533Y-78794557D01*
X142886147Y-78777384D01*
X142999373Y-78743037D01*
X143176000Y-78725641D01*
X143352626Y-78743037D01*
X143352626Y-78743037D01*
G37*
G36*
X140852626Y-78743037D02*
X140965852Y-78777384D01*
X141022466Y-78794557D01*
X141178989Y-78878221D01*
X141316186Y-78990814D01*
X141399448Y-79092271D01*
X141428778Y-79128009D01*
X141428779Y-79128011D01*
X141512443Y-79284533D01*
X141529616Y-79341147D01*
X141563963Y-79454373D01*
X141577000Y-79586742D01*
X141577000Y-79925257D01*
X141563963Y-80057626D01*
X141512443Y-80227466D01*
X141428778Y-80383991D01*
X141428777Y-80383992D01*
X141316186Y-80521186D01*
X141221251Y-80599096D01*
X141178991Y-80633778D01*
X141178989Y-80633779D01*
X141022467Y-80717443D01*
X140981734Y-80729799D01*
X140852627Y-80768963D01*
X140676000Y-80786359D01*
X140499374Y-80768963D01*
X140370267Y-80729799D01*
X140329534Y-80717443D01*
X140173012Y-80633779D01*
X140173010Y-80633778D01*
X140035816Y-80521186D01*
X140035812Y-80521183D01*
X139923222Y-80383992D01*
X139839557Y-80227467D01*
X139822384Y-80170853D01*
X139788037Y-80057627D01*
X139775000Y-79925258D01*
X139775000Y-79586743D01*
X139788037Y-79454374D01*
X139839557Y-79284535D01*
X139839557Y-79284534D01*
X139923221Y-79128011D01*
X140035814Y-78990814D01*
X140137271Y-78907552D01*
X140173009Y-78878222D01*
X140190913Y-78868652D01*
X140329533Y-78794557D01*
X140386147Y-78777384D01*
X140499373Y-78743037D01*
X140676000Y-78725641D01*
X140852626Y-78743037D01*
X140852626Y-78743037D01*
G37*
G36*
X138934600Y-78733989D02*
X138967649Y-78744014D01*
X138998106Y-78760294D01*
X139024799Y-78782201D01*
X139046706Y-78808894D01*
X139062986Y-78839351D01*
X139073011Y-78872400D01*
X139077000Y-78912904D01*
X139077000Y-80599096D01*
X139073011Y-80639600D01*
X139062986Y-80672649D01*
X139046706Y-80703106D01*
X139024799Y-80729799D01*
X138998106Y-80751706D01*
X138967649Y-80767986D01*
X138934600Y-80778011D01*
X138894096Y-80782000D01*
X137457904Y-80782000D01*
X137417400Y-80778011D01*
X137384351Y-80767986D01*
X137353894Y-80751706D01*
X137327201Y-80729799D01*
X137305294Y-80703106D01*
X137289014Y-80672649D01*
X137278989Y-80639600D01*
X137275000Y-80599096D01*
X137275000Y-78912904D01*
X137278989Y-78872400D01*
X137289014Y-78839351D01*
X137305294Y-78808894D01*
X137327201Y-78782201D01*
X137353894Y-78760294D01*
X137384351Y-78744014D01*
X137417400Y-78733989D01*
X137457904Y-78730000D01*
X138894096Y-78730000D01*
X138934600Y-78733989D01*
X138934600Y-78733989D01*
G37*
M02*
