M48
;DRILL file {KiCad (5.0.1)-3} date 3/15/2020 12:24:40 PM
;FORMAT={-:-/ absolute / inch / decimal}
FMAT,2
INCH,TZ
T1C0.0315
T2C0.0374
T3C0.0394
T4C0.1260
%
G90
G05
M72
T1
X4.8914Y-3.43
X4.96Y-4.05
X5.13Y-4.
X5.15Y-3.48
X5.97Y-3.66
X5.97Y-3.76
X6.01Y-4.
X6.01Y-4.1
X6.04Y-3.34
X6.04Y-3.44
T2
X4.6535Y-4.3386
X4.752Y-4.3386
X4.8504Y-4.3386
X5.44Y-4.3
X5.5384Y-4.3
X5.6369Y-4.3
X5.7353Y-4.3
X5.44Y-3.14
X5.5384Y-3.14
X5.6369Y-3.14
X5.7353Y-3.14
T3
X4.4Y-3.82
X4.4Y-3.92
X4.4Y-4.02
X4.4028Y-3.437
X4.4028Y-3.537
X4.4028Y-3.637
T4
X6.05Y-3.15
X4.34Y-3.15
X4.34Y-4.34
X6.05Y-4.34
T0
M30
