G04 #@! TF.GenerationSoftware,KiCad,Pcbnew,(5.0.1)-3*
G04 #@! TF.CreationDate,2020-03-18T22:13:10-04:00*
G04 #@! TF.ProjectId,viparspectra-adapter,7669706172737065637472612D616461,rev?*
G04 #@! TF.SameCoordinates,Original*
G04 #@! TF.FileFunction,Copper,L1,Top,Signal*
G04 #@! TF.FilePolarity,Positive*
%FSLAX46Y46*%
G04 Gerber Fmt 4.6, Leading zero omitted, Abs format (unit mm)*
G04 Created by KiCad (PCBNEW (5.0.1)-3) date 3/18/2020 10:13:10 PM*
%MOMM*%
%LPD*%
G01*
G04 APERTURE LIST*
G04 #@! TA.AperFunction,Conductor*
%ADD10C,0.100000*%
G04 #@! TD*
G04 #@! TA.AperFunction,SMDPad,CuDef*
%ADD11C,0.875000*%
G04 #@! TD*
G04 #@! TA.AperFunction,SMDPad,CuDef*
%ADD12R,0.900000X0.800000*%
G04 #@! TD*
G04 #@! TA.AperFunction,SMDPad,CuDef*
%ADD13C,1.150000*%
G04 #@! TD*
G04 #@! TA.AperFunction,ComponentPad*
%ADD14C,1.700000*%
G04 #@! TD*
G04 #@! TA.AperFunction,ComponentPad*
%ADD15O,1.700000X1.950000*%
G04 #@! TD*
G04 #@! TA.AperFunction,SMDPad,CuDef*
%ADD16C,0.950000*%
G04 #@! TD*
G04 #@! TA.AperFunction,SMDPad,CuDef*
%ADD17R,0.600000X1.550000*%
G04 #@! TD*
G04 #@! TA.AperFunction,ViaPad*
%ADD18C,0.800000*%
G04 #@! TD*
G04 #@! TA.AperFunction,Conductor*
%ADD19C,0.250000*%
G04 #@! TD*
G04 #@! TA.AperFunction,Conductor*
%ADD20C,0.254000*%
G04 #@! TD*
G04 APERTURE END LIST*
D10*
G04 #@! TO.N,GND*
G04 #@! TO.C,C2*
G36*
X165648691Y-74547053D02*
X165669926Y-74550203D01*
X165690750Y-74555419D01*
X165710962Y-74562651D01*
X165730368Y-74571830D01*
X165748781Y-74582866D01*
X165766024Y-74595654D01*
X165781930Y-74610070D01*
X165796346Y-74625976D01*
X165809134Y-74643219D01*
X165820170Y-74661632D01*
X165829349Y-74681038D01*
X165836581Y-74701250D01*
X165841797Y-74722074D01*
X165844947Y-74743309D01*
X165846000Y-74764750D01*
X165846000Y-75277250D01*
X165844947Y-75298691D01*
X165841797Y-75319926D01*
X165836581Y-75340750D01*
X165829349Y-75360962D01*
X165820170Y-75380368D01*
X165809134Y-75398781D01*
X165796346Y-75416024D01*
X165781930Y-75431930D01*
X165766024Y-75446346D01*
X165748781Y-75459134D01*
X165730368Y-75470170D01*
X165710962Y-75479349D01*
X165690750Y-75486581D01*
X165669926Y-75491797D01*
X165648691Y-75494947D01*
X165627250Y-75496000D01*
X165189750Y-75496000D01*
X165168309Y-75494947D01*
X165147074Y-75491797D01*
X165126250Y-75486581D01*
X165106038Y-75479349D01*
X165086632Y-75470170D01*
X165068219Y-75459134D01*
X165050976Y-75446346D01*
X165035070Y-75431930D01*
X165020654Y-75416024D01*
X165007866Y-75398781D01*
X164996830Y-75380368D01*
X164987651Y-75360962D01*
X164980419Y-75340750D01*
X164975203Y-75319926D01*
X164972053Y-75298691D01*
X164971000Y-75277250D01*
X164971000Y-74764750D01*
X164972053Y-74743309D01*
X164975203Y-74722074D01*
X164980419Y-74701250D01*
X164987651Y-74681038D01*
X164996830Y-74661632D01*
X165007866Y-74643219D01*
X165020654Y-74625976D01*
X165035070Y-74610070D01*
X165050976Y-74595654D01*
X165068219Y-74582866D01*
X165086632Y-74571830D01*
X165106038Y-74562651D01*
X165126250Y-74555419D01*
X165147074Y-74550203D01*
X165168309Y-74547053D01*
X165189750Y-74546000D01*
X165627250Y-74546000D01*
X165648691Y-74547053D01*
X165648691Y-74547053D01*
G37*
D11*
G04 #@! TD*
G04 #@! TO.P,C2,2*
G04 #@! TO.N,GND*
X165408500Y-75021000D03*
D10*
G04 #@! TO.N,+12V*
G04 #@! TO.C,C2*
G36*
X164073691Y-74547053D02*
X164094926Y-74550203D01*
X164115750Y-74555419D01*
X164135962Y-74562651D01*
X164155368Y-74571830D01*
X164173781Y-74582866D01*
X164191024Y-74595654D01*
X164206930Y-74610070D01*
X164221346Y-74625976D01*
X164234134Y-74643219D01*
X164245170Y-74661632D01*
X164254349Y-74681038D01*
X164261581Y-74701250D01*
X164266797Y-74722074D01*
X164269947Y-74743309D01*
X164271000Y-74764750D01*
X164271000Y-75277250D01*
X164269947Y-75298691D01*
X164266797Y-75319926D01*
X164261581Y-75340750D01*
X164254349Y-75360962D01*
X164245170Y-75380368D01*
X164234134Y-75398781D01*
X164221346Y-75416024D01*
X164206930Y-75431930D01*
X164191024Y-75446346D01*
X164173781Y-75459134D01*
X164155368Y-75470170D01*
X164135962Y-75479349D01*
X164115750Y-75486581D01*
X164094926Y-75491797D01*
X164073691Y-75494947D01*
X164052250Y-75496000D01*
X163614750Y-75496000D01*
X163593309Y-75494947D01*
X163572074Y-75491797D01*
X163551250Y-75486581D01*
X163531038Y-75479349D01*
X163511632Y-75470170D01*
X163493219Y-75459134D01*
X163475976Y-75446346D01*
X163460070Y-75431930D01*
X163445654Y-75416024D01*
X163432866Y-75398781D01*
X163421830Y-75380368D01*
X163412651Y-75360962D01*
X163405419Y-75340750D01*
X163400203Y-75319926D01*
X163397053Y-75298691D01*
X163396000Y-75277250D01*
X163396000Y-74764750D01*
X163397053Y-74743309D01*
X163400203Y-74722074D01*
X163405419Y-74701250D01*
X163412651Y-74681038D01*
X163421830Y-74661632D01*
X163432866Y-74643219D01*
X163445654Y-74625976D01*
X163460070Y-74610070D01*
X163475976Y-74595654D01*
X163493219Y-74582866D01*
X163511632Y-74571830D01*
X163531038Y-74562651D01*
X163551250Y-74555419D01*
X163572074Y-74550203D01*
X163593309Y-74547053D01*
X163614750Y-74546000D01*
X164052250Y-74546000D01*
X164073691Y-74547053D01*
X164073691Y-74547053D01*
G37*
D11*
G04 #@! TD*
G04 #@! TO.P,C2,1*
G04 #@! TO.N,+12V*
X163833500Y-75021000D03*
D10*
G04 #@! TO.N,/Vref*
G04 #@! TO.C,C1*
G36*
X164073691Y-80597553D02*
X164094926Y-80600703D01*
X164115750Y-80605919D01*
X164135962Y-80613151D01*
X164155368Y-80622330D01*
X164173781Y-80633366D01*
X164191024Y-80646154D01*
X164206930Y-80660570D01*
X164221346Y-80676476D01*
X164234134Y-80693719D01*
X164245170Y-80712132D01*
X164254349Y-80731538D01*
X164261581Y-80751750D01*
X164266797Y-80772574D01*
X164269947Y-80793809D01*
X164271000Y-80815250D01*
X164271000Y-81327750D01*
X164269947Y-81349191D01*
X164266797Y-81370426D01*
X164261581Y-81391250D01*
X164254349Y-81411462D01*
X164245170Y-81430868D01*
X164234134Y-81449281D01*
X164221346Y-81466524D01*
X164206930Y-81482430D01*
X164191024Y-81496846D01*
X164173781Y-81509634D01*
X164155368Y-81520670D01*
X164135962Y-81529849D01*
X164115750Y-81537081D01*
X164094926Y-81542297D01*
X164073691Y-81545447D01*
X164052250Y-81546500D01*
X163614750Y-81546500D01*
X163593309Y-81545447D01*
X163572074Y-81542297D01*
X163551250Y-81537081D01*
X163531038Y-81529849D01*
X163511632Y-81520670D01*
X163493219Y-81509634D01*
X163475976Y-81496846D01*
X163460070Y-81482430D01*
X163445654Y-81466524D01*
X163432866Y-81449281D01*
X163421830Y-81430868D01*
X163412651Y-81411462D01*
X163405419Y-81391250D01*
X163400203Y-81370426D01*
X163397053Y-81349191D01*
X163396000Y-81327750D01*
X163396000Y-80815250D01*
X163397053Y-80793809D01*
X163400203Y-80772574D01*
X163405419Y-80751750D01*
X163412651Y-80731538D01*
X163421830Y-80712132D01*
X163432866Y-80693719D01*
X163445654Y-80676476D01*
X163460070Y-80660570D01*
X163475976Y-80646154D01*
X163493219Y-80633366D01*
X163511632Y-80622330D01*
X163531038Y-80613151D01*
X163551250Y-80605919D01*
X163572074Y-80600703D01*
X163593309Y-80597553D01*
X163614750Y-80596500D01*
X164052250Y-80596500D01*
X164073691Y-80597553D01*
X164073691Y-80597553D01*
G37*
D11*
G04 #@! TD*
G04 #@! TO.P,C1,1*
G04 #@! TO.N,/Vref*
X163833500Y-81071500D03*
D10*
G04 #@! TO.N,GND*
G04 #@! TO.C,C1*
G36*
X165648691Y-80597553D02*
X165669926Y-80600703D01*
X165690750Y-80605919D01*
X165710962Y-80613151D01*
X165730368Y-80622330D01*
X165748781Y-80633366D01*
X165766024Y-80646154D01*
X165781930Y-80660570D01*
X165796346Y-80676476D01*
X165809134Y-80693719D01*
X165820170Y-80712132D01*
X165829349Y-80731538D01*
X165836581Y-80751750D01*
X165841797Y-80772574D01*
X165844947Y-80793809D01*
X165846000Y-80815250D01*
X165846000Y-81327750D01*
X165844947Y-81349191D01*
X165841797Y-81370426D01*
X165836581Y-81391250D01*
X165829349Y-81411462D01*
X165820170Y-81430868D01*
X165809134Y-81449281D01*
X165796346Y-81466524D01*
X165781930Y-81482430D01*
X165766024Y-81496846D01*
X165748781Y-81509634D01*
X165730368Y-81520670D01*
X165710962Y-81529849D01*
X165690750Y-81537081D01*
X165669926Y-81542297D01*
X165648691Y-81545447D01*
X165627250Y-81546500D01*
X165189750Y-81546500D01*
X165168309Y-81545447D01*
X165147074Y-81542297D01*
X165126250Y-81537081D01*
X165106038Y-81529849D01*
X165086632Y-81520670D01*
X165068219Y-81509634D01*
X165050976Y-81496846D01*
X165035070Y-81482430D01*
X165020654Y-81466524D01*
X165007866Y-81449281D01*
X164996830Y-81430868D01*
X164987651Y-81411462D01*
X164980419Y-81391250D01*
X164975203Y-81370426D01*
X164972053Y-81349191D01*
X164971000Y-81327750D01*
X164971000Y-80815250D01*
X164972053Y-80793809D01*
X164975203Y-80772574D01*
X164980419Y-80751750D01*
X164987651Y-80731538D01*
X164996830Y-80712132D01*
X165007866Y-80693719D01*
X165020654Y-80676476D01*
X165035070Y-80660570D01*
X165050976Y-80646154D01*
X165068219Y-80633366D01*
X165086632Y-80622330D01*
X165106038Y-80613151D01*
X165126250Y-80605919D01*
X165147074Y-80600703D01*
X165168309Y-80597553D01*
X165189750Y-80596500D01*
X165627250Y-80596500D01*
X165648691Y-80597553D01*
X165648691Y-80597553D01*
G37*
D11*
G04 #@! TD*
G04 #@! TO.P,C1,2*
G04 #@! TO.N,GND*
X165408500Y-81071500D03*
D10*
G04 #@! TO.N,Net-(C3-Pad1)*
G04 #@! TO.C,C3*
G36*
X144549691Y-86042553D02*
X144570926Y-86045703D01*
X144591750Y-86050919D01*
X144611962Y-86058151D01*
X144631368Y-86067330D01*
X144649781Y-86078366D01*
X144667024Y-86091154D01*
X144682930Y-86105570D01*
X144697346Y-86121476D01*
X144710134Y-86138719D01*
X144721170Y-86157132D01*
X144730349Y-86176538D01*
X144737581Y-86196750D01*
X144742797Y-86217574D01*
X144745947Y-86238809D01*
X144747000Y-86260250D01*
X144747000Y-86697750D01*
X144745947Y-86719191D01*
X144742797Y-86740426D01*
X144737581Y-86761250D01*
X144730349Y-86781462D01*
X144721170Y-86800868D01*
X144710134Y-86819281D01*
X144697346Y-86836524D01*
X144682930Y-86852430D01*
X144667024Y-86866846D01*
X144649781Y-86879634D01*
X144631368Y-86890670D01*
X144611962Y-86899849D01*
X144591750Y-86907081D01*
X144570926Y-86912297D01*
X144549691Y-86915447D01*
X144528250Y-86916500D01*
X144015750Y-86916500D01*
X143994309Y-86915447D01*
X143973074Y-86912297D01*
X143952250Y-86907081D01*
X143932038Y-86899849D01*
X143912632Y-86890670D01*
X143894219Y-86879634D01*
X143876976Y-86866846D01*
X143861070Y-86852430D01*
X143846654Y-86836524D01*
X143833866Y-86819281D01*
X143822830Y-86800868D01*
X143813651Y-86781462D01*
X143806419Y-86761250D01*
X143801203Y-86740426D01*
X143798053Y-86719191D01*
X143797000Y-86697750D01*
X143797000Y-86260250D01*
X143798053Y-86238809D01*
X143801203Y-86217574D01*
X143806419Y-86196750D01*
X143813651Y-86176538D01*
X143822830Y-86157132D01*
X143833866Y-86138719D01*
X143846654Y-86121476D01*
X143861070Y-86105570D01*
X143876976Y-86091154D01*
X143894219Y-86078366D01*
X143912632Y-86067330D01*
X143932038Y-86058151D01*
X143952250Y-86050919D01*
X143973074Y-86045703D01*
X143994309Y-86042553D01*
X144015750Y-86041500D01*
X144528250Y-86041500D01*
X144549691Y-86042553D01*
X144549691Y-86042553D01*
G37*
D11*
G04 #@! TD*
G04 #@! TO.P,C3,1*
G04 #@! TO.N,Net-(C3-Pad1)*
X144272000Y-86479000D03*
D10*
G04 #@! TO.N,GND*
G04 #@! TO.C,C3*
G36*
X144549691Y-87617553D02*
X144570926Y-87620703D01*
X144591750Y-87625919D01*
X144611962Y-87633151D01*
X144631368Y-87642330D01*
X144649781Y-87653366D01*
X144667024Y-87666154D01*
X144682930Y-87680570D01*
X144697346Y-87696476D01*
X144710134Y-87713719D01*
X144721170Y-87732132D01*
X144730349Y-87751538D01*
X144737581Y-87771750D01*
X144742797Y-87792574D01*
X144745947Y-87813809D01*
X144747000Y-87835250D01*
X144747000Y-88272750D01*
X144745947Y-88294191D01*
X144742797Y-88315426D01*
X144737581Y-88336250D01*
X144730349Y-88356462D01*
X144721170Y-88375868D01*
X144710134Y-88394281D01*
X144697346Y-88411524D01*
X144682930Y-88427430D01*
X144667024Y-88441846D01*
X144649781Y-88454634D01*
X144631368Y-88465670D01*
X144611962Y-88474849D01*
X144591750Y-88482081D01*
X144570926Y-88487297D01*
X144549691Y-88490447D01*
X144528250Y-88491500D01*
X144015750Y-88491500D01*
X143994309Y-88490447D01*
X143973074Y-88487297D01*
X143952250Y-88482081D01*
X143932038Y-88474849D01*
X143912632Y-88465670D01*
X143894219Y-88454634D01*
X143876976Y-88441846D01*
X143861070Y-88427430D01*
X143846654Y-88411524D01*
X143833866Y-88394281D01*
X143822830Y-88375868D01*
X143813651Y-88356462D01*
X143806419Y-88336250D01*
X143801203Y-88315426D01*
X143798053Y-88294191D01*
X143797000Y-88272750D01*
X143797000Y-87835250D01*
X143798053Y-87813809D01*
X143801203Y-87792574D01*
X143806419Y-87771750D01*
X143813651Y-87751538D01*
X143822830Y-87732132D01*
X143833866Y-87713719D01*
X143846654Y-87696476D01*
X143861070Y-87680570D01*
X143876976Y-87666154D01*
X143894219Y-87653366D01*
X143912632Y-87642330D01*
X143932038Y-87633151D01*
X143952250Y-87625919D01*
X143973074Y-87620703D01*
X143994309Y-87617553D01*
X144015750Y-87616500D01*
X144528250Y-87616500D01*
X144549691Y-87617553D01*
X144549691Y-87617553D01*
G37*
D11*
G04 #@! TD*
G04 #@! TO.P,C3,2*
G04 #@! TO.N,GND*
X144272000Y-88054000D03*
D10*
G04 #@! TO.N,GND*
G04 #@! TO.C,C4*
G36*
X147343691Y-73627053D02*
X147364926Y-73630203D01*
X147385750Y-73635419D01*
X147405962Y-73642651D01*
X147425368Y-73651830D01*
X147443781Y-73662866D01*
X147461024Y-73675654D01*
X147476930Y-73690070D01*
X147491346Y-73705976D01*
X147504134Y-73723219D01*
X147515170Y-73741632D01*
X147524349Y-73761038D01*
X147531581Y-73781250D01*
X147536797Y-73802074D01*
X147539947Y-73823309D01*
X147541000Y-73844750D01*
X147541000Y-74282250D01*
X147539947Y-74303691D01*
X147536797Y-74324926D01*
X147531581Y-74345750D01*
X147524349Y-74365962D01*
X147515170Y-74385368D01*
X147504134Y-74403781D01*
X147491346Y-74421024D01*
X147476930Y-74436930D01*
X147461024Y-74451346D01*
X147443781Y-74464134D01*
X147425368Y-74475170D01*
X147405962Y-74484349D01*
X147385750Y-74491581D01*
X147364926Y-74496797D01*
X147343691Y-74499947D01*
X147322250Y-74501000D01*
X146809750Y-74501000D01*
X146788309Y-74499947D01*
X146767074Y-74496797D01*
X146746250Y-74491581D01*
X146726038Y-74484349D01*
X146706632Y-74475170D01*
X146688219Y-74464134D01*
X146670976Y-74451346D01*
X146655070Y-74436930D01*
X146640654Y-74421024D01*
X146627866Y-74403781D01*
X146616830Y-74385368D01*
X146607651Y-74365962D01*
X146600419Y-74345750D01*
X146595203Y-74324926D01*
X146592053Y-74303691D01*
X146591000Y-74282250D01*
X146591000Y-73844750D01*
X146592053Y-73823309D01*
X146595203Y-73802074D01*
X146600419Y-73781250D01*
X146607651Y-73761038D01*
X146616830Y-73741632D01*
X146627866Y-73723219D01*
X146640654Y-73705976D01*
X146655070Y-73690070D01*
X146670976Y-73675654D01*
X146688219Y-73662866D01*
X146706632Y-73651830D01*
X146726038Y-73642651D01*
X146746250Y-73635419D01*
X146767074Y-73630203D01*
X146788309Y-73627053D01*
X146809750Y-73626000D01*
X147322250Y-73626000D01*
X147343691Y-73627053D01*
X147343691Y-73627053D01*
G37*
D11*
G04 #@! TD*
G04 #@! TO.P,C4,2*
G04 #@! TO.N,GND*
X147066000Y-74063500D03*
D10*
G04 #@! TO.N,Net-(C4-Pad1)*
G04 #@! TO.C,C4*
G36*
X147343691Y-75202053D02*
X147364926Y-75205203D01*
X147385750Y-75210419D01*
X147405962Y-75217651D01*
X147425368Y-75226830D01*
X147443781Y-75237866D01*
X147461024Y-75250654D01*
X147476930Y-75265070D01*
X147491346Y-75280976D01*
X147504134Y-75298219D01*
X147515170Y-75316632D01*
X147524349Y-75336038D01*
X147531581Y-75356250D01*
X147536797Y-75377074D01*
X147539947Y-75398309D01*
X147541000Y-75419750D01*
X147541000Y-75857250D01*
X147539947Y-75878691D01*
X147536797Y-75899926D01*
X147531581Y-75920750D01*
X147524349Y-75940962D01*
X147515170Y-75960368D01*
X147504134Y-75978781D01*
X147491346Y-75996024D01*
X147476930Y-76011930D01*
X147461024Y-76026346D01*
X147443781Y-76039134D01*
X147425368Y-76050170D01*
X147405962Y-76059349D01*
X147385750Y-76066581D01*
X147364926Y-76071797D01*
X147343691Y-76074947D01*
X147322250Y-76076000D01*
X146809750Y-76076000D01*
X146788309Y-76074947D01*
X146767074Y-76071797D01*
X146746250Y-76066581D01*
X146726038Y-76059349D01*
X146706632Y-76050170D01*
X146688219Y-76039134D01*
X146670976Y-76026346D01*
X146655070Y-76011930D01*
X146640654Y-75996024D01*
X146627866Y-75978781D01*
X146616830Y-75960368D01*
X146607651Y-75940962D01*
X146600419Y-75920750D01*
X146595203Y-75899926D01*
X146592053Y-75878691D01*
X146591000Y-75857250D01*
X146591000Y-75419750D01*
X146592053Y-75398309D01*
X146595203Y-75377074D01*
X146600419Y-75356250D01*
X146607651Y-75336038D01*
X146616830Y-75316632D01*
X146627866Y-75298219D01*
X146640654Y-75280976D01*
X146655070Y-75265070D01*
X146670976Y-75250654D01*
X146688219Y-75237866D01*
X146706632Y-75226830D01*
X146726038Y-75217651D01*
X146746250Y-75210419D01*
X146767074Y-75205203D01*
X146788309Y-75202053D01*
X146809750Y-75201000D01*
X147322250Y-75201000D01*
X147343691Y-75202053D01*
X147343691Y-75202053D01*
G37*
D11*
G04 #@! TD*
G04 #@! TO.P,C4,1*
G04 #@! TO.N,Net-(C4-Pad1)*
X147066000Y-75638500D03*
D10*
G04 #@! TO.N,+12V*
G04 #@! TO.C,C5*
G36*
X155725691Y-83434553D02*
X155746926Y-83437703D01*
X155767750Y-83442919D01*
X155787962Y-83450151D01*
X155807368Y-83459330D01*
X155825781Y-83470366D01*
X155843024Y-83483154D01*
X155858930Y-83497570D01*
X155873346Y-83513476D01*
X155886134Y-83530719D01*
X155897170Y-83549132D01*
X155906349Y-83568538D01*
X155913581Y-83588750D01*
X155918797Y-83609574D01*
X155921947Y-83630809D01*
X155923000Y-83652250D01*
X155923000Y-84089750D01*
X155921947Y-84111191D01*
X155918797Y-84132426D01*
X155913581Y-84153250D01*
X155906349Y-84173462D01*
X155897170Y-84192868D01*
X155886134Y-84211281D01*
X155873346Y-84228524D01*
X155858930Y-84244430D01*
X155843024Y-84258846D01*
X155825781Y-84271634D01*
X155807368Y-84282670D01*
X155787962Y-84291849D01*
X155767750Y-84299081D01*
X155746926Y-84304297D01*
X155725691Y-84307447D01*
X155704250Y-84308500D01*
X155191750Y-84308500D01*
X155170309Y-84307447D01*
X155149074Y-84304297D01*
X155128250Y-84299081D01*
X155108038Y-84291849D01*
X155088632Y-84282670D01*
X155070219Y-84271634D01*
X155052976Y-84258846D01*
X155037070Y-84244430D01*
X155022654Y-84228524D01*
X155009866Y-84211281D01*
X154998830Y-84192868D01*
X154989651Y-84173462D01*
X154982419Y-84153250D01*
X154977203Y-84132426D01*
X154974053Y-84111191D01*
X154973000Y-84089750D01*
X154973000Y-83652250D01*
X154974053Y-83630809D01*
X154977203Y-83609574D01*
X154982419Y-83588750D01*
X154989651Y-83568538D01*
X154998830Y-83549132D01*
X155009866Y-83530719D01*
X155022654Y-83513476D01*
X155037070Y-83497570D01*
X155052976Y-83483154D01*
X155070219Y-83470366D01*
X155088632Y-83459330D01*
X155108038Y-83450151D01*
X155128250Y-83442919D01*
X155149074Y-83437703D01*
X155170309Y-83434553D01*
X155191750Y-83433500D01*
X155704250Y-83433500D01*
X155725691Y-83434553D01*
X155725691Y-83434553D01*
G37*
D11*
G04 #@! TD*
G04 #@! TO.P,C5,1*
G04 #@! TO.N,+12V*
X155448000Y-83871000D03*
D10*
G04 #@! TO.N,GND*
G04 #@! TO.C,C5*
G36*
X155725691Y-81859553D02*
X155746926Y-81862703D01*
X155767750Y-81867919D01*
X155787962Y-81875151D01*
X155807368Y-81884330D01*
X155825781Y-81895366D01*
X155843024Y-81908154D01*
X155858930Y-81922570D01*
X155873346Y-81938476D01*
X155886134Y-81955719D01*
X155897170Y-81974132D01*
X155906349Y-81993538D01*
X155913581Y-82013750D01*
X155918797Y-82034574D01*
X155921947Y-82055809D01*
X155923000Y-82077250D01*
X155923000Y-82514750D01*
X155921947Y-82536191D01*
X155918797Y-82557426D01*
X155913581Y-82578250D01*
X155906349Y-82598462D01*
X155897170Y-82617868D01*
X155886134Y-82636281D01*
X155873346Y-82653524D01*
X155858930Y-82669430D01*
X155843024Y-82683846D01*
X155825781Y-82696634D01*
X155807368Y-82707670D01*
X155787962Y-82716849D01*
X155767750Y-82724081D01*
X155746926Y-82729297D01*
X155725691Y-82732447D01*
X155704250Y-82733500D01*
X155191750Y-82733500D01*
X155170309Y-82732447D01*
X155149074Y-82729297D01*
X155128250Y-82724081D01*
X155108038Y-82716849D01*
X155088632Y-82707670D01*
X155070219Y-82696634D01*
X155052976Y-82683846D01*
X155037070Y-82669430D01*
X155022654Y-82653524D01*
X155009866Y-82636281D01*
X154998830Y-82617868D01*
X154989651Y-82598462D01*
X154982419Y-82578250D01*
X154977203Y-82557426D01*
X154974053Y-82536191D01*
X154973000Y-82514750D01*
X154973000Y-82077250D01*
X154974053Y-82055809D01*
X154977203Y-82034574D01*
X154982419Y-82013750D01*
X154989651Y-81993538D01*
X154998830Y-81974132D01*
X155009866Y-81955719D01*
X155022654Y-81938476D01*
X155037070Y-81922570D01*
X155052976Y-81908154D01*
X155070219Y-81895366D01*
X155088632Y-81884330D01*
X155108038Y-81875151D01*
X155128250Y-81867919D01*
X155149074Y-81862703D01*
X155170309Y-81859553D01*
X155191750Y-81858500D01*
X155704250Y-81858500D01*
X155725691Y-81859553D01*
X155725691Y-81859553D01*
G37*
D11*
G04 #@! TD*
G04 #@! TO.P,C5,2*
G04 #@! TO.N,GND*
X155448000Y-82296000D03*
D12*
G04 #@! TO.P,D1,1*
G04 #@! TO.N,Net-(D1-Pad1)*
X161020000Y-81976000D03*
G04 #@! TO.P,D1,2*
G04 #@! TO.N,/Vref*
X161020000Y-80076000D03*
G04 #@! TO.P,D1,3*
G04 #@! TO.N,GND*
X159020000Y-81026000D03*
G04 #@! TD*
D10*
G04 #@! TO.N,Net-(C3-Pad1)*
G04 #@! TO.C,D2*
G36*
X145392505Y-82359204D02*
X145416773Y-82362804D01*
X145440572Y-82368765D01*
X145463671Y-82377030D01*
X145485850Y-82387520D01*
X145506893Y-82400132D01*
X145526599Y-82414747D01*
X145544777Y-82431223D01*
X145561253Y-82449401D01*
X145575868Y-82469107D01*
X145588480Y-82490150D01*
X145598970Y-82512329D01*
X145607235Y-82535428D01*
X145613196Y-82559227D01*
X145616796Y-82583495D01*
X145618000Y-82607999D01*
X145618000Y-83508001D01*
X145616796Y-83532505D01*
X145613196Y-83556773D01*
X145607235Y-83580572D01*
X145598970Y-83603671D01*
X145588480Y-83625850D01*
X145575868Y-83646893D01*
X145561253Y-83666599D01*
X145544777Y-83684777D01*
X145526599Y-83701253D01*
X145506893Y-83715868D01*
X145485850Y-83728480D01*
X145463671Y-83738970D01*
X145440572Y-83747235D01*
X145416773Y-83753196D01*
X145392505Y-83756796D01*
X145368001Y-83758000D01*
X144717999Y-83758000D01*
X144693495Y-83756796D01*
X144669227Y-83753196D01*
X144645428Y-83747235D01*
X144622329Y-83738970D01*
X144600150Y-83728480D01*
X144579107Y-83715868D01*
X144559401Y-83701253D01*
X144541223Y-83684777D01*
X144524747Y-83666599D01*
X144510132Y-83646893D01*
X144497520Y-83625850D01*
X144487030Y-83603671D01*
X144478765Y-83580572D01*
X144472804Y-83556773D01*
X144469204Y-83532505D01*
X144468000Y-83508001D01*
X144468000Y-82607999D01*
X144469204Y-82583495D01*
X144472804Y-82559227D01*
X144478765Y-82535428D01*
X144487030Y-82512329D01*
X144497520Y-82490150D01*
X144510132Y-82469107D01*
X144524747Y-82449401D01*
X144541223Y-82431223D01*
X144559401Y-82414747D01*
X144579107Y-82400132D01*
X144600150Y-82387520D01*
X144622329Y-82377030D01*
X144645428Y-82368765D01*
X144669227Y-82362804D01*
X144693495Y-82359204D01*
X144717999Y-82358000D01*
X145368001Y-82358000D01*
X145392505Y-82359204D01*
X145392505Y-82359204D01*
G37*
D13*
G04 #@! TD*
G04 #@! TO.P,D2,1*
G04 #@! TO.N,Net-(C3-Pad1)*
X145043000Y-83058000D03*
D10*
G04 #@! TO.N,/ch2_input*
G04 #@! TO.C,D2*
G36*
X143342505Y-82359204D02*
X143366773Y-82362804D01*
X143390572Y-82368765D01*
X143413671Y-82377030D01*
X143435850Y-82387520D01*
X143456893Y-82400132D01*
X143476599Y-82414747D01*
X143494777Y-82431223D01*
X143511253Y-82449401D01*
X143525868Y-82469107D01*
X143538480Y-82490150D01*
X143548970Y-82512329D01*
X143557235Y-82535428D01*
X143563196Y-82559227D01*
X143566796Y-82583495D01*
X143568000Y-82607999D01*
X143568000Y-83508001D01*
X143566796Y-83532505D01*
X143563196Y-83556773D01*
X143557235Y-83580572D01*
X143548970Y-83603671D01*
X143538480Y-83625850D01*
X143525868Y-83646893D01*
X143511253Y-83666599D01*
X143494777Y-83684777D01*
X143476599Y-83701253D01*
X143456893Y-83715868D01*
X143435850Y-83728480D01*
X143413671Y-83738970D01*
X143390572Y-83747235D01*
X143366773Y-83753196D01*
X143342505Y-83756796D01*
X143318001Y-83758000D01*
X142667999Y-83758000D01*
X142643495Y-83756796D01*
X142619227Y-83753196D01*
X142595428Y-83747235D01*
X142572329Y-83738970D01*
X142550150Y-83728480D01*
X142529107Y-83715868D01*
X142509401Y-83701253D01*
X142491223Y-83684777D01*
X142474747Y-83666599D01*
X142460132Y-83646893D01*
X142447520Y-83625850D01*
X142437030Y-83603671D01*
X142428765Y-83580572D01*
X142422804Y-83556773D01*
X142419204Y-83532505D01*
X142418000Y-83508001D01*
X142418000Y-82607999D01*
X142419204Y-82583495D01*
X142422804Y-82559227D01*
X142428765Y-82535428D01*
X142437030Y-82512329D01*
X142447520Y-82490150D01*
X142460132Y-82469107D01*
X142474747Y-82449401D01*
X142491223Y-82431223D01*
X142509401Y-82414747D01*
X142529107Y-82400132D01*
X142550150Y-82387520D01*
X142572329Y-82377030D01*
X142595428Y-82368765D01*
X142619227Y-82362804D01*
X142643495Y-82359204D01*
X142667999Y-82358000D01*
X143318001Y-82358000D01*
X143342505Y-82359204D01*
X143342505Y-82359204D01*
G37*
D13*
G04 #@! TD*
G04 #@! TO.P,D2,2*
G04 #@! TO.N,/ch2_input*
X142993000Y-83058000D03*
D10*
G04 #@! TO.N,/ch1_input*
G04 #@! TO.C,D3*
G36*
X143342505Y-78803204D02*
X143366773Y-78806804D01*
X143390572Y-78812765D01*
X143413671Y-78821030D01*
X143435850Y-78831520D01*
X143456893Y-78844132D01*
X143476599Y-78858747D01*
X143494777Y-78875223D01*
X143511253Y-78893401D01*
X143525868Y-78913107D01*
X143538480Y-78934150D01*
X143548970Y-78956329D01*
X143557235Y-78979428D01*
X143563196Y-79003227D01*
X143566796Y-79027495D01*
X143568000Y-79051999D01*
X143568000Y-79952001D01*
X143566796Y-79976505D01*
X143563196Y-80000773D01*
X143557235Y-80024572D01*
X143548970Y-80047671D01*
X143538480Y-80069850D01*
X143525868Y-80090893D01*
X143511253Y-80110599D01*
X143494777Y-80128777D01*
X143476599Y-80145253D01*
X143456893Y-80159868D01*
X143435850Y-80172480D01*
X143413671Y-80182970D01*
X143390572Y-80191235D01*
X143366773Y-80197196D01*
X143342505Y-80200796D01*
X143318001Y-80202000D01*
X142667999Y-80202000D01*
X142643495Y-80200796D01*
X142619227Y-80197196D01*
X142595428Y-80191235D01*
X142572329Y-80182970D01*
X142550150Y-80172480D01*
X142529107Y-80159868D01*
X142509401Y-80145253D01*
X142491223Y-80128777D01*
X142474747Y-80110599D01*
X142460132Y-80090893D01*
X142447520Y-80069850D01*
X142437030Y-80047671D01*
X142428765Y-80024572D01*
X142422804Y-80000773D01*
X142419204Y-79976505D01*
X142418000Y-79952001D01*
X142418000Y-79051999D01*
X142419204Y-79027495D01*
X142422804Y-79003227D01*
X142428765Y-78979428D01*
X142437030Y-78956329D01*
X142447520Y-78934150D01*
X142460132Y-78913107D01*
X142474747Y-78893401D01*
X142491223Y-78875223D01*
X142509401Y-78858747D01*
X142529107Y-78844132D01*
X142550150Y-78831520D01*
X142572329Y-78821030D01*
X142595428Y-78812765D01*
X142619227Y-78806804D01*
X142643495Y-78803204D01*
X142667999Y-78802000D01*
X143318001Y-78802000D01*
X143342505Y-78803204D01*
X143342505Y-78803204D01*
G37*
D13*
G04 #@! TD*
G04 #@! TO.P,D3,2*
G04 #@! TO.N,/ch1_input*
X142993000Y-79502000D03*
D10*
G04 #@! TO.N,Net-(C4-Pad1)*
G04 #@! TO.C,D3*
G36*
X145392505Y-78803204D02*
X145416773Y-78806804D01*
X145440572Y-78812765D01*
X145463671Y-78821030D01*
X145485850Y-78831520D01*
X145506893Y-78844132D01*
X145526599Y-78858747D01*
X145544777Y-78875223D01*
X145561253Y-78893401D01*
X145575868Y-78913107D01*
X145588480Y-78934150D01*
X145598970Y-78956329D01*
X145607235Y-78979428D01*
X145613196Y-79003227D01*
X145616796Y-79027495D01*
X145618000Y-79051999D01*
X145618000Y-79952001D01*
X145616796Y-79976505D01*
X145613196Y-80000773D01*
X145607235Y-80024572D01*
X145598970Y-80047671D01*
X145588480Y-80069850D01*
X145575868Y-80090893D01*
X145561253Y-80110599D01*
X145544777Y-80128777D01*
X145526599Y-80145253D01*
X145506893Y-80159868D01*
X145485850Y-80172480D01*
X145463671Y-80182970D01*
X145440572Y-80191235D01*
X145416773Y-80197196D01*
X145392505Y-80200796D01*
X145368001Y-80202000D01*
X144717999Y-80202000D01*
X144693495Y-80200796D01*
X144669227Y-80197196D01*
X144645428Y-80191235D01*
X144622329Y-80182970D01*
X144600150Y-80172480D01*
X144579107Y-80159868D01*
X144559401Y-80145253D01*
X144541223Y-80128777D01*
X144524747Y-80110599D01*
X144510132Y-80090893D01*
X144497520Y-80069850D01*
X144487030Y-80047671D01*
X144478765Y-80024572D01*
X144472804Y-80000773D01*
X144469204Y-79976505D01*
X144468000Y-79952001D01*
X144468000Y-79051999D01*
X144469204Y-79027495D01*
X144472804Y-79003227D01*
X144478765Y-78979428D01*
X144487030Y-78956329D01*
X144497520Y-78934150D01*
X144510132Y-78913107D01*
X144524747Y-78893401D01*
X144541223Y-78875223D01*
X144559401Y-78858747D01*
X144579107Y-78844132D01*
X144600150Y-78831520D01*
X144622329Y-78821030D01*
X144645428Y-78812765D01*
X144669227Y-78806804D01*
X144693495Y-78803204D01*
X144717999Y-78802000D01*
X145368001Y-78802000D01*
X145392505Y-78803204D01*
X145392505Y-78803204D01*
G37*
D13*
G04 #@! TD*
G04 #@! TO.P,D3,1*
G04 #@! TO.N,Net-(C4-Pad1)*
X145043000Y-79502000D03*
D10*
G04 #@! TO.N,+12V*
G04 #@! TO.C,D4*
G36*
X161131505Y-74322204D02*
X161155773Y-74325804D01*
X161179572Y-74331765D01*
X161202671Y-74340030D01*
X161224850Y-74350520D01*
X161245893Y-74363132D01*
X161265599Y-74377747D01*
X161283777Y-74394223D01*
X161300253Y-74412401D01*
X161314868Y-74432107D01*
X161327480Y-74453150D01*
X161337970Y-74475329D01*
X161346235Y-74498428D01*
X161352196Y-74522227D01*
X161355796Y-74546495D01*
X161357000Y-74570999D01*
X161357000Y-75471001D01*
X161355796Y-75495505D01*
X161352196Y-75519773D01*
X161346235Y-75543572D01*
X161337970Y-75566671D01*
X161327480Y-75588850D01*
X161314868Y-75609893D01*
X161300253Y-75629599D01*
X161283777Y-75647777D01*
X161265599Y-75664253D01*
X161245893Y-75678868D01*
X161224850Y-75691480D01*
X161202671Y-75701970D01*
X161179572Y-75710235D01*
X161155773Y-75716196D01*
X161131505Y-75719796D01*
X161107001Y-75721000D01*
X160456999Y-75721000D01*
X160432495Y-75719796D01*
X160408227Y-75716196D01*
X160384428Y-75710235D01*
X160361329Y-75701970D01*
X160339150Y-75691480D01*
X160318107Y-75678868D01*
X160298401Y-75664253D01*
X160280223Y-75647777D01*
X160263747Y-75629599D01*
X160249132Y-75609893D01*
X160236520Y-75588850D01*
X160226030Y-75566671D01*
X160217765Y-75543572D01*
X160211804Y-75519773D01*
X160208204Y-75495505D01*
X160207000Y-75471001D01*
X160207000Y-74570999D01*
X160208204Y-74546495D01*
X160211804Y-74522227D01*
X160217765Y-74498428D01*
X160226030Y-74475329D01*
X160236520Y-74453150D01*
X160249132Y-74432107D01*
X160263747Y-74412401D01*
X160280223Y-74394223D01*
X160298401Y-74377747D01*
X160318107Y-74363132D01*
X160339150Y-74350520D01*
X160361329Y-74340030D01*
X160384428Y-74331765D01*
X160408227Y-74325804D01*
X160432495Y-74322204D01*
X160456999Y-74321000D01*
X161107001Y-74321000D01*
X161131505Y-74322204D01*
X161131505Y-74322204D01*
G37*
D13*
G04 #@! TD*
G04 #@! TO.P,D4,1*
G04 #@! TO.N,+12V*
X160782000Y-75021000D03*
D10*
G04 #@! TO.N,Net-(D4-Pad2)*
G04 #@! TO.C,D4*
G36*
X159081505Y-74322204D02*
X159105773Y-74325804D01*
X159129572Y-74331765D01*
X159152671Y-74340030D01*
X159174850Y-74350520D01*
X159195893Y-74363132D01*
X159215599Y-74377747D01*
X159233777Y-74394223D01*
X159250253Y-74412401D01*
X159264868Y-74432107D01*
X159277480Y-74453150D01*
X159287970Y-74475329D01*
X159296235Y-74498428D01*
X159302196Y-74522227D01*
X159305796Y-74546495D01*
X159307000Y-74570999D01*
X159307000Y-75471001D01*
X159305796Y-75495505D01*
X159302196Y-75519773D01*
X159296235Y-75543572D01*
X159287970Y-75566671D01*
X159277480Y-75588850D01*
X159264868Y-75609893D01*
X159250253Y-75629599D01*
X159233777Y-75647777D01*
X159215599Y-75664253D01*
X159195893Y-75678868D01*
X159174850Y-75691480D01*
X159152671Y-75701970D01*
X159129572Y-75710235D01*
X159105773Y-75716196D01*
X159081505Y-75719796D01*
X159057001Y-75721000D01*
X158406999Y-75721000D01*
X158382495Y-75719796D01*
X158358227Y-75716196D01*
X158334428Y-75710235D01*
X158311329Y-75701970D01*
X158289150Y-75691480D01*
X158268107Y-75678868D01*
X158248401Y-75664253D01*
X158230223Y-75647777D01*
X158213747Y-75629599D01*
X158199132Y-75609893D01*
X158186520Y-75588850D01*
X158176030Y-75566671D01*
X158167765Y-75543572D01*
X158161804Y-75519773D01*
X158158204Y-75495505D01*
X158157000Y-75471001D01*
X158157000Y-74570999D01*
X158158204Y-74546495D01*
X158161804Y-74522227D01*
X158167765Y-74498428D01*
X158176030Y-74475329D01*
X158186520Y-74453150D01*
X158199132Y-74432107D01*
X158213747Y-74412401D01*
X158230223Y-74394223D01*
X158248401Y-74377747D01*
X158268107Y-74363132D01*
X158289150Y-74350520D01*
X158311329Y-74340030D01*
X158334428Y-74331765D01*
X158358227Y-74325804D01*
X158382495Y-74322204D01*
X158406999Y-74321000D01*
X159057001Y-74321000D01*
X159081505Y-74322204D01*
X159081505Y-74322204D01*
G37*
D13*
G04 #@! TD*
G04 #@! TO.P,D4,2*
G04 #@! TO.N,Net-(D4-Pad2)*
X158732000Y-75021000D03*
D10*
G04 #@! TO.N,Net-(D5-Pad2)*
G04 #@! TO.C,D5*
G36*
X159099505Y-86397704D02*
X159123773Y-86401304D01*
X159147572Y-86407265D01*
X159170671Y-86415530D01*
X159192850Y-86426020D01*
X159213893Y-86438632D01*
X159233599Y-86453247D01*
X159251777Y-86469723D01*
X159268253Y-86487901D01*
X159282868Y-86507607D01*
X159295480Y-86528650D01*
X159305970Y-86550829D01*
X159314235Y-86573928D01*
X159320196Y-86597727D01*
X159323796Y-86621995D01*
X159325000Y-86646499D01*
X159325000Y-87546501D01*
X159323796Y-87571005D01*
X159320196Y-87595273D01*
X159314235Y-87619072D01*
X159305970Y-87642171D01*
X159295480Y-87664350D01*
X159282868Y-87685393D01*
X159268253Y-87705099D01*
X159251777Y-87723277D01*
X159233599Y-87739753D01*
X159213893Y-87754368D01*
X159192850Y-87766980D01*
X159170671Y-87777470D01*
X159147572Y-87785735D01*
X159123773Y-87791696D01*
X159099505Y-87795296D01*
X159075001Y-87796500D01*
X158424999Y-87796500D01*
X158400495Y-87795296D01*
X158376227Y-87791696D01*
X158352428Y-87785735D01*
X158329329Y-87777470D01*
X158307150Y-87766980D01*
X158286107Y-87754368D01*
X158266401Y-87739753D01*
X158248223Y-87723277D01*
X158231747Y-87705099D01*
X158217132Y-87685393D01*
X158204520Y-87664350D01*
X158194030Y-87642171D01*
X158185765Y-87619072D01*
X158179804Y-87595273D01*
X158176204Y-87571005D01*
X158175000Y-87546501D01*
X158175000Y-86646499D01*
X158176204Y-86621995D01*
X158179804Y-86597727D01*
X158185765Y-86573928D01*
X158194030Y-86550829D01*
X158204520Y-86528650D01*
X158217132Y-86507607D01*
X158231747Y-86487901D01*
X158248223Y-86469723D01*
X158266401Y-86453247D01*
X158286107Y-86438632D01*
X158307150Y-86426020D01*
X158329329Y-86415530D01*
X158352428Y-86407265D01*
X158376227Y-86401304D01*
X158400495Y-86397704D01*
X158424999Y-86396500D01*
X159075001Y-86396500D01*
X159099505Y-86397704D01*
X159099505Y-86397704D01*
G37*
D13*
G04 #@! TD*
G04 #@! TO.P,D5,2*
G04 #@! TO.N,Net-(D5-Pad2)*
X158750000Y-87096500D03*
D10*
G04 #@! TO.N,+12V*
G04 #@! TO.C,D5*
G36*
X161149505Y-86397704D02*
X161173773Y-86401304D01*
X161197572Y-86407265D01*
X161220671Y-86415530D01*
X161242850Y-86426020D01*
X161263893Y-86438632D01*
X161283599Y-86453247D01*
X161301777Y-86469723D01*
X161318253Y-86487901D01*
X161332868Y-86507607D01*
X161345480Y-86528650D01*
X161355970Y-86550829D01*
X161364235Y-86573928D01*
X161370196Y-86597727D01*
X161373796Y-86621995D01*
X161375000Y-86646499D01*
X161375000Y-87546501D01*
X161373796Y-87571005D01*
X161370196Y-87595273D01*
X161364235Y-87619072D01*
X161355970Y-87642171D01*
X161345480Y-87664350D01*
X161332868Y-87685393D01*
X161318253Y-87705099D01*
X161301777Y-87723277D01*
X161283599Y-87739753D01*
X161263893Y-87754368D01*
X161242850Y-87766980D01*
X161220671Y-87777470D01*
X161197572Y-87785735D01*
X161173773Y-87791696D01*
X161149505Y-87795296D01*
X161125001Y-87796500D01*
X160474999Y-87796500D01*
X160450495Y-87795296D01*
X160426227Y-87791696D01*
X160402428Y-87785735D01*
X160379329Y-87777470D01*
X160357150Y-87766980D01*
X160336107Y-87754368D01*
X160316401Y-87739753D01*
X160298223Y-87723277D01*
X160281747Y-87705099D01*
X160267132Y-87685393D01*
X160254520Y-87664350D01*
X160244030Y-87642171D01*
X160235765Y-87619072D01*
X160229804Y-87595273D01*
X160226204Y-87571005D01*
X160225000Y-87546501D01*
X160225000Y-86646499D01*
X160226204Y-86621995D01*
X160229804Y-86597727D01*
X160235765Y-86573928D01*
X160244030Y-86550829D01*
X160254520Y-86528650D01*
X160267132Y-86507607D01*
X160281747Y-86487901D01*
X160298223Y-86469723D01*
X160316401Y-86453247D01*
X160336107Y-86438632D01*
X160357150Y-86426020D01*
X160379329Y-86415530D01*
X160402428Y-86407265D01*
X160426227Y-86401304D01*
X160450495Y-86397704D01*
X160474999Y-86396500D01*
X161125001Y-86396500D01*
X161149505Y-86397704D01*
X161149505Y-86397704D01*
G37*
D13*
G04 #@! TD*
G04 #@! TO.P,D5,1*
G04 #@! TO.N,+12V*
X160800000Y-87096500D03*
D10*
G04 #@! TO.N,/ch1_input*
G04 #@! TO.C,J1*
G36*
X136514504Y-67606204D02*
X136538773Y-67609804D01*
X136562571Y-67615765D01*
X136585671Y-67624030D01*
X136607849Y-67634520D01*
X136628893Y-67647133D01*
X136648598Y-67661747D01*
X136666777Y-67678223D01*
X136683253Y-67696402D01*
X136697867Y-67716107D01*
X136710480Y-67737151D01*
X136720970Y-67759329D01*
X136729235Y-67782429D01*
X136735196Y-67806227D01*
X136738796Y-67830496D01*
X136740000Y-67855000D01*
X136740000Y-69305000D01*
X136738796Y-69329504D01*
X136735196Y-69353773D01*
X136729235Y-69377571D01*
X136720970Y-69400671D01*
X136710480Y-69422849D01*
X136697867Y-69443893D01*
X136683253Y-69463598D01*
X136666777Y-69481777D01*
X136648598Y-69498253D01*
X136628893Y-69512867D01*
X136607849Y-69525480D01*
X136585671Y-69535970D01*
X136562571Y-69544235D01*
X136538773Y-69550196D01*
X136514504Y-69553796D01*
X136490000Y-69555000D01*
X135290000Y-69555000D01*
X135265496Y-69553796D01*
X135241227Y-69550196D01*
X135217429Y-69544235D01*
X135194329Y-69535970D01*
X135172151Y-69525480D01*
X135151107Y-69512867D01*
X135131402Y-69498253D01*
X135113223Y-69481777D01*
X135096747Y-69463598D01*
X135082133Y-69443893D01*
X135069520Y-69422849D01*
X135059030Y-69400671D01*
X135050765Y-69377571D01*
X135044804Y-69353773D01*
X135041204Y-69329504D01*
X135040000Y-69305000D01*
X135040000Y-67855000D01*
X135041204Y-67830496D01*
X135044804Y-67806227D01*
X135050765Y-67782429D01*
X135059030Y-67759329D01*
X135069520Y-67737151D01*
X135082133Y-67716107D01*
X135096747Y-67696402D01*
X135113223Y-67678223D01*
X135131402Y-67661747D01*
X135151107Y-67647133D01*
X135172151Y-67634520D01*
X135194329Y-67624030D01*
X135217429Y-67615765D01*
X135241227Y-67609804D01*
X135265496Y-67606204D01*
X135290000Y-67605000D01*
X136490000Y-67605000D01*
X136514504Y-67606204D01*
X136514504Y-67606204D01*
G37*
D14*
G04 #@! TD*
G04 #@! TO.P,J1,1*
G04 #@! TO.N,/ch1_input*
X135890000Y-68580000D03*
D15*
G04 #@! TO.P,J1,2*
G04 #@! TO.N,GND*
X138390000Y-68580000D03*
G04 #@! TO.P,J1,3*
G04 #@! TO.N,/ch2_input*
X140890000Y-68580000D03*
G04 #@! TD*
G04 #@! TO.P,J2,3*
G04 #@! TO.N,/ch2_input*
X140890000Y-92456000D03*
G04 #@! TO.P,J2,2*
G04 #@! TO.N,GND*
X138390000Y-92456000D03*
D10*
G04 #@! TD*
G04 #@! TO.N,/ch1_input*
G04 #@! TO.C,J2*
G36*
X136514504Y-91482204D02*
X136538773Y-91485804D01*
X136562571Y-91491765D01*
X136585671Y-91500030D01*
X136607849Y-91510520D01*
X136628893Y-91523133D01*
X136648598Y-91537747D01*
X136666777Y-91554223D01*
X136683253Y-91572402D01*
X136697867Y-91592107D01*
X136710480Y-91613151D01*
X136720970Y-91635329D01*
X136729235Y-91658429D01*
X136735196Y-91682227D01*
X136738796Y-91706496D01*
X136740000Y-91731000D01*
X136740000Y-93181000D01*
X136738796Y-93205504D01*
X136735196Y-93229773D01*
X136729235Y-93253571D01*
X136720970Y-93276671D01*
X136710480Y-93298849D01*
X136697867Y-93319893D01*
X136683253Y-93339598D01*
X136666777Y-93357777D01*
X136648598Y-93374253D01*
X136628893Y-93388867D01*
X136607849Y-93401480D01*
X136585671Y-93411970D01*
X136562571Y-93420235D01*
X136538773Y-93426196D01*
X136514504Y-93429796D01*
X136490000Y-93431000D01*
X135290000Y-93431000D01*
X135265496Y-93429796D01*
X135241227Y-93426196D01*
X135217429Y-93420235D01*
X135194329Y-93411970D01*
X135172151Y-93401480D01*
X135151107Y-93388867D01*
X135131402Y-93374253D01*
X135113223Y-93357777D01*
X135096747Y-93339598D01*
X135082133Y-93319893D01*
X135069520Y-93298849D01*
X135059030Y-93276671D01*
X135050765Y-93253571D01*
X135044804Y-93229773D01*
X135041204Y-93205504D01*
X135040000Y-93181000D01*
X135040000Y-91731000D01*
X135041204Y-91706496D01*
X135044804Y-91682227D01*
X135050765Y-91658429D01*
X135059030Y-91635329D01*
X135069520Y-91613151D01*
X135082133Y-91592107D01*
X135096747Y-91572402D01*
X135113223Y-91554223D01*
X135131402Y-91537747D01*
X135151107Y-91523133D01*
X135172151Y-91510520D01*
X135194329Y-91500030D01*
X135217429Y-91491765D01*
X135241227Y-91485804D01*
X135265496Y-91482204D01*
X135290000Y-91481000D01*
X136490000Y-91481000D01*
X136514504Y-91482204D01*
X136514504Y-91482204D01*
G37*
D14*
G04 #@! TO.P,J2,1*
G04 #@! TO.N,/ch1_input*
X135890000Y-92456000D03*
G04 #@! TD*
D15*
G04 #@! TO.P,J5,4*
G04 #@! TO.N,GND*
X163456000Y-68580000D03*
G04 #@! TO.P,J5,3*
G04 #@! TO.N,/ch1_input*
X160956000Y-68580000D03*
G04 #@! TO.P,J5,2*
G04 #@! TO.N,Net-(D4-Pad2)*
X158456000Y-68580000D03*
D10*
G04 #@! TD*
G04 #@! TO.N,/ch1_enable*
G04 #@! TO.C,J5*
G36*
X156580504Y-67606204D02*
X156604773Y-67609804D01*
X156628571Y-67615765D01*
X156651671Y-67624030D01*
X156673849Y-67634520D01*
X156694893Y-67647133D01*
X156714598Y-67661747D01*
X156732777Y-67678223D01*
X156749253Y-67696402D01*
X156763867Y-67716107D01*
X156776480Y-67737151D01*
X156786970Y-67759329D01*
X156795235Y-67782429D01*
X156801196Y-67806227D01*
X156804796Y-67830496D01*
X156806000Y-67855000D01*
X156806000Y-69305000D01*
X156804796Y-69329504D01*
X156801196Y-69353773D01*
X156795235Y-69377571D01*
X156786970Y-69400671D01*
X156776480Y-69422849D01*
X156763867Y-69443893D01*
X156749253Y-69463598D01*
X156732777Y-69481777D01*
X156714598Y-69498253D01*
X156694893Y-69512867D01*
X156673849Y-69525480D01*
X156651671Y-69535970D01*
X156628571Y-69544235D01*
X156604773Y-69550196D01*
X156580504Y-69553796D01*
X156556000Y-69555000D01*
X155356000Y-69555000D01*
X155331496Y-69553796D01*
X155307227Y-69550196D01*
X155283429Y-69544235D01*
X155260329Y-69535970D01*
X155238151Y-69525480D01*
X155217107Y-69512867D01*
X155197402Y-69498253D01*
X155179223Y-69481777D01*
X155162747Y-69463598D01*
X155148133Y-69443893D01*
X155135520Y-69422849D01*
X155125030Y-69400671D01*
X155116765Y-69377571D01*
X155110804Y-69353773D01*
X155107204Y-69329504D01*
X155106000Y-69305000D01*
X155106000Y-67855000D01*
X155107204Y-67830496D01*
X155110804Y-67806227D01*
X155116765Y-67782429D01*
X155125030Y-67759329D01*
X155135520Y-67737151D01*
X155148133Y-67716107D01*
X155162747Y-67696402D01*
X155179223Y-67678223D01*
X155197402Y-67661747D01*
X155217107Y-67647133D01*
X155238151Y-67634520D01*
X155260329Y-67624030D01*
X155283429Y-67615765D01*
X155307227Y-67609804D01*
X155331496Y-67606204D01*
X155356000Y-67605000D01*
X156556000Y-67605000D01*
X156580504Y-67606204D01*
X156580504Y-67606204D01*
G37*
D14*
G04 #@! TO.P,J5,1*
G04 #@! TO.N,/ch1_enable*
X155956000Y-68580000D03*
G04 #@! TD*
D10*
G04 #@! TO.N,/ch2_enable*
G04 #@! TO.C,J6*
G36*
X156580504Y-91482204D02*
X156604773Y-91485804D01*
X156628571Y-91491765D01*
X156651671Y-91500030D01*
X156673849Y-91510520D01*
X156694893Y-91523133D01*
X156714598Y-91537747D01*
X156732777Y-91554223D01*
X156749253Y-91572402D01*
X156763867Y-91592107D01*
X156776480Y-91613151D01*
X156786970Y-91635329D01*
X156795235Y-91658429D01*
X156801196Y-91682227D01*
X156804796Y-91706496D01*
X156806000Y-91731000D01*
X156806000Y-93181000D01*
X156804796Y-93205504D01*
X156801196Y-93229773D01*
X156795235Y-93253571D01*
X156786970Y-93276671D01*
X156776480Y-93298849D01*
X156763867Y-93319893D01*
X156749253Y-93339598D01*
X156732777Y-93357777D01*
X156714598Y-93374253D01*
X156694893Y-93388867D01*
X156673849Y-93401480D01*
X156651671Y-93411970D01*
X156628571Y-93420235D01*
X156604773Y-93426196D01*
X156580504Y-93429796D01*
X156556000Y-93431000D01*
X155356000Y-93431000D01*
X155331496Y-93429796D01*
X155307227Y-93426196D01*
X155283429Y-93420235D01*
X155260329Y-93411970D01*
X155238151Y-93401480D01*
X155217107Y-93388867D01*
X155197402Y-93374253D01*
X155179223Y-93357777D01*
X155162747Y-93339598D01*
X155148133Y-93319893D01*
X155135520Y-93298849D01*
X155125030Y-93276671D01*
X155116765Y-93253571D01*
X155110804Y-93229773D01*
X155107204Y-93205504D01*
X155106000Y-93181000D01*
X155106000Y-91731000D01*
X155107204Y-91706496D01*
X155110804Y-91682227D01*
X155116765Y-91658429D01*
X155125030Y-91635329D01*
X155135520Y-91613151D01*
X155148133Y-91592107D01*
X155162747Y-91572402D01*
X155179223Y-91554223D01*
X155197402Y-91537747D01*
X155217107Y-91523133D01*
X155238151Y-91510520D01*
X155260329Y-91500030D01*
X155283429Y-91491765D01*
X155307227Y-91485804D01*
X155331496Y-91482204D01*
X155356000Y-91481000D01*
X156556000Y-91481000D01*
X156580504Y-91482204D01*
X156580504Y-91482204D01*
G37*
D14*
G04 #@! TD*
G04 #@! TO.P,J6,1*
G04 #@! TO.N,/ch2_enable*
X155956000Y-92456000D03*
D15*
G04 #@! TO.P,J6,2*
G04 #@! TO.N,Net-(D5-Pad2)*
X158456000Y-92456000D03*
G04 #@! TO.P,J6,3*
G04 #@! TO.N,/ch2_input*
X160956000Y-92456000D03*
G04 #@! TO.P,J6,4*
G04 #@! TO.N,GND*
X163456000Y-92456000D03*
G04 #@! TD*
D10*
G04 #@! TO.N,Net-(D1-Pad1)*
G04 #@! TO.C,R1*
G36*
X163886779Y-83600144D02*
X163909834Y-83603563D01*
X163932443Y-83609227D01*
X163954387Y-83617079D01*
X163975457Y-83627044D01*
X163995448Y-83639026D01*
X164014168Y-83652910D01*
X164031438Y-83668562D01*
X164047090Y-83685832D01*
X164060974Y-83704552D01*
X164072956Y-83724543D01*
X164082921Y-83745613D01*
X164090773Y-83767557D01*
X164096437Y-83790166D01*
X164099856Y-83813221D01*
X164101000Y-83836500D01*
X164101000Y-84311500D01*
X164099856Y-84334779D01*
X164096437Y-84357834D01*
X164090773Y-84380443D01*
X164082921Y-84402387D01*
X164072956Y-84423457D01*
X164060974Y-84443448D01*
X164047090Y-84462168D01*
X164031438Y-84479438D01*
X164014168Y-84495090D01*
X163995448Y-84508974D01*
X163975457Y-84520956D01*
X163954387Y-84530921D01*
X163932443Y-84538773D01*
X163909834Y-84544437D01*
X163886779Y-84547856D01*
X163863500Y-84549000D01*
X163288500Y-84549000D01*
X163265221Y-84547856D01*
X163242166Y-84544437D01*
X163219557Y-84538773D01*
X163197613Y-84530921D01*
X163176543Y-84520956D01*
X163156552Y-84508974D01*
X163137832Y-84495090D01*
X163120562Y-84479438D01*
X163104910Y-84462168D01*
X163091026Y-84443448D01*
X163079044Y-84423457D01*
X163069079Y-84402387D01*
X163061227Y-84380443D01*
X163055563Y-84357834D01*
X163052144Y-84334779D01*
X163051000Y-84311500D01*
X163051000Y-83836500D01*
X163052144Y-83813221D01*
X163055563Y-83790166D01*
X163061227Y-83767557D01*
X163069079Y-83745613D01*
X163079044Y-83724543D01*
X163091026Y-83704552D01*
X163104910Y-83685832D01*
X163120562Y-83668562D01*
X163137832Y-83652910D01*
X163156552Y-83639026D01*
X163176543Y-83627044D01*
X163197613Y-83617079D01*
X163219557Y-83609227D01*
X163242166Y-83603563D01*
X163265221Y-83600144D01*
X163288500Y-83599000D01*
X163863500Y-83599000D01*
X163886779Y-83600144D01*
X163886779Y-83600144D01*
G37*
D16*
G04 #@! TD*
G04 #@! TO.P,R1,2*
G04 #@! TO.N,Net-(D1-Pad1)*
X163576000Y-84074000D03*
D10*
G04 #@! TO.N,/Vref*
G04 #@! TO.C,R1*
G36*
X165636779Y-83600144D02*
X165659834Y-83603563D01*
X165682443Y-83609227D01*
X165704387Y-83617079D01*
X165725457Y-83627044D01*
X165745448Y-83639026D01*
X165764168Y-83652910D01*
X165781438Y-83668562D01*
X165797090Y-83685832D01*
X165810974Y-83704552D01*
X165822956Y-83724543D01*
X165832921Y-83745613D01*
X165840773Y-83767557D01*
X165846437Y-83790166D01*
X165849856Y-83813221D01*
X165851000Y-83836500D01*
X165851000Y-84311500D01*
X165849856Y-84334779D01*
X165846437Y-84357834D01*
X165840773Y-84380443D01*
X165832921Y-84402387D01*
X165822956Y-84423457D01*
X165810974Y-84443448D01*
X165797090Y-84462168D01*
X165781438Y-84479438D01*
X165764168Y-84495090D01*
X165745448Y-84508974D01*
X165725457Y-84520956D01*
X165704387Y-84530921D01*
X165682443Y-84538773D01*
X165659834Y-84544437D01*
X165636779Y-84547856D01*
X165613500Y-84549000D01*
X165038500Y-84549000D01*
X165015221Y-84547856D01*
X164992166Y-84544437D01*
X164969557Y-84538773D01*
X164947613Y-84530921D01*
X164926543Y-84520956D01*
X164906552Y-84508974D01*
X164887832Y-84495090D01*
X164870562Y-84479438D01*
X164854910Y-84462168D01*
X164841026Y-84443448D01*
X164829044Y-84423457D01*
X164819079Y-84402387D01*
X164811227Y-84380443D01*
X164805563Y-84357834D01*
X164802144Y-84334779D01*
X164801000Y-84311500D01*
X164801000Y-83836500D01*
X164802144Y-83813221D01*
X164805563Y-83790166D01*
X164811227Y-83767557D01*
X164819079Y-83745613D01*
X164829044Y-83724543D01*
X164841026Y-83704552D01*
X164854910Y-83685832D01*
X164870562Y-83668562D01*
X164887832Y-83652910D01*
X164906552Y-83639026D01*
X164926543Y-83627044D01*
X164947613Y-83617079D01*
X164969557Y-83609227D01*
X164992166Y-83603563D01*
X165015221Y-83600144D01*
X165038500Y-83599000D01*
X165613500Y-83599000D01*
X165636779Y-83600144D01*
X165636779Y-83600144D01*
G37*
D16*
G04 #@! TD*
G04 #@! TO.P,R1,1*
G04 #@! TO.N,/Vref*
X165326000Y-84074000D03*
D10*
G04 #@! TO.N,Net-(D1-Pad1)*
G04 #@! TO.C,R2*
G36*
X163886779Y-86648144D02*
X163909834Y-86651563D01*
X163932443Y-86657227D01*
X163954387Y-86665079D01*
X163975457Y-86675044D01*
X163995448Y-86687026D01*
X164014168Y-86700910D01*
X164031438Y-86716562D01*
X164047090Y-86733832D01*
X164060974Y-86752552D01*
X164072956Y-86772543D01*
X164082921Y-86793613D01*
X164090773Y-86815557D01*
X164096437Y-86838166D01*
X164099856Y-86861221D01*
X164101000Y-86884500D01*
X164101000Y-87359500D01*
X164099856Y-87382779D01*
X164096437Y-87405834D01*
X164090773Y-87428443D01*
X164082921Y-87450387D01*
X164072956Y-87471457D01*
X164060974Y-87491448D01*
X164047090Y-87510168D01*
X164031438Y-87527438D01*
X164014168Y-87543090D01*
X163995448Y-87556974D01*
X163975457Y-87568956D01*
X163954387Y-87578921D01*
X163932443Y-87586773D01*
X163909834Y-87592437D01*
X163886779Y-87595856D01*
X163863500Y-87597000D01*
X163288500Y-87597000D01*
X163265221Y-87595856D01*
X163242166Y-87592437D01*
X163219557Y-87586773D01*
X163197613Y-87578921D01*
X163176543Y-87568956D01*
X163156552Y-87556974D01*
X163137832Y-87543090D01*
X163120562Y-87527438D01*
X163104910Y-87510168D01*
X163091026Y-87491448D01*
X163079044Y-87471457D01*
X163069079Y-87450387D01*
X163061227Y-87428443D01*
X163055563Y-87405834D01*
X163052144Y-87382779D01*
X163051000Y-87359500D01*
X163051000Y-86884500D01*
X163052144Y-86861221D01*
X163055563Y-86838166D01*
X163061227Y-86815557D01*
X163069079Y-86793613D01*
X163079044Y-86772543D01*
X163091026Y-86752552D01*
X163104910Y-86733832D01*
X163120562Y-86716562D01*
X163137832Y-86700910D01*
X163156552Y-86687026D01*
X163176543Y-86675044D01*
X163197613Y-86665079D01*
X163219557Y-86657227D01*
X163242166Y-86651563D01*
X163265221Y-86648144D01*
X163288500Y-86647000D01*
X163863500Y-86647000D01*
X163886779Y-86648144D01*
X163886779Y-86648144D01*
G37*
D16*
G04 #@! TD*
G04 #@! TO.P,R2,1*
G04 #@! TO.N,Net-(D1-Pad1)*
X163576000Y-87122000D03*
D10*
G04 #@! TO.N,GND*
G04 #@! TO.C,R2*
G36*
X165636779Y-86648144D02*
X165659834Y-86651563D01*
X165682443Y-86657227D01*
X165704387Y-86665079D01*
X165725457Y-86675044D01*
X165745448Y-86687026D01*
X165764168Y-86700910D01*
X165781438Y-86716562D01*
X165797090Y-86733832D01*
X165810974Y-86752552D01*
X165822956Y-86772543D01*
X165832921Y-86793613D01*
X165840773Y-86815557D01*
X165846437Y-86838166D01*
X165849856Y-86861221D01*
X165851000Y-86884500D01*
X165851000Y-87359500D01*
X165849856Y-87382779D01*
X165846437Y-87405834D01*
X165840773Y-87428443D01*
X165832921Y-87450387D01*
X165822956Y-87471457D01*
X165810974Y-87491448D01*
X165797090Y-87510168D01*
X165781438Y-87527438D01*
X165764168Y-87543090D01*
X165745448Y-87556974D01*
X165725457Y-87568956D01*
X165704387Y-87578921D01*
X165682443Y-87586773D01*
X165659834Y-87592437D01*
X165636779Y-87595856D01*
X165613500Y-87597000D01*
X165038500Y-87597000D01*
X165015221Y-87595856D01*
X164992166Y-87592437D01*
X164969557Y-87586773D01*
X164947613Y-87578921D01*
X164926543Y-87568956D01*
X164906552Y-87556974D01*
X164887832Y-87543090D01*
X164870562Y-87527438D01*
X164854910Y-87510168D01*
X164841026Y-87491448D01*
X164829044Y-87471457D01*
X164819079Y-87450387D01*
X164811227Y-87428443D01*
X164805563Y-87405834D01*
X164802144Y-87382779D01*
X164801000Y-87359500D01*
X164801000Y-86884500D01*
X164802144Y-86861221D01*
X164805563Y-86838166D01*
X164811227Y-86815557D01*
X164819079Y-86793613D01*
X164829044Y-86772543D01*
X164841026Y-86752552D01*
X164854910Y-86733832D01*
X164870562Y-86716562D01*
X164887832Y-86700910D01*
X164906552Y-86687026D01*
X164926543Y-86675044D01*
X164947613Y-86665079D01*
X164969557Y-86657227D01*
X164992166Y-86651563D01*
X165015221Y-86648144D01*
X165038500Y-86647000D01*
X165613500Y-86647000D01*
X165636779Y-86648144D01*
X165636779Y-86648144D01*
G37*
D16*
G04 #@! TD*
G04 #@! TO.P,R2,2*
G04 #@! TO.N,GND*
X165326000Y-87122000D03*
D10*
G04 #@! TO.N,/Vref*
G04 #@! TO.C,R3*
G36*
X165636779Y-77572394D02*
X165659834Y-77575813D01*
X165682443Y-77581477D01*
X165704387Y-77589329D01*
X165725457Y-77599294D01*
X165745448Y-77611276D01*
X165764168Y-77625160D01*
X165781438Y-77640812D01*
X165797090Y-77658082D01*
X165810974Y-77676802D01*
X165822956Y-77696793D01*
X165832921Y-77717863D01*
X165840773Y-77739807D01*
X165846437Y-77762416D01*
X165849856Y-77785471D01*
X165851000Y-77808750D01*
X165851000Y-78283750D01*
X165849856Y-78307029D01*
X165846437Y-78330084D01*
X165840773Y-78352693D01*
X165832921Y-78374637D01*
X165822956Y-78395707D01*
X165810974Y-78415698D01*
X165797090Y-78434418D01*
X165781438Y-78451688D01*
X165764168Y-78467340D01*
X165745448Y-78481224D01*
X165725457Y-78493206D01*
X165704387Y-78503171D01*
X165682443Y-78511023D01*
X165659834Y-78516687D01*
X165636779Y-78520106D01*
X165613500Y-78521250D01*
X165038500Y-78521250D01*
X165015221Y-78520106D01*
X164992166Y-78516687D01*
X164969557Y-78511023D01*
X164947613Y-78503171D01*
X164926543Y-78493206D01*
X164906552Y-78481224D01*
X164887832Y-78467340D01*
X164870562Y-78451688D01*
X164854910Y-78434418D01*
X164841026Y-78415698D01*
X164829044Y-78395707D01*
X164819079Y-78374637D01*
X164811227Y-78352693D01*
X164805563Y-78330084D01*
X164802144Y-78307029D01*
X164801000Y-78283750D01*
X164801000Y-77808750D01*
X164802144Y-77785471D01*
X164805563Y-77762416D01*
X164811227Y-77739807D01*
X164819079Y-77717863D01*
X164829044Y-77696793D01*
X164841026Y-77676802D01*
X164854910Y-77658082D01*
X164870562Y-77640812D01*
X164887832Y-77625160D01*
X164906552Y-77611276D01*
X164926543Y-77599294D01*
X164947613Y-77589329D01*
X164969557Y-77581477D01*
X164992166Y-77575813D01*
X165015221Y-77572394D01*
X165038500Y-77571250D01*
X165613500Y-77571250D01*
X165636779Y-77572394D01*
X165636779Y-77572394D01*
G37*
D16*
G04 #@! TD*
G04 #@! TO.P,R3,2*
G04 #@! TO.N,/Vref*
X165326000Y-78046250D03*
D10*
G04 #@! TO.N,+12V*
G04 #@! TO.C,R3*
G36*
X163886779Y-77572394D02*
X163909834Y-77575813D01*
X163932443Y-77581477D01*
X163954387Y-77589329D01*
X163975457Y-77599294D01*
X163995448Y-77611276D01*
X164014168Y-77625160D01*
X164031438Y-77640812D01*
X164047090Y-77658082D01*
X164060974Y-77676802D01*
X164072956Y-77696793D01*
X164082921Y-77717863D01*
X164090773Y-77739807D01*
X164096437Y-77762416D01*
X164099856Y-77785471D01*
X164101000Y-77808750D01*
X164101000Y-78283750D01*
X164099856Y-78307029D01*
X164096437Y-78330084D01*
X164090773Y-78352693D01*
X164082921Y-78374637D01*
X164072956Y-78395707D01*
X164060974Y-78415698D01*
X164047090Y-78434418D01*
X164031438Y-78451688D01*
X164014168Y-78467340D01*
X163995448Y-78481224D01*
X163975457Y-78493206D01*
X163954387Y-78503171D01*
X163932443Y-78511023D01*
X163909834Y-78516687D01*
X163886779Y-78520106D01*
X163863500Y-78521250D01*
X163288500Y-78521250D01*
X163265221Y-78520106D01*
X163242166Y-78516687D01*
X163219557Y-78511023D01*
X163197613Y-78503171D01*
X163176543Y-78493206D01*
X163156552Y-78481224D01*
X163137832Y-78467340D01*
X163120562Y-78451688D01*
X163104910Y-78434418D01*
X163091026Y-78415698D01*
X163079044Y-78395707D01*
X163069079Y-78374637D01*
X163061227Y-78352693D01*
X163055563Y-78330084D01*
X163052144Y-78307029D01*
X163051000Y-78283750D01*
X163051000Y-77808750D01*
X163052144Y-77785471D01*
X163055563Y-77762416D01*
X163061227Y-77739807D01*
X163069079Y-77717863D01*
X163079044Y-77696793D01*
X163091026Y-77676802D01*
X163104910Y-77658082D01*
X163120562Y-77640812D01*
X163137832Y-77625160D01*
X163156552Y-77611276D01*
X163176543Y-77599294D01*
X163197613Y-77589329D01*
X163219557Y-77581477D01*
X163242166Y-77575813D01*
X163265221Y-77572394D01*
X163288500Y-77571250D01*
X163863500Y-77571250D01*
X163886779Y-77572394D01*
X163886779Y-77572394D01*
G37*
D16*
G04 #@! TD*
G04 #@! TO.P,R3,1*
G04 #@! TO.N,+12V*
X163576000Y-78046250D03*
D10*
G04 #@! TO.N,GND*
G04 #@! TO.C,R5*
G36*
X141738779Y-87447644D02*
X141761834Y-87451063D01*
X141784443Y-87456727D01*
X141806387Y-87464579D01*
X141827457Y-87474544D01*
X141847448Y-87486526D01*
X141866168Y-87500410D01*
X141883438Y-87516062D01*
X141899090Y-87533332D01*
X141912974Y-87552052D01*
X141924956Y-87572043D01*
X141934921Y-87593113D01*
X141942773Y-87615057D01*
X141948437Y-87637666D01*
X141951856Y-87660721D01*
X141953000Y-87684000D01*
X141953000Y-88259000D01*
X141951856Y-88282279D01*
X141948437Y-88305334D01*
X141942773Y-88327943D01*
X141934921Y-88349887D01*
X141924956Y-88370957D01*
X141912974Y-88390948D01*
X141899090Y-88409668D01*
X141883438Y-88426938D01*
X141866168Y-88442590D01*
X141847448Y-88456474D01*
X141827457Y-88468456D01*
X141806387Y-88478421D01*
X141784443Y-88486273D01*
X141761834Y-88491937D01*
X141738779Y-88495356D01*
X141715500Y-88496500D01*
X141240500Y-88496500D01*
X141217221Y-88495356D01*
X141194166Y-88491937D01*
X141171557Y-88486273D01*
X141149613Y-88478421D01*
X141128543Y-88468456D01*
X141108552Y-88456474D01*
X141089832Y-88442590D01*
X141072562Y-88426938D01*
X141056910Y-88409668D01*
X141043026Y-88390948D01*
X141031044Y-88370957D01*
X141021079Y-88349887D01*
X141013227Y-88327943D01*
X141007563Y-88305334D01*
X141004144Y-88282279D01*
X141003000Y-88259000D01*
X141003000Y-87684000D01*
X141004144Y-87660721D01*
X141007563Y-87637666D01*
X141013227Y-87615057D01*
X141021079Y-87593113D01*
X141031044Y-87572043D01*
X141043026Y-87552052D01*
X141056910Y-87533332D01*
X141072562Y-87516062D01*
X141089832Y-87500410D01*
X141108552Y-87486526D01*
X141128543Y-87474544D01*
X141149613Y-87464579D01*
X141171557Y-87456727D01*
X141194166Y-87451063D01*
X141217221Y-87447644D01*
X141240500Y-87446500D01*
X141715500Y-87446500D01*
X141738779Y-87447644D01*
X141738779Y-87447644D01*
G37*
D16*
G04 #@! TD*
G04 #@! TO.P,R5,1*
G04 #@! TO.N,GND*
X141478000Y-87971500D03*
D10*
G04 #@! TO.N,/ch2_input*
G04 #@! TO.C,R5*
G36*
X141738779Y-85697644D02*
X141761834Y-85701063D01*
X141784443Y-85706727D01*
X141806387Y-85714579D01*
X141827457Y-85724544D01*
X141847448Y-85736526D01*
X141866168Y-85750410D01*
X141883438Y-85766062D01*
X141899090Y-85783332D01*
X141912974Y-85802052D01*
X141924956Y-85822043D01*
X141934921Y-85843113D01*
X141942773Y-85865057D01*
X141948437Y-85887666D01*
X141951856Y-85910721D01*
X141953000Y-85934000D01*
X141953000Y-86509000D01*
X141951856Y-86532279D01*
X141948437Y-86555334D01*
X141942773Y-86577943D01*
X141934921Y-86599887D01*
X141924956Y-86620957D01*
X141912974Y-86640948D01*
X141899090Y-86659668D01*
X141883438Y-86676938D01*
X141866168Y-86692590D01*
X141847448Y-86706474D01*
X141827457Y-86718456D01*
X141806387Y-86728421D01*
X141784443Y-86736273D01*
X141761834Y-86741937D01*
X141738779Y-86745356D01*
X141715500Y-86746500D01*
X141240500Y-86746500D01*
X141217221Y-86745356D01*
X141194166Y-86741937D01*
X141171557Y-86736273D01*
X141149613Y-86728421D01*
X141128543Y-86718456D01*
X141108552Y-86706474D01*
X141089832Y-86692590D01*
X141072562Y-86676938D01*
X141056910Y-86659668D01*
X141043026Y-86640948D01*
X141031044Y-86620957D01*
X141021079Y-86599887D01*
X141013227Y-86577943D01*
X141007563Y-86555334D01*
X141004144Y-86532279D01*
X141003000Y-86509000D01*
X141003000Y-85934000D01*
X141004144Y-85910721D01*
X141007563Y-85887666D01*
X141013227Y-85865057D01*
X141021079Y-85843113D01*
X141031044Y-85822043D01*
X141043026Y-85802052D01*
X141056910Y-85783332D01*
X141072562Y-85766062D01*
X141089832Y-85750410D01*
X141108552Y-85736526D01*
X141128543Y-85724544D01*
X141149613Y-85714579D01*
X141171557Y-85706727D01*
X141194166Y-85701063D01*
X141217221Y-85697644D01*
X141240500Y-85696500D01*
X141715500Y-85696500D01*
X141738779Y-85697644D01*
X141738779Y-85697644D01*
G37*
D16*
G04 #@! TD*
G04 #@! TO.P,R5,2*
G04 #@! TO.N,/ch2_input*
X141478000Y-86221500D03*
D10*
G04 #@! TO.N,GND*
G04 #@! TO.C,R7*
G36*
X141738779Y-73622144D02*
X141761834Y-73625563D01*
X141784443Y-73631227D01*
X141806387Y-73639079D01*
X141827457Y-73649044D01*
X141847448Y-73661026D01*
X141866168Y-73674910D01*
X141883438Y-73690562D01*
X141899090Y-73707832D01*
X141912974Y-73726552D01*
X141924956Y-73746543D01*
X141934921Y-73767613D01*
X141942773Y-73789557D01*
X141948437Y-73812166D01*
X141951856Y-73835221D01*
X141953000Y-73858500D01*
X141953000Y-74433500D01*
X141951856Y-74456779D01*
X141948437Y-74479834D01*
X141942773Y-74502443D01*
X141934921Y-74524387D01*
X141924956Y-74545457D01*
X141912974Y-74565448D01*
X141899090Y-74584168D01*
X141883438Y-74601438D01*
X141866168Y-74617090D01*
X141847448Y-74630974D01*
X141827457Y-74642956D01*
X141806387Y-74652921D01*
X141784443Y-74660773D01*
X141761834Y-74666437D01*
X141738779Y-74669856D01*
X141715500Y-74671000D01*
X141240500Y-74671000D01*
X141217221Y-74669856D01*
X141194166Y-74666437D01*
X141171557Y-74660773D01*
X141149613Y-74652921D01*
X141128543Y-74642956D01*
X141108552Y-74630974D01*
X141089832Y-74617090D01*
X141072562Y-74601438D01*
X141056910Y-74584168D01*
X141043026Y-74565448D01*
X141031044Y-74545457D01*
X141021079Y-74524387D01*
X141013227Y-74502443D01*
X141007563Y-74479834D01*
X141004144Y-74456779D01*
X141003000Y-74433500D01*
X141003000Y-73858500D01*
X141004144Y-73835221D01*
X141007563Y-73812166D01*
X141013227Y-73789557D01*
X141021079Y-73767613D01*
X141031044Y-73746543D01*
X141043026Y-73726552D01*
X141056910Y-73707832D01*
X141072562Y-73690562D01*
X141089832Y-73674910D01*
X141108552Y-73661026D01*
X141128543Y-73649044D01*
X141149613Y-73639079D01*
X141171557Y-73631227D01*
X141194166Y-73625563D01*
X141217221Y-73622144D01*
X141240500Y-73621000D01*
X141715500Y-73621000D01*
X141738779Y-73622144D01*
X141738779Y-73622144D01*
G37*
D16*
G04 #@! TD*
G04 #@! TO.P,R7,1*
G04 #@! TO.N,GND*
X141478000Y-74146000D03*
D10*
G04 #@! TO.N,/ch1_input*
G04 #@! TO.C,R7*
G36*
X141738779Y-75372144D02*
X141761834Y-75375563D01*
X141784443Y-75381227D01*
X141806387Y-75389079D01*
X141827457Y-75399044D01*
X141847448Y-75411026D01*
X141866168Y-75424910D01*
X141883438Y-75440562D01*
X141899090Y-75457832D01*
X141912974Y-75476552D01*
X141924956Y-75496543D01*
X141934921Y-75517613D01*
X141942773Y-75539557D01*
X141948437Y-75562166D01*
X141951856Y-75585221D01*
X141953000Y-75608500D01*
X141953000Y-76183500D01*
X141951856Y-76206779D01*
X141948437Y-76229834D01*
X141942773Y-76252443D01*
X141934921Y-76274387D01*
X141924956Y-76295457D01*
X141912974Y-76315448D01*
X141899090Y-76334168D01*
X141883438Y-76351438D01*
X141866168Y-76367090D01*
X141847448Y-76380974D01*
X141827457Y-76392956D01*
X141806387Y-76402921D01*
X141784443Y-76410773D01*
X141761834Y-76416437D01*
X141738779Y-76419856D01*
X141715500Y-76421000D01*
X141240500Y-76421000D01*
X141217221Y-76419856D01*
X141194166Y-76416437D01*
X141171557Y-76410773D01*
X141149613Y-76402921D01*
X141128543Y-76392956D01*
X141108552Y-76380974D01*
X141089832Y-76367090D01*
X141072562Y-76351438D01*
X141056910Y-76334168D01*
X141043026Y-76315448D01*
X141031044Y-76295457D01*
X141021079Y-76274387D01*
X141013227Y-76252443D01*
X141007563Y-76229834D01*
X141004144Y-76206779D01*
X141003000Y-76183500D01*
X141003000Y-75608500D01*
X141004144Y-75585221D01*
X141007563Y-75562166D01*
X141013227Y-75539557D01*
X141021079Y-75517613D01*
X141031044Y-75496543D01*
X141043026Y-75476552D01*
X141056910Y-75457832D01*
X141072562Y-75440562D01*
X141089832Y-75424910D01*
X141108552Y-75411026D01*
X141128543Y-75399044D01*
X141149613Y-75389079D01*
X141171557Y-75381227D01*
X141194166Y-75375563D01*
X141217221Y-75372144D01*
X141240500Y-75371000D01*
X141715500Y-75371000D01*
X141738779Y-75372144D01*
X141738779Y-75372144D01*
G37*
D16*
G04 #@! TD*
G04 #@! TO.P,R7,2*
G04 #@! TO.N,/ch1_input*
X141478000Y-75896000D03*
D10*
G04 #@! TO.N,Net-(C3-Pad1)*
G04 #@! TO.C,R8*
G36*
X147326779Y-85697644D02*
X147349834Y-85701063D01*
X147372443Y-85706727D01*
X147394387Y-85714579D01*
X147415457Y-85724544D01*
X147435448Y-85736526D01*
X147454168Y-85750410D01*
X147471438Y-85766062D01*
X147487090Y-85783332D01*
X147500974Y-85802052D01*
X147512956Y-85822043D01*
X147522921Y-85843113D01*
X147530773Y-85865057D01*
X147536437Y-85887666D01*
X147539856Y-85910721D01*
X147541000Y-85934000D01*
X147541000Y-86509000D01*
X147539856Y-86532279D01*
X147536437Y-86555334D01*
X147530773Y-86577943D01*
X147522921Y-86599887D01*
X147512956Y-86620957D01*
X147500974Y-86640948D01*
X147487090Y-86659668D01*
X147471438Y-86676938D01*
X147454168Y-86692590D01*
X147435448Y-86706474D01*
X147415457Y-86718456D01*
X147394387Y-86728421D01*
X147372443Y-86736273D01*
X147349834Y-86741937D01*
X147326779Y-86745356D01*
X147303500Y-86746500D01*
X146828500Y-86746500D01*
X146805221Y-86745356D01*
X146782166Y-86741937D01*
X146759557Y-86736273D01*
X146737613Y-86728421D01*
X146716543Y-86718456D01*
X146696552Y-86706474D01*
X146677832Y-86692590D01*
X146660562Y-86676938D01*
X146644910Y-86659668D01*
X146631026Y-86640948D01*
X146619044Y-86620957D01*
X146609079Y-86599887D01*
X146601227Y-86577943D01*
X146595563Y-86555334D01*
X146592144Y-86532279D01*
X146591000Y-86509000D01*
X146591000Y-85934000D01*
X146592144Y-85910721D01*
X146595563Y-85887666D01*
X146601227Y-85865057D01*
X146609079Y-85843113D01*
X146619044Y-85822043D01*
X146631026Y-85802052D01*
X146644910Y-85783332D01*
X146660562Y-85766062D01*
X146677832Y-85750410D01*
X146696552Y-85736526D01*
X146716543Y-85724544D01*
X146737613Y-85714579D01*
X146759557Y-85706727D01*
X146782166Y-85701063D01*
X146805221Y-85697644D01*
X146828500Y-85696500D01*
X147303500Y-85696500D01*
X147326779Y-85697644D01*
X147326779Y-85697644D01*
G37*
D16*
G04 #@! TD*
G04 #@! TO.P,R8,1*
G04 #@! TO.N,Net-(C3-Pad1)*
X147066000Y-86221500D03*
D10*
G04 #@! TO.N,GND*
G04 #@! TO.C,R8*
G36*
X147326779Y-87447644D02*
X147349834Y-87451063D01*
X147372443Y-87456727D01*
X147394387Y-87464579D01*
X147415457Y-87474544D01*
X147435448Y-87486526D01*
X147454168Y-87500410D01*
X147471438Y-87516062D01*
X147487090Y-87533332D01*
X147500974Y-87552052D01*
X147512956Y-87572043D01*
X147522921Y-87593113D01*
X147530773Y-87615057D01*
X147536437Y-87637666D01*
X147539856Y-87660721D01*
X147541000Y-87684000D01*
X147541000Y-88259000D01*
X147539856Y-88282279D01*
X147536437Y-88305334D01*
X147530773Y-88327943D01*
X147522921Y-88349887D01*
X147512956Y-88370957D01*
X147500974Y-88390948D01*
X147487090Y-88409668D01*
X147471438Y-88426938D01*
X147454168Y-88442590D01*
X147435448Y-88456474D01*
X147415457Y-88468456D01*
X147394387Y-88478421D01*
X147372443Y-88486273D01*
X147349834Y-88491937D01*
X147326779Y-88495356D01*
X147303500Y-88496500D01*
X146828500Y-88496500D01*
X146805221Y-88495356D01*
X146782166Y-88491937D01*
X146759557Y-88486273D01*
X146737613Y-88478421D01*
X146716543Y-88468456D01*
X146696552Y-88456474D01*
X146677832Y-88442590D01*
X146660562Y-88426938D01*
X146644910Y-88409668D01*
X146631026Y-88390948D01*
X146619044Y-88370957D01*
X146609079Y-88349887D01*
X146601227Y-88327943D01*
X146595563Y-88305334D01*
X146592144Y-88282279D01*
X146591000Y-88259000D01*
X146591000Y-87684000D01*
X146592144Y-87660721D01*
X146595563Y-87637666D01*
X146601227Y-87615057D01*
X146609079Y-87593113D01*
X146619044Y-87572043D01*
X146631026Y-87552052D01*
X146644910Y-87533332D01*
X146660562Y-87516062D01*
X146677832Y-87500410D01*
X146696552Y-87486526D01*
X146716543Y-87474544D01*
X146737613Y-87464579D01*
X146759557Y-87456727D01*
X146782166Y-87451063D01*
X146805221Y-87447644D01*
X146828500Y-87446500D01*
X147303500Y-87446500D01*
X147326779Y-87447644D01*
X147326779Y-87447644D01*
G37*
D16*
G04 #@! TD*
G04 #@! TO.P,R8,2*
G04 #@! TO.N,GND*
X147066000Y-87971500D03*
D10*
G04 #@! TO.N,GND*
G04 #@! TO.C,R9*
G36*
X144532779Y-73622144D02*
X144555834Y-73625563D01*
X144578443Y-73631227D01*
X144600387Y-73639079D01*
X144621457Y-73649044D01*
X144641448Y-73661026D01*
X144660168Y-73674910D01*
X144677438Y-73690562D01*
X144693090Y-73707832D01*
X144706974Y-73726552D01*
X144718956Y-73746543D01*
X144728921Y-73767613D01*
X144736773Y-73789557D01*
X144742437Y-73812166D01*
X144745856Y-73835221D01*
X144747000Y-73858500D01*
X144747000Y-74433500D01*
X144745856Y-74456779D01*
X144742437Y-74479834D01*
X144736773Y-74502443D01*
X144728921Y-74524387D01*
X144718956Y-74545457D01*
X144706974Y-74565448D01*
X144693090Y-74584168D01*
X144677438Y-74601438D01*
X144660168Y-74617090D01*
X144641448Y-74630974D01*
X144621457Y-74642956D01*
X144600387Y-74652921D01*
X144578443Y-74660773D01*
X144555834Y-74666437D01*
X144532779Y-74669856D01*
X144509500Y-74671000D01*
X144034500Y-74671000D01*
X144011221Y-74669856D01*
X143988166Y-74666437D01*
X143965557Y-74660773D01*
X143943613Y-74652921D01*
X143922543Y-74642956D01*
X143902552Y-74630974D01*
X143883832Y-74617090D01*
X143866562Y-74601438D01*
X143850910Y-74584168D01*
X143837026Y-74565448D01*
X143825044Y-74545457D01*
X143815079Y-74524387D01*
X143807227Y-74502443D01*
X143801563Y-74479834D01*
X143798144Y-74456779D01*
X143797000Y-74433500D01*
X143797000Y-73858500D01*
X143798144Y-73835221D01*
X143801563Y-73812166D01*
X143807227Y-73789557D01*
X143815079Y-73767613D01*
X143825044Y-73746543D01*
X143837026Y-73726552D01*
X143850910Y-73707832D01*
X143866562Y-73690562D01*
X143883832Y-73674910D01*
X143902552Y-73661026D01*
X143922543Y-73649044D01*
X143943613Y-73639079D01*
X143965557Y-73631227D01*
X143988166Y-73625563D01*
X144011221Y-73622144D01*
X144034500Y-73621000D01*
X144509500Y-73621000D01*
X144532779Y-73622144D01*
X144532779Y-73622144D01*
G37*
D16*
G04 #@! TD*
G04 #@! TO.P,R9,2*
G04 #@! TO.N,GND*
X144272000Y-74146000D03*
D10*
G04 #@! TO.N,Net-(C4-Pad1)*
G04 #@! TO.C,R9*
G36*
X144532779Y-75372144D02*
X144555834Y-75375563D01*
X144578443Y-75381227D01*
X144600387Y-75389079D01*
X144621457Y-75399044D01*
X144641448Y-75411026D01*
X144660168Y-75424910D01*
X144677438Y-75440562D01*
X144693090Y-75457832D01*
X144706974Y-75476552D01*
X144718956Y-75496543D01*
X144728921Y-75517613D01*
X144736773Y-75539557D01*
X144742437Y-75562166D01*
X144745856Y-75585221D01*
X144747000Y-75608500D01*
X144747000Y-76183500D01*
X144745856Y-76206779D01*
X144742437Y-76229834D01*
X144736773Y-76252443D01*
X144728921Y-76274387D01*
X144718956Y-76295457D01*
X144706974Y-76315448D01*
X144693090Y-76334168D01*
X144677438Y-76351438D01*
X144660168Y-76367090D01*
X144641448Y-76380974D01*
X144621457Y-76392956D01*
X144600387Y-76402921D01*
X144578443Y-76410773D01*
X144555834Y-76416437D01*
X144532779Y-76419856D01*
X144509500Y-76421000D01*
X144034500Y-76421000D01*
X144011221Y-76419856D01*
X143988166Y-76416437D01*
X143965557Y-76410773D01*
X143943613Y-76402921D01*
X143922543Y-76392956D01*
X143902552Y-76380974D01*
X143883832Y-76367090D01*
X143866562Y-76351438D01*
X143850910Y-76334168D01*
X143837026Y-76315448D01*
X143825044Y-76295457D01*
X143815079Y-76274387D01*
X143807227Y-76252443D01*
X143801563Y-76229834D01*
X143798144Y-76206779D01*
X143797000Y-76183500D01*
X143797000Y-75608500D01*
X143798144Y-75585221D01*
X143801563Y-75562166D01*
X143807227Y-75539557D01*
X143815079Y-75517613D01*
X143825044Y-75496543D01*
X143837026Y-75476552D01*
X143850910Y-75457832D01*
X143866562Y-75440562D01*
X143883832Y-75424910D01*
X143902552Y-75411026D01*
X143922543Y-75399044D01*
X143943613Y-75389079D01*
X143965557Y-75381227D01*
X143988166Y-75375563D01*
X144011221Y-75372144D01*
X144034500Y-75371000D01*
X144509500Y-75371000D01*
X144532779Y-75372144D01*
X144532779Y-75372144D01*
G37*
D16*
G04 #@! TD*
G04 #@! TO.P,R9,1*
G04 #@! TO.N,Net-(C4-Pad1)*
X144272000Y-75896000D03*
D10*
G04 #@! TO.N,/Vref*
G04 #@! TO.C,R10*
G36*
X152914779Y-87447644D02*
X152937834Y-87451063D01*
X152960443Y-87456727D01*
X152982387Y-87464579D01*
X153003457Y-87474544D01*
X153023448Y-87486526D01*
X153042168Y-87500410D01*
X153059438Y-87516062D01*
X153075090Y-87533332D01*
X153088974Y-87552052D01*
X153100956Y-87572043D01*
X153110921Y-87593113D01*
X153118773Y-87615057D01*
X153124437Y-87637666D01*
X153127856Y-87660721D01*
X153129000Y-87684000D01*
X153129000Y-88259000D01*
X153127856Y-88282279D01*
X153124437Y-88305334D01*
X153118773Y-88327943D01*
X153110921Y-88349887D01*
X153100956Y-88370957D01*
X153088974Y-88390948D01*
X153075090Y-88409668D01*
X153059438Y-88426938D01*
X153042168Y-88442590D01*
X153023448Y-88456474D01*
X153003457Y-88468456D01*
X152982387Y-88478421D01*
X152960443Y-88486273D01*
X152937834Y-88491937D01*
X152914779Y-88495356D01*
X152891500Y-88496500D01*
X152416500Y-88496500D01*
X152393221Y-88495356D01*
X152370166Y-88491937D01*
X152347557Y-88486273D01*
X152325613Y-88478421D01*
X152304543Y-88468456D01*
X152284552Y-88456474D01*
X152265832Y-88442590D01*
X152248562Y-88426938D01*
X152232910Y-88409668D01*
X152219026Y-88390948D01*
X152207044Y-88370957D01*
X152197079Y-88349887D01*
X152189227Y-88327943D01*
X152183563Y-88305334D01*
X152180144Y-88282279D01*
X152179000Y-88259000D01*
X152179000Y-87684000D01*
X152180144Y-87660721D01*
X152183563Y-87637666D01*
X152189227Y-87615057D01*
X152197079Y-87593113D01*
X152207044Y-87572043D01*
X152219026Y-87552052D01*
X152232910Y-87533332D01*
X152248562Y-87516062D01*
X152265832Y-87500410D01*
X152284552Y-87486526D01*
X152304543Y-87474544D01*
X152325613Y-87464579D01*
X152347557Y-87456727D01*
X152370166Y-87451063D01*
X152393221Y-87447644D01*
X152416500Y-87446500D01*
X152891500Y-87446500D01*
X152914779Y-87447644D01*
X152914779Y-87447644D01*
G37*
D16*
G04 #@! TD*
G04 #@! TO.P,R10,1*
G04 #@! TO.N,/Vref*
X152654000Y-87971500D03*
D10*
G04 #@! TO.N,Net-(R10-Pad2)*
G04 #@! TO.C,R10*
G36*
X152914779Y-85697644D02*
X152937834Y-85701063D01*
X152960443Y-85706727D01*
X152982387Y-85714579D01*
X153003457Y-85724544D01*
X153023448Y-85736526D01*
X153042168Y-85750410D01*
X153059438Y-85766062D01*
X153075090Y-85783332D01*
X153088974Y-85802052D01*
X153100956Y-85822043D01*
X153110921Y-85843113D01*
X153118773Y-85865057D01*
X153124437Y-85887666D01*
X153127856Y-85910721D01*
X153129000Y-85934000D01*
X153129000Y-86509000D01*
X153127856Y-86532279D01*
X153124437Y-86555334D01*
X153118773Y-86577943D01*
X153110921Y-86599887D01*
X153100956Y-86620957D01*
X153088974Y-86640948D01*
X153075090Y-86659668D01*
X153059438Y-86676938D01*
X153042168Y-86692590D01*
X153023448Y-86706474D01*
X153003457Y-86718456D01*
X152982387Y-86728421D01*
X152960443Y-86736273D01*
X152937834Y-86741937D01*
X152914779Y-86745356D01*
X152891500Y-86746500D01*
X152416500Y-86746500D01*
X152393221Y-86745356D01*
X152370166Y-86741937D01*
X152347557Y-86736273D01*
X152325613Y-86728421D01*
X152304543Y-86718456D01*
X152284552Y-86706474D01*
X152265832Y-86692590D01*
X152248562Y-86676938D01*
X152232910Y-86659668D01*
X152219026Y-86640948D01*
X152207044Y-86620957D01*
X152197079Y-86599887D01*
X152189227Y-86577943D01*
X152183563Y-86555334D01*
X152180144Y-86532279D01*
X152179000Y-86509000D01*
X152179000Y-85934000D01*
X152180144Y-85910721D01*
X152183563Y-85887666D01*
X152189227Y-85865057D01*
X152197079Y-85843113D01*
X152207044Y-85822043D01*
X152219026Y-85802052D01*
X152232910Y-85783332D01*
X152248562Y-85766062D01*
X152265832Y-85750410D01*
X152284552Y-85736526D01*
X152304543Y-85724544D01*
X152325613Y-85714579D01*
X152347557Y-85706727D01*
X152370166Y-85701063D01*
X152393221Y-85697644D01*
X152416500Y-85696500D01*
X152891500Y-85696500D01*
X152914779Y-85697644D01*
X152914779Y-85697644D01*
G37*
D16*
G04 #@! TD*
G04 #@! TO.P,R10,2*
G04 #@! TO.N,Net-(R10-Pad2)*
X152654000Y-86221500D03*
D10*
G04 #@! TO.N,GND*
G04 #@! TO.C,R11*
G36*
X150120779Y-87447644D02*
X150143834Y-87451063D01*
X150166443Y-87456727D01*
X150188387Y-87464579D01*
X150209457Y-87474544D01*
X150229448Y-87486526D01*
X150248168Y-87500410D01*
X150265438Y-87516062D01*
X150281090Y-87533332D01*
X150294974Y-87552052D01*
X150306956Y-87572043D01*
X150316921Y-87593113D01*
X150324773Y-87615057D01*
X150330437Y-87637666D01*
X150333856Y-87660721D01*
X150335000Y-87684000D01*
X150335000Y-88259000D01*
X150333856Y-88282279D01*
X150330437Y-88305334D01*
X150324773Y-88327943D01*
X150316921Y-88349887D01*
X150306956Y-88370957D01*
X150294974Y-88390948D01*
X150281090Y-88409668D01*
X150265438Y-88426938D01*
X150248168Y-88442590D01*
X150229448Y-88456474D01*
X150209457Y-88468456D01*
X150188387Y-88478421D01*
X150166443Y-88486273D01*
X150143834Y-88491937D01*
X150120779Y-88495356D01*
X150097500Y-88496500D01*
X149622500Y-88496500D01*
X149599221Y-88495356D01*
X149576166Y-88491937D01*
X149553557Y-88486273D01*
X149531613Y-88478421D01*
X149510543Y-88468456D01*
X149490552Y-88456474D01*
X149471832Y-88442590D01*
X149454562Y-88426938D01*
X149438910Y-88409668D01*
X149425026Y-88390948D01*
X149413044Y-88370957D01*
X149403079Y-88349887D01*
X149395227Y-88327943D01*
X149389563Y-88305334D01*
X149386144Y-88282279D01*
X149385000Y-88259000D01*
X149385000Y-87684000D01*
X149386144Y-87660721D01*
X149389563Y-87637666D01*
X149395227Y-87615057D01*
X149403079Y-87593113D01*
X149413044Y-87572043D01*
X149425026Y-87552052D01*
X149438910Y-87533332D01*
X149454562Y-87516062D01*
X149471832Y-87500410D01*
X149490552Y-87486526D01*
X149510543Y-87474544D01*
X149531613Y-87464579D01*
X149553557Y-87456727D01*
X149576166Y-87451063D01*
X149599221Y-87447644D01*
X149622500Y-87446500D01*
X150097500Y-87446500D01*
X150120779Y-87447644D01*
X150120779Y-87447644D01*
G37*
D16*
G04 #@! TD*
G04 #@! TO.P,R11,2*
G04 #@! TO.N,GND*
X149860000Y-87971500D03*
D10*
G04 #@! TO.N,Net-(R10-Pad2)*
G04 #@! TO.C,R11*
G36*
X150120779Y-85697644D02*
X150143834Y-85701063D01*
X150166443Y-85706727D01*
X150188387Y-85714579D01*
X150209457Y-85724544D01*
X150229448Y-85736526D01*
X150248168Y-85750410D01*
X150265438Y-85766062D01*
X150281090Y-85783332D01*
X150294974Y-85802052D01*
X150306956Y-85822043D01*
X150316921Y-85843113D01*
X150324773Y-85865057D01*
X150330437Y-85887666D01*
X150333856Y-85910721D01*
X150335000Y-85934000D01*
X150335000Y-86509000D01*
X150333856Y-86532279D01*
X150330437Y-86555334D01*
X150324773Y-86577943D01*
X150316921Y-86599887D01*
X150306956Y-86620957D01*
X150294974Y-86640948D01*
X150281090Y-86659668D01*
X150265438Y-86676938D01*
X150248168Y-86692590D01*
X150229448Y-86706474D01*
X150209457Y-86718456D01*
X150188387Y-86728421D01*
X150166443Y-86736273D01*
X150143834Y-86741937D01*
X150120779Y-86745356D01*
X150097500Y-86746500D01*
X149622500Y-86746500D01*
X149599221Y-86745356D01*
X149576166Y-86741937D01*
X149553557Y-86736273D01*
X149531613Y-86728421D01*
X149510543Y-86718456D01*
X149490552Y-86706474D01*
X149471832Y-86692590D01*
X149454562Y-86676938D01*
X149438910Y-86659668D01*
X149425026Y-86640948D01*
X149413044Y-86620957D01*
X149403079Y-86599887D01*
X149395227Y-86577943D01*
X149389563Y-86555334D01*
X149386144Y-86532279D01*
X149385000Y-86509000D01*
X149385000Y-85934000D01*
X149386144Y-85910721D01*
X149389563Y-85887666D01*
X149395227Y-85865057D01*
X149403079Y-85843113D01*
X149413044Y-85822043D01*
X149425026Y-85802052D01*
X149438910Y-85783332D01*
X149454562Y-85766062D01*
X149471832Y-85750410D01*
X149490552Y-85736526D01*
X149510543Y-85724544D01*
X149531613Y-85714579D01*
X149553557Y-85706727D01*
X149576166Y-85701063D01*
X149599221Y-85697644D01*
X149622500Y-85696500D01*
X150097500Y-85696500D01*
X150120779Y-85697644D01*
X150120779Y-85697644D01*
G37*
D16*
G04 #@! TD*
G04 #@! TO.P,R11,1*
G04 #@! TO.N,Net-(R10-Pad2)*
X149860000Y-86221500D03*
D10*
G04 #@! TO.N,Net-(R12-Pad2)*
G04 #@! TO.C,R12*
G36*
X152914779Y-75372144D02*
X152937834Y-75375563D01*
X152960443Y-75381227D01*
X152982387Y-75389079D01*
X153003457Y-75399044D01*
X153023448Y-75411026D01*
X153042168Y-75424910D01*
X153059438Y-75440562D01*
X153075090Y-75457832D01*
X153088974Y-75476552D01*
X153100956Y-75496543D01*
X153110921Y-75517613D01*
X153118773Y-75539557D01*
X153124437Y-75562166D01*
X153127856Y-75585221D01*
X153129000Y-75608500D01*
X153129000Y-76183500D01*
X153127856Y-76206779D01*
X153124437Y-76229834D01*
X153118773Y-76252443D01*
X153110921Y-76274387D01*
X153100956Y-76295457D01*
X153088974Y-76315448D01*
X153075090Y-76334168D01*
X153059438Y-76351438D01*
X153042168Y-76367090D01*
X153023448Y-76380974D01*
X153003457Y-76392956D01*
X152982387Y-76402921D01*
X152960443Y-76410773D01*
X152937834Y-76416437D01*
X152914779Y-76419856D01*
X152891500Y-76421000D01*
X152416500Y-76421000D01*
X152393221Y-76419856D01*
X152370166Y-76416437D01*
X152347557Y-76410773D01*
X152325613Y-76402921D01*
X152304543Y-76392956D01*
X152284552Y-76380974D01*
X152265832Y-76367090D01*
X152248562Y-76351438D01*
X152232910Y-76334168D01*
X152219026Y-76315448D01*
X152207044Y-76295457D01*
X152197079Y-76274387D01*
X152189227Y-76252443D01*
X152183563Y-76229834D01*
X152180144Y-76206779D01*
X152179000Y-76183500D01*
X152179000Y-75608500D01*
X152180144Y-75585221D01*
X152183563Y-75562166D01*
X152189227Y-75539557D01*
X152197079Y-75517613D01*
X152207044Y-75496543D01*
X152219026Y-75476552D01*
X152232910Y-75457832D01*
X152248562Y-75440562D01*
X152265832Y-75424910D01*
X152284552Y-75411026D01*
X152304543Y-75399044D01*
X152325613Y-75389079D01*
X152347557Y-75381227D01*
X152370166Y-75375563D01*
X152393221Y-75372144D01*
X152416500Y-75371000D01*
X152891500Y-75371000D01*
X152914779Y-75372144D01*
X152914779Y-75372144D01*
G37*
D16*
G04 #@! TD*
G04 #@! TO.P,R12,2*
G04 #@! TO.N,Net-(R12-Pad2)*
X152654000Y-75896000D03*
D10*
G04 #@! TO.N,/Vref*
G04 #@! TO.C,R12*
G36*
X152914779Y-73622144D02*
X152937834Y-73625563D01*
X152960443Y-73631227D01*
X152982387Y-73639079D01*
X153003457Y-73649044D01*
X153023448Y-73661026D01*
X153042168Y-73674910D01*
X153059438Y-73690562D01*
X153075090Y-73707832D01*
X153088974Y-73726552D01*
X153100956Y-73746543D01*
X153110921Y-73767613D01*
X153118773Y-73789557D01*
X153124437Y-73812166D01*
X153127856Y-73835221D01*
X153129000Y-73858500D01*
X153129000Y-74433500D01*
X153127856Y-74456779D01*
X153124437Y-74479834D01*
X153118773Y-74502443D01*
X153110921Y-74524387D01*
X153100956Y-74545457D01*
X153088974Y-74565448D01*
X153075090Y-74584168D01*
X153059438Y-74601438D01*
X153042168Y-74617090D01*
X153023448Y-74630974D01*
X153003457Y-74642956D01*
X152982387Y-74652921D01*
X152960443Y-74660773D01*
X152937834Y-74666437D01*
X152914779Y-74669856D01*
X152891500Y-74671000D01*
X152416500Y-74671000D01*
X152393221Y-74669856D01*
X152370166Y-74666437D01*
X152347557Y-74660773D01*
X152325613Y-74652921D01*
X152304543Y-74642956D01*
X152284552Y-74630974D01*
X152265832Y-74617090D01*
X152248562Y-74601438D01*
X152232910Y-74584168D01*
X152219026Y-74565448D01*
X152207044Y-74545457D01*
X152197079Y-74524387D01*
X152189227Y-74502443D01*
X152183563Y-74479834D01*
X152180144Y-74456779D01*
X152179000Y-74433500D01*
X152179000Y-73858500D01*
X152180144Y-73835221D01*
X152183563Y-73812166D01*
X152189227Y-73789557D01*
X152197079Y-73767613D01*
X152207044Y-73746543D01*
X152219026Y-73726552D01*
X152232910Y-73707832D01*
X152248562Y-73690562D01*
X152265832Y-73674910D01*
X152284552Y-73661026D01*
X152304543Y-73649044D01*
X152325613Y-73639079D01*
X152347557Y-73631227D01*
X152370166Y-73625563D01*
X152393221Y-73622144D01*
X152416500Y-73621000D01*
X152891500Y-73621000D01*
X152914779Y-73622144D01*
X152914779Y-73622144D01*
G37*
D16*
G04 #@! TD*
G04 #@! TO.P,R12,1*
G04 #@! TO.N,/Vref*
X152654000Y-74146000D03*
D10*
G04 #@! TO.N,Net-(R12-Pad2)*
G04 #@! TO.C,R13*
G36*
X150120779Y-75372144D02*
X150143834Y-75375563D01*
X150166443Y-75381227D01*
X150188387Y-75389079D01*
X150209457Y-75399044D01*
X150229448Y-75411026D01*
X150248168Y-75424910D01*
X150265438Y-75440562D01*
X150281090Y-75457832D01*
X150294974Y-75476552D01*
X150306956Y-75496543D01*
X150316921Y-75517613D01*
X150324773Y-75539557D01*
X150330437Y-75562166D01*
X150333856Y-75585221D01*
X150335000Y-75608500D01*
X150335000Y-76183500D01*
X150333856Y-76206779D01*
X150330437Y-76229834D01*
X150324773Y-76252443D01*
X150316921Y-76274387D01*
X150306956Y-76295457D01*
X150294974Y-76315448D01*
X150281090Y-76334168D01*
X150265438Y-76351438D01*
X150248168Y-76367090D01*
X150229448Y-76380974D01*
X150209457Y-76392956D01*
X150188387Y-76402921D01*
X150166443Y-76410773D01*
X150143834Y-76416437D01*
X150120779Y-76419856D01*
X150097500Y-76421000D01*
X149622500Y-76421000D01*
X149599221Y-76419856D01*
X149576166Y-76416437D01*
X149553557Y-76410773D01*
X149531613Y-76402921D01*
X149510543Y-76392956D01*
X149490552Y-76380974D01*
X149471832Y-76367090D01*
X149454562Y-76351438D01*
X149438910Y-76334168D01*
X149425026Y-76315448D01*
X149413044Y-76295457D01*
X149403079Y-76274387D01*
X149395227Y-76252443D01*
X149389563Y-76229834D01*
X149386144Y-76206779D01*
X149385000Y-76183500D01*
X149385000Y-75608500D01*
X149386144Y-75585221D01*
X149389563Y-75562166D01*
X149395227Y-75539557D01*
X149403079Y-75517613D01*
X149413044Y-75496543D01*
X149425026Y-75476552D01*
X149438910Y-75457832D01*
X149454562Y-75440562D01*
X149471832Y-75424910D01*
X149490552Y-75411026D01*
X149510543Y-75399044D01*
X149531613Y-75389079D01*
X149553557Y-75381227D01*
X149576166Y-75375563D01*
X149599221Y-75372144D01*
X149622500Y-75371000D01*
X150097500Y-75371000D01*
X150120779Y-75372144D01*
X150120779Y-75372144D01*
G37*
D16*
G04 #@! TD*
G04 #@! TO.P,R13,1*
G04 #@! TO.N,Net-(R12-Pad2)*
X149860000Y-75896000D03*
D10*
G04 #@! TO.N,GND*
G04 #@! TO.C,R13*
G36*
X150120779Y-73622144D02*
X150143834Y-73625563D01*
X150166443Y-73631227D01*
X150188387Y-73639079D01*
X150209457Y-73649044D01*
X150229448Y-73661026D01*
X150248168Y-73674910D01*
X150265438Y-73690562D01*
X150281090Y-73707832D01*
X150294974Y-73726552D01*
X150306956Y-73746543D01*
X150316921Y-73767613D01*
X150324773Y-73789557D01*
X150330437Y-73812166D01*
X150333856Y-73835221D01*
X150335000Y-73858500D01*
X150335000Y-74433500D01*
X150333856Y-74456779D01*
X150330437Y-74479834D01*
X150324773Y-74502443D01*
X150316921Y-74524387D01*
X150306956Y-74545457D01*
X150294974Y-74565448D01*
X150281090Y-74584168D01*
X150265438Y-74601438D01*
X150248168Y-74617090D01*
X150229448Y-74630974D01*
X150209457Y-74642956D01*
X150188387Y-74652921D01*
X150166443Y-74660773D01*
X150143834Y-74666437D01*
X150120779Y-74669856D01*
X150097500Y-74671000D01*
X149622500Y-74671000D01*
X149599221Y-74669856D01*
X149576166Y-74666437D01*
X149553557Y-74660773D01*
X149531613Y-74652921D01*
X149510543Y-74642956D01*
X149490552Y-74630974D01*
X149471832Y-74617090D01*
X149454562Y-74601438D01*
X149438910Y-74584168D01*
X149425026Y-74565448D01*
X149413044Y-74545457D01*
X149403079Y-74524387D01*
X149395227Y-74502443D01*
X149389563Y-74479834D01*
X149386144Y-74456779D01*
X149385000Y-74433500D01*
X149385000Y-73858500D01*
X149386144Y-73835221D01*
X149389563Y-73812166D01*
X149395227Y-73789557D01*
X149403079Y-73767613D01*
X149413044Y-73746543D01*
X149425026Y-73726552D01*
X149438910Y-73707832D01*
X149454562Y-73690562D01*
X149471832Y-73674910D01*
X149490552Y-73661026D01*
X149510543Y-73649044D01*
X149531613Y-73639079D01*
X149553557Y-73631227D01*
X149576166Y-73625563D01*
X149599221Y-73622144D01*
X149622500Y-73621000D01*
X150097500Y-73621000D01*
X150120779Y-73622144D01*
X150120779Y-73622144D01*
G37*
D16*
G04 #@! TD*
G04 #@! TO.P,R13,2*
G04 #@! TO.N,GND*
X149860000Y-74146000D03*
D10*
G04 #@! TO.N,/Vref*
G04 #@! TO.C,R14*
G36*
X155708779Y-87447644D02*
X155731834Y-87451063D01*
X155754443Y-87456727D01*
X155776387Y-87464579D01*
X155797457Y-87474544D01*
X155817448Y-87486526D01*
X155836168Y-87500410D01*
X155853438Y-87516062D01*
X155869090Y-87533332D01*
X155882974Y-87552052D01*
X155894956Y-87572043D01*
X155904921Y-87593113D01*
X155912773Y-87615057D01*
X155918437Y-87637666D01*
X155921856Y-87660721D01*
X155923000Y-87684000D01*
X155923000Y-88259000D01*
X155921856Y-88282279D01*
X155918437Y-88305334D01*
X155912773Y-88327943D01*
X155904921Y-88349887D01*
X155894956Y-88370957D01*
X155882974Y-88390948D01*
X155869090Y-88409668D01*
X155853438Y-88426938D01*
X155836168Y-88442590D01*
X155817448Y-88456474D01*
X155797457Y-88468456D01*
X155776387Y-88478421D01*
X155754443Y-88486273D01*
X155731834Y-88491937D01*
X155708779Y-88495356D01*
X155685500Y-88496500D01*
X155210500Y-88496500D01*
X155187221Y-88495356D01*
X155164166Y-88491937D01*
X155141557Y-88486273D01*
X155119613Y-88478421D01*
X155098543Y-88468456D01*
X155078552Y-88456474D01*
X155059832Y-88442590D01*
X155042562Y-88426938D01*
X155026910Y-88409668D01*
X155013026Y-88390948D01*
X155001044Y-88370957D01*
X154991079Y-88349887D01*
X154983227Y-88327943D01*
X154977563Y-88305334D01*
X154974144Y-88282279D01*
X154973000Y-88259000D01*
X154973000Y-87684000D01*
X154974144Y-87660721D01*
X154977563Y-87637666D01*
X154983227Y-87615057D01*
X154991079Y-87593113D01*
X155001044Y-87572043D01*
X155013026Y-87552052D01*
X155026910Y-87533332D01*
X155042562Y-87516062D01*
X155059832Y-87500410D01*
X155078552Y-87486526D01*
X155098543Y-87474544D01*
X155119613Y-87464579D01*
X155141557Y-87456727D01*
X155164166Y-87451063D01*
X155187221Y-87447644D01*
X155210500Y-87446500D01*
X155685500Y-87446500D01*
X155708779Y-87447644D01*
X155708779Y-87447644D01*
G37*
D16*
G04 #@! TD*
G04 #@! TO.P,R14,1*
G04 #@! TO.N,/Vref*
X155448000Y-87971500D03*
D10*
G04 #@! TO.N,/ch2_enable*
G04 #@! TO.C,R14*
G36*
X155708779Y-85697644D02*
X155731834Y-85701063D01*
X155754443Y-85706727D01*
X155776387Y-85714579D01*
X155797457Y-85724544D01*
X155817448Y-85736526D01*
X155836168Y-85750410D01*
X155853438Y-85766062D01*
X155869090Y-85783332D01*
X155882974Y-85802052D01*
X155894956Y-85822043D01*
X155904921Y-85843113D01*
X155912773Y-85865057D01*
X155918437Y-85887666D01*
X155921856Y-85910721D01*
X155923000Y-85934000D01*
X155923000Y-86509000D01*
X155921856Y-86532279D01*
X155918437Y-86555334D01*
X155912773Y-86577943D01*
X155904921Y-86599887D01*
X155894956Y-86620957D01*
X155882974Y-86640948D01*
X155869090Y-86659668D01*
X155853438Y-86676938D01*
X155836168Y-86692590D01*
X155817448Y-86706474D01*
X155797457Y-86718456D01*
X155776387Y-86728421D01*
X155754443Y-86736273D01*
X155731834Y-86741937D01*
X155708779Y-86745356D01*
X155685500Y-86746500D01*
X155210500Y-86746500D01*
X155187221Y-86745356D01*
X155164166Y-86741937D01*
X155141557Y-86736273D01*
X155119613Y-86728421D01*
X155098543Y-86718456D01*
X155078552Y-86706474D01*
X155059832Y-86692590D01*
X155042562Y-86676938D01*
X155026910Y-86659668D01*
X155013026Y-86640948D01*
X155001044Y-86620957D01*
X154991079Y-86599887D01*
X154983227Y-86577943D01*
X154977563Y-86555334D01*
X154974144Y-86532279D01*
X154973000Y-86509000D01*
X154973000Y-85934000D01*
X154974144Y-85910721D01*
X154977563Y-85887666D01*
X154983227Y-85865057D01*
X154991079Y-85843113D01*
X155001044Y-85822043D01*
X155013026Y-85802052D01*
X155026910Y-85783332D01*
X155042562Y-85766062D01*
X155059832Y-85750410D01*
X155078552Y-85736526D01*
X155098543Y-85724544D01*
X155119613Y-85714579D01*
X155141557Y-85706727D01*
X155164166Y-85701063D01*
X155187221Y-85697644D01*
X155210500Y-85696500D01*
X155685500Y-85696500D01*
X155708779Y-85697644D01*
X155708779Y-85697644D01*
G37*
D16*
G04 #@! TD*
G04 #@! TO.P,R14,2*
G04 #@! TO.N,/ch2_enable*
X155448000Y-86221500D03*
D10*
G04 #@! TO.N,/ch1_enable*
G04 #@! TO.C,R15*
G36*
X155708779Y-75372144D02*
X155731834Y-75375563D01*
X155754443Y-75381227D01*
X155776387Y-75389079D01*
X155797457Y-75399044D01*
X155817448Y-75411026D01*
X155836168Y-75424910D01*
X155853438Y-75440562D01*
X155869090Y-75457832D01*
X155882974Y-75476552D01*
X155894956Y-75496543D01*
X155904921Y-75517613D01*
X155912773Y-75539557D01*
X155918437Y-75562166D01*
X155921856Y-75585221D01*
X155923000Y-75608500D01*
X155923000Y-76183500D01*
X155921856Y-76206779D01*
X155918437Y-76229834D01*
X155912773Y-76252443D01*
X155904921Y-76274387D01*
X155894956Y-76295457D01*
X155882974Y-76315448D01*
X155869090Y-76334168D01*
X155853438Y-76351438D01*
X155836168Y-76367090D01*
X155817448Y-76380974D01*
X155797457Y-76392956D01*
X155776387Y-76402921D01*
X155754443Y-76410773D01*
X155731834Y-76416437D01*
X155708779Y-76419856D01*
X155685500Y-76421000D01*
X155210500Y-76421000D01*
X155187221Y-76419856D01*
X155164166Y-76416437D01*
X155141557Y-76410773D01*
X155119613Y-76402921D01*
X155098543Y-76392956D01*
X155078552Y-76380974D01*
X155059832Y-76367090D01*
X155042562Y-76351438D01*
X155026910Y-76334168D01*
X155013026Y-76315448D01*
X155001044Y-76295457D01*
X154991079Y-76274387D01*
X154983227Y-76252443D01*
X154977563Y-76229834D01*
X154974144Y-76206779D01*
X154973000Y-76183500D01*
X154973000Y-75608500D01*
X154974144Y-75585221D01*
X154977563Y-75562166D01*
X154983227Y-75539557D01*
X154991079Y-75517613D01*
X155001044Y-75496543D01*
X155013026Y-75476552D01*
X155026910Y-75457832D01*
X155042562Y-75440562D01*
X155059832Y-75424910D01*
X155078552Y-75411026D01*
X155098543Y-75399044D01*
X155119613Y-75389079D01*
X155141557Y-75381227D01*
X155164166Y-75375563D01*
X155187221Y-75372144D01*
X155210500Y-75371000D01*
X155685500Y-75371000D01*
X155708779Y-75372144D01*
X155708779Y-75372144D01*
G37*
D16*
G04 #@! TD*
G04 #@! TO.P,R15,2*
G04 #@! TO.N,/ch1_enable*
X155448000Y-75896000D03*
D10*
G04 #@! TO.N,/Vref*
G04 #@! TO.C,R15*
G36*
X155708779Y-73622144D02*
X155731834Y-73625563D01*
X155754443Y-73631227D01*
X155776387Y-73639079D01*
X155797457Y-73649044D01*
X155817448Y-73661026D01*
X155836168Y-73674910D01*
X155853438Y-73690562D01*
X155869090Y-73707832D01*
X155882974Y-73726552D01*
X155894956Y-73746543D01*
X155904921Y-73767613D01*
X155912773Y-73789557D01*
X155918437Y-73812166D01*
X155921856Y-73835221D01*
X155923000Y-73858500D01*
X155923000Y-74433500D01*
X155921856Y-74456779D01*
X155918437Y-74479834D01*
X155912773Y-74502443D01*
X155904921Y-74524387D01*
X155894956Y-74545457D01*
X155882974Y-74565448D01*
X155869090Y-74584168D01*
X155853438Y-74601438D01*
X155836168Y-74617090D01*
X155817448Y-74630974D01*
X155797457Y-74642956D01*
X155776387Y-74652921D01*
X155754443Y-74660773D01*
X155731834Y-74666437D01*
X155708779Y-74669856D01*
X155685500Y-74671000D01*
X155210500Y-74671000D01*
X155187221Y-74669856D01*
X155164166Y-74666437D01*
X155141557Y-74660773D01*
X155119613Y-74652921D01*
X155098543Y-74642956D01*
X155078552Y-74630974D01*
X155059832Y-74617090D01*
X155042562Y-74601438D01*
X155026910Y-74584168D01*
X155013026Y-74565448D01*
X155001044Y-74545457D01*
X154991079Y-74524387D01*
X154983227Y-74502443D01*
X154977563Y-74479834D01*
X154974144Y-74456779D01*
X154973000Y-74433500D01*
X154973000Y-73858500D01*
X154974144Y-73835221D01*
X154977563Y-73812166D01*
X154983227Y-73789557D01*
X154991079Y-73767613D01*
X155001044Y-73746543D01*
X155013026Y-73726552D01*
X155026910Y-73707832D01*
X155042562Y-73690562D01*
X155059832Y-73674910D01*
X155078552Y-73661026D01*
X155098543Y-73649044D01*
X155119613Y-73639079D01*
X155141557Y-73631227D01*
X155164166Y-73625563D01*
X155187221Y-73622144D01*
X155210500Y-73621000D01*
X155685500Y-73621000D01*
X155708779Y-73622144D01*
X155708779Y-73622144D01*
G37*
D16*
G04 #@! TD*
G04 #@! TO.P,R15,1*
G04 #@! TO.N,/Vref*
X155448000Y-74146000D03*
D17*
G04 #@! TO.P,U1,1*
G04 #@! TO.N,/ch1_enable*
X153543000Y-78326000D03*
G04 #@! TO.P,U1,2*
G04 #@! TO.N,Net-(R12-Pad2)*
X152273000Y-78326000D03*
G04 #@! TO.P,U1,3*
G04 #@! TO.N,Net-(C4-Pad1)*
X151003000Y-78326000D03*
G04 #@! TO.P,U1,4*
G04 #@! TO.N,GND*
X149733000Y-78326000D03*
G04 #@! TO.P,U1,5*
G04 #@! TO.N,Net-(C3-Pad1)*
X149733000Y-83726000D03*
G04 #@! TO.P,U1,6*
G04 #@! TO.N,Net-(R10-Pad2)*
X151003000Y-83726000D03*
G04 #@! TO.P,U1,7*
G04 #@! TO.N,/ch2_enable*
X152273000Y-83726000D03*
G04 #@! TO.P,U1,8*
G04 #@! TO.N,+12V*
X153543000Y-83726000D03*
G04 #@! TD*
D18*
G04 #@! TO.N,/Vref*
X151130000Y-90678000D03*
X151130000Y-71628000D03*
X167640000Y-89154000D03*
X161036000Y-77724000D03*
G04 #@! TO.N,GND*
X156718000Y-80264000D03*
X158750000Y-83820000D03*
X160020000Y-83820000D03*
X161290000Y-83820000D03*
X157226000Y-81788000D03*
X172212000Y-74930000D03*
X172212000Y-76930000D03*
X172212000Y-78930000D03*
X172212000Y-80930000D03*
X172212000Y-82930000D03*
X172212000Y-84930000D03*
X172212000Y-86930000D03*
X126238000Y-74930000D03*
X126238000Y-84930000D03*
X126238000Y-78930000D03*
X126238000Y-80930000D03*
X126238000Y-76930000D03*
X126238000Y-82930000D03*
X126238000Y-86930000D03*
G04 #@! TO.N,/ch2_input*
X139192000Y-74422000D03*
X139192000Y-85852000D03*
G04 #@! TD*
D19*
G04 #@! TO.N,+12V*
X153688000Y-83871000D02*
X153543000Y-83726000D01*
X155448000Y-83871000D02*
X153688000Y-83871000D01*
G04 #@! TO.N,/Vref*
X155448000Y-74146000D02*
X152654000Y-74146000D01*
X155448000Y-87971500D02*
X152654000Y-87971500D01*
X163833500Y-81071500D02*
X163367500Y-81071500D01*
X162372000Y-80076000D02*
X161020000Y-80076000D01*
X163367500Y-81071500D02*
X162372000Y-80076000D01*
X163833500Y-81071500D02*
X163833500Y-80260500D01*
X165326000Y-78768000D02*
X165326000Y-78046250D01*
X163833500Y-80260500D02*
X165326000Y-78768000D01*
X165326000Y-84074000D02*
X165326000Y-83538000D01*
X163833500Y-82045500D02*
X163833500Y-81071500D01*
X165326000Y-83538000D02*
X163833500Y-82045500D01*
X152654000Y-87971500D02*
X152654000Y-89154000D01*
X152654000Y-89154000D02*
X151130000Y-90678000D01*
X152654000Y-73152000D02*
X151130000Y-71628000D01*
X152654000Y-74146000D02*
X152654000Y-73152000D01*
X161020000Y-80076000D02*
X161020000Y-78724000D01*
X165326000Y-84074000D02*
X166878000Y-84074000D01*
X166878000Y-84074000D02*
X167640000Y-84836000D01*
X167640000Y-84836000D02*
X167640000Y-89154000D01*
X161036000Y-78708000D02*
X161020000Y-78724000D01*
X161036000Y-77724000D02*
X161036000Y-78708000D01*
G04 #@! TO.N,+12V*
X160800000Y-87096500D02*
X160800000Y-85616000D01*
X160800000Y-85616000D02*
X160274000Y-85090000D01*
X160274000Y-85090000D02*
X158242000Y-85090000D01*
X157023000Y-83871000D02*
X155448000Y-83871000D01*
X158242000Y-85090000D02*
X157023000Y-83871000D01*
X160782000Y-75021000D02*
X163833500Y-75021000D01*
X163833500Y-75021000D02*
X163833500Y-76704500D01*
X163576000Y-76962000D02*
X163576000Y-78046250D01*
X163833500Y-76704500D02*
X163576000Y-76962000D01*
X153543000Y-83726000D02*
X153543000Y-81407000D01*
X153543000Y-81407000D02*
X158496000Y-76454000D01*
X158496000Y-76454000D02*
X160274000Y-76454000D01*
X160274000Y-76454000D02*
X160782000Y-75946000D01*
X160782000Y-75946000D02*
X160782000Y-75021000D01*
G04 #@! TO.N,Net-(C3-Pad1)*
X149733000Y-83726000D02*
X149733000Y-82423000D01*
X149733000Y-82423000D02*
X149352000Y-82042000D01*
X149352000Y-82042000D02*
X147320000Y-82042000D01*
X146304000Y-83058000D02*
X145043000Y-83058000D01*
X147320000Y-82042000D02*
X146304000Y-83058000D01*
X145043000Y-83058000D02*
X145043000Y-84319000D01*
X144272000Y-85090000D02*
X144272000Y-86479000D01*
X145043000Y-84319000D02*
X144272000Y-85090000D01*
X146808500Y-86479000D02*
X147066000Y-86221500D01*
X144272000Y-86479000D02*
X146808500Y-86479000D01*
G04 #@! TO.N,Net-(C4-Pad1)*
X151003000Y-78326000D02*
X151003000Y-79629000D01*
X151003000Y-79629000D02*
X150368000Y-80264000D01*
X150368000Y-80264000D02*
X147066000Y-80264000D01*
X146304000Y-79502000D02*
X145043000Y-79502000D01*
X147066000Y-80264000D02*
X146304000Y-79502000D01*
X144529500Y-75638500D02*
X144272000Y-75896000D01*
X147066000Y-75638500D02*
X144529500Y-75638500D01*
X144272000Y-75896000D02*
X144272000Y-76708000D01*
X145043000Y-77479000D02*
X145043000Y-79502000D01*
X144272000Y-76708000D02*
X145043000Y-77479000D01*
G04 #@! TO.N,Net-(D1-Pad1)*
X163576000Y-87122000D02*
X163576000Y-84074000D01*
X161020000Y-81976000D02*
X161986000Y-81976000D01*
X163576000Y-83566000D02*
X163576000Y-84074000D01*
X161986000Y-81976000D02*
X163576000Y-83566000D01*
G04 #@! TO.N,/ch2_input*
X140890000Y-92456000D02*
X140890000Y-91106000D01*
X140890000Y-91106000D02*
X139446000Y-89662000D01*
X139446000Y-89662000D02*
X139446000Y-87376000D01*
X140600500Y-86221500D02*
X141478000Y-86221500D01*
X139446000Y-87376000D02*
X140600500Y-86221500D01*
X141478000Y-86221500D02*
X141478000Y-83312000D01*
X141732000Y-83058000D02*
X142993000Y-83058000D01*
X141478000Y-83312000D02*
X141732000Y-83058000D01*
X139192000Y-74422000D02*
X139192000Y-72644000D01*
X140890000Y-70946000D02*
X140890000Y-68580000D01*
X139192000Y-72644000D02*
X140890000Y-70946000D01*
X139561500Y-86221500D02*
X139192000Y-85852000D01*
X141478000Y-86221500D02*
X139561500Y-86221500D01*
G04 #@! TO.N,/ch1_input*
X141478000Y-75896000D02*
X141478000Y-76708000D01*
X141478000Y-76708000D02*
X143002000Y-78232000D01*
X143002000Y-79493000D02*
X142993000Y-79502000D01*
X143002000Y-78232000D02*
X143002000Y-79493000D01*
X141478000Y-75896000D02*
X138634000Y-75896000D01*
X135890000Y-92456000D02*
X135890000Y-82042000D01*
X138430000Y-79502000D02*
X142993000Y-79502000D01*
X135890000Y-82042000D02*
X138430000Y-79502000D01*
X135890000Y-68580000D02*
X135890000Y-73152000D01*
X138634000Y-75896000D02*
X135890000Y-73152000D01*
G04 #@! TO.N,Net-(D4-Pad2)*
X158732000Y-75021000D02*
X158732000Y-71356000D01*
X158456000Y-71080000D02*
X158456000Y-68580000D01*
X158732000Y-71356000D02*
X158456000Y-71080000D01*
G04 #@! TO.N,Net-(D5-Pad2)*
X158750000Y-87096500D02*
X158750000Y-90170000D01*
X158456000Y-90464000D02*
X158456000Y-92456000D01*
X158750000Y-90170000D02*
X158456000Y-90464000D01*
G04 #@! TO.N,/ch1_enable*
X153543000Y-78326000D02*
X154338000Y-78326000D01*
X155448000Y-77216000D02*
X155448000Y-75896000D01*
X154338000Y-78326000D02*
X155448000Y-77216000D01*
X156006000Y-75896000D02*
X155448000Y-75896000D01*
X156972000Y-74930000D02*
X156006000Y-75896000D01*
X156972000Y-71374000D02*
X156972000Y-74930000D01*
X155956000Y-68580000D02*
X155956000Y-70358000D01*
X155956000Y-70358000D02*
X156972000Y-71374000D01*
G04 #@! TO.N,/ch2_enable*
X152273000Y-83726000D02*
X152273000Y-84709000D01*
X152273000Y-84709000D02*
X152654000Y-85090000D01*
X152654000Y-85090000D02*
X154940000Y-85090000D01*
X155448000Y-85598000D02*
X155448000Y-86221500D01*
X154940000Y-85090000D02*
X155448000Y-85598000D01*
X155448000Y-86221500D02*
X156579500Y-86221500D01*
X156579500Y-86221500D02*
X156972000Y-86614000D01*
X156972000Y-86614000D02*
X156972000Y-89662000D01*
X155956000Y-90678000D02*
X155956000Y-92456000D01*
X156972000Y-89662000D02*
X155956000Y-90678000D01*
G04 #@! TO.N,Net-(R10-Pad2)*
X151003000Y-85078500D02*
X149860000Y-86221500D01*
X151003000Y-83726000D02*
X151003000Y-85078500D01*
X149860000Y-86221500D02*
X152654000Y-86221500D01*
G04 #@! TO.N,Net-(R12-Pad2)*
X152273000Y-78326000D02*
X152273000Y-77089000D01*
X152654000Y-76708000D02*
X152654000Y-75896000D01*
X152273000Y-77089000D02*
X152654000Y-76708000D01*
X149860000Y-75896000D02*
X152654000Y-75896000D01*
G04 #@! TD*
D20*
G04 #@! TO.N,GND*
G36*
X171719803Y-64765139D02*
X172473023Y-64971197D01*
X173177852Y-65307384D01*
X173812002Y-65763065D01*
X174355441Y-66323851D01*
X174790981Y-66972001D01*
X175104862Y-67687043D01*
X175288424Y-68451636D01*
X175337000Y-69113112D01*
X175337001Y-92933483D01*
X175264861Y-93741805D01*
X175058803Y-94495023D01*
X174722616Y-95199852D01*
X174266932Y-95834005D01*
X173706149Y-96377441D01*
X173057996Y-96812982D01*
X172342956Y-97126863D01*
X171578364Y-97310424D01*
X170916887Y-97359000D01*
X128046506Y-97359000D01*
X127238195Y-97286861D01*
X126484977Y-97080803D01*
X125780148Y-96744616D01*
X125145995Y-96288932D01*
X124602559Y-95728149D01*
X124167018Y-95079996D01*
X123853137Y-94364956D01*
X123669576Y-93600364D01*
X123621000Y-92938887D01*
X123621000Y-92461431D01*
X125781000Y-92461431D01*
X125781000Y-93350569D01*
X126121259Y-94172026D01*
X126749974Y-94800741D01*
X127571431Y-95141000D01*
X128460569Y-95141000D01*
X129282026Y-94800741D01*
X129910741Y-94172026D01*
X130251000Y-93350569D01*
X130251000Y-92461431D01*
X129910741Y-91639974D01*
X129282026Y-91011259D01*
X128460569Y-90671000D01*
X127571431Y-90671000D01*
X126749974Y-91011259D01*
X126121259Y-91639974D01*
X125781000Y-92461431D01*
X123621000Y-92461431D01*
X123621000Y-69118505D01*
X123655188Y-68735431D01*
X125781000Y-68735431D01*
X125781000Y-69624569D01*
X126121259Y-70446026D01*
X126749974Y-71074741D01*
X127571431Y-71415000D01*
X128460569Y-71415000D01*
X129282026Y-71074741D01*
X129910741Y-70446026D01*
X130251000Y-69624569D01*
X130251000Y-68735431D01*
X129910741Y-67913974D01*
X129851767Y-67855000D01*
X134392560Y-67855000D01*
X134392560Y-69305000D01*
X134460874Y-69648435D01*
X134655414Y-69939586D01*
X134946565Y-70134126D01*
X135130000Y-70170614D01*
X135130001Y-73077148D01*
X135115112Y-73152000D01*
X135130001Y-73226852D01*
X135168199Y-73418888D01*
X135174097Y-73448537D01*
X135274013Y-73598071D01*
X135342072Y-73699929D01*
X135405528Y-73742329D01*
X138043671Y-76380473D01*
X138086071Y-76443929D01*
X138337463Y-76611904D01*
X138559148Y-76656000D01*
X138559152Y-76656000D01*
X138633999Y-76670888D01*
X138708846Y-76656000D01*
X140512356Y-76656000D01*
X140614753Y-76809247D01*
X140739882Y-76892855D01*
X140760106Y-76994527D01*
X140762097Y-77004537D01*
X140886890Y-77191302D01*
X140930072Y-77255929D01*
X140993528Y-77298329D01*
X142080889Y-78385692D01*
X142033414Y-78417414D01*
X141838873Y-78708564D01*
X141832222Y-78742000D01*
X138504846Y-78742000D01*
X138429999Y-78727112D01*
X138355152Y-78742000D01*
X138355148Y-78742000D01*
X138133463Y-78786096D01*
X138133461Y-78786097D01*
X138133462Y-78786097D01*
X137945526Y-78911671D01*
X137945524Y-78911673D01*
X137882071Y-78954071D01*
X137839673Y-79017524D01*
X135405528Y-81451671D01*
X135342072Y-81494071D01*
X135299672Y-81557527D01*
X135299671Y-81557528D01*
X135174097Y-81745463D01*
X135115112Y-82042000D01*
X135130001Y-82116852D01*
X135130000Y-90865386D01*
X134946565Y-90901874D01*
X134655414Y-91096414D01*
X134460874Y-91387565D01*
X134392560Y-91731000D01*
X134392560Y-93181000D01*
X134460874Y-93524435D01*
X134655414Y-93815586D01*
X134946565Y-94010126D01*
X135290000Y-94078440D01*
X136490000Y-94078440D01*
X136833435Y-94010126D01*
X137124586Y-93815586D01*
X137302185Y-93549789D01*
X137518807Y-93783497D01*
X138033110Y-94022476D01*
X138263000Y-93901155D01*
X138263000Y-92583000D01*
X138243000Y-92583000D01*
X138243000Y-92329000D01*
X138263000Y-92329000D01*
X138263000Y-91010845D01*
X138033110Y-90889524D01*
X137518807Y-91128503D01*
X137302185Y-91362211D01*
X137124586Y-91096414D01*
X136833435Y-90901874D01*
X136650000Y-90865386D01*
X136650000Y-82356801D01*
X138744803Y-80262000D01*
X141832222Y-80262000D01*
X141838873Y-80295436D01*
X142033414Y-80586586D01*
X142324564Y-80781127D01*
X142667999Y-80849440D01*
X143318001Y-80849440D01*
X143661436Y-80781127D01*
X143952586Y-80586586D01*
X144018000Y-80488687D01*
X144083414Y-80586586D01*
X144374564Y-80781127D01*
X144717999Y-80849440D01*
X145368001Y-80849440D01*
X145711436Y-80781127D01*
X146002586Y-80586586D01*
X146127235Y-80400036D01*
X146475671Y-80748473D01*
X146518071Y-80811929D01*
X146581527Y-80854329D01*
X146769462Y-80979904D01*
X146817605Y-80989480D01*
X146991148Y-81024000D01*
X146991152Y-81024000D01*
X147066000Y-81038888D01*
X147140848Y-81024000D01*
X150293153Y-81024000D01*
X150368000Y-81038888D01*
X150442847Y-81024000D01*
X150442852Y-81024000D01*
X150664537Y-80979904D01*
X150915929Y-80811929D01*
X150958331Y-80748470D01*
X151487473Y-80219329D01*
X151550929Y-80176929D01*
X151718904Y-79925537D01*
X151762461Y-79706562D01*
X151973000Y-79748440D01*
X152573000Y-79748440D01*
X152820765Y-79699157D01*
X152908000Y-79640868D01*
X152995235Y-79699157D01*
X153243000Y-79748440D01*
X153843000Y-79748440D01*
X154090765Y-79699157D01*
X154300809Y-79558809D01*
X154441157Y-79348765D01*
X154490440Y-79101000D01*
X154490440Y-79070567D01*
X154634537Y-79041904D01*
X154885929Y-78873929D01*
X154928331Y-78810470D01*
X155932473Y-77806329D01*
X155995929Y-77763929D01*
X156163904Y-77512537D01*
X156208000Y-77290852D01*
X156208000Y-77290848D01*
X156222888Y-77216001D01*
X156208000Y-77141154D01*
X156208000Y-76878235D01*
X156311247Y-76809247D01*
X156503078Y-76522152D01*
X156513228Y-76471125D01*
X156553929Y-76443929D01*
X156596331Y-76380471D01*
X157456475Y-75520327D01*
X157511993Y-75483232D01*
X157577873Y-75814436D01*
X157771292Y-76103906D01*
X153058528Y-80816671D01*
X152995072Y-80859071D01*
X152952672Y-80922527D01*
X152952671Y-80922528D01*
X152874922Y-81038888D01*
X152827097Y-81110463D01*
X152795938Y-81267112D01*
X152768112Y-81407000D01*
X152783001Y-81481852D01*
X152783001Y-82345331D01*
X152573000Y-82303560D01*
X151973000Y-82303560D01*
X151725235Y-82352843D01*
X151638000Y-82411132D01*
X151550765Y-82352843D01*
X151303000Y-82303560D01*
X150703000Y-82303560D01*
X150492461Y-82345438D01*
X150448904Y-82126463D01*
X150280929Y-81875071D01*
X150217472Y-81832671D01*
X149942331Y-81557529D01*
X149899929Y-81494071D01*
X149648537Y-81326096D01*
X149426852Y-81282000D01*
X149426847Y-81282000D01*
X149352000Y-81267112D01*
X149277153Y-81282000D01*
X147394847Y-81282000D01*
X147320000Y-81267112D01*
X147245153Y-81282000D01*
X147245148Y-81282000D01*
X147023463Y-81326096D01*
X146772071Y-81494071D01*
X146729671Y-81557527D01*
X146127235Y-82159964D01*
X146002586Y-81973414D01*
X145711436Y-81778873D01*
X145368001Y-81710560D01*
X144717999Y-81710560D01*
X144374564Y-81778873D01*
X144083414Y-81973414D01*
X144018000Y-82071313D01*
X143952586Y-81973414D01*
X143661436Y-81778873D01*
X143318001Y-81710560D01*
X142667999Y-81710560D01*
X142324564Y-81778873D01*
X142033414Y-81973414D01*
X141838873Y-82264564D01*
X141832222Y-82298000D01*
X141806846Y-82298000D01*
X141731999Y-82283112D01*
X141657152Y-82298000D01*
X141657148Y-82298000D01*
X141435463Y-82342096D01*
X141184071Y-82510071D01*
X141141669Y-82573530D01*
X140993528Y-82721671D01*
X140930072Y-82764071D01*
X140887672Y-82827527D01*
X140887671Y-82827528D01*
X140762097Y-83015463D01*
X140703112Y-83312000D01*
X140718001Y-83386852D01*
X140718000Y-85239265D01*
X140614753Y-85308253D01*
X140512356Y-85461500D01*
X140150526Y-85461500D01*
X140069431Y-85265720D01*
X139778280Y-84974569D01*
X139397874Y-84817000D01*
X138986126Y-84817000D01*
X138605720Y-84974569D01*
X138314569Y-85265720D01*
X138157000Y-85646126D01*
X138157000Y-86057874D01*
X138314569Y-86438280D01*
X138605720Y-86729431D01*
X138886320Y-86845659D01*
X138855672Y-86891527D01*
X138855671Y-86891528D01*
X138825018Y-86937404D01*
X138730097Y-87079463D01*
X138707135Y-87194903D01*
X138671112Y-87376000D01*
X138686001Y-87450852D01*
X138686000Y-89587153D01*
X138671112Y-89662000D01*
X138686000Y-89736847D01*
X138686000Y-89736851D01*
X138730096Y-89958536D01*
X138898071Y-90209929D01*
X138961530Y-90252331D01*
X139909412Y-91200214D01*
X139819375Y-91260375D01*
X139636754Y-91533687D01*
X139261193Y-91128503D01*
X138746890Y-90889524D01*
X138517000Y-91010845D01*
X138517000Y-92329000D01*
X138537000Y-92329000D01*
X138537000Y-92583000D01*
X138517000Y-92583000D01*
X138517000Y-93901155D01*
X138746890Y-94022476D01*
X139261193Y-93783497D01*
X139636754Y-93378313D01*
X139819375Y-93651625D01*
X140310583Y-93979839D01*
X140890000Y-94095092D01*
X141469418Y-93979839D01*
X141960625Y-93651625D01*
X142288839Y-93160417D01*
X142375000Y-92727255D01*
X142375000Y-92184744D01*
X142288839Y-91751582D01*
X141960625Y-91260375D01*
X141654971Y-91056144D01*
X141650000Y-91031152D01*
X141650000Y-91031148D01*
X141605904Y-90809463D01*
X141513386Y-90671000D01*
X141480329Y-90621526D01*
X141480327Y-90621524D01*
X141437929Y-90558071D01*
X141374476Y-90515673D01*
X140206000Y-89347199D01*
X140206000Y-88257250D01*
X140368000Y-88257250D01*
X140368000Y-88622809D01*
X140464673Y-88856198D01*
X140643301Y-89034827D01*
X140876690Y-89131500D01*
X141192250Y-89131500D01*
X141351000Y-88972750D01*
X141351000Y-88098500D01*
X141605000Y-88098500D01*
X141605000Y-88972750D01*
X141763750Y-89131500D01*
X142079310Y-89131500D01*
X142312699Y-89034827D01*
X142491327Y-88856198D01*
X142588000Y-88622809D01*
X142588000Y-88339750D01*
X143162000Y-88339750D01*
X143162000Y-88617809D01*
X143258673Y-88851198D01*
X143437301Y-89029827D01*
X143670690Y-89126500D01*
X143986250Y-89126500D01*
X144145000Y-88967750D01*
X144145000Y-88181000D01*
X144399000Y-88181000D01*
X144399000Y-88967750D01*
X144557750Y-89126500D01*
X144873310Y-89126500D01*
X145106699Y-89029827D01*
X145285327Y-88851198D01*
X145382000Y-88617809D01*
X145382000Y-88339750D01*
X145299500Y-88257250D01*
X145956000Y-88257250D01*
X145956000Y-88622809D01*
X146052673Y-88856198D01*
X146231301Y-89034827D01*
X146464690Y-89131500D01*
X146780250Y-89131500D01*
X146939000Y-88972750D01*
X146939000Y-88098500D01*
X147193000Y-88098500D01*
X147193000Y-88972750D01*
X147351750Y-89131500D01*
X147667310Y-89131500D01*
X147900699Y-89034827D01*
X148079327Y-88856198D01*
X148176000Y-88622809D01*
X148176000Y-88257250D01*
X148750000Y-88257250D01*
X148750000Y-88622809D01*
X148846673Y-88856198D01*
X149025301Y-89034827D01*
X149258690Y-89131500D01*
X149574250Y-89131500D01*
X149733000Y-88972750D01*
X149733000Y-88098500D01*
X149987000Y-88098500D01*
X149987000Y-88972750D01*
X150145750Y-89131500D01*
X150461310Y-89131500D01*
X150694699Y-89034827D01*
X150873327Y-88856198D01*
X150970000Y-88622809D01*
X150970000Y-88257250D01*
X150811250Y-88098500D01*
X149987000Y-88098500D01*
X149733000Y-88098500D01*
X148908750Y-88098500D01*
X148750000Y-88257250D01*
X148176000Y-88257250D01*
X148017250Y-88098500D01*
X147193000Y-88098500D01*
X146939000Y-88098500D01*
X146114750Y-88098500D01*
X145956000Y-88257250D01*
X145299500Y-88257250D01*
X145223250Y-88181000D01*
X144399000Y-88181000D01*
X144145000Y-88181000D01*
X143320750Y-88181000D01*
X143162000Y-88339750D01*
X142588000Y-88339750D01*
X142588000Y-88257250D01*
X142429250Y-88098500D01*
X141605000Y-88098500D01*
X141351000Y-88098500D01*
X140526750Y-88098500D01*
X140368000Y-88257250D01*
X140206000Y-88257250D01*
X140206000Y-87690801D01*
X140368000Y-87528801D01*
X140368000Y-87685750D01*
X140526750Y-87844500D01*
X141351000Y-87844500D01*
X141351000Y-87824500D01*
X141605000Y-87824500D01*
X141605000Y-87844500D01*
X142429250Y-87844500D01*
X142588000Y-87685750D01*
X142588000Y-87320191D01*
X142491327Y-87086802D01*
X142420565Y-87016040D01*
X142533078Y-86847652D01*
X142600440Y-86509000D01*
X142600440Y-85934000D01*
X142533078Y-85595348D01*
X142341247Y-85308253D01*
X142238000Y-85239265D01*
X142238000Y-84279287D01*
X142324564Y-84337127D01*
X142667999Y-84405440D01*
X143318001Y-84405440D01*
X143661436Y-84337127D01*
X143952586Y-84142586D01*
X144018000Y-84044687D01*
X144083414Y-84142586D01*
X144120100Y-84167099D01*
X143787530Y-84499669D01*
X143724071Y-84542071D01*
X143556096Y-84793464D01*
X143512000Y-85015149D01*
X143512000Y-85015153D01*
X143497112Y-85090000D01*
X143512000Y-85164847D01*
X143512000Y-85575104D01*
X143403261Y-85647761D01*
X143215495Y-85928773D01*
X143149560Y-86260250D01*
X143149560Y-86697750D01*
X143215495Y-87029227D01*
X143323943Y-87191531D01*
X143258673Y-87256802D01*
X143162000Y-87490191D01*
X143162000Y-87768250D01*
X143320750Y-87927000D01*
X144145000Y-87927000D01*
X144145000Y-87907000D01*
X144399000Y-87907000D01*
X144399000Y-87927000D01*
X145223250Y-87927000D01*
X145382000Y-87768250D01*
X145382000Y-87490191D01*
X145285327Y-87256802D01*
X145267525Y-87239000D01*
X145989630Y-87239000D01*
X145956000Y-87320191D01*
X145956000Y-87685750D01*
X146114750Y-87844500D01*
X146939000Y-87844500D01*
X146939000Y-87824500D01*
X147193000Y-87824500D01*
X147193000Y-87844500D01*
X148017250Y-87844500D01*
X148176000Y-87685750D01*
X148176000Y-87320191D01*
X148079327Y-87086802D01*
X148008565Y-87016040D01*
X148121078Y-86847652D01*
X148188440Y-86509000D01*
X148188440Y-85934000D01*
X148121078Y-85595348D01*
X147929247Y-85308253D01*
X147642152Y-85116422D01*
X147303500Y-85049060D01*
X146828500Y-85049060D01*
X146489848Y-85116422D01*
X146202753Y-85308253D01*
X146010922Y-85595348D01*
X145986326Y-85719000D01*
X145188339Y-85719000D01*
X145140739Y-85647761D01*
X145032000Y-85575104D01*
X145032000Y-85404801D01*
X145527473Y-84909329D01*
X145590929Y-84866929D01*
X145640017Y-84793464D01*
X145758904Y-84615538D01*
X145781951Y-84499671D01*
X145803000Y-84393852D01*
X145803000Y-84393848D01*
X145817888Y-84319000D01*
X145808582Y-84272216D01*
X146002586Y-84142586D01*
X146197127Y-83851436D01*
X146203778Y-83818000D01*
X146229153Y-83818000D01*
X146304000Y-83832888D01*
X146378847Y-83818000D01*
X146378852Y-83818000D01*
X146600537Y-83773904D01*
X146851929Y-83605929D01*
X146894331Y-83542470D01*
X147634802Y-82802000D01*
X148815198Y-82802000D01*
X148785560Y-82951000D01*
X148785560Y-84501000D01*
X148834843Y-84748765D01*
X148975191Y-84958809D01*
X149185235Y-85099157D01*
X149281138Y-85118233D01*
X148996753Y-85308253D01*
X148804922Y-85595348D01*
X148737560Y-85934000D01*
X148737560Y-86509000D01*
X148804922Y-86847652D01*
X148917435Y-87016040D01*
X148846673Y-87086802D01*
X148750000Y-87320191D01*
X148750000Y-87685750D01*
X148908750Y-87844500D01*
X149733000Y-87844500D01*
X149733000Y-87824500D01*
X149987000Y-87824500D01*
X149987000Y-87844500D01*
X150811250Y-87844500D01*
X150970000Y-87685750D01*
X150970000Y-87320191D01*
X150873327Y-87086802D01*
X150802565Y-87016040D01*
X150825644Y-86981500D01*
X151688356Y-86981500D01*
X151765197Y-87096500D01*
X151598922Y-87345348D01*
X151531560Y-87684000D01*
X151531560Y-88259000D01*
X151598922Y-88597652D01*
X151790753Y-88884747D01*
X151825340Y-88907857D01*
X151090198Y-89643000D01*
X150924126Y-89643000D01*
X150543720Y-89800569D01*
X150252569Y-90091720D01*
X150095000Y-90472126D01*
X150095000Y-90883874D01*
X150252569Y-91264280D01*
X150543720Y-91555431D01*
X150924126Y-91713000D01*
X151335874Y-91713000D01*
X151716280Y-91555431D01*
X152007431Y-91264280D01*
X152165000Y-90883874D01*
X152165000Y-90717802D01*
X153138476Y-89744327D01*
X153201929Y-89701929D01*
X153244327Y-89638476D01*
X153244329Y-89638474D01*
X153369903Y-89450538D01*
X153369904Y-89450537D01*
X153414000Y-89228852D01*
X153414000Y-89228848D01*
X153428888Y-89154001D01*
X153414000Y-89079154D01*
X153414000Y-88953735D01*
X153517247Y-88884747D01*
X153619644Y-88731500D01*
X154482356Y-88731500D01*
X154584753Y-88884747D01*
X154871848Y-89076578D01*
X155210500Y-89143940D01*
X155685500Y-89143940D01*
X156024152Y-89076578D01*
X156212001Y-88951061D01*
X156212001Y-89347197D01*
X155471530Y-90087669D01*
X155408071Y-90130071D01*
X155240096Y-90381464D01*
X155196000Y-90603149D01*
X155196000Y-90603153D01*
X155181112Y-90678000D01*
X155196000Y-90752847D01*
X155196000Y-90865386D01*
X155012565Y-90901874D01*
X154721414Y-91096414D01*
X154526874Y-91387565D01*
X154458560Y-91731000D01*
X154458560Y-93181000D01*
X154526874Y-93524435D01*
X154721414Y-93815586D01*
X155012565Y-94010126D01*
X155356000Y-94078440D01*
X156556000Y-94078440D01*
X156899435Y-94010126D01*
X157190586Y-93815586D01*
X157342758Y-93587844D01*
X157385375Y-93651625D01*
X157876583Y-93979839D01*
X158456000Y-94095092D01*
X159035418Y-93979839D01*
X159526625Y-93651625D01*
X159706000Y-93383171D01*
X159885375Y-93651625D01*
X160376583Y-93979839D01*
X160956000Y-94095092D01*
X161535418Y-93979839D01*
X162026625Y-93651625D01*
X162209246Y-93378313D01*
X162584807Y-93783497D01*
X163099110Y-94022476D01*
X163329000Y-93901155D01*
X163329000Y-92583000D01*
X163583000Y-92583000D01*
X163583000Y-93901155D01*
X163812890Y-94022476D01*
X164327193Y-93783497D01*
X164721053Y-93358571D01*
X164922320Y-92815267D01*
X164782165Y-92583000D01*
X163583000Y-92583000D01*
X163329000Y-92583000D01*
X163309000Y-92583000D01*
X163309000Y-92461431D01*
X168707000Y-92461431D01*
X168707000Y-93350569D01*
X169047259Y-94172026D01*
X169675974Y-94800741D01*
X170497431Y-95141000D01*
X171386569Y-95141000D01*
X172208026Y-94800741D01*
X172836741Y-94172026D01*
X173177000Y-93350569D01*
X173177000Y-92461431D01*
X172836741Y-91639974D01*
X172208026Y-91011259D01*
X171386569Y-90671000D01*
X170497431Y-90671000D01*
X169675974Y-91011259D01*
X169047259Y-91639974D01*
X168707000Y-92461431D01*
X163309000Y-92461431D01*
X163309000Y-92329000D01*
X163329000Y-92329000D01*
X163329000Y-91010845D01*
X163583000Y-91010845D01*
X163583000Y-92329000D01*
X164782165Y-92329000D01*
X164922320Y-92096733D01*
X164721053Y-91553429D01*
X164327193Y-91128503D01*
X163812890Y-90889524D01*
X163583000Y-91010845D01*
X163329000Y-91010845D01*
X163099110Y-90889524D01*
X162584807Y-91128503D01*
X162209246Y-91533687D01*
X162026625Y-91260375D01*
X161535417Y-90932161D01*
X160956000Y-90816908D01*
X160376582Y-90932161D01*
X159885375Y-91260375D01*
X159706000Y-91528829D01*
X159526625Y-91260375D01*
X159216000Y-91052822D01*
X159216000Y-90778801D01*
X159234470Y-90760331D01*
X159297929Y-90717929D01*
X159465904Y-90466537D01*
X159510000Y-90244852D01*
X159510000Y-90244848D01*
X159524888Y-90170000D01*
X159510000Y-90095152D01*
X159510000Y-88314446D01*
X159709586Y-88181086D01*
X159775000Y-88083187D01*
X159840414Y-88181086D01*
X160131564Y-88375627D01*
X160474999Y-88443940D01*
X161125001Y-88443940D01*
X161468436Y-88375627D01*
X161759586Y-88181086D01*
X161954127Y-87889936D01*
X162022440Y-87546501D01*
X162022440Y-86646499D01*
X161954127Y-86303064D01*
X161759586Y-86011914D01*
X161560000Y-85878554D01*
X161560000Y-85690846D01*
X161574888Y-85615999D01*
X161560000Y-85541152D01*
X161560000Y-85541148D01*
X161515904Y-85319463D01*
X161433703Y-85196440D01*
X161390329Y-85131526D01*
X161390327Y-85131524D01*
X161347929Y-85068071D01*
X161284475Y-85025672D01*
X160864330Y-84605529D01*
X160821929Y-84542071D01*
X160570537Y-84374096D01*
X160348852Y-84330000D01*
X160348847Y-84330000D01*
X160274000Y-84315112D01*
X160199153Y-84330000D01*
X158556803Y-84330000D01*
X157613331Y-83386530D01*
X157570929Y-83323071D01*
X157319537Y-83155096D01*
X157097852Y-83111000D01*
X157097847Y-83111000D01*
X157023000Y-83096112D01*
X156948153Y-83111000D01*
X156443525Y-83111000D01*
X156461327Y-83093198D01*
X156558000Y-82859809D01*
X156558000Y-82581750D01*
X156399250Y-82423000D01*
X155575000Y-82423000D01*
X155575000Y-82443000D01*
X155321000Y-82443000D01*
X155321000Y-82423000D01*
X154496750Y-82423000D01*
X154351178Y-82568572D01*
X154303000Y-82496470D01*
X154303000Y-81721801D01*
X154370096Y-81654705D01*
X154338000Y-81732191D01*
X154338000Y-82010250D01*
X154496750Y-82169000D01*
X155321000Y-82169000D01*
X155321000Y-81382250D01*
X155575000Y-81382250D01*
X155575000Y-82169000D01*
X156399250Y-82169000D01*
X156558000Y-82010250D01*
X156558000Y-81732191D01*
X156461327Y-81498802D01*
X156282699Y-81320173D01*
X156262365Y-81311750D01*
X157935000Y-81311750D01*
X157935000Y-81552310D01*
X158031673Y-81785699D01*
X158210302Y-81964327D01*
X158443691Y-82061000D01*
X158734250Y-82061000D01*
X158893000Y-81902250D01*
X158893000Y-81153000D01*
X158093750Y-81153000D01*
X157935000Y-81311750D01*
X156262365Y-81311750D01*
X156049310Y-81223500D01*
X155733750Y-81223500D01*
X155575000Y-81382250D01*
X155321000Y-81382250D01*
X155162250Y-81223500D01*
X154846690Y-81223500D01*
X154769206Y-81255595D01*
X155525111Y-80499690D01*
X157935000Y-80499690D01*
X157935000Y-80740250D01*
X158093750Y-80899000D01*
X158893000Y-80899000D01*
X158893000Y-80149750D01*
X158734250Y-79991000D01*
X158443691Y-79991000D01*
X158210302Y-80087673D01*
X158031673Y-80266301D01*
X157935000Y-80499690D01*
X155525111Y-80499690D01*
X158810802Y-77214000D01*
X160126973Y-77214000D01*
X160001000Y-77518126D01*
X160001000Y-77929874D01*
X160158569Y-78310280D01*
X160276001Y-78427712D01*
X160276001Y-78568712D01*
X160245112Y-78724000D01*
X160260001Y-78798851D01*
X160260001Y-79119427D01*
X160112191Y-79218191D01*
X159971843Y-79428235D01*
X159922560Y-79676000D01*
X159922560Y-80180534D01*
X159829698Y-80087673D01*
X159596309Y-79991000D01*
X159305750Y-79991000D01*
X159147000Y-80149750D01*
X159147000Y-80899000D01*
X159946250Y-80899000D01*
X160031781Y-80813469D01*
X160112191Y-80933809D01*
X160250164Y-81026000D01*
X160112191Y-81118191D01*
X160031781Y-81238531D01*
X159946250Y-81153000D01*
X159147000Y-81153000D01*
X159147000Y-81902250D01*
X159305750Y-82061000D01*
X159596309Y-82061000D01*
X159829698Y-81964327D01*
X159922560Y-81871466D01*
X159922560Y-82376000D01*
X159971843Y-82623765D01*
X160112191Y-82833809D01*
X160322235Y-82974157D01*
X160570000Y-83023440D01*
X161470000Y-83023440D01*
X161717765Y-82974157D01*
X161832615Y-82897416D01*
X162464638Y-83529440D01*
X162403560Y-83836500D01*
X162403560Y-84311500D01*
X162470922Y-84650152D01*
X162662753Y-84937247D01*
X162816001Y-85039644D01*
X162816000Y-86156356D01*
X162662753Y-86258753D01*
X162470922Y-86545848D01*
X162403560Y-86884500D01*
X162403560Y-87359500D01*
X162470922Y-87698152D01*
X162662753Y-87985247D01*
X162949848Y-88177078D01*
X163288500Y-88244440D01*
X163863500Y-88244440D01*
X164202152Y-88177078D01*
X164370540Y-88064565D01*
X164441302Y-88135327D01*
X164674691Y-88232000D01*
X165040250Y-88232000D01*
X165199000Y-88073250D01*
X165199000Y-87249000D01*
X165453000Y-87249000D01*
X165453000Y-88073250D01*
X165611750Y-88232000D01*
X165977309Y-88232000D01*
X166210698Y-88135327D01*
X166389327Y-87956699D01*
X166486000Y-87723310D01*
X166486000Y-87407750D01*
X166327250Y-87249000D01*
X165453000Y-87249000D01*
X165199000Y-87249000D01*
X165179000Y-87249000D01*
X165179000Y-86995000D01*
X165199000Y-86995000D01*
X165199000Y-86170750D01*
X165453000Y-86170750D01*
X165453000Y-86995000D01*
X166327250Y-86995000D01*
X166486000Y-86836250D01*
X166486000Y-86520690D01*
X166389327Y-86287301D01*
X166210698Y-86108673D01*
X165977309Y-86012000D01*
X165611750Y-86012000D01*
X165453000Y-86170750D01*
X165199000Y-86170750D01*
X165040250Y-86012000D01*
X164674691Y-86012000D01*
X164441302Y-86108673D01*
X164370540Y-86179435D01*
X164336000Y-86156356D01*
X164336000Y-85039644D01*
X164451000Y-84962803D01*
X164699848Y-85129078D01*
X165038500Y-85196440D01*
X165613500Y-85196440D01*
X165952152Y-85129078D01*
X166239247Y-84937247D01*
X166308235Y-84834000D01*
X166563199Y-84834000D01*
X166880000Y-85150802D01*
X166880001Y-88450288D01*
X166762569Y-88567720D01*
X166605000Y-88948126D01*
X166605000Y-89359874D01*
X166762569Y-89740280D01*
X167053720Y-90031431D01*
X167434126Y-90189000D01*
X167845874Y-90189000D01*
X168226280Y-90031431D01*
X168517431Y-89740280D01*
X168675000Y-89359874D01*
X168675000Y-88948126D01*
X168517431Y-88567720D01*
X168400000Y-88450289D01*
X168400000Y-84910848D01*
X168414888Y-84836000D01*
X168400000Y-84761152D01*
X168400000Y-84761148D01*
X168355904Y-84539463D01*
X168355904Y-84539462D01*
X168230329Y-84351527D01*
X168187929Y-84288071D01*
X168124473Y-84245671D01*
X167468331Y-83589530D01*
X167425929Y-83526071D01*
X167174537Y-83358096D01*
X166952852Y-83314000D01*
X166952847Y-83314000D01*
X166878000Y-83299112D01*
X166803153Y-83314000D01*
X166308235Y-83314000D01*
X166239247Y-83210753D01*
X165952152Y-83018922D01*
X165884171Y-83005400D01*
X165873929Y-82990071D01*
X165810473Y-82947671D01*
X165044301Y-82181500D01*
X165122750Y-82181500D01*
X165281500Y-82022750D01*
X165281500Y-81198500D01*
X165535500Y-81198500D01*
X165535500Y-82022750D01*
X165694250Y-82181500D01*
X165972309Y-82181500D01*
X166205698Y-82084827D01*
X166384327Y-81906199D01*
X166481000Y-81672810D01*
X166481000Y-81357250D01*
X166322250Y-81198500D01*
X165535500Y-81198500D01*
X165281500Y-81198500D01*
X165261500Y-81198500D01*
X165261500Y-80944500D01*
X165281500Y-80944500D01*
X165281500Y-80120250D01*
X165535500Y-80120250D01*
X165535500Y-80944500D01*
X166322250Y-80944500D01*
X166481000Y-80785750D01*
X166481000Y-80470190D01*
X166384327Y-80236801D01*
X166205698Y-80058173D01*
X165972309Y-79961500D01*
X165694250Y-79961500D01*
X165535500Y-80120250D01*
X165281500Y-80120250D01*
X165165026Y-80003776D01*
X165810473Y-79358329D01*
X165873929Y-79315929D01*
X165939236Y-79218191D01*
X166041904Y-79064538D01*
X166047222Y-79037804D01*
X166239247Y-78909497D01*
X166431078Y-78622402D01*
X166498440Y-78283750D01*
X166498440Y-77808750D01*
X166431078Y-77470098D01*
X166239247Y-77183003D01*
X165952152Y-76991172D01*
X165613500Y-76923810D01*
X165038500Y-76923810D01*
X164699848Y-76991172D01*
X164451000Y-77157447D01*
X164446779Y-77154627D01*
X164549404Y-77001037D01*
X164593500Y-76779352D01*
X164593500Y-76779347D01*
X164608388Y-76704500D01*
X164593500Y-76629653D01*
X164593500Y-76016525D01*
X164611302Y-76034327D01*
X164844691Y-76131000D01*
X165122750Y-76131000D01*
X165281500Y-75972250D01*
X165281500Y-75148000D01*
X165535500Y-75148000D01*
X165535500Y-75972250D01*
X165694250Y-76131000D01*
X165972309Y-76131000D01*
X166205698Y-76034327D01*
X166384327Y-75855699D01*
X166481000Y-75622310D01*
X166481000Y-75306750D01*
X166322250Y-75148000D01*
X165535500Y-75148000D01*
X165281500Y-75148000D01*
X165261500Y-75148000D01*
X165261500Y-74894000D01*
X165281500Y-74894000D01*
X165281500Y-74069750D01*
X165535500Y-74069750D01*
X165535500Y-74894000D01*
X166322250Y-74894000D01*
X166481000Y-74735250D01*
X166481000Y-74419690D01*
X166384327Y-74186301D01*
X166205698Y-74007673D01*
X165972309Y-73911000D01*
X165694250Y-73911000D01*
X165535500Y-74069750D01*
X165281500Y-74069750D01*
X165122750Y-73911000D01*
X164844691Y-73911000D01*
X164611302Y-74007673D01*
X164546031Y-74072943D01*
X164383727Y-73964495D01*
X164052250Y-73898560D01*
X163614750Y-73898560D01*
X163283273Y-73964495D01*
X163002261Y-74152261D01*
X162929604Y-74261000D01*
X161942778Y-74261000D01*
X161936127Y-74227564D01*
X161741586Y-73936414D01*
X161450436Y-73741873D01*
X161107001Y-73673560D01*
X160456999Y-73673560D01*
X160113564Y-73741873D01*
X159822414Y-73936414D01*
X159757000Y-74034313D01*
X159691586Y-73936414D01*
X159492000Y-73803054D01*
X159492000Y-71430847D01*
X159506888Y-71356000D01*
X159492000Y-71281153D01*
X159492000Y-71281148D01*
X159447904Y-71059463D01*
X159279929Y-70808071D01*
X159216470Y-70765669D01*
X159216000Y-70765199D01*
X159216000Y-69983178D01*
X159526625Y-69775625D01*
X159706000Y-69507171D01*
X159885375Y-69775625D01*
X160376583Y-70103839D01*
X160956000Y-70219092D01*
X161535418Y-70103839D01*
X162026625Y-69775625D01*
X162209246Y-69502313D01*
X162584807Y-69907497D01*
X163099110Y-70146476D01*
X163329000Y-70025155D01*
X163329000Y-68707000D01*
X163583000Y-68707000D01*
X163583000Y-70025155D01*
X163812890Y-70146476D01*
X164327193Y-69907497D01*
X164721053Y-69482571D01*
X164922320Y-68939267D01*
X164799321Y-68735431D01*
X168707000Y-68735431D01*
X168707000Y-69624569D01*
X169047259Y-70446026D01*
X169675974Y-71074741D01*
X170497431Y-71415000D01*
X171386569Y-71415000D01*
X172208026Y-71074741D01*
X172836741Y-70446026D01*
X173177000Y-69624569D01*
X173177000Y-68735431D01*
X172836741Y-67913974D01*
X172208026Y-67285259D01*
X171386569Y-66945000D01*
X170497431Y-66945000D01*
X169675974Y-67285259D01*
X169047259Y-67913974D01*
X168707000Y-68735431D01*
X164799321Y-68735431D01*
X164782165Y-68707000D01*
X163583000Y-68707000D01*
X163329000Y-68707000D01*
X163309000Y-68707000D01*
X163309000Y-68453000D01*
X163329000Y-68453000D01*
X163329000Y-67134845D01*
X163583000Y-67134845D01*
X163583000Y-68453000D01*
X164782165Y-68453000D01*
X164922320Y-68220733D01*
X164721053Y-67677429D01*
X164327193Y-67252503D01*
X163812890Y-67013524D01*
X163583000Y-67134845D01*
X163329000Y-67134845D01*
X163099110Y-67013524D01*
X162584807Y-67252503D01*
X162209246Y-67657687D01*
X162026625Y-67384375D01*
X161535417Y-67056161D01*
X160956000Y-66940908D01*
X160376582Y-67056161D01*
X159885375Y-67384375D01*
X159706000Y-67652829D01*
X159526625Y-67384375D01*
X159035417Y-67056161D01*
X158456000Y-66940908D01*
X157876582Y-67056161D01*
X157385375Y-67384375D01*
X157342758Y-67448156D01*
X157190586Y-67220414D01*
X156899435Y-67025874D01*
X156556000Y-66957560D01*
X155356000Y-66957560D01*
X155012565Y-67025874D01*
X154721414Y-67220414D01*
X154526874Y-67511565D01*
X154458560Y-67855000D01*
X154458560Y-69305000D01*
X154526874Y-69648435D01*
X154721414Y-69939586D01*
X155012565Y-70134126D01*
X155196001Y-70170614D01*
X155196001Y-70283148D01*
X155181112Y-70358000D01*
X155196001Y-70432852D01*
X155239088Y-70649463D01*
X155240097Y-70654537D01*
X155354713Y-70826071D01*
X155408072Y-70905929D01*
X155471528Y-70948329D01*
X156212000Y-71688802D01*
X156212001Y-73166439D01*
X156024152Y-73040922D01*
X155685500Y-72973560D01*
X155210500Y-72973560D01*
X154871848Y-73040922D01*
X154584753Y-73232753D01*
X154482356Y-73386000D01*
X153619644Y-73386000D01*
X153517247Y-73232753D01*
X153425075Y-73171166D01*
X153428888Y-73151999D01*
X153414000Y-73077152D01*
X153414000Y-73077148D01*
X153369904Y-72855463D01*
X153328102Y-72792902D01*
X153244329Y-72667526D01*
X153244327Y-72667524D01*
X153201929Y-72604071D01*
X153138476Y-72561673D01*
X152165000Y-71588198D01*
X152165000Y-71422126D01*
X152007431Y-71041720D01*
X151716280Y-70750569D01*
X151335874Y-70593000D01*
X150924126Y-70593000D01*
X150543720Y-70750569D01*
X150252569Y-71041720D01*
X150095000Y-71422126D01*
X150095000Y-71833874D01*
X150252569Y-72214280D01*
X150543720Y-72505431D01*
X150924126Y-72663000D01*
X151090198Y-72663000D01*
X151738361Y-73311163D01*
X151598922Y-73519848D01*
X151531560Y-73858500D01*
X151531560Y-74433500D01*
X151598922Y-74772152D01*
X151765197Y-75021000D01*
X151688356Y-75136000D01*
X150825644Y-75136000D01*
X150802565Y-75101460D01*
X150873327Y-75030698D01*
X150970000Y-74797309D01*
X150970000Y-74431750D01*
X150811250Y-74273000D01*
X149987000Y-74273000D01*
X149987000Y-74293000D01*
X149733000Y-74293000D01*
X149733000Y-74273000D01*
X148908750Y-74273000D01*
X148750000Y-74431750D01*
X148750000Y-74797309D01*
X148846673Y-75030698D01*
X148917435Y-75101460D01*
X148804922Y-75269848D01*
X148737560Y-75608500D01*
X148737560Y-76183500D01*
X148804922Y-76522152D01*
X148996753Y-76809247D01*
X149213988Y-76954399D01*
X149073301Y-77012673D01*
X148894673Y-77191302D01*
X148798000Y-77424691D01*
X148798000Y-78040250D01*
X148956750Y-78199000D01*
X149606000Y-78199000D01*
X149606000Y-78179000D01*
X149860000Y-78179000D01*
X149860000Y-78199000D01*
X149880000Y-78199000D01*
X149880000Y-78453000D01*
X149860000Y-78453000D01*
X149860000Y-78473000D01*
X149606000Y-78473000D01*
X149606000Y-78453000D01*
X148956750Y-78453000D01*
X148798000Y-78611750D01*
X148798000Y-79227309D01*
X148894673Y-79460698D01*
X148937975Y-79504000D01*
X147380802Y-79504000D01*
X146894331Y-79017530D01*
X146851929Y-78954071D01*
X146600537Y-78786096D01*
X146378852Y-78742000D01*
X146378847Y-78742000D01*
X146304000Y-78727112D01*
X146229153Y-78742000D01*
X146203778Y-78742000D01*
X146197127Y-78708564D01*
X146002586Y-78417414D01*
X145803000Y-78284054D01*
X145803000Y-77553848D01*
X145817888Y-77479000D01*
X145803000Y-77404152D01*
X145803000Y-77404148D01*
X145760199Y-77188972D01*
X145758904Y-77182462D01*
X145633329Y-76994527D01*
X145590929Y-76931071D01*
X145527473Y-76888671D01*
X145260538Y-76621736D01*
X145327078Y-76522152D01*
X145351674Y-76398500D01*
X146149661Y-76398500D01*
X146197261Y-76469739D01*
X146478273Y-76657505D01*
X146809750Y-76723440D01*
X147322250Y-76723440D01*
X147653727Y-76657505D01*
X147934739Y-76469739D01*
X148122505Y-76188727D01*
X148188440Y-75857250D01*
X148188440Y-75419750D01*
X148122505Y-75088273D01*
X148014057Y-74925969D01*
X148079327Y-74860698D01*
X148176000Y-74627309D01*
X148176000Y-74349250D01*
X148017250Y-74190500D01*
X147193000Y-74190500D01*
X147193000Y-74210500D01*
X146939000Y-74210500D01*
X146939000Y-74190500D01*
X146114750Y-74190500D01*
X145956000Y-74349250D01*
X145956000Y-74627309D01*
X146052673Y-74860698D01*
X146070475Y-74878500D01*
X145348370Y-74878500D01*
X145382000Y-74797309D01*
X145382000Y-74431750D01*
X145223250Y-74273000D01*
X144399000Y-74273000D01*
X144399000Y-74293000D01*
X144145000Y-74293000D01*
X144145000Y-74273000D01*
X143320750Y-74273000D01*
X143162000Y-74431750D01*
X143162000Y-74797309D01*
X143258673Y-75030698D01*
X143329435Y-75101460D01*
X143216922Y-75269848D01*
X143149560Y-75608500D01*
X143149560Y-76183500D01*
X143216922Y-76522152D01*
X143408753Y-76809247D01*
X143533882Y-76892855D01*
X143554106Y-76994527D01*
X143556097Y-77004537D01*
X143680890Y-77191302D01*
X143724072Y-77255929D01*
X143787528Y-77298329D01*
X144283000Y-77793802D01*
X144283000Y-78284054D01*
X144083414Y-78417414D01*
X144018000Y-78515313D01*
X143952586Y-78417414D01*
X143764946Y-78292036D01*
X143776888Y-78231999D01*
X143762000Y-78157152D01*
X143762000Y-78157148D01*
X143717904Y-77935463D01*
X143633237Y-77808750D01*
X143592329Y-77747526D01*
X143592327Y-77747524D01*
X143549929Y-77684071D01*
X143486476Y-77641673D01*
X142466538Y-76621736D01*
X142533078Y-76522152D01*
X142600440Y-76183500D01*
X142600440Y-75608500D01*
X142533078Y-75269848D01*
X142420565Y-75101460D01*
X142491327Y-75030698D01*
X142588000Y-74797309D01*
X142588000Y-74431750D01*
X142429250Y-74273000D01*
X141605000Y-74273000D01*
X141605000Y-74293000D01*
X141351000Y-74293000D01*
X141351000Y-74273000D01*
X140526750Y-74273000D01*
X140368000Y-74431750D01*
X140368000Y-74797309D01*
X140464673Y-75030698D01*
X140535435Y-75101460D01*
X140512356Y-75136000D01*
X139941711Y-75136000D01*
X140069431Y-75008280D01*
X140227000Y-74627874D01*
X140227000Y-74216126D01*
X140069431Y-73835720D01*
X139952000Y-73718289D01*
X139952000Y-73494691D01*
X140368000Y-73494691D01*
X140368000Y-73860250D01*
X140526750Y-74019000D01*
X141351000Y-74019000D01*
X141351000Y-73144750D01*
X141605000Y-73144750D01*
X141605000Y-74019000D01*
X142429250Y-74019000D01*
X142588000Y-73860250D01*
X142588000Y-73494691D01*
X143162000Y-73494691D01*
X143162000Y-73860250D01*
X143320750Y-74019000D01*
X144145000Y-74019000D01*
X144145000Y-73144750D01*
X144399000Y-73144750D01*
X144399000Y-74019000D01*
X145223250Y-74019000D01*
X145382000Y-73860250D01*
X145382000Y-73499691D01*
X145956000Y-73499691D01*
X145956000Y-73777750D01*
X146114750Y-73936500D01*
X146939000Y-73936500D01*
X146939000Y-73149750D01*
X147193000Y-73149750D01*
X147193000Y-73936500D01*
X148017250Y-73936500D01*
X148176000Y-73777750D01*
X148176000Y-73499691D01*
X148173929Y-73494691D01*
X148750000Y-73494691D01*
X148750000Y-73860250D01*
X148908750Y-74019000D01*
X149733000Y-74019000D01*
X149733000Y-73144750D01*
X149987000Y-73144750D01*
X149987000Y-74019000D01*
X150811250Y-74019000D01*
X150970000Y-73860250D01*
X150970000Y-73494691D01*
X150873327Y-73261302D01*
X150694699Y-73082673D01*
X150461310Y-72986000D01*
X150145750Y-72986000D01*
X149987000Y-73144750D01*
X149733000Y-73144750D01*
X149574250Y-72986000D01*
X149258690Y-72986000D01*
X149025301Y-73082673D01*
X148846673Y-73261302D01*
X148750000Y-73494691D01*
X148173929Y-73494691D01*
X148079327Y-73266302D01*
X147900699Y-73087673D01*
X147667310Y-72991000D01*
X147351750Y-72991000D01*
X147193000Y-73149750D01*
X146939000Y-73149750D01*
X146780250Y-72991000D01*
X146464690Y-72991000D01*
X146231301Y-73087673D01*
X146052673Y-73266302D01*
X145956000Y-73499691D01*
X145382000Y-73499691D01*
X145382000Y-73494691D01*
X145285327Y-73261302D01*
X145106699Y-73082673D01*
X144873310Y-72986000D01*
X144557750Y-72986000D01*
X144399000Y-73144750D01*
X144145000Y-73144750D01*
X143986250Y-72986000D01*
X143670690Y-72986000D01*
X143437301Y-73082673D01*
X143258673Y-73261302D01*
X143162000Y-73494691D01*
X142588000Y-73494691D01*
X142491327Y-73261302D01*
X142312699Y-73082673D01*
X142079310Y-72986000D01*
X141763750Y-72986000D01*
X141605000Y-73144750D01*
X141351000Y-73144750D01*
X141192250Y-72986000D01*
X140876690Y-72986000D01*
X140643301Y-73082673D01*
X140464673Y-73261302D01*
X140368000Y-73494691D01*
X139952000Y-73494691D01*
X139952000Y-72958801D01*
X141374473Y-71536329D01*
X141437929Y-71493929D01*
X141605904Y-71242537D01*
X141650000Y-71020852D01*
X141650000Y-71020848D01*
X141664888Y-70946000D01*
X141650000Y-70871152D01*
X141650000Y-69983178D01*
X141960625Y-69775625D01*
X142288839Y-69284417D01*
X142375000Y-68851255D01*
X142375000Y-68308744D01*
X142288839Y-67875582D01*
X141960625Y-67384375D01*
X141469417Y-67056161D01*
X140890000Y-66940908D01*
X140310582Y-67056161D01*
X139819375Y-67384375D01*
X139636754Y-67657687D01*
X139261193Y-67252503D01*
X138746890Y-67013524D01*
X138517000Y-67134845D01*
X138517000Y-68453000D01*
X138537000Y-68453000D01*
X138537000Y-68707000D01*
X138517000Y-68707000D01*
X138517000Y-70025155D01*
X138746890Y-70146476D01*
X139261193Y-69907497D01*
X139636754Y-69502313D01*
X139819375Y-69775625D01*
X140130000Y-69983178D01*
X140130000Y-70631198D01*
X138707528Y-72053671D01*
X138644072Y-72096071D01*
X138601672Y-72159527D01*
X138601671Y-72159528D01*
X138476097Y-72347463D01*
X138417112Y-72644000D01*
X138432001Y-72718852D01*
X138432000Y-73718289D01*
X138314569Y-73835720D01*
X138157000Y-74216126D01*
X138157000Y-74344198D01*
X136650000Y-72837199D01*
X136650000Y-70170614D01*
X136833435Y-70134126D01*
X137124586Y-69939586D01*
X137302185Y-69673789D01*
X137518807Y-69907497D01*
X138033110Y-70146476D01*
X138263000Y-70025155D01*
X138263000Y-68707000D01*
X138243000Y-68707000D01*
X138243000Y-68453000D01*
X138263000Y-68453000D01*
X138263000Y-67134845D01*
X138033110Y-67013524D01*
X137518807Y-67252503D01*
X137302185Y-67486211D01*
X137124586Y-67220414D01*
X136833435Y-67025874D01*
X136490000Y-66957560D01*
X135290000Y-66957560D01*
X134946565Y-67025874D01*
X134655414Y-67220414D01*
X134460874Y-67511565D01*
X134392560Y-67855000D01*
X129851767Y-67855000D01*
X129282026Y-67285259D01*
X128460569Y-66945000D01*
X127571431Y-66945000D01*
X126749974Y-67285259D01*
X126121259Y-67913974D01*
X125781000Y-68735431D01*
X123655188Y-68735431D01*
X123693139Y-68310197D01*
X123899197Y-67556977D01*
X124235384Y-66852148D01*
X124691065Y-66217998D01*
X125251851Y-65674559D01*
X125900001Y-65239019D01*
X126615043Y-64925138D01*
X127379636Y-64741576D01*
X128041112Y-64693000D01*
X170911495Y-64693000D01*
X171719803Y-64765139D01*
X171719803Y-64765139D01*
G37*
X171719803Y-64765139D02*
X172473023Y-64971197D01*
X173177852Y-65307384D01*
X173812002Y-65763065D01*
X174355441Y-66323851D01*
X174790981Y-66972001D01*
X175104862Y-67687043D01*
X175288424Y-68451636D01*
X175337000Y-69113112D01*
X175337001Y-92933483D01*
X175264861Y-93741805D01*
X175058803Y-94495023D01*
X174722616Y-95199852D01*
X174266932Y-95834005D01*
X173706149Y-96377441D01*
X173057996Y-96812982D01*
X172342956Y-97126863D01*
X171578364Y-97310424D01*
X170916887Y-97359000D01*
X128046506Y-97359000D01*
X127238195Y-97286861D01*
X126484977Y-97080803D01*
X125780148Y-96744616D01*
X125145995Y-96288932D01*
X124602559Y-95728149D01*
X124167018Y-95079996D01*
X123853137Y-94364956D01*
X123669576Y-93600364D01*
X123621000Y-92938887D01*
X123621000Y-92461431D01*
X125781000Y-92461431D01*
X125781000Y-93350569D01*
X126121259Y-94172026D01*
X126749974Y-94800741D01*
X127571431Y-95141000D01*
X128460569Y-95141000D01*
X129282026Y-94800741D01*
X129910741Y-94172026D01*
X130251000Y-93350569D01*
X130251000Y-92461431D01*
X129910741Y-91639974D01*
X129282026Y-91011259D01*
X128460569Y-90671000D01*
X127571431Y-90671000D01*
X126749974Y-91011259D01*
X126121259Y-91639974D01*
X125781000Y-92461431D01*
X123621000Y-92461431D01*
X123621000Y-69118505D01*
X123655188Y-68735431D01*
X125781000Y-68735431D01*
X125781000Y-69624569D01*
X126121259Y-70446026D01*
X126749974Y-71074741D01*
X127571431Y-71415000D01*
X128460569Y-71415000D01*
X129282026Y-71074741D01*
X129910741Y-70446026D01*
X130251000Y-69624569D01*
X130251000Y-68735431D01*
X129910741Y-67913974D01*
X129851767Y-67855000D01*
X134392560Y-67855000D01*
X134392560Y-69305000D01*
X134460874Y-69648435D01*
X134655414Y-69939586D01*
X134946565Y-70134126D01*
X135130000Y-70170614D01*
X135130001Y-73077148D01*
X135115112Y-73152000D01*
X135130001Y-73226852D01*
X135168199Y-73418888D01*
X135174097Y-73448537D01*
X135274013Y-73598071D01*
X135342072Y-73699929D01*
X135405528Y-73742329D01*
X138043671Y-76380473D01*
X138086071Y-76443929D01*
X138337463Y-76611904D01*
X138559148Y-76656000D01*
X138559152Y-76656000D01*
X138633999Y-76670888D01*
X138708846Y-76656000D01*
X140512356Y-76656000D01*
X140614753Y-76809247D01*
X140739882Y-76892855D01*
X140760106Y-76994527D01*
X140762097Y-77004537D01*
X140886890Y-77191302D01*
X140930072Y-77255929D01*
X140993528Y-77298329D01*
X142080889Y-78385692D01*
X142033414Y-78417414D01*
X141838873Y-78708564D01*
X141832222Y-78742000D01*
X138504846Y-78742000D01*
X138429999Y-78727112D01*
X138355152Y-78742000D01*
X138355148Y-78742000D01*
X138133463Y-78786096D01*
X138133461Y-78786097D01*
X138133462Y-78786097D01*
X137945526Y-78911671D01*
X137945524Y-78911673D01*
X137882071Y-78954071D01*
X137839673Y-79017524D01*
X135405528Y-81451671D01*
X135342072Y-81494071D01*
X135299672Y-81557527D01*
X135299671Y-81557528D01*
X135174097Y-81745463D01*
X135115112Y-82042000D01*
X135130001Y-82116852D01*
X135130000Y-90865386D01*
X134946565Y-90901874D01*
X134655414Y-91096414D01*
X134460874Y-91387565D01*
X134392560Y-91731000D01*
X134392560Y-93181000D01*
X134460874Y-93524435D01*
X134655414Y-93815586D01*
X134946565Y-94010126D01*
X135290000Y-94078440D01*
X136490000Y-94078440D01*
X136833435Y-94010126D01*
X137124586Y-93815586D01*
X137302185Y-93549789D01*
X137518807Y-93783497D01*
X138033110Y-94022476D01*
X138263000Y-93901155D01*
X138263000Y-92583000D01*
X138243000Y-92583000D01*
X138243000Y-92329000D01*
X138263000Y-92329000D01*
X138263000Y-91010845D01*
X138033110Y-90889524D01*
X137518807Y-91128503D01*
X137302185Y-91362211D01*
X137124586Y-91096414D01*
X136833435Y-90901874D01*
X136650000Y-90865386D01*
X136650000Y-82356801D01*
X138744803Y-80262000D01*
X141832222Y-80262000D01*
X141838873Y-80295436D01*
X142033414Y-80586586D01*
X142324564Y-80781127D01*
X142667999Y-80849440D01*
X143318001Y-80849440D01*
X143661436Y-80781127D01*
X143952586Y-80586586D01*
X144018000Y-80488687D01*
X144083414Y-80586586D01*
X144374564Y-80781127D01*
X144717999Y-80849440D01*
X145368001Y-80849440D01*
X145711436Y-80781127D01*
X146002586Y-80586586D01*
X146127235Y-80400036D01*
X146475671Y-80748473D01*
X146518071Y-80811929D01*
X146581527Y-80854329D01*
X146769462Y-80979904D01*
X146817605Y-80989480D01*
X146991148Y-81024000D01*
X146991152Y-81024000D01*
X147066000Y-81038888D01*
X147140848Y-81024000D01*
X150293153Y-81024000D01*
X150368000Y-81038888D01*
X150442847Y-81024000D01*
X150442852Y-81024000D01*
X150664537Y-80979904D01*
X150915929Y-80811929D01*
X150958331Y-80748470D01*
X151487473Y-80219329D01*
X151550929Y-80176929D01*
X151718904Y-79925537D01*
X151762461Y-79706562D01*
X151973000Y-79748440D01*
X152573000Y-79748440D01*
X152820765Y-79699157D01*
X152908000Y-79640868D01*
X152995235Y-79699157D01*
X153243000Y-79748440D01*
X153843000Y-79748440D01*
X154090765Y-79699157D01*
X154300809Y-79558809D01*
X154441157Y-79348765D01*
X154490440Y-79101000D01*
X154490440Y-79070567D01*
X154634537Y-79041904D01*
X154885929Y-78873929D01*
X154928331Y-78810470D01*
X155932473Y-77806329D01*
X155995929Y-77763929D01*
X156163904Y-77512537D01*
X156208000Y-77290852D01*
X156208000Y-77290848D01*
X156222888Y-77216001D01*
X156208000Y-77141154D01*
X156208000Y-76878235D01*
X156311247Y-76809247D01*
X156503078Y-76522152D01*
X156513228Y-76471125D01*
X156553929Y-76443929D01*
X156596331Y-76380471D01*
X157456475Y-75520327D01*
X157511993Y-75483232D01*
X157577873Y-75814436D01*
X157771292Y-76103906D01*
X153058528Y-80816671D01*
X152995072Y-80859071D01*
X152952672Y-80922527D01*
X152952671Y-80922528D01*
X152874922Y-81038888D01*
X152827097Y-81110463D01*
X152795938Y-81267112D01*
X152768112Y-81407000D01*
X152783001Y-81481852D01*
X152783001Y-82345331D01*
X152573000Y-82303560D01*
X151973000Y-82303560D01*
X151725235Y-82352843D01*
X151638000Y-82411132D01*
X151550765Y-82352843D01*
X151303000Y-82303560D01*
X150703000Y-82303560D01*
X150492461Y-82345438D01*
X150448904Y-82126463D01*
X150280929Y-81875071D01*
X150217472Y-81832671D01*
X149942331Y-81557529D01*
X149899929Y-81494071D01*
X149648537Y-81326096D01*
X149426852Y-81282000D01*
X149426847Y-81282000D01*
X149352000Y-81267112D01*
X149277153Y-81282000D01*
X147394847Y-81282000D01*
X147320000Y-81267112D01*
X147245153Y-81282000D01*
X147245148Y-81282000D01*
X147023463Y-81326096D01*
X146772071Y-81494071D01*
X146729671Y-81557527D01*
X146127235Y-82159964D01*
X146002586Y-81973414D01*
X145711436Y-81778873D01*
X145368001Y-81710560D01*
X144717999Y-81710560D01*
X144374564Y-81778873D01*
X144083414Y-81973414D01*
X144018000Y-82071313D01*
X143952586Y-81973414D01*
X143661436Y-81778873D01*
X143318001Y-81710560D01*
X142667999Y-81710560D01*
X142324564Y-81778873D01*
X142033414Y-81973414D01*
X141838873Y-82264564D01*
X141832222Y-82298000D01*
X141806846Y-82298000D01*
X141731999Y-82283112D01*
X141657152Y-82298000D01*
X141657148Y-82298000D01*
X141435463Y-82342096D01*
X141184071Y-82510071D01*
X141141669Y-82573530D01*
X140993528Y-82721671D01*
X140930072Y-82764071D01*
X140887672Y-82827527D01*
X140887671Y-82827528D01*
X140762097Y-83015463D01*
X140703112Y-83312000D01*
X140718001Y-83386852D01*
X140718000Y-85239265D01*
X140614753Y-85308253D01*
X140512356Y-85461500D01*
X140150526Y-85461500D01*
X140069431Y-85265720D01*
X139778280Y-84974569D01*
X139397874Y-84817000D01*
X138986126Y-84817000D01*
X138605720Y-84974569D01*
X138314569Y-85265720D01*
X138157000Y-85646126D01*
X138157000Y-86057874D01*
X138314569Y-86438280D01*
X138605720Y-86729431D01*
X138886320Y-86845659D01*
X138855672Y-86891527D01*
X138855671Y-86891528D01*
X138825018Y-86937404D01*
X138730097Y-87079463D01*
X138707135Y-87194903D01*
X138671112Y-87376000D01*
X138686001Y-87450852D01*
X138686000Y-89587153D01*
X138671112Y-89662000D01*
X138686000Y-89736847D01*
X138686000Y-89736851D01*
X138730096Y-89958536D01*
X138898071Y-90209929D01*
X138961530Y-90252331D01*
X139909412Y-91200214D01*
X139819375Y-91260375D01*
X139636754Y-91533687D01*
X139261193Y-91128503D01*
X138746890Y-90889524D01*
X138517000Y-91010845D01*
X138517000Y-92329000D01*
X138537000Y-92329000D01*
X138537000Y-92583000D01*
X138517000Y-92583000D01*
X138517000Y-93901155D01*
X138746890Y-94022476D01*
X139261193Y-93783497D01*
X139636754Y-93378313D01*
X139819375Y-93651625D01*
X140310583Y-93979839D01*
X140890000Y-94095092D01*
X141469418Y-93979839D01*
X141960625Y-93651625D01*
X142288839Y-93160417D01*
X142375000Y-92727255D01*
X142375000Y-92184744D01*
X142288839Y-91751582D01*
X141960625Y-91260375D01*
X141654971Y-91056144D01*
X141650000Y-91031152D01*
X141650000Y-91031148D01*
X141605904Y-90809463D01*
X141513386Y-90671000D01*
X141480329Y-90621526D01*
X141480327Y-90621524D01*
X141437929Y-90558071D01*
X141374476Y-90515673D01*
X140206000Y-89347199D01*
X140206000Y-88257250D01*
X140368000Y-88257250D01*
X140368000Y-88622809D01*
X140464673Y-88856198D01*
X140643301Y-89034827D01*
X140876690Y-89131500D01*
X141192250Y-89131500D01*
X141351000Y-88972750D01*
X141351000Y-88098500D01*
X141605000Y-88098500D01*
X141605000Y-88972750D01*
X141763750Y-89131500D01*
X142079310Y-89131500D01*
X142312699Y-89034827D01*
X142491327Y-88856198D01*
X142588000Y-88622809D01*
X142588000Y-88339750D01*
X143162000Y-88339750D01*
X143162000Y-88617809D01*
X143258673Y-88851198D01*
X143437301Y-89029827D01*
X143670690Y-89126500D01*
X143986250Y-89126500D01*
X144145000Y-88967750D01*
X144145000Y-88181000D01*
X144399000Y-88181000D01*
X144399000Y-88967750D01*
X144557750Y-89126500D01*
X144873310Y-89126500D01*
X145106699Y-89029827D01*
X145285327Y-88851198D01*
X145382000Y-88617809D01*
X145382000Y-88339750D01*
X145299500Y-88257250D01*
X145956000Y-88257250D01*
X145956000Y-88622809D01*
X146052673Y-88856198D01*
X146231301Y-89034827D01*
X146464690Y-89131500D01*
X146780250Y-89131500D01*
X146939000Y-88972750D01*
X146939000Y-88098500D01*
X147193000Y-88098500D01*
X147193000Y-88972750D01*
X147351750Y-89131500D01*
X147667310Y-89131500D01*
X147900699Y-89034827D01*
X148079327Y-88856198D01*
X148176000Y-88622809D01*
X148176000Y-88257250D01*
X148750000Y-88257250D01*
X148750000Y-88622809D01*
X148846673Y-88856198D01*
X149025301Y-89034827D01*
X149258690Y-89131500D01*
X149574250Y-89131500D01*
X149733000Y-88972750D01*
X149733000Y-88098500D01*
X149987000Y-88098500D01*
X149987000Y-88972750D01*
X150145750Y-89131500D01*
X150461310Y-89131500D01*
X150694699Y-89034827D01*
X150873327Y-88856198D01*
X150970000Y-88622809D01*
X150970000Y-88257250D01*
X150811250Y-88098500D01*
X149987000Y-88098500D01*
X149733000Y-88098500D01*
X148908750Y-88098500D01*
X148750000Y-88257250D01*
X148176000Y-88257250D01*
X148017250Y-88098500D01*
X147193000Y-88098500D01*
X146939000Y-88098500D01*
X146114750Y-88098500D01*
X145956000Y-88257250D01*
X145299500Y-88257250D01*
X145223250Y-88181000D01*
X144399000Y-88181000D01*
X144145000Y-88181000D01*
X143320750Y-88181000D01*
X143162000Y-88339750D01*
X142588000Y-88339750D01*
X142588000Y-88257250D01*
X142429250Y-88098500D01*
X141605000Y-88098500D01*
X141351000Y-88098500D01*
X140526750Y-88098500D01*
X140368000Y-88257250D01*
X140206000Y-88257250D01*
X140206000Y-87690801D01*
X140368000Y-87528801D01*
X140368000Y-87685750D01*
X140526750Y-87844500D01*
X141351000Y-87844500D01*
X141351000Y-87824500D01*
X141605000Y-87824500D01*
X141605000Y-87844500D01*
X142429250Y-87844500D01*
X142588000Y-87685750D01*
X142588000Y-87320191D01*
X142491327Y-87086802D01*
X142420565Y-87016040D01*
X142533078Y-86847652D01*
X142600440Y-86509000D01*
X142600440Y-85934000D01*
X142533078Y-85595348D01*
X142341247Y-85308253D01*
X142238000Y-85239265D01*
X142238000Y-84279287D01*
X142324564Y-84337127D01*
X142667999Y-84405440D01*
X143318001Y-84405440D01*
X143661436Y-84337127D01*
X143952586Y-84142586D01*
X144018000Y-84044687D01*
X144083414Y-84142586D01*
X144120100Y-84167099D01*
X143787530Y-84499669D01*
X143724071Y-84542071D01*
X143556096Y-84793464D01*
X143512000Y-85015149D01*
X143512000Y-85015153D01*
X143497112Y-85090000D01*
X143512000Y-85164847D01*
X143512000Y-85575104D01*
X143403261Y-85647761D01*
X143215495Y-85928773D01*
X143149560Y-86260250D01*
X143149560Y-86697750D01*
X143215495Y-87029227D01*
X143323943Y-87191531D01*
X143258673Y-87256802D01*
X143162000Y-87490191D01*
X143162000Y-87768250D01*
X143320750Y-87927000D01*
X144145000Y-87927000D01*
X144145000Y-87907000D01*
X144399000Y-87907000D01*
X144399000Y-87927000D01*
X145223250Y-87927000D01*
X145382000Y-87768250D01*
X145382000Y-87490191D01*
X145285327Y-87256802D01*
X145267525Y-87239000D01*
X145989630Y-87239000D01*
X145956000Y-87320191D01*
X145956000Y-87685750D01*
X146114750Y-87844500D01*
X146939000Y-87844500D01*
X146939000Y-87824500D01*
X147193000Y-87824500D01*
X147193000Y-87844500D01*
X148017250Y-87844500D01*
X148176000Y-87685750D01*
X148176000Y-87320191D01*
X148079327Y-87086802D01*
X148008565Y-87016040D01*
X148121078Y-86847652D01*
X148188440Y-86509000D01*
X148188440Y-85934000D01*
X148121078Y-85595348D01*
X147929247Y-85308253D01*
X147642152Y-85116422D01*
X147303500Y-85049060D01*
X146828500Y-85049060D01*
X146489848Y-85116422D01*
X146202753Y-85308253D01*
X146010922Y-85595348D01*
X145986326Y-85719000D01*
X145188339Y-85719000D01*
X145140739Y-85647761D01*
X145032000Y-85575104D01*
X145032000Y-85404801D01*
X145527473Y-84909329D01*
X145590929Y-84866929D01*
X145640017Y-84793464D01*
X145758904Y-84615538D01*
X145781951Y-84499671D01*
X145803000Y-84393852D01*
X145803000Y-84393848D01*
X145817888Y-84319000D01*
X145808582Y-84272216D01*
X146002586Y-84142586D01*
X146197127Y-83851436D01*
X146203778Y-83818000D01*
X146229153Y-83818000D01*
X146304000Y-83832888D01*
X146378847Y-83818000D01*
X146378852Y-83818000D01*
X146600537Y-83773904D01*
X146851929Y-83605929D01*
X146894331Y-83542470D01*
X147634802Y-82802000D01*
X148815198Y-82802000D01*
X148785560Y-82951000D01*
X148785560Y-84501000D01*
X148834843Y-84748765D01*
X148975191Y-84958809D01*
X149185235Y-85099157D01*
X149281138Y-85118233D01*
X148996753Y-85308253D01*
X148804922Y-85595348D01*
X148737560Y-85934000D01*
X148737560Y-86509000D01*
X148804922Y-86847652D01*
X148917435Y-87016040D01*
X148846673Y-87086802D01*
X148750000Y-87320191D01*
X148750000Y-87685750D01*
X148908750Y-87844500D01*
X149733000Y-87844500D01*
X149733000Y-87824500D01*
X149987000Y-87824500D01*
X149987000Y-87844500D01*
X150811250Y-87844500D01*
X150970000Y-87685750D01*
X150970000Y-87320191D01*
X150873327Y-87086802D01*
X150802565Y-87016040D01*
X150825644Y-86981500D01*
X151688356Y-86981500D01*
X151765197Y-87096500D01*
X151598922Y-87345348D01*
X151531560Y-87684000D01*
X151531560Y-88259000D01*
X151598922Y-88597652D01*
X151790753Y-88884747D01*
X151825340Y-88907857D01*
X151090198Y-89643000D01*
X150924126Y-89643000D01*
X150543720Y-89800569D01*
X150252569Y-90091720D01*
X150095000Y-90472126D01*
X150095000Y-90883874D01*
X150252569Y-91264280D01*
X150543720Y-91555431D01*
X150924126Y-91713000D01*
X151335874Y-91713000D01*
X151716280Y-91555431D01*
X152007431Y-91264280D01*
X152165000Y-90883874D01*
X152165000Y-90717802D01*
X153138476Y-89744327D01*
X153201929Y-89701929D01*
X153244327Y-89638476D01*
X153244329Y-89638474D01*
X153369903Y-89450538D01*
X153369904Y-89450537D01*
X153414000Y-89228852D01*
X153414000Y-89228848D01*
X153428888Y-89154001D01*
X153414000Y-89079154D01*
X153414000Y-88953735D01*
X153517247Y-88884747D01*
X153619644Y-88731500D01*
X154482356Y-88731500D01*
X154584753Y-88884747D01*
X154871848Y-89076578D01*
X155210500Y-89143940D01*
X155685500Y-89143940D01*
X156024152Y-89076578D01*
X156212001Y-88951061D01*
X156212001Y-89347197D01*
X155471530Y-90087669D01*
X155408071Y-90130071D01*
X155240096Y-90381464D01*
X155196000Y-90603149D01*
X155196000Y-90603153D01*
X155181112Y-90678000D01*
X155196000Y-90752847D01*
X155196000Y-90865386D01*
X155012565Y-90901874D01*
X154721414Y-91096414D01*
X154526874Y-91387565D01*
X154458560Y-91731000D01*
X154458560Y-93181000D01*
X154526874Y-93524435D01*
X154721414Y-93815586D01*
X155012565Y-94010126D01*
X155356000Y-94078440D01*
X156556000Y-94078440D01*
X156899435Y-94010126D01*
X157190586Y-93815586D01*
X157342758Y-93587844D01*
X157385375Y-93651625D01*
X157876583Y-93979839D01*
X158456000Y-94095092D01*
X159035418Y-93979839D01*
X159526625Y-93651625D01*
X159706000Y-93383171D01*
X159885375Y-93651625D01*
X160376583Y-93979839D01*
X160956000Y-94095092D01*
X161535418Y-93979839D01*
X162026625Y-93651625D01*
X162209246Y-93378313D01*
X162584807Y-93783497D01*
X163099110Y-94022476D01*
X163329000Y-93901155D01*
X163329000Y-92583000D01*
X163583000Y-92583000D01*
X163583000Y-93901155D01*
X163812890Y-94022476D01*
X164327193Y-93783497D01*
X164721053Y-93358571D01*
X164922320Y-92815267D01*
X164782165Y-92583000D01*
X163583000Y-92583000D01*
X163329000Y-92583000D01*
X163309000Y-92583000D01*
X163309000Y-92461431D01*
X168707000Y-92461431D01*
X168707000Y-93350569D01*
X169047259Y-94172026D01*
X169675974Y-94800741D01*
X170497431Y-95141000D01*
X171386569Y-95141000D01*
X172208026Y-94800741D01*
X172836741Y-94172026D01*
X173177000Y-93350569D01*
X173177000Y-92461431D01*
X172836741Y-91639974D01*
X172208026Y-91011259D01*
X171386569Y-90671000D01*
X170497431Y-90671000D01*
X169675974Y-91011259D01*
X169047259Y-91639974D01*
X168707000Y-92461431D01*
X163309000Y-92461431D01*
X163309000Y-92329000D01*
X163329000Y-92329000D01*
X163329000Y-91010845D01*
X163583000Y-91010845D01*
X163583000Y-92329000D01*
X164782165Y-92329000D01*
X164922320Y-92096733D01*
X164721053Y-91553429D01*
X164327193Y-91128503D01*
X163812890Y-90889524D01*
X163583000Y-91010845D01*
X163329000Y-91010845D01*
X163099110Y-90889524D01*
X162584807Y-91128503D01*
X162209246Y-91533687D01*
X162026625Y-91260375D01*
X161535417Y-90932161D01*
X160956000Y-90816908D01*
X160376582Y-90932161D01*
X159885375Y-91260375D01*
X159706000Y-91528829D01*
X159526625Y-91260375D01*
X159216000Y-91052822D01*
X159216000Y-90778801D01*
X159234470Y-90760331D01*
X159297929Y-90717929D01*
X159465904Y-90466537D01*
X159510000Y-90244852D01*
X159510000Y-90244848D01*
X159524888Y-90170000D01*
X159510000Y-90095152D01*
X159510000Y-88314446D01*
X159709586Y-88181086D01*
X159775000Y-88083187D01*
X159840414Y-88181086D01*
X160131564Y-88375627D01*
X160474999Y-88443940D01*
X161125001Y-88443940D01*
X161468436Y-88375627D01*
X161759586Y-88181086D01*
X161954127Y-87889936D01*
X162022440Y-87546501D01*
X162022440Y-86646499D01*
X161954127Y-86303064D01*
X161759586Y-86011914D01*
X161560000Y-85878554D01*
X161560000Y-85690846D01*
X161574888Y-85615999D01*
X161560000Y-85541152D01*
X161560000Y-85541148D01*
X161515904Y-85319463D01*
X161433703Y-85196440D01*
X161390329Y-85131526D01*
X161390327Y-85131524D01*
X161347929Y-85068071D01*
X161284475Y-85025672D01*
X160864330Y-84605529D01*
X160821929Y-84542071D01*
X160570537Y-84374096D01*
X160348852Y-84330000D01*
X160348847Y-84330000D01*
X160274000Y-84315112D01*
X160199153Y-84330000D01*
X158556803Y-84330000D01*
X157613331Y-83386530D01*
X157570929Y-83323071D01*
X157319537Y-83155096D01*
X157097852Y-83111000D01*
X157097847Y-83111000D01*
X157023000Y-83096112D01*
X156948153Y-83111000D01*
X156443525Y-83111000D01*
X156461327Y-83093198D01*
X156558000Y-82859809D01*
X156558000Y-82581750D01*
X156399250Y-82423000D01*
X155575000Y-82423000D01*
X155575000Y-82443000D01*
X155321000Y-82443000D01*
X155321000Y-82423000D01*
X154496750Y-82423000D01*
X154351178Y-82568572D01*
X154303000Y-82496470D01*
X154303000Y-81721801D01*
X154370096Y-81654705D01*
X154338000Y-81732191D01*
X154338000Y-82010250D01*
X154496750Y-82169000D01*
X155321000Y-82169000D01*
X155321000Y-81382250D01*
X155575000Y-81382250D01*
X155575000Y-82169000D01*
X156399250Y-82169000D01*
X156558000Y-82010250D01*
X156558000Y-81732191D01*
X156461327Y-81498802D01*
X156282699Y-81320173D01*
X156262365Y-81311750D01*
X157935000Y-81311750D01*
X157935000Y-81552310D01*
X158031673Y-81785699D01*
X158210302Y-81964327D01*
X158443691Y-82061000D01*
X158734250Y-82061000D01*
X158893000Y-81902250D01*
X158893000Y-81153000D01*
X158093750Y-81153000D01*
X157935000Y-81311750D01*
X156262365Y-81311750D01*
X156049310Y-81223500D01*
X155733750Y-81223500D01*
X155575000Y-81382250D01*
X155321000Y-81382250D01*
X155162250Y-81223500D01*
X154846690Y-81223500D01*
X154769206Y-81255595D01*
X155525111Y-80499690D01*
X157935000Y-80499690D01*
X157935000Y-80740250D01*
X158093750Y-80899000D01*
X158893000Y-80899000D01*
X158893000Y-80149750D01*
X158734250Y-79991000D01*
X158443691Y-79991000D01*
X158210302Y-80087673D01*
X158031673Y-80266301D01*
X157935000Y-80499690D01*
X155525111Y-80499690D01*
X158810802Y-77214000D01*
X160126973Y-77214000D01*
X160001000Y-77518126D01*
X160001000Y-77929874D01*
X160158569Y-78310280D01*
X160276001Y-78427712D01*
X160276001Y-78568712D01*
X160245112Y-78724000D01*
X160260001Y-78798851D01*
X160260001Y-79119427D01*
X160112191Y-79218191D01*
X159971843Y-79428235D01*
X159922560Y-79676000D01*
X159922560Y-80180534D01*
X159829698Y-80087673D01*
X159596309Y-79991000D01*
X159305750Y-79991000D01*
X159147000Y-80149750D01*
X159147000Y-80899000D01*
X159946250Y-80899000D01*
X160031781Y-80813469D01*
X160112191Y-80933809D01*
X160250164Y-81026000D01*
X160112191Y-81118191D01*
X160031781Y-81238531D01*
X159946250Y-81153000D01*
X159147000Y-81153000D01*
X159147000Y-81902250D01*
X159305750Y-82061000D01*
X159596309Y-82061000D01*
X159829698Y-81964327D01*
X159922560Y-81871466D01*
X159922560Y-82376000D01*
X159971843Y-82623765D01*
X160112191Y-82833809D01*
X160322235Y-82974157D01*
X160570000Y-83023440D01*
X161470000Y-83023440D01*
X161717765Y-82974157D01*
X161832615Y-82897416D01*
X162464638Y-83529440D01*
X162403560Y-83836500D01*
X162403560Y-84311500D01*
X162470922Y-84650152D01*
X162662753Y-84937247D01*
X162816001Y-85039644D01*
X162816000Y-86156356D01*
X162662753Y-86258753D01*
X162470922Y-86545848D01*
X162403560Y-86884500D01*
X162403560Y-87359500D01*
X162470922Y-87698152D01*
X162662753Y-87985247D01*
X162949848Y-88177078D01*
X163288500Y-88244440D01*
X163863500Y-88244440D01*
X164202152Y-88177078D01*
X164370540Y-88064565D01*
X164441302Y-88135327D01*
X164674691Y-88232000D01*
X165040250Y-88232000D01*
X165199000Y-88073250D01*
X165199000Y-87249000D01*
X165453000Y-87249000D01*
X165453000Y-88073250D01*
X165611750Y-88232000D01*
X165977309Y-88232000D01*
X166210698Y-88135327D01*
X166389327Y-87956699D01*
X166486000Y-87723310D01*
X166486000Y-87407750D01*
X166327250Y-87249000D01*
X165453000Y-87249000D01*
X165199000Y-87249000D01*
X165179000Y-87249000D01*
X165179000Y-86995000D01*
X165199000Y-86995000D01*
X165199000Y-86170750D01*
X165453000Y-86170750D01*
X165453000Y-86995000D01*
X166327250Y-86995000D01*
X166486000Y-86836250D01*
X166486000Y-86520690D01*
X166389327Y-86287301D01*
X166210698Y-86108673D01*
X165977309Y-86012000D01*
X165611750Y-86012000D01*
X165453000Y-86170750D01*
X165199000Y-86170750D01*
X165040250Y-86012000D01*
X164674691Y-86012000D01*
X164441302Y-86108673D01*
X164370540Y-86179435D01*
X164336000Y-86156356D01*
X164336000Y-85039644D01*
X164451000Y-84962803D01*
X164699848Y-85129078D01*
X165038500Y-85196440D01*
X165613500Y-85196440D01*
X165952152Y-85129078D01*
X166239247Y-84937247D01*
X166308235Y-84834000D01*
X166563199Y-84834000D01*
X166880000Y-85150802D01*
X166880001Y-88450288D01*
X166762569Y-88567720D01*
X166605000Y-88948126D01*
X166605000Y-89359874D01*
X166762569Y-89740280D01*
X167053720Y-90031431D01*
X167434126Y-90189000D01*
X167845874Y-90189000D01*
X168226280Y-90031431D01*
X168517431Y-89740280D01*
X168675000Y-89359874D01*
X168675000Y-88948126D01*
X168517431Y-88567720D01*
X168400000Y-88450289D01*
X168400000Y-84910848D01*
X168414888Y-84836000D01*
X168400000Y-84761152D01*
X168400000Y-84761148D01*
X168355904Y-84539463D01*
X168355904Y-84539462D01*
X168230329Y-84351527D01*
X168187929Y-84288071D01*
X168124473Y-84245671D01*
X167468331Y-83589530D01*
X167425929Y-83526071D01*
X167174537Y-83358096D01*
X166952852Y-83314000D01*
X166952847Y-83314000D01*
X166878000Y-83299112D01*
X166803153Y-83314000D01*
X166308235Y-83314000D01*
X166239247Y-83210753D01*
X165952152Y-83018922D01*
X165884171Y-83005400D01*
X165873929Y-82990071D01*
X165810473Y-82947671D01*
X165044301Y-82181500D01*
X165122750Y-82181500D01*
X165281500Y-82022750D01*
X165281500Y-81198500D01*
X165535500Y-81198500D01*
X165535500Y-82022750D01*
X165694250Y-82181500D01*
X165972309Y-82181500D01*
X166205698Y-82084827D01*
X166384327Y-81906199D01*
X166481000Y-81672810D01*
X166481000Y-81357250D01*
X166322250Y-81198500D01*
X165535500Y-81198500D01*
X165281500Y-81198500D01*
X165261500Y-81198500D01*
X165261500Y-80944500D01*
X165281500Y-80944500D01*
X165281500Y-80120250D01*
X165535500Y-80120250D01*
X165535500Y-80944500D01*
X166322250Y-80944500D01*
X166481000Y-80785750D01*
X166481000Y-80470190D01*
X166384327Y-80236801D01*
X166205698Y-80058173D01*
X165972309Y-79961500D01*
X165694250Y-79961500D01*
X165535500Y-80120250D01*
X165281500Y-80120250D01*
X165165026Y-80003776D01*
X165810473Y-79358329D01*
X165873929Y-79315929D01*
X165939236Y-79218191D01*
X166041904Y-79064538D01*
X166047222Y-79037804D01*
X166239247Y-78909497D01*
X166431078Y-78622402D01*
X166498440Y-78283750D01*
X166498440Y-77808750D01*
X166431078Y-77470098D01*
X166239247Y-77183003D01*
X165952152Y-76991172D01*
X165613500Y-76923810D01*
X165038500Y-76923810D01*
X164699848Y-76991172D01*
X164451000Y-77157447D01*
X164446779Y-77154627D01*
X164549404Y-77001037D01*
X164593500Y-76779352D01*
X164593500Y-76779347D01*
X164608388Y-76704500D01*
X164593500Y-76629653D01*
X164593500Y-76016525D01*
X164611302Y-76034327D01*
X164844691Y-76131000D01*
X165122750Y-76131000D01*
X165281500Y-75972250D01*
X165281500Y-75148000D01*
X165535500Y-75148000D01*
X165535500Y-75972250D01*
X165694250Y-76131000D01*
X165972309Y-76131000D01*
X166205698Y-76034327D01*
X166384327Y-75855699D01*
X166481000Y-75622310D01*
X166481000Y-75306750D01*
X166322250Y-75148000D01*
X165535500Y-75148000D01*
X165281500Y-75148000D01*
X165261500Y-75148000D01*
X165261500Y-74894000D01*
X165281500Y-74894000D01*
X165281500Y-74069750D01*
X165535500Y-74069750D01*
X165535500Y-74894000D01*
X166322250Y-74894000D01*
X166481000Y-74735250D01*
X166481000Y-74419690D01*
X166384327Y-74186301D01*
X166205698Y-74007673D01*
X165972309Y-73911000D01*
X165694250Y-73911000D01*
X165535500Y-74069750D01*
X165281500Y-74069750D01*
X165122750Y-73911000D01*
X164844691Y-73911000D01*
X164611302Y-74007673D01*
X164546031Y-74072943D01*
X164383727Y-73964495D01*
X164052250Y-73898560D01*
X163614750Y-73898560D01*
X163283273Y-73964495D01*
X163002261Y-74152261D01*
X162929604Y-74261000D01*
X161942778Y-74261000D01*
X161936127Y-74227564D01*
X161741586Y-73936414D01*
X161450436Y-73741873D01*
X161107001Y-73673560D01*
X160456999Y-73673560D01*
X160113564Y-73741873D01*
X159822414Y-73936414D01*
X159757000Y-74034313D01*
X159691586Y-73936414D01*
X159492000Y-73803054D01*
X159492000Y-71430847D01*
X159506888Y-71356000D01*
X159492000Y-71281153D01*
X159492000Y-71281148D01*
X159447904Y-71059463D01*
X159279929Y-70808071D01*
X159216470Y-70765669D01*
X159216000Y-70765199D01*
X159216000Y-69983178D01*
X159526625Y-69775625D01*
X159706000Y-69507171D01*
X159885375Y-69775625D01*
X160376583Y-70103839D01*
X160956000Y-70219092D01*
X161535418Y-70103839D01*
X162026625Y-69775625D01*
X162209246Y-69502313D01*
X162584807Y-69907497D01*
X163099110Y-70146476D01*
X163329000Y-70025155D01*
X163329000Y-68707000D01*
X163583000Y-68707000D01*
X163583000Y-70025155D01*
X163812890Y-70146476D01*
X164327193Y-69907497D01*
X164721053Y-69482571D01*
X164922320Y-68939267D01*
X164799321Y-68735431D01*
X168707000Y-68735431D01*
X168707000Y-69624569D01*
X169047259Y-70446026D01*
X169675974Y-71074741D01*
X170497431Y-71415000D01*
X171386569Y-71415000D01*
X172208026Y-71074741D01*
X172836741Y-70446026D01*
X173177000Y-69624569D01*
X173177000Y-68735431D01*
X172836741Y-67913974D01*
X172208026Y-67285259D01*
X171386569Y-66945000D01*
X170497431Y-66945000D01*
X169675974Y-67285259D01*
X169047259Y-67913974D01*
X168707000Y-68735431D01*
X164799321Y-68735431D01*
X164782165Y-68707000D01*
X163583000Y-68707000D01*
X163329000Y-68707000D01*
X163309000Y-68707000D01*
X163309000Y-68453000D01*
X163329000Y-68453000D01*
X163329000Y-67134845D01*
X163583000Y-67134845D01*
X163583000Y-68453000D01*
X164782165Y-68453000D01*
X164922320Y-68220733D01*
X164721053Y-67677429D01*
X164327193Y-67252503D01*
X163812890Y-67013524D01*
X163583000Y-67134845D01*
X163329000Y-67134845D01*
X163099110Y-67013524D01*
X162584807Y-67252503D01*
X162209246Y-67657687D01*
X162026625Y-67384375D01*
X161535417Y-67056161D01*
X160956000Y-66940908D01*
X160376582Y-67056161D01*
X159885375Y-67384375D01*
X159706000Y-67652829D01*
X159526625Y-67384375D01*
X159035417Y-67056161D01*
X158456000Y-66940908D01*
X157876582Y-67056161D01*
X157385375Y-67384375D01*
X157342758Y-67448156D01*
X157190586Y-67220414D01*
X156899435Y-67025874D01*
X156556000Y-66957560D01*
X155356000Y-66957560D01*
X155012565Y-67025874D01*
X154721414Y-67220414D01*
X154526874Y-67511565D01*
X154458560Y-67855000D01*
X154458560Y-69305000D01*
X154526874Y-69648435D01*
X154721414Y-69939586D01*
X155012565Y-70134126D01*
X155196001Y-70170614D01*
X155196001Y-70283148D01*
X155181112Y-70358000D01*
X155196001Y-70432852D01*
X155239088Y-70649463D01*
X155240097Y-70654537D01*
X155354713Y-70826071D01*
X155408072Y-70905929D01*
X155471528Y-70948329D01*
X156212000Y-71688802D01*
X156212001Y-73166439D01*
X156024152Y-73040922D01*
X155685500Y-72973560D01*
X155210500Y-72973560D01*
X154871848Y-73040922D01*
X154584753Y-73232753D01*
X154482356Y-73386000D01*
X153619644Y-73386000D01*
X153517247Y-73232753D01*
X153425075Y-73171166D01*
X153428888Y-73151999D01*
X153414000Y-73077152D01*
X153414000Y-73077148D01*
X153369904Y-72855463D01*
X153328102Y-72792902D01*
X153244329Y-72667526D01*
X153244327Y-72667524D01*
X153201929Y-72604071D01*
X153138476Y-72561673D01*
X152165000Y-71588198D01*
X152165000Y-71422126D01*
X152007431Y-71041720D01*
X151716280Y-70750569D01*
X151335874Y-70593000D01*
X150924126Y-70593000D01*
X150543720Y-70750569D01*
X150252569Y-71041720D01*
X150095000Y-71422126D01*
X150095000Y-71833874D01*
X150252569Y-72214280D01*
X150543720Y-72505431D01*
X150924126Y-72663000D01*
X151090198Y-72663000D01*
X151738361Y-73311163D01*
X151598922Y-73519848D01*
X151531560Y-73858500D01*
X151531560Y-74433500D01*
X151598922Y-74772152D01*
X151765197Y-75021000D01*
X151688356Y-75136000D01*
X150825644Y-75136000D01*
X150802565Y-75101460D01*
X150873327Y-75030698D01*
X150970000Y-74797309D01*
X150970000Y-74431750D01*
X150811250Y-74273000D01*
X149987000Y-74273000D01*
X149987000Y-74293000D01*
X149733000Y-74293000D01*
X149733000Y-74273000D01*
X148908750Y-74273000D01*
X148750000Y-74431750D01*
X148750000Y-74797309D01*
X148846673Y-75030698D01*
X148917435Y-75101460D01*
X148804922Y-75269848D01*
X148737560Y-75608500D01*
X148737560Y-76183500D01*
X148804922Y-76522152D01*
X148996753Y-76809247D01*
X149213988Y-76954399D01*
X149073301Y-77012673D01*
X148894673Y-77191302D01*
X148798000Y-77424691D01*
X148798000Y-78040250D01*
X148956750Y-78199000D01*
X149606000Y-78199000D01*
X149606000Y-78179000D01*
X149860000Y-78179000D01*
X149860000Y-78199000D01*
X149880000Y-78199000D01*
X149880000Y-78453000D01*
X149860000Y-78453000D01*
X149860000Y-78473000D01*
X149606000Y-78473000D01*
X149606000Y-78453000D01*
X148956750Y-78453000D01*
X148798000Y-78611750D01*
X148798000Y-79227309D01*
X148894673Y-79460698D01*
X148937975Y-79504000D01*
X147380802Y-79504000D01*
X146894331Y-79017530D01*
X146851929Y-78954071D01*
X146600537Y-78786096D01*
X146378852Y-78742000D01*
X146378847Y-78742000D01*
X146304000Y-78727112D01*
X146229153Y-78742000D01*
X146203778Y-78742000D01*
X146197127Y-78708564D01*
X146002586Y-78417414D01*
X145803000Y-78284054D01*
X145803000Y-77553848D01*
X145817888Y-77479000D01*
X145803000Y-77404152D01*
X145803000Y-77404148D01*
X145760199Y-77188972D01*
X145758904Y-77182462D01*
X145633329Y-76994527D01*
X145590929Y-76931071D01*
X145527473Y-76888671D01*
X145260538Y-76621736D01*
X145327078Y-76522152D01*
X145351674Y-76398500D01*
X146149661Y-76398500D01*
X146197261Y-76469739D01*
X146478273Y-76657505D01*
X146809750Y-76723440D01*
X147322250Y-76723440D01*
X147653727Y-76657505D01*
X147934739Y-76469739D01*
X148122505Y-76188727D01*
X148188440Y-75857250D01*
X148188440Y-75419750D01*
X148122505Y-75088273D01*
X148014057Y-74925969D01*
X148079327Y-74860698D01*
X148176000Y-74627309D01*
X148176000Y-74349250D01*
X148017250Y-74190500D01*
X147193000Y-74190500D01*
X147193000Y-74210500D01*
X146939000Y-74210500D01*
X146939000Y-74190500D01*
X146114750Y-74190500D01*
X145956000Y-74349250D01*
X145956000Y-74627309D01*
X146052673Y-74860698D01*
X146070475Y-74878500D01*
X145348370Y-74878500D01*
X145382000Y-74797309D01*
X145382000Y-74431750D01*
X145223250Y-74273000D01*
X144399000Y-74273000D01*
X144399000Y-74293000D01*
X144145000Y-74293000D01*
X144145000Y-74273000D01*
X143320750Y-74273000D01*
X143162000Y-74431750D01*
X143162000Y-74797309D01*
X143258673Y-75030698D01*
X143329435Y-75101460D01*
X143216922Y-75269848D01*
X143149560Y-75608500D01*
X143149560Y-76183500D01*
X143216922Y-76522152D01*
X143408753Y-76809247D01*
X143533882Y-76892855D01*
X143554106Y-76994527D01*
X143556097Y-77004537D01*
X143680890Y-77191302D01*
X143724072Y-77255929D01*
X143787528Y-77298329D01*
X144283000Y-77793802D01*
X144283000Y-78284054D01*
X144083414Y-78417414D01*
X144018000Y-78515313D01*
X143952586Y-78417414D01*
X143764946Y-78292036D01*
X143776888Y-78231999D01*
X143762000Y-78157152D01*
X143762000Y-78157148D01*
X143717904Y-77935463D01*
X143633237Y-77808750D01*
X143592329Y-77747526D01*
X143592327Y-77747524D01*
X143549929Y-77684071D01*
X143486476Y-77641673D01*
X142466538Y-76621736D01*
X142533078Y-76522152D01*
X142600440Y-76183500D01*
X142600440Y-75608500D01*
X142533078Y-75269848D01*
X142420565Y-75101460D01*
X142491327Y-75030698D01*
X142588000Y-74797309D01*
X142588000Y-74431750D01*
X142429250Y-74273000D01*
X141605000Y-74273000D01*
X141605000Y-74293000D01*
X141351000Y-74293000D01*
X141351000Y-74273000D01*
X140526750Y-74273000D01*
X140368000Y-74431750D01*
X140368000Y-74797309D01*
X140464673Y-75030698D01*
X140535435Y-75101460D01*
X140512356Y-75136000D01*
X139941711Y-75136000D01*
X140069431Y-75008280D01*
X140227000Y-74627874D01*
X140227000Y-74216126D01*
X140069431Y-73835720D01*
X139952000Y-73718289D01*
X139952000Y-73494691D01*
X140368000Y-73494691D01*
X140368000Y-73860250D01*
X140526750Y-74019000D01*
X141351000Y-74019000D01*
X141351000Y-73144750D01*
X141605000Y-73144750D01*
X141605000Y-74019000D01*
X142429250Y-74019000D01*
X142588000Y-73860250D01*
X142588000Y-73494691D01*
X143162000Y-73494691D01*
X143162000Y-73860250D01*
X143320750Y-74019000D01*
X144145000Y-74019000D01*
X144145000Y-73144750D01*
X144399000Y-73144750D01*
X144399000Y-74019000D01*
X145223250Y-74019000D01*
X145382000Y-73860250D01*
X145382000Y-73499691D01*
X145956000Y-73499691D01*
X145956000Y-73777750D01*
X146114750Y-73936500D01*
X146939000Y-73936500D01*
X146939000Y-73149750D01*
X147193000Y-73149750D01*
X147193000Y-73936500D01*
X148017250Y-73936500D01*
X148176000Y-73777750D01*
X148176000Y-73499691D01*
X148173929Y-73494691D01*
X148750000Y-73494691D01*
X148750000Y-73860250D01*
X148908750Y-74019000D01*
X149733000Y-74019000D01*
X149733000Y-73144750D01*
X149987000Y-73144750D01*
X149987000Y-74019000D01*
X150811250Y-74019000D01*
X150970000Y-73860250D01*
X150970000Y-73494691D01*
X150873327Y-73261302D01*
X150694699Y-73082673D01*
X150461310Y-72986000D01*
X150145750Y-72986000D01*
X149987000Y-73144750D01*
X149733000Y-73144750D01*
X149574250Y-72986000D01*
X149258690Y-72986000D01*
X149025301Y-73082673D01*
X148846673Y-73261302D01*
X148750000Y-73494691D01*
X148173929Y-73494691D01*
X148079327Y-73266302D01*
X147900699Y-73087673D01*
X147667310Y-72991000D01*
X147351750Y-72991000D01*
X147193000Y-73149750D01*
X146939000Y-73149750D01*
X146780250Y-72991000D01*
X146464690Y-72991000D01*
X146231301Y-73087673D01*
X146052673Y-73266302D01*
X145956000Y-73499691D01*
X145382000Y-73499691D01*
X145382000Y-73494691D01*
X145285327Y-73261302D01*
X145106699Y-73082673D01*
X144873310Y-72986000D01*
X144557750Y-72986000D01*
X144399000Y-73144750D01*
X144145000Y-73144750D01*
X143986250Y-72986000D01*
X143670690Y-72986000D01*
X143437301Y-73082673D01*
X143258673Y-73261302D01*
X143162000Y-73494691D01*
X142588000Y-73494691D01*
X142491327Y-73261302D01*
X142312699Y-73082673D01*
X142079310Y-72986000D01*
X141763750Y-72986000D01*
X141605000Y-73144750D01*
X141351000Y-73144750D01*
X141192250Y-72986000D01*
X140876690Y-72986000D01*
X140643301Y-73082673D01*
X140464673Y-73261302D01*
X140368000Y-73494691D01*
X139952000Y-73494691D01*
X139952000Y-72958801D01*
X141374473Y-71536329D01*
X141437929Y-71493929D01*
X141605904Y-71242537D01*
X141650000Y-71020852D01*
X141650000Y-71020848D01*
X141664888Y-70946000D01*
X141650000Y-70871152D01*
X141650000Y-69983178D01*
X141960625Y-69775625D01*
X142288839Y-69284417D01*
X142375000Y-68851255D01*
X142375000Y-68308744D01*
X142288839Y-67875582D01*
X141960625Y-67384375D01*
X141469417Y-67056161D01*
X140890000Y-66940908D01*
X140310582Y-67056161D01*
X139819375Y-67384375D01*
X139636754Y-67657687D01*
X139261193Y-67252503D01*
X138746890Y-67013524D01*
X138517000Y-67134845D01*
X138517000Y-68453000D01*
X138537000Y-68453000D01*
X138537000Y-68707000D01*
X138517000Y-68707000D01*
X138517000Y-70025155D01*
X138746890Y-70146476D01*
X139261193Y-69907497D01*
X139636754Y-69502313D01*
X139819375Y-69775625D01*
X140130000Y-69983178D01*
X140130000Y-70631198D01*
X138707528Y-72053671D01*
X138644072Y-72096071D01*
X138601672Y-72159527D01*
X138601671Y-72159528D01*
X138476097Y-72347463D01*
X138417112Y-72644000D01*
X138432001Y-72718852D01*
X138432000Y-73718289D01*
X138314569Y-73835720D01*
X138157000Y-74216126D01*
X138157000Y-74344198D01*
X136650000Y-72837199D01*
X136650000Y-70170614D01*
X136833435Y-70134126D01*
X137124586Y-69939586D01*
X137302185Y-69673789D01*
X137518807Y-69907497D01*
X138033110Y-70146476D01*
X138263000Y-70025155D01*
X138263000Y-68707000D01*
X138243000Y-68707000D01*
X138243000Y-68453000D01*
X138263000Y-68453000D01*
X138263000Y-67134845D01*
X138033110Y-67013524D01*
X137518807Y-67252503D01*
X137302185Y-67486211D01*
X137124586Y-67220414D01*
X136833435Y-67025874D01*
X136490000Y-66957560D01*
X135290000Y-66957560D01*
X134946565Y-67025874D01*
X134655414Y-67220414D01*
X134460874Y-67511565D01*
X134392560Y-67855000D01*
X129851767Y-67855000D01*
X129282026Y-67285259D01*
X128460569Y-66945000D01*
X127571431Y-66945000D01*
X126749974Y-67285259D01*
X126121259Y-67913974D01*
X125781000Y-68735431D01*
X123655188Y-68735431D01*
X123693139Y-68310197D01*
X123899197Y-67556977D01*
X124235384Y-66852148D01*
X124691065Y-66217998D01*
X125251851Y-65674559D01*
X125900001Y-65239019D01*
X126615043Y-64925138D01*
X127379636Y-64741576D01*
X128041112Y-64693000D01*
X170911495Y-64693000D01*
X171719803Y-64765139D01*
G04 #@! TD*
M02*
