G04 #@! TF.GenerationSoftware,KiCad,Pcbnew,(5.0.1)-3*
G04 #@! TF.CreationDate,2020-03-18T22:13:11-04:00*
G04 #@! TF.ProjectId,viparspectra-adapter,7669706172737065637472612D616461,rev?*
G04 #@! TF.SameCoordinates,Original*
G04 #@! TF.FileFunction,Soldermask,Top*
G04 #@! TF.FilePolarity,Negative*
%FSLAX46Y46*%
G04 Gerber Fmt 4.6, Leading zero omitted, Abs format (unit mm)*
G04 Created by KiCad (PCBNEW (5.0.1)-3) date 3/18/2020 10:13:11 PM*
%MOMM*%
%LPD*%
G01*
G04 APERTURE LIST*
%ADD10C,0.100000*%
%ADD11C,0.875000*%
%ADD12C,3.200000*%
%ADD13R,0.900000X0.800000*%
%ADD14C,1.150000*%
%ADD15C,1.700000*%
%ADD16O,1.700000X1.950000*%
%ADD17C,0.950000*%
%ADD18R,0.600000X1.550000*%
G04 APERTURE END LIST*
D10*
G04 #@! TO.C,C2*
G36*
X165648691Y-74547053D02*
X165669926Y-74550203D01*
X165690750Y-74555419D01*
X165710962Y-74562651D01*
X165730368Y-74571830D01*
X165748781Y-74582866D01*
X165766024Y-74595654D01*
X165781930Y-74610070D01*
X165796346Y-74625976D01*
X165809134Y-74643219D01*
X165820170Y-74661632D01*
X165829349Y-74681038D01*
X165836581Y-74701250D01*
X165841797Y-74722074D01*
X165844947Y-74743309D01*
X165846000Y-74764750D01*
X165846000Y-75277250D01*
X165844947Y-75298691D01*
X165841797Y-75319926D01*
X165836581Y-75340750D01*
X165829349Y-75360962D01*
X165820170Y-75380368D01*
X165809134Y-75398781D01*
X165796346Y-75416024D01*
X165781930Y-75431930D01*
X165766024Y-75446346D01*
X165748781Y-75459134D01*
X165730368Y-75470170D01*
X165710962Y-75479349D01*
X165690750Y-75486581D01*
X165669926Y-75491797D01*
X165648691Y-75494947D01*
X165627250Y-75496000D01*
X165189750Y-75496000D01*
X165168309Y-75494947D01*
X165147074Y-75491797D01*
X165126250Y-75486581D01*
X165106038Y-75479349D01*
X165086632Y-75470170D01*
X165068219Y-75459134D01*
X165050976Y-75446346D01*
X165035070Y-75431930D01*
X165020654Y-75416024D01*
X165007866Y-75398781D01*
X164996830Y-75380368D01*
X164987651Y-75360962D01*
X164980419Y-75340750D01*
X164975203Y-75319926D01*
X164972053Y-75298691D01*
X164971000Y-75277250D01*
X164971000Y-74764750D01*
X164972053Y-74743309D01*
X164975203Y-74722074D01*
X164980419Y-74701250D01*
X164987651Y-74681038D01*
X164996830Y-74661632D01*
X165007866Y-74643219D01*
X165020654Y-74625976D01*
X165035070Y-74610070D01*
X165050976Y-74595654D01*
X165068219Y-74582866D01*
X165086632Y-74571830D01*
X165106038Y-74562651D01*
X165126250Y-74555419D01*
X165147074Y-74550203D01*
X165168309Y-74547053D01*
X165189750Y-74546000D01*
X165627250Y-74546000D01*
X165648691Y-74547053D01*
X165648691Y-74547053D01*
G37*
D11*
X165408500Y-75021000D03*
D10*
G36*
X164073691Y-74547053D02*
X164094926Y-74550203D01*
X164115750Y-74555419D01*
X164135962Y-74562651D01*
X164155368Y-74571830D01*
X164173781Y-74582866D01*
X164191024Y-74595654D01*
X164206930Y-74610070D01*
X164221346Y-74625976D01*
X164234134Y-74643219D01*
X164245170Y-74661632D01*
X164254349Y-74681038D01*
X164261581Y-74701250D01*
X164266797Y-74722074D01*
X164269947Y-74743309D01*
X164271000Y-74764750D01*
X164271000Y-75277250D01*
X164269947Y-75298691D01*
X164266797Y-75319926D01*
X164261581Y-75340750D01*
X164254349Y-75360962D01*
X164245170Y-75380368D01*
X164234134Y-75398781D01*
X164221346Y-75416024D01*
X164206930Y-75431930D01*
X164191024Y-75446346D01*
X164173781Y-75459134D01*
X164155368Y-75470170D01*
X164135962Y-75479349D01*
X164115750Y-75486581D01*
X164094926Y-75491797D01*
X164073691Y-75494947D01*
X164052250Y-75496000D01*
X163614750Y-75496000D01*
X163593309Y-75494947D01*
X163572074Y-75491797D01*
X163551250Y-75486581D01*
X163531038Y-75479349D01*
X163511632Y-75470170D01*
X163493219Y-75459134D01*
X163475976Y-75446346D01*
X163460070Y-75431930D01*
X163445654Y-75416024D01*
X163432866Y-75398781D01*
X163421830Y-75380368D01*
X163412651Y-75360962D01*
X163405419Y-75340750D01*
X163400203Y-75319926D01*
X163397053Y-75298691D01*
X163396000Y-75277250D01*
X163396000Y-74764750D01*
X163397053Y-74743309D01*
X163400203Y-74722074D01*
X163405419Y-74701250D01*
X163412651Y-74681038D01*
X163421830Y-74661632D01*
X163432866Y-74643219D01*
X163445654Y-74625976D01*
X163460070Y-74610070D01*
X163475976Y-74595654D01*
X163493219Y-74582866D01*
X163511632Y-74571830D01*
X163531038Y-74562651D01*
X163551250Y-74555419D01*
X163572074Y-74550203D01*
X163593309Y-74547053D01*
X163614750Y-74546000D01*
X164052250Y-74546000D01*
X164073691Y-74547053D01*
X164073691Y-74547053D01*
G37*
D11*
X163833500Y-75021000D03*
G04 #@! TD*
D12*
G04 #@! TO.C,REF\002A\002A*
X170942000Y-69180000D03*
G04 #@! TD*
G04 #@! TO.C,REF\002A\002A*
X128016000Y-69180000D03*
G04 #@! TD*
G04 #@! TO.C,REF\002A\002A*
X128016000Y-92906000D03*
G04 #@! TD*
D10*
G04 #@! TO.C,C1*
G36*
X164073691Y-80597553D02*
X164094926Y-80600703D01*
X164115750Y-80605919D01*
X164135962Y-80613151D01*
X164155368Y-80622330D01*
X164173781Y-80633366D01*
X164191024Y-80646154D01*
X164206930Y-80660570D01*
X164221346Y-80676476D01*
X164234134Y-80693719D01*
X164245170Y-80712132D01*
X164254349Y-80731538D01*
X164261581Y-80751750D01*
X164266797Y-80772574D01*
X164269947Y-80793809D01*
X164271000Y-80815250D01*
X164271000Y-81327750D01*
X164269947Y-81349191D01*
X164266797Y-81370426D01*
X164261581Y-81391250D01*
X164254349Y-81411462D01*
X164245170Y-81430868D01*
X164234134Y-81449281D01*
X164221346Y-81466524D01*
X164206930Y-81482430D01*
X164191024Y-81496846D01*
X164173781Y-81509634D01*
X164155368Y-81520670D01*
X164135962Y-81529849D01*
X164115750Y-81537081D01*
X164094926Y-81542297D01*
X164073691Y-81545447D01*
X164052250Y-81546500D01*
X163614750Y-81546500D01*
X163593309Y-81545447D01*
X163572074Y-81542297D01*
X163551250Y-81537081D01*
X163531038Y-81529849D01*
X163511632Y-81520670D01*
X163493219Y-81509634D01*
X163475976Y-81496846D01*
X163460070Y-81482430D01*
X163445654Y-81466524D01*
X163432866Y-81449281D01*
X163421830Y-81430868D01*
X163412651Y-81411462D01*
X163405419Y-81391250D01*
X163400203Y-81370426D01*
X163397053Y-81349191D01*
X163396000Y-81327750D01*
X163396000Y-80815250D01*
X163397053Y-80793809D01*
X163400203Y-80772574D01*
X163405419Y-80751750D01*
X163412651Y-80731538D01*
X163421830Y-80712132D01*
X163432866Y-80693719D01*
X163445654Y-80676476D01*
X163460070Y-80660570D01*
X163475976Y-80646154D01*
X163493219Y-80633366D01*
X163511632Y-80622330D01*
X163531038Y-80613151D01*
X163551250Y-80605919D01*
X163572074Y-80600703D01*
X163593309Y-80597553D01*
X163614750Y-80596500D01*
X164052250Y-80596500D01*
X164073691Y-80597553D01*
X164073691Y-80597553D01*
G37*
D11*
X163833500Y-81071500D03*
D10*
G36*
X165648691Y-80597553D02*
X165669926Y-80600703D01*
X165690750Y-80605919D01*
X165710962Y-80613151D01*
X165730368Y-80622330D01*
X165748781Y-80633366D01*
X165766024Y-80646154D01*
X165781930Y-80660570D01*
X165796346Y-80676476D01*
X165809134Y-80693719D01*
X165820170Y-80712132D01*
X165829349Y-80731538D01*
X165836581Y-80751750D01*
X165841797Y-80772574D01*
X165844947Y-80793809D01*
X165846000Y-80815250D01*
X165846000Y-81327750D01*
X165844947Y-81349191D01*
X165841797Y-81370426D01*
X165836581Y-81391250D01*
X165829349Y-81411462D01*
X165820170Y-81430868D01*
X165809134Y-81449281D01*
X165796346Y-81466524D01*
X165781930Y-81482430D01*
X165766024Y-81496846D01*
X165748781Y-81509634D01*
X165730368Y-81520670D01*
X165710962Y-81529849D01*
X165690750Y-81537081D01*
X165669926Y-81542297D01*
X165648691Y-81545447D01*
X165627250Y-81546500D01*
X165189750Y-81546500D01*
X165168309Y-81545447D01*
X165147074Y-81542297D01*
X165126250Y-81537081D01*
X165106038Y-81529849D01*
X165086632Y-81520670D01*
X165068219Y-81509634D01*
X165050976Y-81496846D01*
X165035070Y-81482430D01*
X165020654Y-81466524D01*
X165007866Y-81449281D01*
X164996830Y-81430868D01*
X164987651Y-81411462D01*
X164980419Y-81391250D01*
X164975203Y-81370426D01*
X164972053Y-81349191D01*
X164971000Y-81327750D01*
X164971000Y-80815250D01*
X164972053Y-80793809D01*
X164975203Y-80772574D01*
X164980419Y-80751750D01*
X164987651Y-80731538D01*
X164996830Y-80712132D01*
X165007866Y-80693719D01*
X165020654Y-80676476D01*
X165035070Y-80660570D01*
X165050976Y-80646154D01*
X165068219Y-80633366D01*
X165086632Y-80622330D01*
X165106038Y-80613151D01*
X165126250Y-80605919D01*
X165147074Y-80600703D01*
X165168309Y-80597553D01*
X165189750Y-80596500D01*
X165627250Y-80596500D01*
X165648691Y-80597553D01*
X165648691Y-80597553D01*
G37*
D11*
X165408500Y-81071500D03*
G04 #@! TD*
D10*
G04 #@! TO.C,C3*
G36*
X144549691Y-86042553D02*
X144570926Y-86045703D01*
X144591750Y-86050919D01*
X144611962Y-86058151D01*
X144631368Y-86067330D01*
X144649781Y-86078366D01*
X144667024Y-86091154D01*
X144682930Y-86105570D01*
X144697346Y-86121476D01*
X144710134Y-86138719D01*
X144721170Y-86157132D01*
X144730349Y-86176538D01*
X144737581Y-86196750D01*
X144742797Y-86217574D01*
X144745947Y-86238809D01*
X144747000Y-86260250D01*
X144747000Y-86697750D01*
X144745947Y-86719191D01*
X144742797Y-86740426D01*
X144737581Y-86761250D01*
X144730349Y-86781462D01*
X144721170Y-86800868D01*
X144710134Y-86819281D01*
X144697346Y-86836524D01*
X144682930Y-86852430D01*
X144667024Y-86866846D01*
X144649781Y-86879634D01*
X144631368Y-86890670D01*
X144611962Y-86899849D01*
X144591750Y-86907081D01*
X144570926Y-86912297D01*
X144549691Y-86915447D01*
X144528250Y-86916500D01*
X144015750Y-86916500D01*
X143994309Y-86915447D01*
X143973074Y-86912297D01*
X143952250Y-86907081D01*
X143932038Y-86899849D01*
X143912632Y-86890670D01*
X143894219Y-86879634D01*
X143876976Y-86866846D01*
X143861070Y-86852430D01*
X143846654Y-86836524D01*
X143833866Y-86819281D01*
X143822830Y-86800868D01*
X143813651Y-86781462D01*
X143806419Y-86761250D01*
X143801203Y-86740426D01*
X143798053Y-86719191D01*
X143797000Y-86697750D01*
X143797000Y-86260250D01*
X143798053Y-86238809D01*
X143801203Y-86217574D01*
X143806419Y-86196750D01*
X143813651Y-86176538D01*
X143822830Y-86157132D01*
X143833866Y-86138719D01*
X143846654Y-86121476D01*
X143861070Y-86105570D01*
X143876976Y-86091154D01*
X143894219Y-86078366D01*
X143912632Y-86067330D01*
X143932038Y-86058151D01*
X143952250Y-86050919D01*
X143973074Y-86045703D01*
X143994309Y-86042553D01*
X144015750Y-86041500D01*
X144528250Y-86041500D01*
X144549691Y-86042553D01*
X144549691Y-86042553D01*
G37*
D11*
X144272000Y-86479000D03*
D10*
G36*
X144549691Y-87617553D02*
X144570926Y-87620703D01*
X144591750Y-87625919D01*
X144611962Y-87633151D01*
X144631368Y-87642330D01*
X144649781Y-87653366D01*
X144667024Y-87666154D01*
X144682930Y-87680570D01*
X144697346Y-87696476D01*
X144710134Y-87713719D01*
X144721170Y-87732132D01*
X144730349Y-87751538D01*
X144737581Y-87771750D01*
X144742797Y-87792574D01*
X144745947Y-87813809D01*
X144747000Y-87835250D01*
X144747000Y-88272750D01*
X144745947Y-88294191D01*
X144742797Y-88315426D01*
X144737581Y-88336250D01*
X144730349Y-88356462D01*
X144721170Y-88375868D01*
X144710134Y-88394281D01*
X144697346Y-88411524D01*
X144682930Y-88427430D01*
X144667024Y-88441846D01*
X144649781Y-88454634D01*
X144631368Y-88465670D01*
X144611962Y-88474849D01*
X144591750Y-88482081D01*
X144570926Y-88487297D01*
X144549691Y-88490447D01*
X144528250Y-88491500D01*
X144015750Y-88491500D01*
X143994309Y-88490447D01*
X143973074Y-88487297D01*
X143952250Y-88482081D01*
X143932038Y-88474849D01*
X143912632Y-88465670D01*
X143894219Y-88454634D01*
X143876976Y-88441846D01*
X143861070Y-88427430D01*
X143846654Y-88411524D01*
X143833866Y-88394281D01*
X143822830Y-88375868D01*
X143813651Y-88356462D01*
X143806419Y-88336250D01*
X143801203Y-88315426D01*
X143798053Y-88294191D01*
X143797000Y-88272750D01*
X143797000Y-87835250D01*
X143798053Y-87813809D01*
X143801203Y-87792574D01*
X143806419Y-87771750D01*
X143813651Y-87751538D01*
X143822830Y-87732132D01*
X143833866Y-87713719D01*
X143846654Y-87696476D01*
X143861070Y-87680570D01*
X143876976Y-87666154D01*
X143894219Y-87653366D01*
X143912632Y-87642330D01*
X143932038Y-87633151D01*
X143952250Y-87625919D01*
X143973074Y-87620703D01*
X143994309Y-87617553D01*
X144015750Y-87616500D01*
X144528250Y-87616500D01*
X144549691Y-87617553D01*
X144549691Y-87617553D01*
G37*
D11*
X144272000Y-88054000D03*
G04 #@! TD*
D10*
G04 #@! TO.C,C4*
G36*
X147343691Y-73627053D02*
X147364926Y-73630203D01*
X147385750Y-73635419D01*
X147405962Y-73642651D01*
X147425368Y-73651830D01*
X147443781Y-73662866D01*
X147461024Y-73675654D01*
X147476930Y-73690070D01*
X147491346Y-73705976D01*
X147504134Y-73723219D01*
X147515170Y-73741632D01*
X147524349Y-73761038D01*
X147531581Y-73781250D01*
X147536797Y-73802074D01*
X147539947Y-73823309D01*
X147541000Y-73844750D01*
X147541000Y-74282250D01*
X147539947Y-74303691D01*
X147536797Y-74324926D01*
X147531581Y-74345750D01*
X147524349Y-74365962D01*
X147515170Y-74385368D01*
X147504134Y-74403781D01*
X147491346Y-74421024D01*
X147476930Y-74436930D01*
X147461024Y-74451346D01*
X147443781Y-74464134D01*
X147425368Y-74475170D01*
X147405962Y-74484349D01*
X147385750Y-74491581D01*
X147364926Y-74496797D01*
X147343691Y-74499947D01*
X147322250Y-74501000D01*
X146809750Y-74501000D01*
X146788309Y-74499947D01*
X146767074Y-74496797D01*
X146746250Y-74491581D01*
X146726038Y-74484349D01*
X146706632Y-74475170D01*
X146688219Y-74464134D01*
X146670976Y-74451346D01*
X146655070Y-74436930D01*
X146640654Y-74421024D01*
X146627866Y-74403781D01*
X146616830Y-74385368D01*
X146607651Y-74365962D01*
X146600419Y-74345750D01*
X146595203Y-74324926D01*
X146592053Y-74303691D01*
X146591000Y-74282250D01*
X146591000Y-73844750D01*
X146592053Y-73823309D01*
X146595203Y-73802074D01*
X146600419Y-73781250D01*
X146607651Y-73761038D01*
X146616830Y-73741632D01*
X146627866Y-73723219D01*
X146640654Y-73705976D01*
X146655070Y-73690070D01*
X146670976Y-73675654D01*
X146688219Y-73662866D01*
X146706632Y-73651830D01*
X146726038Y-73642651D01*
X146746250Y-73635419D01*
X146767074Y-73630203D01*
X146788309Y-73627053D01*
X146809750Y-73626000D01*
X147322250Y-73626000D01*
X147343691Y-73627053D01*
X147343691Y-73627053D01*
G37*
D11*
X147066000Y-74063500D03*
D10*
G36*
X147343691Y-75202053D02*
X147364926Y-75205203D01*
X147385750Y-75210419D01*
X147405962Y-75217651D01*
X147425368Y-75226830D01*
X147443781Y-75237866D01*
X147461024Y-75250654D01*
X147476930Y-75265070D01*
X147491346Y-75280976D01*
X147504134Y-75298219D01*
X147515170Y-75316632D01*
X147524349Y-75336038D01*
X147531581Y-75356250D01*
X147536797Y-75377074D01*
X147539947Y-75398309D01*
X147541000Y-75419750D01*
X147541000Y-75857250D01*
X147539947Y-75878691D01*
X147536797Y-75899926D01*
X147531581Y-75920750D01*
X147524349Y-75940962D01*
X147515170Y-75960368D01*
X147504134Y-75978781D01*
X147491346Y-75996024D01*
X147476930Y-76011930D01*
X147461024Y-76026346D01*
X147443781Y-76039134D01*
X147425368Y-76050170D01*
X147405962Y-76059349D01*
X147385750Y-76066581D01*
X147364926Y-76071797D01*
X147343691Y-76074947D01*
X147322250Y-76076000D01*
X146809750Y-76076000D01*
X146788309Y-76074947D01*
X146767074Y-76071797D01*
X146746250Y-76066581D01*
X146726038Y-76059349D01*
X146706632Y-76050170D01*
X146688219Y-76039134D01*
X146670976Y-76026346D01*
X146655070Y-76011930D01*
X146640654Y-75996024D01*
X146627866Y-75978781D01*
X146616830Y-75960368D01*
X146607651Y-75940962D01*
X146600419Y-75920750D01*
X146595203Y-75899926D01*
X146592053Y-75878691D01*
X146591000Y-75857250D01*
X146591000Y-75419750D01*
X146592053Y-75398309D01*
X146595203Y-75377074D01*
X146600419Y-75356250D01*
X146607651Y-75336038D01*
X146616830Y-75316632D01*
X146627866Y-75298219D01*
X146640654Y-75280976D01*
X146655070Y-75265070D01*
X146670976Y-75250654D01*
X146688219Y-75237866D01*
X146706632Y-75226830D01*
X146726038Y-75217651D01*
X146746250Y-75210419D01*
X146767074Y-75205203D01*
X146788309Y-75202053D01*
X146809750Y-75201000D01*
X147322250Y-75201000D01*
X147343691Y-75202053D01*
X147343691Y-75202053D01*
G37*
D11*
X147066000Y-75638500D03*
G04 #@! TD*
D10*
G04 #@! TO.C,C5*
G36*
X155725691Y-83434553D02*
X155746926Y-83437703D01*
X155767750Y-83442919D01*
X155787962Y-83450151D01*
X155807368Y-83459330D01*
X155825781Y-83470366D01*
X155843024Y-83483154D01*
X155858930Y-83497570D01*
X155873346Y-83513476D01*
X155886134Y-83530719D01*
X155897170Y-83549132D01*
X155906349Y-83568538D01*
X155913581Y-83588750D01*
X155918797Y-83609574D01*
X155921947Y-83630809D01*
X155923000Y-83652250D01*
X155923000Y-84089750D01*
X155921947Y-84111191D01*
X155918797Y-84132426D01*
X155913581Y-84153250D01*
X155906349Y-84173462D01*
X155897170Y-84192868D01*
X155886134Y-84211281D01*
X155873346Y-84228524D01*
X155858930Y-84244430D01*
X155843024Y-84258846D01*
X155825781Y-84271634D01*
X155807368Y-84282670D01*
X155787962Y-84291849D01*
X155767750Y-84299081D01*
X155746926Y-84304297D01*
X155725691Y-84307447D01*
X155704250Y-84308500D01*
X155191750Y-84308500D01*
X155170309Y-84307447D01*
X155149074Y-84304297D01*
X155128250Y-84299081D01*
X155108038Y-84291849D01*
X155088632Y-84282670D01*
X155070219Y-84271634D01*
X155052976Y-84258846D01*
X155037070Y-84244430D01*
X155022654Y-84228524D01*
X155009866Y-84211281D01*
X154998830Y-84192868D01*
X154989651Y-84173462D01*
X154982419Y-84153250D01*
X154977203Y-84132426D01*
X154974053Y-84111191D01*
X154973000Y-84089750D01*
X154973000Y-83652250D01*
X154974053Y-83630809D01*
X154977203Y-83609574D01*
X154982419Y-83588750D01*
X154989651Y-83568538D01*
X154998830Y-83549132D01*
X155009866Y-83530719D01*
X155022654Y-83513476D01*
X155037070Y-83497570D01*
X155052976Y-83483154D01*
X155070219Y-83470366D01*
X155088632Y-83459330D01*
X155108038Y-83450151D01*
X155128250Y-83442919D01*
X155149074Y-83437703D01*
X155170309Y-83434553D01*
X155191750Y-83433500D01*
X155704250Y-83433500D01*
X155725691Y-83434553D01*
X155725691Y-83434553D01*
G37*
D11*
X155448000Y-83871000D03*
D10*
G36*
X155725691Y-81859553D02*
X155746926Y-81862703D01*
X155767750Y-81867919D01*
X155787962Y-81875151D01*
X155807368Y-81884330D01*
X155825781Y-81895366D01*
X155843024Y-81908154D01*
X155858930Y-81922570D01*
X155873346Y-81938476D01*
X155886134Y-81955719D01*
X155897170Y-81974132D01*
X155906349Y-81993538D01*
X155913581Y-82013750D01*
X155918797Y-82034574D01*
X155921947Y-82055809D01*
X155923000Y-82077250D01*
X155923000Y-82514750D01*
X155921947Y-82536191D01*
X155918797Y-82557426D01*
X155913581Y-82578250D01*
X155906349Y-82598462D01*
X155897170Y-82617868D01*
X155886134Y-82636281D01*
X155873346Y-82653524D01*
X155858930Y-82669430D01*
X155843024Y-82683846D01*
X155825781Y-82696634D01*
X155807368Y-82707670D01*
X155787962Y-82716849D01*
X155767750Y-82724081D01*
X155746926Y-82729297D01*
X155725691Y-82732447D01*
X155704250Y-82733500D01*
X155191750Y-82733500D01*
X155170309Y-82732447D01*
X155149074Y-82729297D01*
X155128250Y-82724081D01*
X155108038Y-82716849D01*
X155088632Y-82707670D01*
X155070219Y-82696634D01*
X155052976Y-82683846D01*
X155037070Y-82669430D01*
X155022654Y-82653524D01*
X155009866Y-82636281D01*
X154998830Y-82617868D01*
X154989651Y-82598462D01*
X154982419Y-82578250D01*
X154977203Y-82557426D01*
X154974053Y-82536191D01*
X154973000Y-82514750D01*
X154973000Y-82077250D01*
X154974053Y-82055809D01*
X154977203Y-82034574D01*
X154982419Y-82013750D01*
X154989651Y-81993538D01*
X154998830Y-81974132D01*
X155009866Y-81955719D01*
X155022654Y-81938476D01*
X155037070Y-81922570D01*
X155052976Y-81908154D01*
X155070219Y-81895366D01*
X155088632Y-81884330D01*
X155108038Y-81875151D01*
X155128250Y-81867919D01*
X155149074Y-81862703D01*
X155170309Y-81859553D01*
X155191750Y-81858500D01*
X155704250Y-81858500D01*
X155725691Y-81859553D01*
X155725691Y-81859553D01*
G37*
D11*
X155448000Y-82296000D03*
G04 #@! TD*
D13*
G04 #@! TO.C,D1*
X161020000Y-81976000D03*
X161020000Y-80076000D03*
X159020000Y-81026000D03*
G04 #@! TD*
D10*
G04 #@! TO.C,D2*
G36*
X145392505Y-82359204D02*
X145416773Y-82362804D01*
X145440572Y-82368765D01*
X145463671Y-82377030D01*
X145485850Y-82387520D01*
X145506893Y-82400132D01*
X145526599Y-82414747D01*
X145544777Y-82431223D01*
X145561253Y-82449401D01*
X145575868Y-82469107D01*
X145588480Y-82490150D01*
X145598970Y-82512329D01*
X145607235Y-82535428D01*
X145613196Y-82559227D01*
X145616796Y-82583495D01*
X145618000Y-82607999D01*
X145618000Y-83508001D01*
X145616796Y-83532505D01*
X145613196Y-83556773D01*
X145607235Y-83580572D01*
X145598970Y-83603671D01*
X145588480Y-83625850D01*
X145575868Y-83646893D01*
X145561253Y-83666599D01*
X145544777Y-83684777D01*
X145526599Y-83701253D01*
X145506893Y-83715868D01*
X145485850Y-83728480D01*
X145463671Y-83738970D01*
X145440572Y-83747235D01*
X145416773Y-83753196D01*
X145392505Y-83756796D01*
X145368001Y-83758000D01*
X144717999Y-83758000D01*
X144693495Y-83756796D01*
X144669227Y-83753196D01*
X144645428Y-83747235D01*
X144622329Y-83738970D01*
X144600150Y-83728480D01*
X144579107Y-83715868D01*
X144559401Y-83701253D01*
X144541223Y-83684777D01*
X144524747Y-83666599D01*
X144510132Y-83646893D01*
X144497520Y-83625850D01*
X144487030Y-83603671D01*
X144478765Y-83580572D01*
X144472804Y-83556773D01*
X144469204Y-83532505D01*
X144468000Y-83508001D01*
X144468000Y-82607999D01*
X144469204Y-82583495D01*
X144472804Y-82559227D01*
X144478765Y-82535428D01*
X144487030Y-82512329D01*
X144497520Y-82490150D01*
X144510132Y-82469107D01*
X144524747Y-82449401D01*
X144541223Y-82431223D01*
X144559401Y-82414747D01*
X144579107Y-82400132D01*
X144600150Y-82387520D01*
X144622329Y-82377030D01*
X144645428Y-82368765D01*
X144669227Y-82362804D01*
X144693495Y-82359204D01*
X144717999Y-82358000D01*
X145368001Y-82358000D01*
X145392505Y-82359204D01*
X145392505Y-82359204D01*
G37*
D14*
X145043000Y-83058000D03*
D10*
G36*
X143342505Y-82359204D02*
X143366773Y-82362804D01*
X143390572Y-82368765D01*
X143413671Y-82377030D01*
X143435850Y-82387520D01*
X143456893Y-82400132D01*
X143476599Y-82414747D01*
X143494777Y-82431223D01*
X143511253Y-82449401D01*
X143525868Y-82469107D01*
X143538480Y-82490150D01*
X143548970Y-82512329D01*
X143557235Y-82535428D01*
X143563196Y-82559227D01*
X143566796Y-82583495D01*
X143568000Y-82607999D01*
X143568000Y-83508001D01*
X143566796Y-83532505D01*
X143563196Y-83556773D01*
X143557235Y-83580572D01*
X143548970Y-83603671D01*
X143538480Y-83625850D01*
X143525868Y-83646893D01*
X143511253Y-83666599D01*
X143494777Y-83684777D01*
X143476599Y-83701253D01*
X143456893Y-83715868D01*
X143435850Y-83728480D01*
X143413671Y-83738970D01*
X143390572Y-83747235D01*
X143366773Y-83753196D01*
X143342505Y-83756796D01*
X143318001Y-83758000D01*
X142667999Y-83758000D01*
X142643495Y-83756796D01*
X142619227Y-83753196D01*
X142595428Y-83747235D01*
X142572329Y-83738970D01*
X142550150Y-83728480D01*
X142529107Y-83715868D01*
X142509401Y-83701253D01*
X142491223Y-83684777D01*
X142474747Y-83666599D01*
X142460132Y-83646893D01*
X142447520Y-83625850D01*
X142437030Y-83603671D01*
X142428765Y-83580572D01*
X142422804Y-83556773D01*
X142419204Y-83532505D01*
X142418000Y-83508001D01*
X142418000Y-82607999D01*
X142419204Y-82583495D01*
X142422804Y-82559227D01*
X142428765Y-82535428D01*
X142437030Y-82512329D01*
X142447520Y-82490150D01*
X142460132Y-82469107D01*
X142474747Y-82449401D01*
X142491223Y-82431223D01*
X142509401Y-82414747D01*
X142529107Y-82400132D01*
X142550150Y-82387520D01*
X142572329Y-82377030D01*
X142595428Y-82368765D01*
X142619227Y-82362804D01*
X142643495Y-82359204D01*
X142667999Y-82358000D01*
X143318001Y-82358000D01*
X143342505Y-82359204D01*
X143342505Y-82359204D01*
G37*
D14*
X142993000Y-83058000D03*
G04 #@! TD*
D10*
G04 #@! TO.C,D3*
G36*
X143342505Y-78803204D02*
X143366773Y-78806804D01*
X143390572Y-78812765D01*
X143413671Y-78821030D01*
X143435850Y-78831520D01*
X143456893Y-78844132D01*
X143476599Y-78858747D01*
X143494777Y-78875223D01*
X143511253Y-78893401D01*
X143525868Y-78913107D01*
X143538480Y-78934150D01*
X143548970Y-78956329D01*
X143557235Y-78979428D01*
X143563196Y-79003227D01*
X143566796Y-79027495D01*
X143568000Y-79051999D01*
X143568000Y-79952001D01*
X143566796Y-79976505D01*
X143563196Y-80000773D01*
X143557235Y-80024572D01*
X143548970Y-80047671D01*
X143538480Y-80069850D01*
X143525868Y-80090893D01*
X143511253Y-80110599D01*
X143494777Y-80128777D01*
X143476599Y-80145253D01*
X143456893Y-80159868D01*
X143435850Y-80172480D01*
X143413671Y-80182970D01*
X143390572Y-80191235D01*
X143366773Y-80197196D01*
X143342505Y-80200796D01*
X143318001Y-80202000D01*
X142667999Y-80202000D01*
X142643495Y-80200796D01*
X142619227Y-80197196D01*
X142595428Y-80191235D01*
X142572329Y-80182970D01*
X142550150Y-80172480D01*
X142529107Y-80159868D01*
X142509401Y-80145253D01*
X142491223Y-80128777D01*
X142474747Y-80110599D01*
X142460132Y-80090893D01*
X142447520Y-80069850D01*
X142437030Y-80047671D01*
X142428765Y-80024572D01*
X142422804Y-80000773D01*
X142419204Y-79976505D01*
X142418000Y-79952001D01*
X142418000Y-79051999D01*
X142419204Y-79027495D01*
X142422804Y-79003227D01*
X142428765Y-78979428D01*
X142437030Y-78956329D01*
X142447520Y-78934150D01*
X142460132Y-78913107D01*
X142474747Y-78893401D01*
X142491223Y-78875223D01*
X142509401Y-78858747D01*
X142529107Y-78844132D01*
X142550150Y-78831520D01*
X142572329Y-78821030D01*
X142595428Y-78812765D01*
X142619227Y-78806804D01*
X142643495Y-78803204D01*
X142667999Y-78802000D01*
X143318001Y-78802000D01*
X143342505Y-78803204D01*
X143342505Y-78803204D01*
G37*
D14*
X142993000Y-79502000D03*
D10*
G36*
X145392505Y-78803204D02*
X145416773Y-78806804D01*
X145440572Y-78812765D01*
X145463671Y-78821030D01*
X145485850Y-78831520D01*
X145506893Y-78844132D01*
X145526599Y-78858747D01*
X145544777Y-78875223D01*
X145561253Y-78893401D01*
X145575868Y-78913107D01*
X145588480Y-78934150D01*
X145598970Y-78956329D01*
X145607235Y-78979428D01*
X145613196Y-79003227D01*
X145616796Y-79027495D01*
X145618000Y-79051999D01*
X145618000Y-79952001D01*
X145616796Y-79976505D01*
X145613196Y-80000773D01*
X145607235Y-80024572D01*
X145598970Y-80047671D01*
X145588480Y-80069850D01*
X145575868Y-80090893D01*
X145561253Y-80110599D01*
X145544777Y-80128777D01*
X145526599Y-80145253D01*
X145506893Y-80159868D01*
X145485850Y-80172480D01*
X145463671Y-80182970D01*
X145440572Y-80191235D01*
X145416773Y-80197196D01*
X145392505Y-80200796D01*
X145368001Y-80202000D01*
X144717999Y-80202000D01*
X144693495Y-80200796D01*
X144669227Y-80197196D01*
X144645428Y-80191235D01*
X144622329Y-80182970D01*
X144600150Y-80172480D01*
X144579107Y-80159868D01*
X144559401Y-80145253D01*
X144541223Y-80128777D01*
X144524747Y-80110599D01*
X144510132Y-80090893D01*
X144497520Y-80069850D01*
X144487030Y-80047671D01*
X144478765Y-80024572D01*
X144472804Y-80000773D01*
X144469204Y-79976505D01*
X144468000Y-79952001D01*
X144468000Y-79051999D01*
X144469204Y-79027495D01*
X144472804Y-79003227D01*
X144478765Y-78979428D01*
X144487030Y-78956329D01*
X144497520Y-78934150D01*
X144510132Y-78913107D01*
X144524747Y-78893401D01*
X144541223Y-78875223D01*
X144559401Y-78858747D01*
X144579107Y-78844132D01*
X144600150Y-78831520D01*
X144622329Y-78821030D01*
X144645428Y-78812765D01*
X144669227Y-78806804D01*
X144693495Y-78803204D01*
X144717999Y-78802000D01*
X145368001Y-78802000D01*
X145392505Y-78803204D01*
X145392505Y-78803204D01*
G37*
D14*
X145043000Y-79502000D03*
G04 #@! TD*
D10*
G04 #@! TO.C,D4*
G36*
X161131505Y-74322204D02*
X161155773Y-74325804D01*
X161179572Y-74331765D01*
X161202671Y-74340030D01*
X161224850Y-74350520D01*
X161245893Y-74363132D01*
X161265599Y-74377747D01*
X161283777Y-74394223D01*
X161300253Y-74412401D01*
X161314868Y-74432107D01*
X161327480Y-74453150D01*
X161337970Y-74475329D01*
X161346235Y-74498428D01*
X161352196Y-74522227D01*
X161355796Y-74546495D01*
X161357000Y-74570999D01*
X161357000Y-75471001D01*
X161355796Y-75495505D01*
X161352196Y-75519773D01*
X161346235Y-75543572D01*
X161337970Y-75566671D01*
X161327480Y-75588850D01*
X161314868Y-75609893D01*
X161300253Y-75629599D01*
X161283777Y-75647777D01*
X161265599Y-75664253D01*
X161245893Y-75678868D01*
X161224850Y-75691480D01*
X161202671Y-75701970D01*
X161179572Y-75710235D01*
X161155773Y-75716196D01*
X161131505Y-75719796D01*
X161107001Y-75721000D01*
X160456999Y-75721000D01*
X160432495Y-75719796D01*
X160408227Y-75716196D01*
X160384428Y-75710235D01*
X160361329Y-75701970D01*
X160339150Y-75691480D01*
X160318107Y-75678868D01*
X160298401Y-75664253D01*
X160280223Y-75647777D01*
X160263747Y-75629599D01*
X160249132Y-75609893D01*
X160236520Y-75588850D01*
X160226030Y-75566671D01*
X160217765Y-75543572D01*
X160211804Y-75519773D01*
X160208204Y-75495505D01*
X160207000Y-75471001D01*
X160207000Y-74570999D01*
X160208204Y-74546495D01*
X160211804Y-74522227D01*
X160217765Y-74498428D01*
X160226030Y-74475329D01*
X160236520Y-74453150D01*
X160249132Y-74432107D01*
X160263747Y-74412401D01*
X160280223Y-74394223D01*
X160298401Y-74377747D01*
X160318107Y-74363132D01*
X160339150Y-74350520D01*
X160361329Y-74340030D01*
X160384428Y-74331765D01*
X160408227Y-74325804D01*
X160432495Y-74322204D01*
X160456999Y-74321000D01*
X161107001Y-74321000D01*
X161131505Y-74322204D01*
X161131505Y-74322204D01*
G37*
D14*
X160782000Y-75021000D03*
D10*
G36*
X159081505Y-74322204D02*
X159105773Y-74325804D01*
X159129572Y-74331765D01*
X159152671Y-74340030D01*
X159174850Y-74350520D01*
X159195893Y-74363132D01*
X159215599Y-74377747D01*
X159233777Y-74394223D01*
X159250253Y-74412401D01*
X159264868Y-74432107D01*
X159277480Y-74453150D01*
X159287970Y-74475329D01*
X159296235Y-74498428D01*
X159302196Y-74522227D01*
X159305796Y-74546495D01*
X159307000Y-74570999D01*
X159307000Y-75471001D01*
X159305796Y-75495505D01*
X159302196Y-75519773D01*
X159296235Y-75543572D01*
X159287970Y-75566671D01*
X159277480Y-75588850D01*
X159264868Y-75609893D01*
X159250253Y-75629599D01*
X159233777Y-75647777D01*
X159215599Y-75664253D01*
X159195893Y-75678868D01*
X159174850Y-75691480D01*
X159152671Y-75701970D01*
X159129572Y-75710235D01*
X159105773Y-75716196D01*
X159081505Y-75719796D01*
X159057001Y-75721000D01*
X158406999Y-75721000D01*
X158382495Y-75719796D01*
X158358227Y-75716196D01*
X158334428Y-75710235D01*
X158311329Y-75701970D01*
X158289150Y-75691480D01*
X158268107Y-75678868D01*
X158248401Y-75664253D01*
X158230223Y-75647777D01*
X158213747Y-75629599D01*
X158199132Y-75609893D01*
X158186520Y-75588850D01*
X158176030Y-75566671D01*
X158167765Y-75543572D01*
X158161804Y-75519773D01*
X158158204Y-75495505D01*
X158157000Y-75471001D01*
X158157000Y-74570999D01*
X158158204Y-74546495D01*
X158161804Y-74522227D01*
X158167765Y-74498428D01*
X158176030Y-74475329D01*
X158186520Y-74453150D01*
X158199132Y-74432107D01*
X158213747Y-74412401D01*
X158230223Y-74394223D01*
X158248401Y-74377747D01*
X158268107Y-74363132D01*
X158289150Y-74350520D01*
X158311329Y-74340030D01*
X158334428Y-74331765D01*
X158358227Y-74325804D01*
X158382495Y-74322204D01*
X158406999Y-74321000D01*
X159057001Y-74321000D01*
X159081505Y-74322204D01*
X159081505Y-74322204D01*
G37*
D14*
X158732000Y-75021000D03*
G04 #@! TD*
D10*
G04 #@! TO.C,D5*
G36*
X159099505Y-86397704D02*
X159123773Y-86401304D01*
X159147572Y-86407265D01*
X159170671Y-86415530D01*
X159192850Y-86426020D01*
X159213893Y-86438632D01*
X159233599Y-86453247D01*
X159251777Y-86469723D01*
X159268253Y-86487901D01*
X159282868Y-86507607D01*
X159295480Y-86528650D01*
X159305970Y-86550829D01*
X159314235Y-86573928D01*
X159320196Y-86597727D01*
X159323796Y-86621995D01*
X159325000Y-86646499D01*
X159325000Y-87546501D01*
X159323796Y-87571005D01*
X159320196Y-87595273D01*
X159314235Y-87619072D01*
X159305970Y-87642171D01*
X159295480Y-87664350D01*
X159282868Y-87685393D01*
X159268253Y-87705099D01*
X159251777Y-87723277D01*
X159233599Y-87739753D01*
X159213893Y-87754368D01*
X159192850Y-87766980D01*
X159170671Y-87777470D01*
X159147572Y-87785735D01*
X159123773Y-87791696D01*
X159099505Y-87795296D01*
X159075001Y-87796500D01*
X158424999Y-87796500D01*
X158400495Y-87795296D01*
X158376227Y-87791696D01*
X158352428Y-87785735D01*
X158329329Y-87777470D01*
X158307150Y-87766980D01*
X158286107Y-87754368D01*
X158266401Y-87739753D01*
X158248223Y-87723277D01*
X158231747Y-87705099D01*
X158217132Y-87685393D01*
X158204520Y-87664350D01*
X158194030Y-87642171D01*
X158185765Y-87619072D01*
X158179804Y-87595273D01*
X158176204Y-87571005D01*
X158175000Y-87546501D01*
X158175000Y-86646499D01*
X158176204Y-86621995D01*
X158179804Y-86597727D01*
X158185765Y-86573928D01*
X158194030Y-86550829D01*
X158204520Y-86528650D01*
X158217132Y-86507607D01*
X158231747Y-86487901D01*
X158248223Y-86469723D01*
X158266401Y-86453247D01*
X158286107Y-86438632D01*
X158307150Y-86426020D01*
X158329329Y-86415530D01*
X158352428Y-86407265D01*
X158376227Y-86401304D01*
X158400495Y-86397704D01*
X158424999Y-86396500D01*
X159075001Y-86396500D01*
X159099505Y-86397704D01*
X159099505Y-86397704D01*
G37*
D14*
X158750000Y-87096500D03*
D10*
G36*
X161149505Y-86397704D02*
X161173773Y-86401304D01*
X161197572Y-86407265D01*
X161220671Y-86415530D01*
X161242850Y-86426020D01*
X161263893Y-86438632D01*
X161283599Y-86453247D01*
X161301777Y-86469723D01*
X161318253Y-86487901D01*
X161332868Y-86507607D01*
X161345480Y-86528650D01*
X161355970Y-86550829D01*
X161364235Y-86573928D01*
X161370196Y-86597727D01*
X161373796Y-86621995D01*
X161375000Y-86646499D01*
X161375000Y-87546501D01*
X161373796Y-87571005D01*
X161370196Y-87595273D01*
X161364235Y-87619072D01*
X161355970Y-87642171D01*
X161345480Y-87664350D01*
X161332868Y-87685393D01*
X161318253Y-87705099D01*
X161301777Y-87723277D01*
X161283599Y-87739753D01*
X161263893Y-87754368D01*
X161242850Y-87766980D01*
X161220671Y-87777470D01*
X161197572Y-87785735D01*
X161173773Y-87791696D01*
X161149505Y-87795296D01*
X161125001Y-87796500D01*
X160474999Y-87796500D01*
X160450495Y-87795296D01*
X160426227Y-87791696D01*
X160402428Y-87785735D01*
X160379329Y-87777470D01*
X160357150Y-87766980D01*
X160336107Y-87754368D01*
X160316401Y-87739753D01*
X160298223Y-87723277D01*
X160281747Y-87705099D01*
X160267132Y-87685393D01*
X160254520Y-87664350D01*
X160244030Y-87642171D01*
X160235765Y-87619072D01*
X160229804Y-87595273D01*
X160226204Y-87571005D01*
X160225000Y-87546501D01*
X160225000Y-86646499D01*
X160226204Y-86621995D01*
X160229804Y-86597727D01*
X160235765Y-86573928D01*
X160244030Y-86550829D01*
X160254520Y-86528650D01*
X160267132Y-86507607D01*
X160281747Y-86487901D01*
X160298223Y-86469723D01*
X160316401Y-86453247D01*
X160336107Y-86438632D01*
X160357150Y-86426020D01*
X160379329Y-86415530D01*
X160402428Y-86407265D01*
X160426227Y-86401304D01*
X160450495Y-86397704D01*
X160474999Y-86396500D01*
X161125001Y-86396500D01*
X161149505Y-86397704D01*
X161149505Y-86397704D01*
G37*
D14*
X160800000Y-87096500D03*
G04 #@! TD*
D10*
G04 #@! TO.C,J1*
G36*
X136514504Y-67606204D02*
X136538773Y-67609804D01*
X136562571Y-67615765D01*
X136585671Y-67624030D01*
X136607849Y-67634520D01*
X136628893Y-67647133D01*
X136648598Y-67661747D01*
X136666777Y-67678223D01*
X136683253Y-67696402D01*
X136697867Y-67716107D01*
X136710480Y-67737151D01*
X136720970Y-67759329D01*
X136729235Y-67782429D01*
X136735196Y-67806227D01*
X136738796Y-67830496D01*
X136740000Y-67855000D01*
X136740000Y-69305000D01*
X136738796Y-69329504D01*
X136735196Y-69353773D01*
X136729235Y-69377571D01*
X136720970Y-69400671D01*
X136710480Y-69422849D01*
X136697867Y-69443893D01*
X136683253Y-69463598D01*
X136666777Y-69481777D01*
X136648598Y-69498253D01*
X136628893Y-69512867D01*
X136607849Y-69525480D01*
X136585671Y-69535970D01*
X136562571Y-69544235D01*
X136538773Y-69550196D01*
X136514504Y-69553796D01*
X136490000Y-69555000D01*
X135290000Y-69555000D01*
X135265496Y-69553796D01*
X135241227Y-69550196D01*
X135217429Y-69544235D01*
X135194329Y-69535970D01*
X135172151Y-69525480D01*
X135151107Y-69512867D01*
X135131402Y-69498253D01*
X135113223Y-69481777D01*
X135096747Y-69463598D01*
X135082133Y-69443893D01*
X135069520Y-69422849D01*
X135059030Y-69400671D01*
X135050765Y-69377571D01*
X135044804Y-69353773D01*
X135041204Y-69329504D01*
X135040000Y-69305000D01*
X135040000Y-67855000D01*
X135041204Y-67830496D01*
X135044804Y-67806227D01*
X135050765Y-67782429D01*
X135059030Y-67759329D01*
X135069520Y-67737151D01*
X135082133Y-67716107D01*
X135096747Y-67696402D01*
X135113223Y-67678223D01*
X135131402Y-67661747D01*
X135151107Y-67647133D01*
X135172151Y-67634520D01*
X135194329Y-67624030D01*
X135217429Y-67615765D01*
X135241227Y-67609804D01*
X135265496Y-67606204D01*
X135290000Y-67605000D01*
X136490000Y-67605000D01*
X136514504Y-67606204D01*
X136514504Y-67606204D01*
G37*
D15*
X135890000Y-68580000D03*
D16*
X138390000Y-68580000D03*
X140890000Y-68580000D03*
G04 #@! TD*
G04 #@! TO.C,J2*
X140890000Y-92456000D03*
X138390000Y-92456000D03*
D10*
G36*
X136514504Y-91482204D02*
X136538773Y-91485804D01*
X136562571Y-91491765D01*
X136585671Y-91500030D01*
X136607849Y-91510520D01*
X136628893Y-91523133D01*
X136648598Y-91537747D01*
X136666777Y-91554223D01*
X136683253Y-91572402D01*
X136697867Y-91592107D01*
X136710480Y-91613151D01*
X136720970Y-91635329D01*
X136729235Y-91658429D01*
X136735196Y-91682227D01*
X136738796Y-91706496D01*
X136740000Y-91731000D01*
X136740000Y-93181000D01*
X136738796Y-93205504D01*
X136735196Y-93229773D01*
X136729235Y-93253571D01*
X136720970Y-93276671D01*
X136710480Y-93298849D01*
X136697867Y-93319893D01*
X136683253Y-93339598D01*
X136666777Y-93357777D01*
X136648598Y-93374253D01*
X136628893Y-93388867D01*
X136607849Y-93401480D01*
X136585671Y-93411970D01*
X136562571Y-93420235D01*
X136538773Y-93426196D01*
X136514504Y-93429796D01*
X136490000Y-93431000D01*
X135290000Y-93431000D01*
X135265496Y-93429796D01*
X135241227Y-93426196D01*
X135217429Y-93420235D01*
X135194329Y-93411970D01*
X135172151Y-93401480D01*
X135151107Y-93388867D01*
X135131402Y-93374253D01*
X135113223Y-93357777D01*
X135096747Y-93339598D01*
X135082133Y-93319893D01*
X135069520Y-93298849D01*
X135059030Y-93276671D01*
X135050765Y-93253571D01*
X135044804Y-93229773D01*
X135041204Y-93205504D01*
X135040000Y-93181000D01*
X135040000Y-91731000D01*
X135041204Y-91706496D01*
X135044804Y-91682227D01*
X135050765Y-91658429D01*
X135059030Y-91635329D01*
X135069520Y-91613151D01*
X135082133Y-91592107D01*
X135096747Y-91572402D01*
X135113223Y-91554223D01*
X135131402Y-91537747D01*
X135151107Y-91523133D01*
X135172151Y-91510520D01*
X135194329Y-91500030D01*
X135217429Y-91491765D01*
X135241227Y-91485804D01*
X135265496Y-91482204D01*
X135290000Y-91481000D01*
X136490000Y-91481000D01*
X136514504Y-91482204D01*
X136514504Y-91482204D01*
G37*
D15*
X135890000Y-92456000D03*
G04 #@! TD*
D16*
G04 #@! TO.C,J5*
X163456000Y-68580000D03*
X160956000Y-68580000D03*
X158456000Y-68580000D03*
D10*
G36*
X156580504Y-67606204D02*
X156604773Y-67609804D01*
X156628571Y-67615765D01*
X156651671Y-67624030D01*
X156673849Y-67634520D01*
X156694893Y-67647133D01*
X156714598Y-67661747D01*
X156732777Y-67678223D01*
X156749253Y-67696402D01*
X156763867Y-67716107D01*
X156776480Y-67737151D01*
X156786970Y-67759329D01*
X156795235Y-67782429D01*
X156801196Y-67806227D01*
X156804796Y-67830496D01*
X156806000Y-67855000D01*
X156806000Y-69305000D01*
X156804796Y-69329504D01*
X156801196Y-69353773D01*
X156795235Y-69377571D01*
X156786970Y-69400671D01*
X156776480Y-69422849D01*
X156763867Y-69443893D01*
X156749253Y-69463598D01*
X156732777Y-69481777D01*
X156714598Y-69498253D01*
X156694893Y-69512867D01*
X156673849Y-69525480D01*
X156651671Y-69535970D01*
X156628571Y-69544235D01*
X156604773Y-69550196D01*
X156580504Y-69553796D01*
X156556000Y-69555000D01*
X155356000Y-69555000D01*
X155331496Y-69553796D01*
X155307227Y-69550196D01*
X155283429Y-69544235D01*
X155260329Y-69535970D01*
X155238151Y-69525480D01*
X155217107Y-69512867D01*
X155197402Y-69498253D01*
X155179223Y-69481777D01*
X155162747Y-69463598D01*
X155148133Y-69443893D01*
X155135520Y-69422849D01*
X155125030Y-69400671D01*
X155116765Y-69377571D01*
X155110804Y-69353773D01*
X155107204Y-69329504D01*
X155106000Y-69305000D01*
X155106000Y-67855000D01*
X155107204Y-67830496D01*
X155110804Y-67806227D01*
X155116765Y-67782429D01*
X155125030Y-67759329D01*
X155135520Y-67737151D01*
X155148133Y-67716107D01*
X155162747Y-67696402D01*
X155179223Y-67678223D01*
X155197402Y-67661747D01*
X155217107Y-67647133D01*
X155238151Y-67634520D01*
X155260329Y-67624030D01*
X155283429Y-67615765D01*
X155307227Y-67609804D01*
X155331496Y-67606204D01*
X155356000Y-67605000D01*
X156556000Y-67605000D01*
X156580504Y-67606204D01*
X156580504Y-67606204D01*
G37*
D15*
X155956000Y-68580000D03*
G04 #@! TD*
D10*
G04 #@! TO.C,J6*
G36*
X156580504Y-91482204D02*
X156604773Y-91485804D01*
X156628571Y-91491765D01*
X156651671Y-91500030D01*
X156673849Y-91510520D01*
X156694893Y-91523133D01*
X156714598Y-91537747D01*
X156732777Y-91554223D01*
X156749253Y-91572402D01*
X156763867Y-91592107D01*
X156776480Y-91613151D01*
X156786970Y-91635329D01*
X156795235Y-91658429D01*
X156801196Y-91682227D01*
X156804796Y-91706496D01*
X156806000Y-91731000D01*
X156806000Y-93181000D01*
X156804796Y-93205504D01*
X156801196Y-93229773D01*
X156795235Y-93253571D01*
X156786970Y-93276671D01*
X156776480Y-93298849D01*
X156763867Y-93319893D01*
X156749253Y-93339598D01*
X156732777Y-93357777D01*
X156714598Y-93374253D01*
X156694893Y-93388867D01*
X156673849Y-93401480D01*
X156651671Y-93411970D01*
X156628571Y-93420235D01*
X156604773Y-93426196D01*
X156580504Y-93429796D01*
X156556000Y-93431000D01*
X155356000Y-93431000D01*
X155331496Y-93429796D01*
X155307227Y-93426196D01*
X155283429Y-93420235D01*
X155260329Y-93411970D01*
X155238151Y-93401480D01*
X155217107Y-93388867D01*
X155197402Y-93374253D01*
X155179223Y-93357777D01*
X155162747Y-93339598D01*
X155148133Y-93319893D01*
X155135520Y-93298849D01*
X155125030Y-93276671D01*
X155116765Y-93253571D01*
X155110804Y-93229773D01*
X155107204Y-93205504D01*
X155106000Y-93181000D01*
X155106000Y-91731000D01*
X155107204Y-91706496D01*
X155110804Y-91682227D01*
X155116765Y-91658429D01*
X155125030Y-91635329D01*
X155135520Y-91613151D01*
X155148133Y-91592107D01*
X155162747Y-91572402D01*
X155179223Y-91554223D01*
X155197402Y-91537747D01*
X155217107Y-91523133D01*
X155238151Y-91510520D01*
X155260329Y-91500030D01*
X155283429Y-91491765D01*
X155307227Y-91485804D01*
X155331496Y-91482204D01*
X155356000Y-91481000D01*
X156556000Y-91481000D01*
X156580504Y-91482204D01*
X156580504Y-91482204D01*
G37*
D15*
X155956000Y-92456000D03*
D16*
X158456000Y-92456000D03*
X160956000Y-92456000D03*
X163456000Y-92456000D03*
G04 #@! TD*
D10*
G04 #@! TO.C,R1*
G36*
X163886779Y-83600144D02*
X163909834Y-83603563D01*
X163932443Y-83609227D01*
X163954387Y-83617079D01*
X163975457Y-83627044D01*
X163995448Y-83639026D01*
X164014168Y-83652910D01*
X164031438Y-83668562D01*
X164047090Y-83685832D01*
X164060974Y-83704552D01*
X164072956Y-83724543D01*
X164082921Y-83745613D01*
X164090773Y-83767557D01*
X164096437Y-83790166D01*
X164099856Y-83813221D01*
X164101000Y-83836500D01*
X164101000Y-84311500D01*
X164099856Y-84334779D01*
X164096437Y-84357834D01*
X164090773Y-84380443D01*
X164082921Y-84402387D01*
X164072956Y-84423457D01*
X164060974Y-84443448D01*
X164047090Y-84462168D01*
X164031438Y-84479438D01*
X164014168Y-84495090D01*
X163995448Y-84508974D01*
X163975457Y-84520956D01*
X163954387Y-84530921D01*
X163932443Y-84538773D01*
X163909834Y-84544437D01*
X163886779Y-84547856D01*
X163863500Y-84549000D01*
X163288500Y-84549000D01*
X163265221Y-84547856D01*
X163242166Y-84544437D01*
X163219557Y-84538773D01*
X163197613Y-84530921D01*
X163176543Y-84520956D01*
X163156552Y-84508974D01*
X163137832Y-84495090D01*
X163120562Y-84479438D01*
X163104910Y-84462168D01*
X163091026Y-84443448D01*
X163079044Y-84423457D01*
X163069079Y-84402387D01*
X163061227Y-84380443D01*
X163055563Y-84357834D01*
X163052144Y-84334779D01*
X163051000Y-84311500D01*
X163051000Y-83836500D01*
X163052144Y-83813221D01*
X163055563Y-83790166D01*
X163061227Y-83767557D01*
X163069079Y-83745613D01*
X163079044Y-83724543D01*
X163091026Y-83704552D01*
X163104910Y-83685832D01*
X163120562Y-83668562D01*
X163137832Y-83652910D01*
X163156552Y-83639026D01*
X163176543Y-83627044D01*
X163197613Y-83617079D01*
X163219557Y-83609227D01*
X163242166Y-83603563D01*
X163265221Y-83600144D01*
X163288500Y-83599000D01*
X163863500Y-83599000D01*
X163886779Y-83600144D01*
X163886779Y-83600144D01*
G37*
D17*
X163576000Y-84074000D03*
D10*
G36*
X165636779Y-83600144D02*
X165659834Y-83603563D01*
X165682443Y-83609227D01*
X165704387Y-83617079D01*
X165725457Y-83627044D01*
X165745448Y-83639026D01*
X165764168Y-83652910D01*
X165781438Y-83668562D01*
X165797090Y-83685832D01*
X165810974Y-83704552D01*
X165822956Y-83724543D01*
X165832921Y-83745613D01*
X165840773Y-83767557D01*
X165846437Y-83790166D01*
X165849856Y-83813221D01*
X165851000Y-83836500D01*
X165851000Y-84311500D01*
X165849856Y-84334779D01*
X165846437Y-84357834D01*
X165840773Y-84380443D01*
X165832921Y-84402387D01*
X165822956Y-84423457D01*
X165810974Y-84443448D01*
X165797090Y-84462168D01*
X165781438Y-84479438D01*
X165764168Y-84495090D01*
X165745448Y-84508974D01*
X165725457Y-84520956D01*
X165704387Y-84530921D01*
X165682443Y-84538773D01*
X165659834Y-84544437D01*
X165636779Y-84547856D01*
X165613500Y-84549000D01*
X165038500Y-84549000D01*
X165015221Y-84547856D01*
X164992166Y-84544437D01*
X164969557Y-84538773D01*
X164947613Y-84530921D01*
X164926543Y-84520956D01*
X164906552Y-84508974D01*
X164887832Y-84495090D01*
X164870562Y-84479438D01*
X164854910Y-84462168D01*
X164841026Y-84443448D01*
X164829044Y-84423457D01*
X164819079Y-84402387D01*
X164811227Y-84380443D01*
X164805563Y-84357834D01*
X164802144Y-84334779D01*
X164801000Y-84311500D01*
X164801000Y-83836500D01*
X164802144Y-83813221D01*
X164805563Y-83790166D01*
X164811227Y-83767557D01*
X164819079Y-83745613D01*
X164829044Y-83724543D01*
X164841026Y-83704552D01*
X164854910Y-83685832D01*
X164870562Y-83668562D01*
X164887832Y-83652910D01*
X164906552Y-83639026D01*
X164926543Y-83627044D01*
X164947613Y-83617079D01*
X164969557Y-83609227D01*
X164992166Y-83603563D01*
X165015221Y-83600144D01*
X165038500Y-83599000D01*
X165613500Y-83599000D01*
X165636779Y-83600144D01*
X165636779Y-83600144D01*
G37*
D17*
X165326000Y-84074000D03*
G04 #@! TD*
D10*
G04 #@! TO.C,R2*
G36*
X163886779Y-86648144D02*
X163909834Y-86651563D01*
X163932443Y-86657227D01*
X163954387Y-86665079D01*
X163975457Y-86675044D01*
X163995448Y-86687026D01*
X164014168Y-86700910D01*
X164031438Y-86716562D01*
X164047090Y-86733832D01*
X164060974Y-86752552D01*
X164072956Y-86772543D01*
X164082921Y-86793613D01*
X164090773Y-86815557D01*
X164096437Y-86838166D01*
X164099856Y-86861221D01*
X164101000Y-86884500D01*
X164101000Y-87359500D01*
X164099856Y-87382779D01*
X164096437Y-87405834D01*
X164090773Y-87428443D01*
X164082921Y-87450387D01*
X164072956Y-87471457D01*
X164060974Y-87491448D01*
X164047090Y-87510168D01*
X164031438Y-87527438D01*
X164014168Y-87543090D01*
X163995448Y-87556974D01*
X163975457Y-87568956D01*
X163954387Y-87578921D01*
X163932443Y-87586773D01*
X163909834Y-87592437D01*
X163886779Y-87595856D01*
X163863500Y-87597000D01*
X163288500Y-87597000D01*
X163265221Y-87595856D01*
X163242166Y-87592437D01*
X163219557Y-87586773D01*
X163197613Y-87578921D01*
X163176543Y-87568956D01*
X163156552Y-87556974D01*
X163137832Y-87543090D01*
X163120562Y-87527438D01*
X163104910Y-87510168D01*
X163091026Y-87491448D01*
X163079044Y-87471457D01*
X163069079Y-87450387D01*
X163061227Y-87428443D01*
X163055563Y-87405834D01*
X163052144Y-87382779D01*
X163051000Y-87359500D01*
X163051000Y-86884500D01*
X163052144Y-86861221D01*
X163055563Y-86838166D01*
X163061227Y-86815557D01*
X163069079Y-86793613D01*
X163079044Y-86772543D01*
X163091026Y-86752552D01*
X163104910Y-86733832D01*
X163120562Y-86716562D01*
X163137832Y-86700910D01*
X163156552Y-86687026D01*
X163176543Y-86675044D01*
X163197613Y-86665079D01*
X163219557Y-86657227D01*
X163242166Y-86651563D01*
X163265221Y-86648144D01*
X163288500Y-86647000D01*
X163863500Y-86647000D01*
X163886779Y-86648144D01*
X163886779Y-86648144D01*
G37*
D17*
X163576000Y-87122000D03*
D10*
G36*
X165636779Y-86648144D02*
X165659834Y-86651563D01*
X165682443Y-86657227D01*
X165704387Y-86665079D01*
X165725457Y-86675044D01*
X165745448Y-86687026D01*
X165764168Y-86700910D01*
X165781438Y-86716562D01*
X165797090Y-86733832D01*
X165810974Y-86752552D01*
X165822956Y-86772543D01*
X165832921Y-86793613D01*
X165840773Y-86815557D01*
X165846437Y-86838166D01*
X165849856Y-86861221D01*
X165851000Y-86884500D01*
X165851000Y-87359500D01*
X165849856Y-87382779D01*
X165846437Y-87405834D01*
X165840773Y-87428443D01*
X165832921Y-87450387D01*
X165822956Y-87471457D01*
X165810974Y-87491448D01*
X165797090Y-87510168D01*
X165781438Y-87527438D01*
X165764168Y-87543090D01*
X165745448Y-87556974D01*
X165725457Y-87568956D01*
X165704387Y-87578921D01*
X165682443Y-87586773D01*
X165659834Y-87592437D01*
X165636779Y-87595856D01*
X165613500Y-87597000D01*
X165038500Y-87597000D01*
X165015221Y-87595856D01*
X164992166Y-87592437D01*
X164969557Y-87586773D01*
X164947613Y-87578921D01*
X164926543Y-87568956D01*
X164906552Y-87556974D01*
X164887832Y-87543090D01*
X164870562Y-87527438D01*
X164854910Y-87510168D01*
X164841026Y-87491448D01*
X164829044Y-87471457D01*
X164819079Y-87450387D01*
X164811227Y-87428443D01*
X164805563Y-87405834D01*
X164802144Y-87382779D01*
X164801000Y-87359500D01*
X164801000Y-86884500D01*
X164802144Y-86861221D01*
X164805563Y-86838166D01*
X164811227Y-86815557D01*
X164819079Y-86793613D01*
X164829044Y-86772543D01*
X164841026Y-86752552D01*
X164854910Y-86733832D01*
X164870562Y-86716562D01*
X164887832Y-86700910D01*
X164906552Y-86687026D01*
X164926543Y-86675044D01*
X164947613Y-86665079D01*
X164969557Y-86657227D01*
X164992166Y-86651563D01*
X165015221Y-86648144D01*
X165038500Y-86647000D01*
X165613500Y-86647000D01*
X165636779Y-86648144D01*
X165636779Y-86648144D01*
G37*
D17*
X165326000Y-87122000D03*
G04 #@! TD*
D10*
G04 #@! TO.C,R3*
G36*
X165636779Y-77572394D02*
X165659834Y-77575813D01*
X165682443Y-77581477D01*
X165704387Y-77589329D01*
X165725457Y-77599294D01*
X165745448Y-77611276D01*
X165764168Y-77625160D01*
X165781438Y-77640812D01*
X165797090Y-77658082D01*
X165810974Y-77676802D01*
X165822956Y-77696793D01*
X165832921Y-77717863D01*
X165840773Y-77739807D01*
X165846437Y-77762416D01*
X165849856Y-77785471D01*
X165851000Y-77808750D01*
X165851000Y-78283750D01*
X165849856Y-78307029D01*
X165846437Y-78330084D01*
X165840773Y-78352693D01*
X165832921Y-78374637D01*
X165822956Y-78395707D01*
X165810974Y-78415698D01*
X165797090Y-78434418D01*
X165781438Y-78451688D01*
X165764168Y-78467340D01*
X165745448Y-78481224D01*
X165725457Y-78493206D01*
X165704387Y-78503171D01*
X165682443Y-78511023D01*
X165659834Y-78516687D01*
X165636779Y-78520106D01*
X165613500Y-78521250D01*
X165038500Y-78521250D01*
X165015221Y-78520106D01*
X164992166Y-78516687D01*
X164969557Y-78511023D01*
X164947613Y-78503171D01*
X164926543Y-78493206D01*
X164906552Y-78481224D01*
X164887832Y-78467340D01*
X164870562Y-78451688D01*
X164854910Y-78434418D01*
X164841026Y-78415698D01*
X164829044Y-78395707D01*
X164819079Y-78374637D01*
X164811227Y-78352693D01*
X164805563Y-78330084D01*
X164802144Y-78307029D01*
X164801000Y-78283750D01*
X164801000Y-77808750D01*
X164802144Y-77785471D01*
X164805563Y-77762416D01*
X164811227Y-77739807D01*
X164819079Y-77717863D01*
X164829044Y-77696793D01*
X164841026Y-77676802D01*
X164854910Y-77658082D01*
X164870562Y-77640812D01*
X164887832Y-77625160D01*
X164906552Y-77611276D01*
X164926543Y-77599294D01*
X164947613Y-77589329D01*
X164969557Y-77581477D01*
X164992166Y-77575813D01*
X165015221Y-77572394D01*
X165038500Y-77571250D01*
X165613500Y-77571250D01*
X165636779Y-77572394D01*
X165636779Y-77572394D01*
G37*
D17*
X165326000Y-78046250D03*
D10*
G36*
X163886779Y-77572394D02*
X163909834Y-77575813D01*
X163932443Y-77581477D01*
X163954387Y-77589329D01*
X163975457Y-77599294D01*
X163995448Y-77611276D01*
X164014168Y-77625160D01*
X164031438Y-77640812D01*
X164047090Y-77658082D01*
X164060974Y-77676802D01*
X164072956Y-77696793D01*
X164082921Y-77717863D01*
X164090773Y-77739807D01*
X164096437Y-77762416D01*
X164099856Y-77785471D01*
X164101000Y-77808750D01*
X164101000Y-78283750D01*
X164099856Y-78307029D01*
X164096437Y-78330084D01*
X164090773Y-78352693D01*
X164082921Y-78374637D01*
X164072956Y-78395707D01*
X164060974Y-78415698D01*
X164047090Y-78434418D01*
X164031438Y-78451688D01*
X164014168Y-78467340D01*
X163995448Y-78481224D01*
X163975457Y-78493206D01*
X163954387Y-78503171D01*
X163932443Y-78511023D01*
X163909834Y-78516687D01*
X163886779Y-78520106D01*
X163863500Y-78521250D01*
X163288500Y-78521250D01*
X163265221Y-78520106D01*
X163242166Y-78516687D01*
X163219557Y-78511023D01*
X163197613Y-78503171D01*
X163176543Y-78493206D01*
X163156552Y-78481224D01*
X163137832Y-78467340D01*
X163120562Y-78451688D01*
X163104910Y-78434418D01*
X163091026Y-78415698D01*
X163079044Y-78395707D01*
X163069079Y-78374637D01*
X163061227Y-78352693D01*
X163055563Y-78330084D01*
X163052144Y-78307029D01*
X163051000Y-78283750D01*
X163051000Y-77808750D01*
X163052144Y-77785471D01*
X163055563Y-77762416D01*
X163061227Y-77739807D01*
X163069079Y-77717863D01*
X163079044Y-77696793D01*
X163091026Y-77676802D01*
X163104910Y-77658082D01*
X163120562Y-77640812D01*
X163137832Y-77625160D01*
X163156552Y-77611276D01*
X163176543Y-77599294D01*
X163197613Y-77589329D01*
X163219557Y-77581477D01*
X163242166Y-77575813D01*
X163265221Y-77572394D01*
X163288500Y-77571250D01*
X163863500Y-77571250D01*
X163886779Y-77572394D01*
X163886779Y-77572394D01*
G37*
D17*
X163576000Y-78046250D03*
G04 #@! TD*
D10*
G04 #@! TO.C,R5*
G36*
X141738779Y-87447644D02*
X141761834Y-87451063D01*
X141784443Y-87456727D01*
X141806387Y-87464579D01*
X141827457Y-87474544D01*
X141847448Y-87486526D01*
X141866168Y-87500410D01*
X141883438Y-87516062D01*
X141899090Y-87533332D01*
X141912974Y-87552052D01*
X141924956Y-87572043D01*
X141934921Y-87593113D01*
X141942773Y-87615057D01*
X141948437Y-87637666D01*
X141951856Y-87660721D01*
X141953000Y-87684000D01*
X141953000Y-88259000D01*
X141951856Y-88282279D01*
X141948437Y-88305334D01*
X141942773Y-88327943D01*
X141934921Y-88349887D01*
X141924956Y-88370957D01*
X141912974Y-88390948D01*
X141899090Y-88409668D01*
X141883438Y-88426938D01*
X141866168Y-88442590D01*
X141847448Y-88456474D01*
X141827457Y-88468456D01*
X141806387Y-88478421D01*
X141784443Y-88486273D01*
X141761834Y-88491937D01*
X141738779Y-88495356D01*
X141715500Y-88496500D01*
X141240500Y-88496500D01*
X141217221Y-88495356D01*
X141194166Y-88491937D01*
X141171557Y-88486273D01*
X141149613Y-88478421D01*
X141128543Y-88468456D01*
X141108552Y-88456474D01*
X141089832Y-88442590D01*
X141072562Y-88426938D01*
X141056910Y-88409668D01*
X141043026Y-88390948D01*
X141031044Y-88370957D01*
X141021079Y-88349887D01*
X141013227Y-88327943D01*
X141007563Y-88305334D01*
X141004144Y-88282279D01*
X141003000Y-88259000D01*
X141003000Y-87684000D01*
X141004144Y-87660721D01*
X141007563Y-87637666D01*
X141013227Y-87615057D01*
X141021079Y-87593113D01*
X141031044Y-87572043D01*
X141043026Y-87552052D01*
X141056910Y-87533332D01*
X141072562Y-87516062D01*
X141089832Y-87500410D01*
X141108552Y-87486526D01*
X141128543Y-87474544D01*
X141149613Y-87464579D01*
X141171557Y-87456727D01*
X141194166Y-87451063D01*
X141217221Y-87447644D01*
X141240500Y-87446500D01*
X141715500Y-87446500D01*
X141738779Y-87447644D01*
X141738779Y-87447644D01*
G37*
D17*
X141478000Y-87971500D03*
D10*
G36*
X141738779Y-85697644D02*
X141761834Y-85701063D01*
X141784443Y-85706727D01*
X141806387Y-85714579D01*
X141827457Y-85724544D01*
X141847448Y-85736526D01*
X141866168Y-85750410D01*
X141883438Y-85766062D01*
X141899090Y-85783332D01*
X141912974Y-85802052D01*
X141924956Y-85822043D01*
X141934921Y-85843113D01*
X141942773Y-85865057D01*
X141948437Y-85887666D01*
X141951856Y-85910721D01*
X141953000Y-85934000D01*
X141953000Y-86509000D01*
X141951856Y-86532279D01*
X141948437Y-86555334D01*
X141942773Y-86577943D01*
X141934921Y-86599887D01*
X141924956Y-86620957D01*
X141912974Y-86640948D01*
X141899090Y-86659668D01*
X141883438Y-86676938D01*
X141866168Y-86692590D01*
X141847448Y-86706474D01*
X141827457Y-86718456D01*
X141806387Y-86728421D01*
X141784443Y-86736273D01*
X141761834Y-86741937D01*
X141738779Y-86745356D01*
X141715500Y-86746500D01*
X141240500Y-86746500D01*
X141217221Y-86745356D01*
X141194166Y-86741937D01*
X141171557Y-86736273D01*
X141149613Y-86728421D01*
X141128543Y-86718456D01*
X141108552Y-86706474D01*
X141089832Y-86692590D01*
X141072562Y-86676938D01*
X141056910Y-86659668D01*
X141043026Y-86640948D01*
X141031044Y-86620957D01*
X141021079Y-86599887D01*
X141013227Y-86577943D01*
X141007563Y-86555334D01*
X141004144Y-86532279D01*
X141003000Y-86509000D01*
X141003000Y-85934000D01*
X141004144Y-85910721D01*
X141007563Y-85887666D01*
X141013227Y-85865057D01*
X141021079Y-85843113D01*
X141031044Y-85822043D01*
X141043026Y-85802052D01*
X141056910Y-85783332D01*
X141072562Y-85766062D01*
X141089832Y-85750410D01*
X141108552Y-85736526D01*
X141128543Y-85724544D01*
X141149613Y-85714579D01*
X141171557Y-85706727D01*
X141194166Y-85701063D01*
X141217221Y-85697644D01*
X141240500Y-85696500D01*
X141715500Y-85696500D01*
X141738779Y-85697644D01*
X141738779Y-85697644D01*
G37*
D17*
X141478000Y-86221500D03*
G04 #@! TD*
D10*
G04 #@! TO.C,R7*
G36*
X141738779Y-73622144D02*
X141761834Y-73625563D01*
X141784443Y-73631227D01*
X141806387Y-73639079D01*
X141827457Y-73649044D01*
X141847448Y-73661026D01*
X141866168Y-73674910D01*
X141883438Y-73690562D01*
X141899090Y-73707832D01*
X141912974Y-73726552D01*
X141924956Y-73746543D01*
X141934921Y-73767613D01*
X141942773Y-73789557D01*
X141948437Y-73812166D01*
X141951856Y-73835221D01*
X141953000Y-73858500D01*
X141953000Y-74433500D01*
X141951856Y-74456779D01*
X141948437Y-74479834D01*
X141942773Y-74502443D01*
X141934921Y-74524387D01*
X141924956Y-74545457D01*
X141912974Y-74565448D01*
X141899090Y-74584168D01*
X141883438Y-74601438D01*
X141866168Y-74617090D01*
X141847448Y-74630974D01*
X141827457Y-74642956D01*
X141806387Y-74652921D01*
X141784443Y-74660773D01*
X141761834Y-74666437D01*
X141738779Y-74669856D01*
X141715500Y-74671000D01*
X141240500Y-74671000D01*
X141217221Y-74669856D01*
X141194166Y-74666437D01*
X141171557Y-74660773D01*
X141149613Y-74652921D01*
X141128543Y-74642956D01*
X141108552Y-74630974D01*
X141089832Y-74617090D01*
X141072562Y-74601438D01*
X141056910Y-74584168D01*
X141043026Y-74565448D01*
X141031044Y-74545457D01*
X141021079Y-74524387D01*
X141013227Y-74502443D01*
X141007563Y-74479834D01*
X141004144Y-74456779D01*
X141003000Y-74433500D01*
X141003000Y-73858500D01*
X141004144Y-73835221D01*
X141007563Y-73812166D01*
X141013227Y-73789557D01*
X141021079Y-73767613D01*
X141031044Y-73746543D01*
X141043026Y-73726552D01*
X141056910Y-73707832D01*
X141072562Y-73690562D01*
X141089832Y-73674910D01*
X141108552Y-73661026D01*
X141128543Y-73649044D01*
X141149613Y-73639079D01*
X141171557Y-73631227D01*
X141194166Y-73625563D01*
X141217221Y-73622144D01*
X141240500Y-73621000D01*
X141715500Y-73621000D01*
X141738779Y-73622144D01*
X141738779Y-73622144D01*
G37*
D17*
X141478000Y-74146000D03*
D10*
G36*
X141738779Y-75372144D02*
X141761834Y-75375563D01*
X141784443Y-75381227D01*
X141806387Y-75389079D01*
X141827457Y-75399044D01*
X141847448Y-75411026D01*
X141866168Y-75424910D01*
X141883438Y-75440562D01*
X141899090Y-75457832D01*
X141912974Y-75476552D01*
X141924956Y-75496543D01*
X141934921Y-75517613D01*
X141942773Y-75539557D01*
X141948437Y-75562166D01*
X141951856Y-75585221D01*
X141953000Y-75608500D01*
X141953000Y-76183500D01*
X141951856Y-76206779D01*
X141948437Y-76229834D01*
X141942773Y-76252443D01*
X141934921Y-76274387D01*
X141924956Y-76295457D01*
X141912974Y-76315448D01*
X141899090Y-76334168D01*
X141883438Y-76351438D01*
X141866168Y-76367090D01*
X141847448Y-76380974D01*
X141827457Y-76392956D01*
X141806387Y-76402921D01*
X141784443Y-76410773D01*
X141761834Y-76416437D01*
X141738779Y-76419856D01*
X141715500Y-76421000D01*
X141240500Y-76421000D01*
X141217221Y-76419856D01*
X141194166Y-76416437D01*
X141171557Y-76410773D01*
X141149613Y-76402921D01*
X141128543Y-76392956D01*
X141108552Y-76380974D01*
X141089832Y-76367090D01*
X141072562Y-76351438D01*
X141056910Y-76334168D01*
X141043026Y-76315448D01*
X141031044Y-76295457D01*
X141021079Y-76274387D01*
X141013227Y-76252443D01*
X141007563Y-76229834D01*
X141004144Y-76206779D01*
X141003000Y-76183500D01*
X141003000Y-75608500D01*
X141004144Y-75585221D01*
X141007563Y-75562166D01*
X141013227Y-75539557D01*
X141021079Y-75517613D01*
X141031044Y-75496543D01*
X141043026Y-75476552D01*
X141056910Y-75457832D01*
X141072562Y-75440562D01*
X141089832Y-75424910D01*
X141108552Y-75411026D01*
X141128543Y-75399044D01*
X141149613Y-75389079D01*
X141171557Y-75381227D01*
X141194166Y-75375563D01*
X141217221Y-75372144D01*
X141240500Y-75371000D01*
X141715500Y-75371000D01*
X141738779Y-75372144D01*
X141738779Y-75372144D01*
G37*
D17*
X141478000Y-75896000D03*
G04 #@! TD*
D10*
G04 #@! TO.C,R8*
G36*
X147326779Y-85697644D02*
X147349834Y-85701063D01*
X147372443Y-85706727D01*
X147394387Y-85714579D01*
X147415457Y-85724544D01*
X147435448Y-85736526D01*
X147454168Y-85750410D01*
X147471438Y-85766062D01*
X147487090Y-85783332D01*
X147500974Y-85802052D01*
X147512956Y-85822043D01*
X147522921Y-85843113D01*
X147530773Y-85865057D01*
X147536437Y-85887666D01*
X147539856Y-85910721D01*
X147541000Y-85934000D01*
X147541000Y-86509000D01*
X147539856Y-86532279D01*
X147536437Y-86555334D01*
X147530773Y-86577943D01*
X147522921Y-86599887D01*
X147512956Y-86620957D01*
X147500974Y-86640948D01*
X147487090Y-86659668D01*
X147471438Y-86676938D01*
X147454168Y-86692590D01*
X147435448Y-86706474D01*
X147415457Y-86718456D01*
X147394387Y-86728421D01*
X147372443Y-86736273D01*
X147349834Y-86741937D01*
X147326779Y-86745356D01*
X147303500Y-86746500D01*
X146828500Y-86746500D01*
X146805221Y-86745356D01*
X146782166Y-86741937D01*
X146759557Y-86736273D01*
X146737613Y-86728421D01*
X146716543Y-86718456D01*
X146696552Y-86706474D01*
X146677832Y-86692590D01*
X146660562Y-86676938D01*
X146644910Y-86659668D01*
X146631026Y-86640948D01*
X146619044Y-86620957D01*
X146609079Y-86599887D01*
X146601227Y-86577943D01*
X146595563Y-86555334D01*
X146592144Y-86532279D01*
X146591000Y-86509000D01*
X146591000Y-85934000D01*
X146592144Y-85910721D01*
X146595563Y-85887666D01*
X146601227Y-85865057D01*
X146609079Y-85843113D01*
X146619044Y-85822043D01*
X146631026Y-85802052D01*
X146644910Y-85783332D01*
X146660562Y-85766062D01*
X146677832Y-85750410D01*
X146696552Y-85736526D01*
X146716543Y-85724544D01*
X146737613Y-85714579D01*
X146759557Y-85706727D01*
X146782166Y-85701063D01*
X146805221Y-85697644D01*
X146828500Y-85696500D01*
X147303500Y-85696500D01*
X147326779Y-85697644D01*
X147326779Y-85697644D01*
G37*
D17*
X147066000Y-86221500D03*
D10*
G36*
X147326779Y-87447644D02*
X147349834Y-87451063D01*
X147372443Y-87456727D01*
X147394387Y-87464579D01*
X147415457Y-87474544D01*
X147435448Y-87486526D01*
X147454168Y-87500410D01*
X147471438Y-87516062D01*
X147487090Y-87533332D01*
X147500974Y-87552052D01*
X147512956Y-87572043D01*
X147522921Y-87593113D01*
X147530773Y-87615057D01*
X147536437Y-87637666D01*
X147539856Y-87660721D01*
X147541000Y-87684000D01*
X147541000Y-88259000D01*
X147539856Y-88282279D01*
X147536437Y-88305334D01*
X147530773Y-88327943D01*
X147522921Y-88349887D01*
X147512956Y-88370957D01*
X147500974Y-88390948D01*
X147487090Y-88409668D01*
X147471438Y-88426938D01*
X147454168Y-88442590D01*
X147435448Y-88456474D01*
X147415457Y-88468456D01*
X147394387Y-88478421D01*
X147372443Y-88486273D01*
X147349834Y-88491937D01*
X147326779Y-88495356D01*
X147303500Y-88496500D01*
X146828500Y-88496500D01*
X146805221Y-88495356D01*
X146782166Y-88491937D01*
X146759557Y-88486273D01*
X146737613Y-88478421D01*
X146716543Y-88468456D01*
X146696552Y-88456474D01*
X146677832Y-88442590D01*
X146660562Y-88426938D01*
X146644910Y-88409668D01*
X146631026Y-88390948D01*
X146619044Y-88370957D01*
X146609079Y-88349887D01*
X146601227Y-88327943D01*
X146595563Y-88305334D01*
X146592144Y-88282279D01*
X146591000Y-88259000D01*
X146591000Y-87684000D01*
X146592144Y-87660721D01*
X146595563Y-87637666D01*
X146601227Y-87615057D01*
X146609079Y-87593113D01*
X146619044Y-87572043D01*
X146631026Y-87552052D01*
X146644910Y-87533332D01*
X146660562Y-87516062D01*
X146677832Y-87500410D01*
X146696552Y-87486526D01*
X146716543Y-87474544D01*
X146737613Y-87464579D01*
X146759557Y-87456727D01*
X146782166Y-87451063D01*
X146805221Y-87447644D01*
X146828500Y-87446500D01*
X147303500Y-87446500D01*
X147326779Y-87447644D01*
X147326779Y-87447644D01*
G37*
D17*
X147066000Y-87971500D03*
G04 #@! TD*
D10*
G04 #@! TO.C,R9*
G36*
X144532779Y-73622144D02*
X144555834Y-73625563D01*
X144578443Y-73631227D01*
X144600387Y-73639079D01*
X144621457Y-73649044D01*
X144641448Y-73661026D01*
X144660168Y-73674910D01*
X144677438Y-73690562D01*
X144693090Y-73707832D01*
X144706974Y-73726552D01*
X144718956Y-73746543D01*
X144728921Y-73767613D01*
X144736773Y-73789557D01*
X144742437Y-73812166D01*
X144745856Y-73835221D01*
X144747000Y-73858500D01*
X144747000Y-74433500D01*
X144745856Y-74456779D01*
X144742437Y-74479834D01*
X144736773Y-74502443D01*
X144728921Y-74524387D01*
X144718956Y-74545457D01*
X144706974Y-74565448D01*
X144693090Y-74584168D01*
X144677438Y-74601438D01*
X144660168Y-74617090D01*
X144641448Y-74630974D01*
X144621457Y-74642956D01*
X144600387Y-74652921D01*
X144578443Y-74660773D01*
X144555834Y-74666437D01*
X144532779Y-74669856D01*
X144509500Y-74671000D01*
X144034500Y-74671000D01*
X144011221Y-74669856D01*
X143988166Y-74666437D01*
X143965557Y-74660773D01*
X143943613Y-74652921D01*
X143922543Y-74642956D01*
X143902552Y-74630974D01*
X143883832Y-74617090D01*
X143866562Y-74601438D01*
X143850910Y-74584168D01*
X143837026Y-74565448D01*
X143825044Y-74545457D01*
X143815079Y-74524387D01*
X143807227Y-74502443D01*
X143801563Y-74479834D01*
X143798144Y-74456779D01*
X143797000Y-74433500D01*
X143797000Y-73858500D01*
X143798144Y-73835221D01*
X143801563Y-73812166D01*
X143807227Y-73789557D01*
X143815079Y-73767613D01*
X143825044Y-73746543D01*
X143837026Y-73726552D01*
X143850910Y-73707832D01*
X143866562Y-73690562D01*
X143883832Y-73674910D01*
X143902552Y-73661026D01*
X143922543Y-73649044D01*
X143943613Y-73639079D01*
X143965557Y-73631227D01*
X143988166Y-73625563D01*
X144011221Y-73622144D01*
X144034500Y-73621000D01*
X144509500Y-73621000D01*
X144532779Y-73622144D01*
X144532779Y-73622144D01*
G37*
D17*
X144272000Y-74146000D03*
D10*
G36*
X144532779Y-75372144D02*
X144555834Y-75375563D01*
X144578443Y-75381227D01*
X144600387Y-75389079D01*
X144621457Y-75399044D01*
X144641448Y-75411026D01*
X144660168Y-75424910D01*
X144677438Y-75440562D01*
X144693090Y-75457832D01*
X144706974Y-75476552D01*
X144718956Y-75496543D01*
X144728921Y-75517613D01*
X144736773Y-75539557D01*
X144742437Y-75562166D01*
X144745856Y-75585221D01*
X144747000Y-75608500D01*
X144747000Y-76183500D01*
X144745856Y-76206779D01*
X144742437Y-76229834D01*
X144736773Y-76252443D01*
X144728921Y-76274387D01*
X144718956Y-76295457D01*
X144706974Y-76315448D01*
X144693090Y-76334168D01*
X144677438Y-76351438D01*
X144660168Y-76367090D01*
X144641448Y-76380974D01*
X144621457Y-76392956D01*
X144600387Y-76402921D01*
X144578443Y-76410773D01*
X144555834Y-76416437D01*
X144532779Y-76419856D01*
X144509500Y-76421000D01*
X144034500Y-76421000D01*
X144011221Y-76419856D01*
X143988166Y-76416437D01*
X143965557Y-76410773D01*
X143943613Y-76402921D01*
X143922543Y-76392956D01*
X143902552Y-76380974D01*
X143883832Y-76367090D01*
X143866562Y-76351438D01*
X143850910Y-76334168D01*
X143837026Y-76315448D01*
X143825044Y-76295457D01*
X143815079Y-76274387D01*
X143807227Y-76252443D01*
X143801563Y-76229834D01*
X143798144Y-76206779D01*
X143797000Y-76183500D01*
X143797000Y-75608500D01*
X143798144Y-75585221D01*
X143801563Y-75562166D01*
X143807227Y-75539557D01*
X143815079Y-75517613D01*
X143825044Y-75496543D01*
X143837026Y-75476552D01*
X143850910Y-75457832D01*
X143866562Y-75440562D01*
X143883832Y-75424910D01*
X143902552Y-75411026D01*
X143922543Y-75399044D01*
X143943613Y-75389079D01*
X143965557Y-75381227D01*
X143988166Y-75375563D01*
X144011221Y-75372144D01*
X144034500Y-75371000D01*
X144509500Y-75371000D01*
X144532779Y-75372144D01*
X144532779Y-75372144D01*
G37*
D17*
X144272000Y-75896000D03*
G04 #@! TD*
D10*
G04 #@! TO.C,R10*
G36*
X152914779Y-87447644D02*
X152937834Y-87451063D01*
X152960443Y-87456727D01*
X152982387Y-87464579D01*
X153003457Y-87474544D01*
X153023448Y-87486526D01*
X153042168Y-87500410D01*
X153059438Y-87516062D01*
X153075090Y-87533332D01*
X153088974Y-87552052D01*
X153100956Y-87572043D01*
X153110921Y-87593113D01*
X153118773Y-87615057D01*
X153124437Y-87637666D01*
X153127856Y-87660721D01*
X153129000Y-87684000D01*
X153129000Y-88259000D01*
X153127856Y-88282279D01*
X153124437Y-88305334D01*
X153118773Y-88327943D01*
X153110921Y-88349887D01*
X153100956Y-88370957D01*
X153088974Y-88390948D01*
X153075090Y-88409668D01*
X153059438Y-88426938D01*
X153042168Y-88442590D01*
X153023448Y-88456474D01*
X153003457Y-88468456D01*
X152982387Y-88478421D01*
X152960443Y-88486273D01*
X152937834Y-88491937D01*
X152914779Y-88495356D01*
X152891500Y-88496500D01*
X152416500Y-88496500D01*
X152393221Y-88495356D01*
X152370166Y-88491937D01*
X152347557Y-88486273D01*
X152325613Y-88478421D01*
X152304543Y-88468456D01*
X152284552Y-88456474D01*
X152265832Y-88442590D01*
X152248562Y-88426938D01*
X152232910Y-88409668D01*
X152219026Y-88390948D01*
X152207044Y-88370957D01*
X152197079Y-88349887D01*
X152189227Y-88327943D01*
X152183563Y-88305334D01*
X152180144Y-88282279D01*
X152179000Y-88259000D01*
X152179000Y-87684000D01*
X152180144Y-87660721D01*
X152183563Y-87637666D01*
X152189227Y-87615057D01*
X152197079Y-87593113D01*
X152207044Y-87572043D01*
X152219026Y-87552052D01*
X152232910Y-87533332D01*
X152248562Y-87516062D01*
X152265832Y-87500410D01*
X152284552Y-87486526D01*
X152304543Y-87474544D01*
X152325613Y-87464579D01*
X152347557Y-87456727D01*
X152370166Y-87451063D01*
X152393221Y-87447644D01*
X152416500Y-87446500D01*
X152891500Y-87446500D01*
X152914779Y-87447644D01*
X152914779Y-87447644D01*
G37*
D17*
X152654000Y-87971500D03*
D10*
G36*
X152914779Y-85697644D02*
X152937834Y-85701063D01*
X152960443Y-85706727D01*
X152982387Y-85714579D01*
X153003457Y-85724544D01*
X153023448Y-85736526D01*
X153042168Y-85750410D01*
X153059438Y-85766062D01*
X153075090Y-85783332D01*
X153088974Y-85802052D01*
X153100956Y-85822043D01*
X153110921Y-85843113D01*
X153118773Y-85865057D01*
X153124437Y-85887666D01*
X153127856Y-85910721D01*
X153129000Y-85934000D01*
X153129000Y-86509000D01*
X153127856Y-86532279D01*
X153124437Y-86555334D01*
X153118773Y-86577943D01*
X153110921Y-86599887D01*
X153100956Y-86620957D01*
X153088974Y-86640948D01*
X153075090Y-86659668D01*
X153059438Y-86676938D01*
X153042168Y-86692590D01*
X153023448Y-86706474D01*
X153003457Y-86718456D01*
X152982387Y-86728421D01*
X152960443Y-86736273D01*
X152937834Y-86741937D01*
X152914779Y-86745356D01*
X152891500Y-86746500D01*
X152416500Y-86746500D01*
X152393221Y-86745356D01*
X152370166Y-86741937D01*
X152347557Y-86736273D01*
X152325613Y-86728421D01*
X152304543Y-86718456D01*
X152284552Y-86706474D01*
X152265832Y-86692590D01*
X152248562Y-86676938D01*
X152232910Y-86659668D01*
X152219026Y-86640948D01*
X152207044Y-86620957D01*
X152197079Y-86599887D01*
X152189227Y-86577943D01*
X152183563Y-86555334D01*
X152180144Y-86532279D01*
X152179000Y-86509000D01*
X152179000Y-85934000D01*
X152180144Y-85910721D01*
X152183563Y-85887666D01*
X152189227Y-85865057D01*
X152197079Y-85843113D01*
X152207044Y-85822043D01*
X152219026Y-85802052D01*
X152232910Y-85783332D01*
X152248562Y-85766062D01*
X152265832Y-85750410D01*
X152284552Y-85736526D01*
X152304543Y-85724544D01*
X152325613Y-85714579D01*
X152347557Y-85706727D01*
X152370166Y-85701063D01*
X152393221Y-85697644D01*
X152416500Y-85696500D01*
X152891500Y-85696500D01*
X152914779Y-85697644D01*
X152914779Y-85697644D01*
G37*
D17*
X152654000Y-86221500D03*
G04 #@! TD*
D10*
G04 #@! TO.C,R11*
G36*
X150120779Y-87447644D02*
X150143834Y-87451063D01*
X150166443Y-87456727D01*
X150188387Y-87464579D01*
X150209457Y-87474544D01*
X150229448Y-87486526D01*
X150248168Y-87500410D01*
X150265438Y-87516062D01*
X150281090Y-87533332D01*
X150294974Y-87552052D01*
X150306956Y-87572043D01*
X150316921Y-87593113D01*
X150324773Y-87615057D01*
X150330437Y-87637666D01*
X150333856Y-87660721D01*
X150335000Y-87684000D01*
X150335000Y-88259000D01*
X150333856Y-88282279D01*
X150330437Y-88305334D01*
X150324773Y-88327943D01*
X150316921Y-88349887D01*
X150306956Y-88370957D01*
X150294974Y-88390948D01*
X150281090Y-88409668D01*
X150265438Y-88426938D01*
X150248168Y-88442590D01*
X150229448Y-88456474D01*
X150209457Y-88468456D01*
X150188387Y-88478421D01*
X150166443Y-88486273D01*
X150143834Y-88491937D01*
X150120779Y-88495356D01*
X150097500Y-88496500D01*
X149622500Y-88496500D01*
X149599221Y-88495356D01*
X149576166Y-88491937D01*
X149553557Y-88486273D01*
X149531613Y-88478421D01*
X149510543Y-88468456D01*
X149490552Y-88456474D01*
X149471832Y-88442590D01*
X149454562Y-88426938D01*
X149438910Y-88409668D01*
X149425026Y-88390948D01*
X149413044Y-88370957D01*
X149403079Y-88349887D01*
X149395227Y-88327943D01*
X149389563Y-88305334D01*
X149386144Y-88282279D01*
X149385000Y-88259000D01*
X149385000Y-87684000D01*
X149386144Y-87660721D01*
X149389563Y-87637666D01*
X149395227Y-87615057D01*
X149403079Y-87593113D01*
X149413044Y-87572043D01*
X149425026Y-87552052D01*
X149438910Y-87533332D01*
X149454562Y-87516062D01*
X149471832Y-87500410D01*
X149490552Y-87486526D01*
X149510543Y-87474544D01*
X149531613Y-87464579D01*
X149553557Y-87456727D01*
X149576166Y-87451063D01*
X149599221Y-87447644D01*
X149622500Y-87446500D01*
X150097500Y-87446500D01*
X150120779Y-87447644D01*
X150120779Y-87447644D01*
G37*
D17*
X149860000Y-87971500D03*
D10*
G36*
X150120779Y-85697644D02*
X150143834Y-85701063D01*
X150166443Y-85706727D01*
X150188387Y-85714579D01*
X150209457Y-85724544D01*
X150229448Y-85736526D01*
X150248168Y-85750410D01*
X150265438Y-85766062D01*
X150281090Y-85783332D01*
X150294974Y-85802052D01*
X150306956Y-85822043D01*
X150316921Y-85843113D01*
X150324773Y-85865057D01*
X150330437Y-85887666D01*
X150333856Y-85910721D01*
X150335000Y-85934000D01*
X150335000Y-86509000D01*
X150333856Y-86532279D01*
X150330437Y-86555334D01*
X150324773Y-86577943D01*
X150316921Y-86599887D01*
X150306956Y-86620957D01*
X150294974Y-86640948D01*
X150281090Y-86659668D01*
X150265438Y-86676938D01*
X150248168Y-86692590D01*
X150229448Y-86706474D01*
X150209457Y-86718456D01*
X150188387Y-86728421D01*
X150166443Y-86736273D01*
X150143834Y-86741937D01*
X150120779Y-86745356D01*
X150097500Y-86746500D01*
X149622500Y-86746500D01*
X149599221Y-86745356D01*
X149576166Y-86741937D01*
X149553557Y-86736273D01*
X149531613Y-86728421D01*
X149510543Y-86718456D01*
X149490552Y-86706474D01*
X149471832Y-86692590D01*
X149454562Y-86676938D01*
X149438910Y-86659668D01*
X149425026Y-86640948D01*
X149413044Y-86620957D01*
X149403079Y-86599887D01*
X149395227Y-86577943D01*
X149389563Y-86555334D01*
X149386144Y-86532279D01*
X149385000Y-86509000D01*
X149385000Y-85934000D01*
X149386144Y-85910721D01*
X149389563Y-85887666D01*
X149395227Y-85865057D01*
X149403079Y-85843113D01*
X149413044Y-85822043D01*
X149425026Y-85802052D01*
X149438910Y-85783332D01*
X149454562Y-85766062D01*
X149471832Y-85750410D01*
X149490552Y-85736526D01*
X149510543Y-85724544D01*
X149531613Y-85714579D01*
X149553557Y-85706727D01*
X149576166Y-85701063D01*
X149599221Y-85697644D01*
X149622500Y-85696500D01*
X150097500Y-85696500D01*
X150120779Y-85697644D01*
X150120779Y-85697644D01*
G37*
D17*
X149860000Y-86221500D03*
G04 #@! TD*
D10*
G04 #@! TO.C,R12*
G36*
X152914779Y-75372144D02*
X152937834Y-75375563D01*
X152960443Y-75381227D01*
X152982387Y-75389079D01*
X153003457Y-75399044D01*
X153023448Y-75411026D01*
X153042168Y-75424910D01*
X153059438Y-75440562D01*
X153075090Y-75457832D01*
X153088974Y-75476552D01*
X153100956Y-75496543D01*
X153110921Y-75517613D01*
X153118773Y-75539557D01*
X153124437Y-75562166D01*
X153127856Y-75585221D01*
X153129000Y-75608500D01*
X153129000Y-76183500D01*
X153127856Y-76206779D01*
X153124437Y-76229834D01*
X153118773Y-76252443D01*
X153110921Y-76274387D01*
X153100956Y-76295457D01*
X153088974Y-76315448D01*
X153075090Y-76334168D01*
X153059438Y-76351438D01*
X153042168Y-76367090D01*
X153023448Y-76380974D01*
X153003457Y-76392956D01*
X152982387Y-76402921D01*
X152960443Y-76410773D01*
X152937834Y-76416437D01*
X152914779Y-76419856D01*
X152891500Y-76421000D01*
X152416500Y-76421000D01*
X152393221Y-76419856D01*
X152370166Y-76416437D01*
X152347557Y-76410773D01*
X152325613Y-76402921D01*
X152304543Y-76392956D01*
X152284552Y-76380974D01*
X152265832Y-76367090D01*
X152248562Y-76351438D01*
X152232910Y-76334168D01*
X152219026Y-76315448D01*
X152207044Y-76295457D01*
X152197079Y-76274387D01*
X152189227Y-76252443D01*
X152183563Y-76229834D01*
X152180144Y-76206779D01*
X152179000Y-76183500D01*
X152179000Y-75608500D01*
X152180144Y-75585221D01*
X152183563Y-75562166D01*
X152189227Y-75539557D01*
X152197079Y-75517613D01*
X152207044Y-75496543D01*
X152219026Y-75476552D01*
X152232910Y-75457832D01*
X152248562Y-75440562D01*
X152265832Y-75424910D01*
X152284552Y-75411026D01*
X152304543Y-75399044D01*
X152325613Y-75389079D01*
X152347557Y-75381227D01*
X152370166Y-75375563D01*
X152393221Y-75372144D01*
X152416500Y-75371000D01*
X152891500Y-75371000D01*
X152914779Y-75372144D01*
X152914779Y-75372144D01*
G37*
D17*
X152654000Y-75896000D03*
D10*
G36*
X152914779Y-73622144D02*
X152937834Y-73625563D01*
X152960443Y-73631227D01*
X152982387Y-73639079D01*
X153003457Y-73649044D01*
X153023448Y-73661026D01*
X153042168Y-73674910D01*
X153059438Y-73690562D01*
X153075090Y-73707832D01*
X153088974Y-73726552D01*
X153100956Y-73746543D01*
X153110921Y-73767613D01*
X153118773Y-73789557D01*
X153124437Y-73812166D01*
X153127856Y-73835221D01*
X153129000Y-73858500D01*
X153129000Y-74433500D01*
X153127856Y-74456779D01*
X153124437Y-74479834D01*
X153118773Y-74502443D01*
X153110921Y-74524387D01*
X153100956Y-74545457D01*
X153088974Y-74565448D01*
X153075090Y-74584168D01*
X153059438Y-74601438D01*
X153042168Y-74617090D01*
X153023448Y-74630974D01*
X153003457Y-74642956D01*
X152982387Y-74652921D01*
X152960443Y-74660773D01*
X152937834Y-74666437D01*
X152914779Y-74669856D01*
X152891500Y-74671000D01*
X152416500Y-74671000D01*
X152393221Y-74669856D01*
X152370166Y-74666437D01*
X152347557Y-74660773D01*
X152325613Y-74652921D01*
X152304543Y-74642956D01*
X152284552Y-74630974D01*
X152265832Y-74617090D01*
X152248562Y-74601438D01*
X152232910Y-74584168D01*
X152219026Y-74565448D01*
X152207044Y-74545457D01*
X152197079Y-74524387D01*
X152189227Y-74502443D01*
X152183563Y-74479834D01*
X152180144Y-74456779D01*
X152179000Y-74433500D01*
X152179000Y-73858500D01*
X152180144Y-73835221D01*
X152183563Y-73812166D01*
X152189227Y-73789557D01*
X152197079Y-73767613D01*
X152207044Y-73746543D01*
X152219026Y-73726552D01*
X152232910Y-73707832D01*
X152248562Y-73690562D01*
X152265832Y-73674910D01*
X152284552Y-73661026D01*
X152304543Y-73649044D01*
X152325613Y-73639079D01*
X152347557Y-73631227D01*
X152370166Y-73625563D01*
X152393221Y-73622144D01*
X152416500Y-73621000D01*
X152891500Y-73621000D01*
X152914779Y-73622144D01*
X152914779Y-73622144D01*
G37*
D17*
X152654000Y-74146000D03*
G04 #@! TD*
D10*
G04 #@! TO.C,R13*
G36*
X150120779Y-75372144D02*
X150143834Y-75375563D01*
X150166443Y-75381227D01*
X150188387Y-75389079D01*
X150209457Y-75399044D01*
X150229448Y-75411026D01*
X150248168Y-75424910D01*
X150265438Y-75440562D01*
X150281090Y-75457832D01*
X150294974Y-75476552D01*
X150306956Y-75496543D01*
X150316921Y-75517613D01*
X150324773Y-75539557D01*
X150330437Y-75562166D01*
X150333856Y-75585221D01*
X150335000Y-75608500D01*
X150335000Y-76183500D01*
X150333856Y-76206779D01*
X150330437Y-76229834D01*
X150324773Y-76252443D01*
X150316921Y-76274387D01*
X150306956Y-76295457D01*
X150294974Y-76315448D01*
X150281090Y-76334168D01*
X150265438Y-76351438D01*
X150248168Y-76367090D01*
X150229448Y-76380974D01*
X150209457Y-76392956D01*
X150188387Y-76402921D01*
X150166443Y-76410773D01*
X150143834Y-76416437D01*
X150120779Y-76419856D01*
X150097500Y-76421000D01*
X149622500Y-76421000D01*
X149599221Y-76419856D01*
X149576166Y-76416437D01*
X149553557Y-76410773D01*
X149531613Y-76402921D01*
X149510543Y-76392956D01*
X149490552Y-76380974D01*
X149471832Y-76367090D01*
X149454562Y-76351438D01*
X149438910Y-76334168D01*
X149425026Y-76315448D01*
X149413044Y-76295457D01*
X149403079Y-76274387D01*
X149395227Y-76252443D01*
X149389563Y-76229834D01*
X149386144Y-76206779D01*
X149385000Y-76183500D01*
X149385000Y-75608500D01*
X149386144Y-75585221D01*
X149389563Y-75562166D01*
X149395227Y-75539557D01*
X149403079Y-75517613D01*
X149413044Y-75496543D01*
X149425026Y-75476552D01*
X149438910Y-75457832D01*
X149454562Y-75440562D01*
X149471832Y-75424910D01*
X149490552Y-75411026D01*
X149510543Y-75399044D01*
X149531613Y-75389079D01*
X149553557Y-75381227D01*
X149576166Y-75375563D01*
X149599221Y-75372144D01*
X149622500Y-75371000D01*
X150097500Y-75371000D01*
X150120779Y-75372144D01*
X150120779Y-75372144D01*
G37*
D17*
X149860000Y-75896000D03*
D10*
G36*
X150120779Y-73622144D02*
X150143834Y-73625563D01*
X150166443Y-73631227D01*
X150188387Y-73639079D01*
X150209457Y-73649044D01*
X150229448Y-73661026D01*
X150248168Y-73674910D01*
X150265438Y-73690562D01*
X150281090Y-73707832D01*
X150294974Y-73726552D01*
X150306956Y-73746543D01*
X150316921Y-73767613D01*
X150324773Y-73789557D01*
X150330437Y-73812166D01*
X150333856Y-73835221D01*
X150335000Y-73858500D01*
X150335000Y-74433500D01*
X150333856Y-74456779D01*
X150330437Y-74479834D01*
X150324773Y-74502443D01*
X150316921Y-74524387D01*
X150306956Y-74545457D01*
X150294974Y-74565448D01*
X150281090Y-74584168D01*
X150265438Y-74601438D01*
X150248168Y-74617090D01*
X150229448Y-74630974D01*
X150209457Y-74642956D01*
X150188387Y-74652921D01*
X150166443Y-74660773D01*
X150143834Y-74666437D01*
X150120779Y-74669856D01*
X150097500Y-74671000D01*
X149622500Y-74671000D01*
X149599221Y-74669856D01*
X149576166Y-74666437D01*
X149553557Y-74660773D01*
X149531613Y-74652921D01*
X149510543Y-74642956D01*
X149490552Y-74630974D01*
X149471832Y-74617090D01*
X149454562Y-74601438D01*
X149438910Y-74584168D01*
X149425026Y-74565448D01*
X149413044Y-74545457D01*
X149403079Y-74524387D01*
X149395227Y-74502443D01*
X149389563Y-74479834D01*
X149386144Y-74456779D01*
X149385000Y-74433500D01*
X149385000Y-73858500D01*
X149386144Y-73835221D01*
X149389563Y-73812166D01*
X149395227Y-73789557D01*
X149403079Y-73767613D01*
X149413044Y-73746543D01*
X149425026Y-73726552D01*
X149438910Y-73707832D01*
X149454562Y-73690562D01*
X149471832Y-73674910D01*
X149490552Y-73661026D01*
X149510543Y-73649044D01*
X149531613Y-73639079D01*
X149553557Y-73631227D01*
X149576166Y-73625563D01*
X149599221Y-73622144D01*
X149622500Y-73621000D01*
X150097500Y-73621000D01*
X150120779Y-73622144D01*
X150120779Y-73622144D01*
G37*
D17*
X149860000Y-74146000D03*
G04 #@! TD*
D10*
G04 #@! TO.C,R14*
G36*
X155708779Y-87447644D02*
X155731834Y-87451063D01*
X155754443Y-87456727D01*
X155776387Y-87464579D01*
X155797457Y-87474544D01*
X155817448Y-87486526D01*
X155836168Y-87500410D01*
X155853438Y-87516062D01*
X155869090Y-87533332D01*
X155882974Y-87552052D01*
X155894956Y-87572043D01*
X155904921Y-87593113D01*
X155912773Y-87615057D01*
X155918437Y-87637666D01*
X155921856Y-87660721D01*
X155923000Y-87684000D01*
X155923000Y-88259000D01*
X155921856Y-88282279D01*
X155918437Y-88305334D01*
X155912773Y-88327943D01*
X155904921Y-88349887D01*
X155894956Y-88370957D01*
X155882974Y-88390948D01*
X155869090Y-88409668D01*
X155853438Y-88426938D01*
X155836168Y-88442590D01*
X155817448Y-88456474D01*
X155797457Y-88468456D01*
X155776387Y-88478421D01*
X155754443Y-88486273D01*
X155731834Y-88491937D01*
X155708779Y-88495356D01*
X155685500Y-88496500D01*
X155210500Y-88496500D01*
X155187221Y-88495356D01*
X155164166Y-88491937D01*
X155141557Y-88486273D01*
X155119613Y-88478421D01*
X155098543Y-88468456D01*
X155078552Y-88456474D01*
X155059832Y-88442590D01*
X155042562Y-88426938D01*
X155026910Y-88409668D01*
X155013026Y-88390948D01*
X155001044Y-88370957D01*
X154991079Y-88349887D01*
X154983227Y-88327943D01*
X154977563Y-88305334D01*
X154974144Y-88282279D01*
X154973000Y-88259000D01*
X154973000Y-87684000D01*
X154974144Y-87660721D01*
X154977563Y-87637666D01*
X154983227Y-87615057D01*
X154991079Y-87593113D01*
X155001044Y-87572043D01*
X155013026Y-87552052D01*
X155026910Y-87533332D01*
X155042562Y-87516062D01*
X155059832Y-87500410D01*
X155078552Y-87486526D01*
X155098543Y-87474544D01*
X155119613Y-87464579D01*
X155141557Y-87456727D01*
X155164166Y-87451063D01*
X155187221Y-87447644D01*
X155210500Y-87446500D01*
X155685500Y-87446500D01*
X155708779Y-87447644D01*
X155708779Y-87447644D01*
G37*
D17*
X155448000Y-87971500D03*
D10*
G36*
X155708779Y-85697644D02*
X155731834Y-85701063D01*
X155754443Y-85706727D01*
X155776387Y-85714579D01*
X155797457Y-85724544D01*
X155817448Y-85736526D01*
X155836168Y-85750410D01*
X155853438Y-85766062D01*
X155869090Y-85783332D01*
X155882974Y-85802052D01*
X155894956Y-85822043D01*
X155904921Y-85843113D01*
X155912773Y-85865057D01*
X155918437Y-85887666D01*
X155921856Y-85910721D01*
X155923000Y-85934000D01*
X155923000Y-86509000D01*
X155921856Y-86532279D01*
X155918437Y-86555334D01*
X155912773Y-86577943D01*
X155904921Y-86599887D01*
X155894956Y-86620957D01*
X155882974Y-86640948D01*
X155869090Y-86659668D01*
X155853438Y-86676938D01*
X155836168Y-86692590D01*
X155817448Y-86706474D01*
X155797457Y-86718456D01*
X155776387Y-86728421D01*
X155754443Y-86736273D01*
X155731834Y-86741937D01*
X155708779Y-86745356D01*
X155685500Y-86746500D01*
X155210500Y-86746500D01*
X155187221Y-86745356D01*
X155164166Y-86741937D01*
X155141557Y-86736273D01*
X155119613Y-86728421D01*
X155098543Y-86718456D01*
X155078552Y-86706474D01*
X155059832Y-86692590D01*
X155042562Y-86676938D01*
X155026910Y-86659668D01*
X155013026Y-86640948D01*
X155001044Y-86620957D01*
X154991079Y-86599887D01*
X154983227Y-86577943D01*
X154977563Y-86555334D01*
X154974144Y-86532279D01*
X154973000Y-86509000D01*
X154973000Y-85934000D01*
X154974144Y-85910721D01*
X154977563Y-85887666D01*
X154983227Y-85865057D01*
X154991079Y-85843113D01*
X155001044Y-85822043D01*
X155013026Y-85802052D01*
X155026910Y-85783332D01*
X155042562Y-85766062D01*
X155059832Y-85750410D01*
X155078552Y-85736526D01*
X155098543Y-85724544D01*
X155119613Y-85714579D01*
X155141557Y-85706727D01*
X155164166Y-85701063D01*
X155187221Y-85697644D01*
X155210500Y-85696500D01*
X155685500Y-85696500D01*
X155708779Y-85697644D01*
X155708779Y-85697644D01*
G37*
D17*
X155448000Y-86221500D03*
G04 #@! TD*
D10*
G04 #@! TO.C,R15*
G36*
X155708779Y-75372144D02*
X155731834Y-75375563D01*
X155754443Y-75381227D01*
X155776387Y-75389079D01*
X155797457Y-75399044D01*
X155817448Y-75411026D01*
X155836168Y-75424910D01*
X155853438Y-75440562D01*
X155869090Y-75457832D01*
X155882974Y-75476552D01*
X155894956Y-75496543D01*
X155904921Y-75517613D01*
X155912773Y-75539557D01*
X155918437Y-75562166D01*
X155921856Y-75585221D01*
X155923000Y-75608500D01*
X155923000Y-76183500D01*
X155921856Y-76206779D01*
X155918437Y-76229834D01*
X155912773Y-76252443D01*
X155904921Y-76274387D01*
X155894956Y-76295457D01*
X155882974Y-76315448D01*
X155869090Y-76334168D01*
X155853438Y-76351438D01*
X155836168Y-76367090D01*
X155817448Y-76380974D01*
X155797457Y-76392956D01*
X155776387Y-76402921D01*
X155754443Y-76410773D01*
X155731834Y-76416437D01*
X155708779Y-76419856D01*
X155685500Y-76421000D01*
X155210500Y-76421000D01*
X155187221Y-76419856D01*
X155164166Y-76416437D01*
X155141557Y-76410773D01*
X155119613Y-76402921D01*
X155098543Y-76392956D01*
X155078552Y-76380974D01*
X155059832Y-76367090D01*
X155042562Y-76351438D01*
X155026910Y-76334168D01*
X155013026Y-76315448D01*
X155001044Y-76295457D01*
X154991079Y-76274387D01*
X154983227Y-76252443D01*
X154977563Y-76229834D01*
X154974144Y-76206779D01*
X154973000Y-76183500D01*
X154973000Y-75608500D01*
X154974144Y-75585221D01*
X154977563Y-75562166D01*
X154983227Y-75539557D01*
X154991079Y-75517613D01*
X155001044Y-75496543D01*
X155013026Y-75476552D01*
X155026910Y-75457832D01*
X155042562Y-75440562D01*
X155059832Y-75424910D01*
X155078552Y-75411026D01*
X155098543Y-75399044D01*
X155119613Y-75389079D01*
X155141557Y-75381227D01*
X155164166Y-75375563D01*
X155187221Y-75372144D01*
X155210500Y-75371000D01*
X155685500Y-75371000D01*
X155708779Y-75372144D01*
X155708779Y-75372144D01*
G37*
D17*
X155448000Y-75896000D03*
D10*
G36*
X155708779Y-73622144D02*
X155731834Y-73625563D01*
X155754443Y-73631227D01*
X155776387Y-73639079D01*
X155797457Y-73649044D01*
X155817448Y-73661026D01*
X155836168Y-73674910D01*
X155853438Y-73690562D01*
X155869090Y-73707832D01*
X155882974Y-73726552D01*
X155894956Y-73746543D01*
X155904921Y-73767613D01*
X155912773Y-73789557D01*
X155918437Y-73812166D01*
X155921856Y-73835221D01*
X155923000Y-73858500D01*
X155923000Y-74433500D01*
X155921856Y-74456779D01*
X155918437Y-74479834D01*
X155912773Y-74502443D01*
X155904921Y-74524387D01*
X155894956Y-74545457D01*
X155882974Y-74565448D01*
X155869090Y-74584168D01*
X155853438Y-74601438D01*
X155836168Y-74617090D01*
X155817448Y-74630974D01*
X155797457Y-74642956D01*
X155776387Y-74652921D01*
X155754443Y-74660773D01*
X155731834Y-74666437D01*
X155708779Y-74669856D01*
X155685500Y-74671000D01*
X155210500Y-74671000D01*
X155187221Y-74669856D01*
X155164166Y-74666437D01*
X155141557Y-74660773D01*
X155119613Y-74652921D01*
X155098543Y-74642956D01*
X155078552Y-74630974D01*
X155059832Y-74617090D01*
X155042562Y-74601438D01*
X155026910Y-74584168D01*
X155013026Y-74565448D01*
X155001044Y-74545457D01*
X154991079Y-74524387D01*
X154983227Y-74502443D01*
X154977563Y-74479834D01*
X154974144Y-74456779D01*
X154973000Y-74433500D01*
X154973000Y-73858500D01*
X154974144Y-73835221D01*
X154977563Y-73812166D01*
X154983227Y-73789557D01*
X154991079Y-73767613D01*
X155001044Y-73746543D01*
X155013026Y-73726552D01*
X155026910Y-73707832D01*
X155042562Y-73690562D01*
X155059832Y-73674910D01*
X155078552Y-73661026D01*
X155098543Y-73649044D01*
X155119613Y-73639079D01*
X155141557Y-73631227D01*
X155164166Y-73625563D01*
X155187221Y-73622144D01*
X155210500Y-73621000D01*
X155685500Y-73621000D01*
X155708779Y-73622144D01*
X155708779Y-73622144D01*
G37*
D17*
X155448000Y-74146000D03*
G04 #@! TD*
D18*
G04 #@! TO.C,U1*
X153543000Y-78326000D03*
X152273000Y-78326000D03*
X151003000Y-78326000D03*
X149733000Y-78326000D03*
X149733000Y-83726000D03*
X151003000Y-83726000D03*
X152273000Y-83726000D03*
X153543000Y-83726000D03*
G04 #@! TD*
D12*
G04 #@! TO.C,REF\002A\002A*
X170942000Y-92906000D03*
G04 #@! TD*
M02*
