M48
;DRILL file {KiCad (5.0.1)-3} date 3/18/2020 10:13:20 PM
;FORMAT={-:-/ absolute / inch / decimal}
FMAT,2
INCH,TZ
T1C0.0157
T2C0.0374
%
G90
G05
M72
T1
X4.97Y-2.95
X4.97Y-3.0287
X4.97Y-3.1075
X4.97Y-3.1862
X4.97Y-3.265
X4.97Y-3.3437
X4.97Y-3.4224
X5.48Y-2.93
X5.48Y-3.38
X5.95Y-2.82
X5.95Y-3.57
X6.17Y-3.16
X6.19Y-3.22
X6.25Y-3.3
X6.3Y-3.3
X6.34Y-3.06
X6.35Y-3.3
X6.6Y-3.51
X6.78Y-2.95
X6.78Y-3.0287
X6.78Y-3.1075
X6.78Y-3.1862
X6.78Y-3.265
X6.78Y-3.3437
X6.78Y-3.4224
T2
X6.14Y-2.7
X6.2384Y-2.7
X6.3369Y-2.7
X6.4353Y-2.7
X6.14Y-3.64
X6.2384Y-3.64
X6.3369Y-3.64
X6.4353Y-3.64
X5.35Y-3.64
X5.4484Y-3.64
X5.5469Y-3.64
X5.35Y-2.7
X5.4484Y-2.7
X5.5469Y-2.7
T0
M30
