G04 #@! TF.GenerationSoftware,KiCad,Pcbnew,(5.0.1)-3*
G04 #@! TF.CreationDate,2020-03-18T22:13:11-04:00*
G04 #@! TF.ProjectId,viparspectra-adapter,7669706172737065637472612D616461,rev?*
G04 #@! TF.SameCoordinates,Original*
G04 #@! TF.FileFunction,Soldermask,Bot*
G04 #@! TF.FilePolarity,Negative*
%FSLAX46Y46*%
G04 Gerber Fmt 4.6, Leading zero omitted, Abs format (unit mm)*
G04 Created by KiCad (PCBNEW (5.0.1)-3) date 3/18/2020 10:13:11 PM*
%MOMM*%
%LPD*%
G01*
G04 APERTURE LIST*
%ADD10C,3.200000*%
%ADD11C,0.100000*%
%ADD12C,1.700000*%
%ADD13O,1.700000X1.950000*%
G04 APERTURE END LIST*
D10*
G04 #@! TO.C,REF\002A\002A*
X170942000Y-69180000D03*
G04 #@! TD*
G04 #@! TO.C,REF\002A\002A*
X128016000Y-69180000D03*
G04 #@! TD*
G04 #@! TO.C,REF\002A\002A*
X128016000Y-92906000D03*
G04 #@! TD*
D11*
G04 #@! TO.C,J1*
G36*
X136514504Y-67606204D02*
X136538773Y-67609804D01*
X136562571Y-67615765D01*
X136585671Y-67624030D01*
X136607849Y-67634520D01*
X136628893Y-67647133D01*
X136648598Y-67661747D01*
X136666777Y-67678223D01*
X136683253Y-67696402D01*
X136697867Y-67716107D01*
X136710480Y-67737151D01*
X136720970Y-67759329D01*
X136729235Y-67782429D01*
X136735196Y-67806227D01*
X136738796Y-67830496D01*
X136740000Y-67855000D01*
X136740000Y-69305000D01*
X136738796Y-69329504D01*
X136735196Y-69353773D01*
X136729235Y-69377571D01*
X136720970Y-69400671D01*
X136710480Y-69422849D01*
X136697867Y-69443893D01*
X136683253Y-69463598D01*
X136666777Y-69481777D01*
X136648598Y-69498253D01*
X136628893Y-69512867D01*
X136607849Y-69525480D01*
X136585671Y-69535970D01*
X136562571Y-69544235D01*
X136538773Y-69550196D01*
X136514504Y-69553796D01*
X136490000Y-69555000D01*
X135290000Y-69555000D01*
X135265496Y-69553796D01*
X135241227Y-69550196D01*
X135217429Y-69544235D01*
X135194329Y-69535970D01*
X135172151Y-69525480D01*
X135151107Y-69512867D01*
X135131402Y-69498253D01*
X135113223Y-69481777D01*
X135096747Y-69463598D01*
X135082133Y-69443893D01*
X135069520Y-69422849D01*
X135059030Y-69400671D01*
X135050765Y-69377571D01*
X135044804Y-69353773D01*
X135041204Y-69329504D01*
X135040000Y-69305000D01*
X135040000Y-67855000D01*
X135041204Y-67830496D01*
X135044804Y-67806227D01*
X135050765Y-67782429D01*
X135059030Y-67759329D01*
X135069520Y-67737151D01*
X135082133Y-67716107D01*
X135096747Y-67696402D01*
X135113223Y-67678223D01*
X135131402Y-67661747D01*
X135151107Y-67647133D01*
X135172151Y-67634520D01*
X135194329Y-67624030D01*
X135217429Y-67615765D01*
X135241227Y-67609804D01*
X135265496Y-67606204D01*
X135290000Y-67605000D01*
X136490000Y-67605000D01*
X136514504Y-67606204D01*
X136514504Y-67606204D01*
G37*
D12*
X135890000Y-68580000D03*
D13*
X138390000Y-68580000D03*
X140890000Y-68580000D03*
G04 #@! TD*
G04 #@! TO.C,J2*
X140890000Y-92456000D03*
X138390000Y-92456000D03*
D11*
G36*
X136514504Y-91482204D02*
X136538773Y-91485804D01*
X136562571Y-91491765D01*
X136585671Y-91500030D01*
X136607849Y-91510520D01*
X136628893Y-91523133D01*
X136648598Y-91537747D01*
X136666777Y-91554223D01*
X136683253Y-91572402D01*
X136697867Y-91592107D01*
X136710480Y-91613151D01*
X136720970Y-91635329D01*
X136729235Y-91658429D01*
X136735196Y-91682227D01*
X136738796Y-91706496D01*
X136740000Y-91731000D01*
X136740000Y-93181000D01*
X136738796Y-93205504D01*
X136735196Y-93229773D01*
X136729235Y-93253571D01*
X136720970Y-93276671D01*
X136710480Y-93298849D01*
X136697867Y-93319893D01*
X136683253Y-93339598D01*
X136666777Y-93357777D01*
X136648598Y-93374253D01*
X136628893Y-93388867D01*
X136607849Y-93401480D01*
X136585671Y-93411970D01*
X136562571Y-93420235D01*
X136538773Y-93426196D01*
X136514504Y-93429796D01*
X136490000Y-93431000D01*
X135290000Y-93431000D01*
X135265496Y-93429796D01*
X135241227Y-93426196D01*
X135217429Y-93420235D01*
X135194329Y-93411970D01*
X135172151Y-93401480D01*
X135151107Y-93388867D01*
X135131402Y-93374253D01*
X135113223Y-93357777D01*
X135096747Y-93339598D01*
X135082133Y-93319893D01*
X135069520Y-93298849D01*
X135059030Y-93276671D01*
X135050765Y-93253571D01*
X135044804Y-93229773D01*
X135041204Y-93205504D01*
X135040000Y-93181000D01*
X135040000Y-91731000D01*
X135041204Y-91706496D01*
X135044804Y-91682227D01*
X135050765Y-91658429D01*
X135059030Y-91635329D01*
X135069520Y-91613151D01*
X135082133Y-91592107D01*
X135096747Y-91572402D01*
X135113223Y-91554223D01*
X135131402Y-91537747D01*
X135151107Y-91523133D01*
X135172151Y-91510520D01*
X135194329Y-91500030D01*
X135217429Y-91491765D01*
X135241227Y-91485804D01*
X135265496Y-91482204D01*
X135290000Y-91481000D01*
X136490000Y-91481000D01*
X136514504Y-91482204D01*
X136514504Y-91482204D01*
G37*
D12*
X135890000Y-92456000D03*
G04 #@! TD*
D13*
G04 #@! TO.C,J5*
X163456000Y-68580000D03*
X160956000Y-68580000D03*
X158456000Y-68580000D03*
D11*
G36*
X156580504Y-67606204D02*
X156604773Y-67609804D01*
X156628571Y-67615765D01*
X156651671Y-67624030D01*
X156673849Y-67634520D01*
X156694893Y-67647133D01*
X156714598Y-67661747D01*
X156732777Y-67678223D01*
X156749253Y-67696402D01*
X156763867Y-67716107D01*
X156776480Y-67737151D01*
X156786970Y-67759329D01*
X156795235Y-67782429D01*
X156801196Y-67806227D01*
X156804796Y-67830496D01*
X156806000Y-67855000D01*
X156806000Y-69305000D01*
X156804796Y-69329504D01*
X156801196Y-69353773D01*
X156795235Y-69377571D01*
X156786970Y-69400671D01*
X156776480Y-69422849D01*
X156763867Y-69443893D01*
X156749253Y-69463598D01*
X156732777Y-69481777D01*
X156714598Y-69498253D01*
X156694893Y-69512867D01*
X156673849Y-69525480D01*
X156651671Y-69535970D01*
X156628571Y-69544235D01*
X156604773Y-69550196D01*
X156580504Y-69553796D01*
X156556000Y-69555000D01*
X155356000Y-69555000D01*
X155331496Y-69553796D01*
X155307227Y-69550196D01*
X155283429Y-69544235D01*
X155260329Y-69535970D01*
X155238151Y-69525480D01*
X155217107Y-69512867D01*
X155197402Y-69498253D01*
X155179223Y-69481777D01*
X155162747Y-69463598D01*
X155148133Y-69443893D01*
X155135520Y-69422849D01*
X155125030Y-69400671D01*
X155116765Y-69377571D01*
X155110804Y-69353773D01*
X155107204Y-69329504D01*
X155106000Y-69305000D01*
X155106000Y-67855000D01*
X155107204Y-67830496D01*
X155110804Y-67806227D01*
X155116765Y-67782429D01*
X155125030Y-67759329D01*
X155135520Y-67737151D01*
X155148133Y-67716107D01*
X155162747Y-67696402D01*
X155179223Y-67678223D01*
X155197402Y-67661747D01*
X155217107Y-67647133D01*
X155238151Y-67634520D01*
X155260329Y-67624030D01*
X155283429Y-67615765D01*
X155307227Y-67609804D01*
X155331496Y-67606204D01*
X155356000Y-67605000D01*
X156556000Y-67605000D01*
X156580504Y-67606204D01*
X156580504Y-67606204D01*
G37*
D12*
X155956000Y-68580000D03*
G04 #@! TD*
D11*
G04 #@! TO.C,J6*
G36*
X156580504Y-91482204D02*
X156604773Y-91485804D01*
X156628571Y-91491765D01*
X156651671Y-91500030D01*
X156673849Y-91510520D01*
X156694893Y-91523133D01*
X156714598Y-91537747D01*
X156732777Y-91554223D01*
X156749253Y-91572402D01*
X156763867Y-91592107D01*
X156776480Y-91613151D01*
X156786970Y-91635329D01*
X156795235Y-91658429D01*
X156801196Y-91682227D01*
X156804796Y-91706496D01*
X156806000Y-91731000D01*
X156806000Y-93181000D01*
X156804796Y-93205504D01*
X156801196Y-93229773D01*
X156795235Y-93253571D01*
X156786970Y-93276671D01*
X156776480Y-93298849D01*
X156763867Y-93319893D01*
X156749253Y-93339598D01*
X156732777Y-93357777D01*
X156714598Y-93374253D01*
X156694893Y-93388867D01*
X156673849Y-93401480D01*
X156651671Y-93411970D01*
X156628571Y-93420235D01*
X156604773Y-93426196D01*
X156580504Y-93429796D01*
X156556000Y-93431000D01*
X155356000Y-93431000D01*
X155331496Y-93429796D01*
X155307227Y-93426196D01*
X155283429Y-93420235D01*
X155260329Y-93411970D01*
X155238151Y-93401480D01*
X155217107Y-93388867D01*
X155197402Y-93374253D01*
X155179223Y-93357777D01*
X155162747Y-93339598D01*
X155148133Y-93319893D01*
X155135520Y-93298849D01*
X155125030Y-93276671D01*
X155116765Y-93253571D01*
X155110804Y-93229773D01*
X155107204Y-93205504D01*
X155106000Y-93181000D01*
X155106000Y-91731000D01*
X155107204Y-91706496D01*
X155110804Y-91682227D01*
X155116765Y-91658429D01*
X155125030Y-91635329D01*
X155135520Y-91613151D01*
X155148133Y-91592107D01*
X155162747Y-91572402D01*
X155179223Y-91554223D01*
X155197402Y-91537747D01*
X155217107Y-91523133D01*
X155238151Y-91510520D01*
X155260329Y-91500030D01*
X155283429Y-91491765D01*
X155307227Y-91485804D01*
X155331496Y-91482204D01*
X155356000Y-91481000D01*
X156556000Y-91481000D01*
X156580504Y-91482204D01*
X156580504Y-91482204D01*
G37*
D12*
X155956000Y-92456000D03*
D13*
X158456000Y-92456000D03*
X160956000Y-92456000D03*
X163456000Y-92456000D03*
G04 #@! TD*
D10*
G04 #@! TO.C,REF\002A\002A*
X170942000Y-92906000D03*
G04 #@! TD*
M02*
