G04 #@! TF.GenerationSoftware,KiCad,Pcbnew,(5.0.1)-3*
G04 #@! TF.CreationDate,2020-03-18T22:13:10-04:00*
G04 #@! TF.ProjectId,viparspectra-adapter,7669706172737065637472612D616461,rev?*
G04 #@! TF.SameCoordinates,Original*
G04 #@! TF.FileFunction,Legend,Bot*
G04 #@! TF.FilePolarity,Positive*
%FSLAX46Y46*%
G04 Gerber Fmt 4.6, Leading zero omitted, Abs format (unit mm)*
G04 Created by KiCad (PCBNEW (5.0.1)-3) date 3/18/2020 10:13:11 PM*
%MOMM*%
%LPD*%
G01*
G04 APERTURE LIST*
%ADD10C,0.300000*%
%ADD11C,0.200000*%
%ADD12C,0.010000*%
G04 APERTURE END LIST*
D10*
X132026857Y-79569428D02*
X132026857Y-78355142D01*
X131955428Y-78212285D01*
X131884000Y-78140857D01*
X131741142Y-78069428D01*
X131526857Y-78069428D01*
X131384000Y-78140857D01*
X132026857Y-78640857D02*
X131884000Y-78569428D01*
X131598285Y-78569428D01*
X131455428Y-78640857D01*
X131384000Y-78712285D01*
X131312571Y-78855142D01*
X131312571Y-79283714D01*
X131384000Y-79426571D01*
X131455428Y-79498000D01*
X131598285Y-79569428D01*
X131884000Y-79569428D01*
X132026857Y-79498000D01*
X132741142Y-78569428D02*
X132741142Y-79569428D01*
X132741142Y-80069428D02*
X132669714Y-79998000D01*
X132741142Y-79926571D01*
X132812571Y-79998000D01*
X132741142Y-80069428D01*
X132741142Y-79926571D01*
X133241142Y-79569428D02*
X133812571Y-79569428D01*
X133455428Y-80069428D02*
X133455428Y-78783714D01*
X133526857Y-78640857D01*
X133669714Y-78569428D01*
X133812571Y-78569428D01*
X134312571Y-78569428D02*
X134312571Y-80069428D01*
X134955428Y-78569428D02*
X134955428Y-79355142D01*
X134884000Y-79498000D01*
X134741142Y-79569428D01*
X134526857Y-79569428D01*
X134384000Y-79498000D01*
X134312571Y-79426571D01*
X136312571Y-79569428D02*
X136312571Y-78569428D01*
X135669714Y-79569428D02*
X135669714Y-78783714D01*
X135741142Y-78640857D01*
X135884000Y-78569428D01*
X136098285Y-78569428D01*
X136241142Y-78640857D01*
X136312571Y-78712285D01*
X137026857Y-78569428D02*
X137026857Y-80069428D01*
X137026857Y-79498000D02*
X137169714Y-79569428D01*
X137455428Y-79569428D01*
X137598285Y-79498000D01*
X137669714Y-79426571D01*
X137741142Y-79283714D01*
X137741142Y-78855142D01*
X137669714Y-78712285D01*
X137598285Y-78640857D01*
X137455428Y-78569428D01*
X137169714Y-78569428D01*
X137026857Y-78640857D01*
X138384000Y-78712285D02*
X138455428Y-78640857D01*
X138384000Y-78569428D01*
X138312571Y-78640857D01*
X138384000Y-78712285D01*
X138384000Y-78569428D01*
X139741142Y-78640857D02*
X139598285Y-78569428D01*
X139312571Y-78569428D01*
X139169714Y-78640857D01*
X139098285Y-78712285D01*
X139026857Y-78855142D01*
X139026857Y-79283714D01*
X139098285Y-79426571D01*
X139169714Y-79498000D01*
X139312571Y-79569428D01*
X139598285Y-79569428D01*
X139741142Y-79498000D01*
X140598285Y-78569428D02*
X140455428Y-78640857D01*
X140384000Y-78712285D01*
X140312571Y-78855142D01*
X140312571Y-79283714D01*
X140384000Y-79426571D01*
X140455428Y-79498000D01*
X140598285Y-79569428D01*
X140812571Y-79569428D01*
X140955428Y-79498000D01*
X141026857Y-79426571D01*
X141098285Y-79283714D01*
X141098285Y-78855142D01*
X141026857Y-78712285D01*
X140955428Y-78640857D01*
X140812571Y-78569428D01*
X140598285Y-78569428D01*
X141741142Y-78569428D02*
X141741142Y-79569428D01*
X141741142Y-79426571D02*
X141812571Y-79498000D01*
X141955428Y-79569428D01*
X142169714Y-79569428D01*
X142312571Y-79498000D01*
X142384000Y-79355142D01*
X142384000Y-78569428D01*
X142384000Y-79355142D02*
X142455428Y-79498000D01*
X142598285Y-79569428D01*
X142812571Y-79569428D01*
X142955428Y-79498000D01*
X143026857Y-79355142D01*
X143026857Y-78569428D01*
X144812571Y-80140857D02*
X143526857Y-78212285D01*
X145312571Y-78569428D02*
X145312571Y-79569428D01*
X145312571Y-79283714D02*
X145384000Y-79426571D01*
X145455428Y-79498000D01*
X145598285Y-79569428D01*
X145741142Y-79569428D01*
X146884000Y-78569428D02*
X146884000Y-79355142D01*
X146812571Y-79498000D01*
X146669714Y-79569428D01*
X146384000Y-79569428D01*
X146241142Y-79498000D01*
X146884000Y-78640857D02*
X146741142Y-78569428D01*
X146384000Y-78569428D01*
X146241142Y-78640857D01*
X146169714Y-78783714D01*
X146169714Y-78926571D01*
X146241142Y-79069428D01*
X146384000Y-79140857D01*
X146741142Y-79140857D01*
X146884000Y-79212285D01*
X147598285Y-79569428D02*
X147598285Y-78569428D01*
X147598285Y-79426571D02*
X147669714Y-79498000D01*
X147812571Y-79569428D01*
X148026857Y-79569428D01*
X148169714Y-79498000D01*
X148241142Y-79355142D01*
X148241142Y-78569428D01*
X148741142Y-79569428D02*
X149312571Y-79569428D01*
X148955428Y-80069428D02*
X148955428Y-78783714D01*
X149026857Y-78640857D01*
X149169714Y-78569428D01*
X149312571Y-78569428D01*
X149812571Y-78569428D02*
X149812571Y-80069428D01*
X150455428Y-78569428D02*
X150455428Y-79355142D01*
X150384000Y-79498000D01*
X150241142Y-79569428D01*
X150026857Y-79569428D01*
X149884000Y-79498000D01*
X149812571Y-79426571D01*
X151812571Y-78569428D02*
X151812571Y-79355142D01*
X151741142Y-79498000D01*
X151598285Y-79569428D01*
X151312571Y-79569428D01*
X151169714Y-79498000D01*
X151812571Y-78640857D02*
X151669714Y-78569428D01*
X151312571Y-78569428D01*
X151169714Y-78640857D01*
X151098285Y-78783714D01*
X151098285Y-78926571D01*
X151169714Y-79069428D01*
X151312571Y-79140857D01*
X151669714Y-79140857D01*
X151812571Y-79212285D01*
X152741142Y-78569428D02*
X152598285Y-78640857D01*
X152526857Y-78783714D01*
X152526857Y-80069428D01*
X153312571Y-78569428D02*
X153312571Y-79569428D01*
X153312571Y-80069428D02*
X153241142Y-79998000D01*
X153312571Y-79926571D01*
X153384000Y-79998000D01*
X153312571Y-80069428D01*
X153312571Y-79926571D01*
X154241142Y-78569428D02*
X154098285Y-78640857D01*
X154026857Y-78712285D01*
X153955428Y-78855142D01*
X153955428Y-79283714D01*
X154026857Y-79426571D01*
X154098285Y-79498000D01*
X154241142Y-79569428D01*
X154455428Y-79569428D01*
X154598285Y-79498000D01*
X154669714Y-79426571D01*
X154741142Y-79283714D01*
X154741142Y-78855142D01*
X154669714Y-78712285D01*
X154598285Y-78640857D01*
X154455428Y-78569428D01*
X154241142Y-78569428D01*
X155384000Y-79569428D02*
X155384000Y-78569428D01*
X155384000Y-79426571D02*
X155455428Y-79498000D01*
X155598285Y-79569428D01*
X155812571Y-79569428D01*
X155955428Y-79498000D01*
X156026857Y-79355142D01*
X156026857Y-78569428D01*
X157812571Y-80140857D02*
X156526857Y-78212285D01*
X158169714Y-79569428D02*
X158526857Y-78569428D01*
X158884000Y-79569428D01*
X159455428Y-78569428D02*
X159455428Y-79569428D01*
X159455428Y-80069428D02*
X159384000Y-79998000D01*
X159455428Y-79926571D01*
X159526857Y-79998000D01*
X159455428Y-80069428D01*
X159455428Y-79926571D01*
X160169714Y-79569428D02*
X160169714Y-78069428D01*
X160169714Y-79498000D02*
X160312571Y-79569428D01*
X160598285Y-79569428D01*
X160741142Y-79498000D01*
X160812571Y-79426571D01*
X160884000Y-79283714D01*
X160884000Y-78855142D01*
X160812571Y-78712285D01*
X160741142Y-78640857D01*
X160598285Y-78569428D01*
X160312571Y-78569428D01*
X160169714Y-78640857D01*
X162169714Y-78569428D02*
X162169714Y-79355142D01*
X162098285Y-79498000D01*
X161955428Y-79569428D01*
X161669714Y-79569428D01*
X161526857Y-79498000D01*
X162169714Y-78640857D02*
X162026857Y-78569428D01*
X161669714Y-78569428D01*
X161526857Y-78640857D01*
X161455428Y-78783714D01*
X161455428Y-78926571D01*
X161526857Y-79069428D01*
X161669714Y-79140857D01*
X162026857Y-79140857D01*
X162169714Y-79212285D01*
X162884000Y-78569428D02*
X162884000Y-79569428D01*
X162884000Y-79283714D02*
X162955428Y-79426571D01*
X163026857Y-79498000D01*
X163169714Y-79569428D01*
X163312571Y-79569428D01*
X163741142Y-78640857D02*
X163884000Y-78569428D01*
X164169714Y-78569428D01*
X164312571Y-78640857D01*
X164384000Y-78783714D01*
X164384000Y-78855142D01*
X164312571Y-78998000D01*
X164169714Y-79069428D01*
X163955428Y-79069428D01*
X163812571Y-79140857D01*
X163741142Y-79283714D01*
X163741142Y-79355142D01*
X163812571Y-79498000D01*
X163955428Y-79569428D01*
X164169714Y-79569428D01*
X164312571Y-79498000D01*
X165026857Y-79569428D02*
X165026857Y-78069428D01*
X165026857Y-79498000D02*
X165169714Y-79569428D01*
X165455428Y-79569428D01*
X165598285Y-79498000D01*
X165669714Y-79426571D01*
X165741142Y-79283714D01*
X165741142Y-78855142D01*
X165669714Y-78712285D01*
X165598285Y-78640857D01*
X165455428Y-78569428D01*
X165169714Y-78569428D01*
X165026857Y-78640857D01*
X166955428Y-78640857D02*
X166812571Y-78569428D01*
X166526857Y-78569428D01*
X166384000Y-78640857D01*
X166312571Y-78783714D01*
X166312571Y-79355142D01*
X166384000Y-79498000D01*
X166526857Y-79569428D01*
X166812571Y-79569428D01*
X166955428Y-79498000D01*
X167026857Y-79355142D01*
X167026857Y-79212285D01*
X166312571Y-79069428D01*
X168312571Y-78640857D02*
X168169714Y-78569428D01*
X167884000Y-78569428D01*
X167741142Y-78640857D01*
X167669714Y-78712285D01*
X167598285Y-78855142D01*
X167598285Y-79283714D01*
X167669714Y-79426571D01*
X167741142Y-79498000D01*
X167884000Y-79569428D01*
X168169714Y-79569428D01*
X168312571Y-79498000D01*
X168741142Y-79569428D02*
X169312571Y-79569428D01*
X168955428Y-80069428D02*
X168955428Y-78783714D01*
X169026857Y-78640857D01*
X169169714Y-78569428D01*
X169312571Y-78569428D01*
X169812571Y-78569428D02*
X169812571Y-79569428D01*
X169812571Y-79283714D02*
X169884000Y-79426571D01*
X169955428Y-79498000D01*
X170098285Y-79569428D01*
X170241142Y-79569428D01*
X171384000Y-78569428D02*
X171384000Y-79355142D01*
X171312571Y-79498000D01*
X171169714Y-79569428D01*
X170884000Y-79569428D01*
X170741142Y-79498000D01*
X171384000Y-78640857D02*
X171241142Y-78569428D01*
X170884000Y-78569428D01*
X170741142Y-78640857D01*
X170669714Y-78783714D01*
X170669714Y-78926571D01*
X170741142Y-79069428D01*
X170884000Y-79140857D01*
X171241142Y-79140857D01*
X171384000Y-79212285D01*
X131140857Y-82863428D02*
X131640857Y-81363428D01*
X132140857Y-82863428D01*
X132640857Y-81363428D02*
X132640857Y-82363428D01*
X132640857Y-82863428D02*
X132569428Y-82792000D01*
X132640857Y-82720571D01*
X132712285Y-82792000D01*
X132640857Y-82863428D01*
X132640857Y-82720571D01*
X133355142Y-82363428D02*
X133355142Y-80863428D01*
X133355142Y-82292000D02*
X133498000Y-82363428D01*
X133783714Y-82363428D01*
X133926571Y-82292000D01*
X133998000Y-82220571D01*
X134069428Y-82077714D01*
X134069428Y-81649142D01*
X133998000Y-81506285D01*
X133926571Y-81434857D01*
X133783714Y-81363428D01*
X133498000Y-81363428D01*
X133355142Y-81434857D01*
X135355142Y-81363428D02*
X135355142Y-82149142D01*
X135283714Y-82292000D01*
X135140857Y-82363428D01*
X134855142Y-82363428D01*
X134712285Y-82292000D01*
X135355142Y-81434857D02*
X135212285Y-81363428D01*
X134855142Y-81363428D01*
X134712285Y-81434857D01*
X134640857Y-81577714D01*
X134640857Y-81720571D01*
X134712285Y-81863428D01*
X134855142Y-81934857D01*
X135212285Y-81934857D01*
X135355142Y-82006285D01*
X136069428Y-81363428D02*
X136069428Y-82363428D01*
X136069428Y-82077714D02*
X136140857Y-82220571D01*
X136212285Y-82292000D01*
X136355142Y-82363428D01*
X136498000Y-82363428D01*
X136926571Y-81434857D02*
X137069428Y-81363428D01*
X137355142Y-81363428D01*
X137498000Y-81434857D01*
X137569428Y-81577714D01*
X137569428Y-81649142D01*
X137498000Y-81792000D01*
X137355142Y-81863428D01*
X137140857Y-81863428D01*
X136998000Y-81934857D01*
X136926571Y-82077714D01*
X136926571Y-82149142D01*
X136998000Y-82292000D01*
X137140857Y-82363428D01*
X137355142Y-82363428D01*
X137498000Y-82292000D01*
X138212285Y-82363428D02*
X138212285Y-80863428D01*
X138212285Y-82292000D02*
X138355142Y-82363428D01*
X138640857Y-82363428D01*
X138783714Y-82292000D01*
X138855142Y-82220571D01*
X138926571Y-82077714D01*
X138926571Y-81649142D01*
X138855142Y-81506285D01*
X138783714Y-81434857D01*
X138640857Y-81363428D01*
X138355142Y-81363428D01*
X138212285Y-81434857D01*
X140140857Y-81434857D02*
X139998000Y-81363428D01*
X139712285Y-81363428D01*
X139569428Y-81434857D01*
X139498000Y-81577714D01*
X139498000Y-82149142D01*
X139569428Y-82292000D01*
X139712285Y-82363428D01*
X139998000Y-82363428D01*
X140140857Y-82292000D01*
X140212285Y-82149142D01*
X140212285Y-82006285D01*
X139498000Y-81863428D01*
X141498000Y-81434857D02*
X141355142Y-81363428D01*
X141069428Y-81363428D01*
X140926571Y-81434857D01*
X140855142Y-81506285D01*
X140783714Y-81649142D01*
X140783714Y-82077714D01*
X140855142Y-82220571D01*
X140926571Y-82292000D01*
X141069428Y-82363428D01*
X141355142Y-82363428D01*
X141498000Y-82292000D01*
X141926571Y-82363428D02*
X142498000Y-82363428D01*
X142140857Y-82863428D02*
X142140857Y-81577714D01*
X142212285Y-81434857D01*
X142355142Y-81363428D01*
X142498000Y-81363428D01*
X142998000Y-81363428D02*
X142998000Y-82363428D01*
X142998000Y-82077714D02*
X143069428Y-82220571D01*
X143140857Y-82292000D01*
X143283714Y-82363428D01*
X143426571Y-82363428D01*
X144569428Y-81363428D02*
X144569428Y-82149142D01*
X144498000Y-82292000D01*
X144355142Y-82363428D01*
X144069428Y-82363428D01*
X143926571Y-82292000D01*
X144569428Y-81434857D02*
X144426571Y-81363428D01*
X144069428Y-81363428D01*
X143926571Y-81434857D01*
X143855142Y-81577714D01*
X143855142Y-81720571D01*
X143926571Y-81863428D01*
X144069428Y-81934857D01*
X144426571Y-81934857D01*
X144569428Y-82006285D01*
X146355142Y-81792000D02*
X147069428Y-81792000D01*
X146212285Y-81363428D02*
X146712285Y-82863428D01*
X147212285Y-81363428D01*
X148355142Y-81363428D02*
X148355142Y-82863428D01*
X148355142Y-81434857D02*
X148212285Y-81363428D01*
X147926571Y-81363428D01*
X147783714Y-81434857D01*
X147712285Y-81506285D01*
X147640857Y-81649142D01*
X147640857Y-82077714D01*
X147712285Y-82220571D01*
X147783714Y-82292000D01*
X147926571Y-82363428D01*
X148212285Y-82363428D01*
X148355142Y-82292000D01*
X149712285Y-81363428D02*
X149712285Y-82149142D01*
X149640857Y-82292000D01*
X149498000Y-82363428D01*
X149212285Y-82363428D01*
X149069428Y-82292000D01*
X149712285Y-81434857D02*
X149569428Y-81363428D01*
X149212285Y-81363428D01*
X149069428Y-81434857D01*
X148998000Y-81577714D01*
X148998000Y-81720571D01*
X149069428Y-81863428D01*
X149212285Y-81934857D01*
X149569428Y-81934857D01*
X149712285Y-82006285D01*
X150426571Y-82363428D02*
X150426571Y-80863428D01*
X150426571Y-82292000D02*
X150569428Y-82363428D01*
X150855142Y-82363428D01*
X150998000Y-82292000D01*
X151069428Y-82220571D01*
X151140857Y-82077714D01*
X151140857Y-81649142D01*
X151069428Y-81506285D01*
X150998000Y-81434857D01*
X150855142Y-81363428D01*
X150569428Y-81363428D01*
X150426571Y-81434857D01*
X151569428Y-82363428D02*
X152140857Y-82363428D01*
X151783714Y-82863428D02*
X151783714Y-81577714D01*
X151855142Y-81434857D01*
X151998000Y-81363428D01*
X152140857Y-81363428D01*
X153212285Y-81434857D02*
X153069428Y-81363428D01*
X152783714Y-81363428D01*
X152640857Y-81434857D01*
X152569428Y-81577714D01*
X152569428Y-82149142D01*
X152640857Y-82292000D01*
X152783714Y-82363428D01*
X153069428Y-82363428D01*
X153212285Y-82292000D01*
X153283714Y-82149142D01*
X153283714Y-82006285D01*
X152569428Y-81863428D01*
X153926571Y-81363428D02*
X153926571Y-82363428D01*
X153926571Y-82077714D02*
X153998000Y-82220571D01*
X154069428Y-82292000D01*
X154212285Y-82363428D01*
X154355142Y-82363428D01*
D11*
X155870285Y-94046857D02*
X155870285Y-94446857D01*
X156498857Y-94618285D02*
X156498857Y-94046857D01*
X155298857Y-94046857D01*
X155298857Y-94618285D01*
X156498857Y-95132571D02*
X155298857Y-95132571D01*
X156498857Y-95818285D01*
X155298857Y-95818285D01*
X156498857Y-97018285D02*
X156498857Y-96332571D01*
X156498857Y-96675428D02*
X155298857Y-96675428D01*
X155470285Y-96561142D01*
X155584571Y-96446857D01*
X155641714Y-96332571D01*
X155870285Y-70170857D02*
X155870285Y-70570857D01*
X156498857Y-70742285D02*
X156498857Y-70170857D01*
X155298857Y-70170857D01*
X155298857Y-70742285D01*
X156498857Y-71256571D02*
X155298857Y-71256571D01*
X156498857Y-71942285D01*
X155298857Y-71942285D01*
X155413142Y-72456571D02*
X155356000Y-72513714D01*
X155298857Y-72628000D01*
X155298857Y-72913714D01*
X155356000Y-73028000D01*
X155413142Y-73085142D01*
X155527428Y-73142285D01*
X155641714Y-73142285D01*
X155813142Y-73085142D01*
X156498857Y-72399428D01*
X156498857Y-73142285D01*
X159038857Y-70885142D02*
X159038857Y-70199428D01*
X159038857Y-70542285D02*
X157838857Y-70542285D01*
X158010285Y-70428000D01*
X158124571Y-70313714D01*
X158181714Y-70199428D01*
X157953142Y-71342285D02*
X157896000Y-71399428D01*
X157838857Y-71513714D01*
X157838857Y-71799428D01*
X157896000Y-71913714D01*
X157953142Y-71970857D01*
X158067428Y-72028000D01*
X158181714Y-72028000D01*
X158353142Y-71970857D01*
X159038857Y-71285142D01*
X159038857Y-72028000D01*
X157838857Y-72370857D02*
X159038857Y-72770857D01*
X157838857Y-73170857D01*
X159038857Y-94761142D02*
X159038857Y-94075428D01*
X159038857Y-94418285D02*
X157838857Y-94418285D01*
X158010285Y-94304000D01*
X158124571Y-94189714D01*
X158181714Y-94075428D01*
X157953142Y-95218285D02*
X157896000Y-95275428D01*
X157838857Y-95389714D01*
X157838857Y-95675428D01*
X157896000Y-95789714D01*
X157953142Y-95846857D01*
X158067428Y-95904000D01*
X158181714Y-95904000D01*
X158353142Y-95846857D01*
X159038857Y-95161142D01*
X159038857Y-95904000D01*
X157838857Y-96246857D02*
X159038857Y-96646857D01*
X157838857Y-97046857D01*
X160378857Y-70434285D02*
X160378857Y-70662857D01*
X160436000Y-70777142D01*
X160550285Y-70891428D01*
X160778857Y-70948571D01*
X161178857Y-70948571D01*
X161407428Y-70891428D01*
X161521714Y-70777142D01*
X161578857Y-70662857D01*
X161578857Y-70434285D01*
X161521714Y-70320000D01*
X161407428Y-70205714D01*
X161178857Y-70148571D01*
X160778857Y-70148571D01*
X160550285Y-70205714D01*
X160436000Y-70320000D01*
X160378857Y-70434285D01*
X160493142Y-71405714D02*
X160436000Y-71462857D01*
X160378857Y-71577142D01*
X160378857Y-71862857D01*
X160436000Y-71977142D01*
X160493142Y-72034285D01*
X160607428Y-72091428D01*
X160721714Y-72091428D01*
X160893142Y-72034285D01*
X161578857Y-71348571D01*
X161578857Y-72091428D01*
X160378857Y-94310285D02*
X160378857Y-94538857D01*
X160436000Y-94653142D01*
X160550285Y-94767428D01*
X160778857Y-94824571D01*
X161178857Y-94824571D01*
X161407428Y-94767428D01*
X161521714Y-94653142D01*
X161578857Y-94538857D01*
X161578857Y-94310285D01*
X161521714Y-94196000D01*
X161407428Y-94081714D01*
X161178857Y-94024571D01*
X160778857Y-94024571D01*
X160550285Y-94081714D01*
X160436000Y-94196000D01*
X160378857Y-94310285D01*
X161578857Y-95967428D02*
X161578857Y-95281714D01*
X161578857Y-95624571D02*
X160378857Y-95624571D01*
X160550285Y-95510285D01*
X160664571Y-95396000D01*
X160721714Y-95281714D01*
X162722000Y-94589714D02*
X162664857Y-94475428D01*
X162664857Y-94304000D01*
X162722000Y-94132571D01*
X162836285Y-94018285D01*
X162950571Y-93961142D01*
X163179142Y-93904000D01*
X163350571Y-93904000D01*
X163579142Y-93961142D01*
X163693428Y-94018285D01*
X163807714Y-94132571D01*
X163864857Y-94304000D01*
X163864857Y-94418285D01*
X163807714Y-94589714D01*
X163750571Y-94646857D01*
X163350571Y-94646857D01*
X163350571Y-94418285D01*
X163864857Y-95161142D02*
X162664857Y-95161142D01*
X163864857Y-95846857D01*
X162664857Y-95846857D01*
X163864857Y-96418285D02*
X162664857Y-96418285D01*
X162664857Y-96704000D01*
X162722000Y-96875428D01*
X162836285Y-96989714D01*
X162950571Y-97046857D01*
X163179142Y-97104000D01*
X163350571Y-97104000D01*
X163579142Y-97046857D01*
X163693428Y-96989714D01*
X163807714Y-96875428D01*
X163864857Y-96704000D01*
X163864857Y-96418285D01*
X162976000Y-70713714D02*
X162918857Y-70599428D01*
X162918857Y-70428000D01*
X162976000Y-70256571D01*
X163090285Y-70142285D01*
X163204571Y-70085142D01*
X163433142Y-70028000D01*
X163604571Y-70028000D01*
X163833142Y-70085142D01*
X163947428Y-70142285D01*
X164061714Y-70256571D01*
X164118857Y-70428000D01*
X164118857Y-70542285D01*
X164061714Y-70713714D01*
X164004571Y-70770857D01*
X163604571Y-70770857D01*
X163604571Y-70542285D01*
X164118857Y-71285142D02*
X162918857Y-71285142D01*
X164118857Y-71970857D01*
X162918857Y-71970857D01*
X164118857Y-72542285D02*
X162918857Y-72542285D01*
X162918857Y-72828000D01*
X162976000Y-72999428D01*
X163090285Y-73113714D01*
X163204571Y-73170857D01*
X163433142Y-73228000D01*
X163604571Y-73228000D01*
X163833142Y-73170857D01*
X163947428Y-73113714D01*
X164061714Y-72999428D01*
X164118857Y-72828000D01*
X164118857Y-72542285D01*
X137830000Y-70713714D02*
X137772857Y-70599428D01*
X137772857Y-70428000D01*
X137830000Y-70256571D01*
X137944285Y-70142285D01*
X138058571Y-70085142D01*
X138287142Y-70028000D01*
X138458571Y-70028000D01*
X138687142Y-70085142D01*
X138801428Y-70142285D01*
X138915714Y-70256571D01*
X138972857Y-70428000D01*
X138972857Y-70542285D01*
X138915714Y-70713714D01*
X138858571Y-70770857D01*
X138458571Y-70770857D01*
X138458571Y-70542285D01*
X138972857Y-71285142D02*
X137772857Y-71285142D01*
X138972857Y-71970857D01*
X137772857Y-71970857D01*
X138972857Y-72542285D02*
X137772857Y-72542285D01*
X137772857Y-72828000D01*
X137830000Y-72999428D01*
X137944285Y-73113714D01*
X138058571Y-73170857D01*
X138287142Y-73228000D01*
X138458571Y-73228000D01*
X138687142Y-73170857D01*
X138801428Y-73113714D01*
X138915714Y-72999428D01*
X138972857Y-72828000D01*
X138972857Y-72542285D01*
X141512857Y-70174000D02*
X140312857Y-70174000D01*
X141512857Y-70745428D02*
X140312857Y-70745428D01*
X141512857Y-71431142D01*
X140312857Y-71431142D01*
X141512857Y-72631142D02*
X141512857Y-71945428D01*
X141512857Y-72288285D02*
X140312857Y-72288285D01*
X140484285Y-72174000D01*
X140598571Y-72059714D01*
X140655714Y-71945428D01*
X137830000Y-94589714D02*
X137772857Y-94475428D01*
X137772857Y-94304000D01*
X137830000Y-94132571D01*
X137944285Y-94018285D01*
X138058571Y-93961142D01*
X138287142Y-93904000D01*
X138458571Y-93904000D01*
X138687142Y-93961142D01*
X138801428Y-94018285D01*
X138915714Y-94132571D01*
X138972857Y-94304000D01*
X138972857Y-94418285D01*
X138915714Y-94589714D01*
X138858571Y-94646857D01*
X138458571Y-94646857D01*
X138458571Y-94418285D01*
X138972857Y-95161142D02*
X137772857Y-95161142D01*
X138972857Y-95846857D01*
X137772857Y-95846857D01*
X138972857Y-96418285D02*
X137772857Y-96418285D01*
X137772857Y-96704000D01*
X137830000Y-96875428D01*
X137944285Y-96989714D01*
X138058571Y-97046857D01*
X138287142Y-97104000D01*
X138458571Y-97104000D01*
X138687142Y-97046857D01*
X138801428Y-96989714D01*
X138915714Y-96875428D01*
X138972857Y-96704000D01*
X138972857Y-96418285D01*
X141512857Y-93796000D02*
X140312857Y-93796000D01*
X141512857Y-94367428D02*
X140312857Y-94367428D01*
X141512857Y-95053142D01*
X140312857Y-95053142D01*
X141512857Y-96253142D02*
X141512857Y-95567428D01*
X141512857Y-95910285D02*
X140312857Y-95910285D01*
X140484285Y-95796000D01*
X140598571Y-95681714D01*
X140655714Y-95567428D01*
X136432857Y-93796000D02*
X135232857Y-93796000D01*
X136432857Y-94367428D02*
X135232857Y-94367428D01*
X136432857Y-95053142D01*
X135232857Y-95053142D01*
X135347142Y-95567428D02*
X135290000Y-95624571D01*
X135232857Y-95738857D01*
X135232857Y-96024571D01*
X135290000Y-96138857D01*
X135347142Y-96196000D01*
X135461428Y-96253142D01*
X135575714Y-96253142D01*
X135747142Y-96196000D01*
X136432857Y-95510285D01*
X136432857Y-96253142D01*
X136432857Y-70174000D02*
X135232857Y-70174000D01*
X136432857Y-70745428D02*
X135232857Y-70745428D01*
X136432857Y-71431142D01*
X135232857Y-71431142D01*
X135347142Y-71945428D02*
X135290000Y-72002571D01*
X135232857Y-72116857D01*
X135232857Y-72402571D01*
X135290000Y-72516857D01*
X135347142Y-72574000D01*
X135461428Y-72631142D01*
X135575714Y-72631142D01*
X135747142Y-72574000D01*
X136432857Y-71888285D01*
X136432857Y-72631142D01*
D12*
G04 #@! TO.C,G\002A\002A\002A*
G36*
X136835015Y-89478254D02*
X136868479Y-89016381D01*
X136793872Y-88262402D01*
X136612095Y-87229252D01*
X136482201Y-86616098D01*
X136309611Y-85488668D01*
X136348577Y-84621050D01*
X136598860Y-84013902D01*
X137060216Y-83667881D01*
X137596865Y-83579457D01*
X137966870Y-83648161D01*
X138527836Y-83829862D01*
X139169397Y-84087944D01*
X139283609Y-84139087D01*
X140142760Y-84502938D01*
X140838136Y-84742403D01*
X141330800Y-84847280D01*
X141581814Y-84807369D01*
X141605842Y-84747456D01*
X141468782Y-84557744D01*
X141311471Y-84477646D01*
X141034766Y-84369916D01*
X140533615Y-84163220D01*
X139892178Y-83892537D01*
X139502899Y-83725972D01*
X138421497Y-83314572D01*
X137566746Y-83113758D01*
X136906917Y-83118660D01*
X136501670Y-83265327D01*
X136165673Y-83619627D01*
X135895660Y-84194945D01*
X135737945Y-84876449D01*
X135715692Y-85214120D01*
X135746747Y-85639488D01*
X135832911Y-86296507D01*
X135960113Y-87087593D01*
X136080276Y-87742702D01*
X136266526Y-88631718D01*
X136424856Y-89220655D01*
X136566292Y-89543595D01*
X136692579Y-89635086D01*
X136835015Y-89478254D01*
X136835015Y-89478254D01*
G37*
X136835015Y-89478254D02*
X136868479Y-89016381D01*
X136793872Y-88262402D01*
X136612095Y-87229252D01*
X136482201Y-86616098D01*
X136309611Y-85488668D01*
X136348577Y-84621050D01*
X136598860Y-84013902D01*
X137060216Y-83667881D01*
X137596865Y-83579457D01*
X137966870Y-83648161D01*
X138527836Y-83829862D01*
X139169397Y-84087944D01*
X139283609Y-84139087D01*
X140142760Y-84502938D01*
X140838136Y-84742403D01*
X141330800Y-84847280D01*
X141581814Y-84807369D01*
X141605842Y-84747456D01*
X141468782Y-84557744D01*
X141311471Y-84477646D01*
X141034766Y-84369916D01*
X140533615Y-84163220D01*
X139892178Y-83892537D01*
X139502899Y-83725972D01*
X138421497Y-83314572D01*
X137566746Y-83113758D01*
X136906917Y-83118660D01*
X136501670Y-83265327D01*
X136165673Y-83619627D01*
X135895660Y-84194945D01*
X135737945Y-84876449D01*
X135715692Y-85214120D01*
X135746747Y-85639488D01*
X135832911Y-86296507D01*
X135960113Y-87087593D01*
X136080276Y-87742702D01*
X136266526Y-88631718D01*
X136424856Y-89220655D01*
X136566292Y-89543595D01*
X136692579Y-89635086D01*
X136835015Y-89478254D01*
G36*
X134934201Y-90275159D02*
X135031464Y-90149497D01*
X135104962Y-89889944D01*
X135160010Y-89455495D01*
X135201921Y-88805146D01*
X135236009Y-87897892D01*
X135265636Y-86775483D01*
X135295245Y-85824168D01*
X135334852Y-84976418D01*
X135380458Y-84295778D01*
X135428066Y-83845795D01*
X135458817Y-83705616D01*
X135495700Y-83465461D01*
X135426998Y-83411245D01*
X135198082Y-83576025D01*
X135009775Y-84060774D01*
X134865440Y-84851107D01*
X134768437Y-85932636D01*
X134749017Y-86312900D01*
X134706469Y-87083230D01*
X134654517Y-87713182D01*
X134599782Y-88137105D01*
X134549651Y-88289391D01*
X134448286Y-88141351D01*
X134309740Y-87761236D01*
X134216321Y-87430960D01*
X134006499Y-86770042D01*
X133714891Y-86054141D01*
X133380833Y-85359653D01*
X133043663Y-84762975D01*
X132742718Y-84340503D01*
X132539004Y-84173469D01*
X132137295Y-84141353D01*
X131965105Y-84179406D01*
X131646296Y-84442379D01*
X131325592Y-84933340D01*
X131060633Y-85549163D01*
X130934600Y-86023236D01*
X130848321Y-86374758D01*
X130758864Y-86491202D01*
X130659804Y-86353938D01*
X130544716Y-85944336D01*
X130407173Y-85243766D01*
X130240753Y-84233598D01*
X130178805Y-83831775D01*
X130042734Y-82949327D01*
X129918041Y-82160660D01*
X129816419Y-81538331D01*
X129749563Y-81154899D01*
X129738256Y-81098331D01*
X129589660Y-80831705D01*
X129367336Y-80718342D01*
X129191237Y-80792988D01*
X129157524Y-80930119D01*
X129188344Y-81190025D01*
X129277484Y-81746910D01*
X129419060Y-82567517D01*
X129607185Y-83618584D01*
X129835973Y-84866852D01*
X130099539Y-86279061D01*
X130174273Y-86675535D01*
X130324168Y-87397753D01*
X130474249Y-88000058D01*
X130603155Y-88402213D01*
X130664635Y-88517455D01*
X130892264Y-88606993D01*
X131081684Y-88377100D01*
X131235220Y-87822546D01*
X131351987Y-86970216D01*
X131460728Y-86108600D01*
X131598494Y-85508281D01*
X131790260Y-85094157D01*
X132061004Y-84791128D01*
X132082768Y-84772792D01*
X132330845Y-84742516D01*
X132623519Y-85029840D01*
X132962682Y-85638278D01*
X133350226Y-86571346D01*
X133788045Y-87832559D01*
X133873400Y-88098036D01*
X134204757Y-89086480D01*
X134479375Y-89794369D01*
X134690148Y-90204899D01*
X134807860Y-90307934D01*
X134934201Y-90275159D01*
X134934201Y-90275159D01*
G37*
X134934201Y-90275159D02*
X135031464Y-90149497D01*
X135104962Y-89889944D01*
X135160010Y-89455495D01*
X135201921Y-88805146D01*
X135236009Y-87897892D01*
X135265636Y-86775483D01*
X135295245Y-85824168D01*
X135334852Y-84976418D01*
X135380458Y-84295778D01*
X135428066Y-83845795D01*
X135458817Y-83705616D01*
X135495700Y-83465461D01*
X135426998Y-83411245D01*
X135198082Y-83576025D01*
X135009775Y-84060774D01*
X134865440Y-84851107D01*
X134768437Y-85932636D01*
X134749017Y-86312900D01*
X134706469Y-87083230D01*
X134654517Y-87713182D01*
X134599782Y-88137105D01*
X134549651Y-88289391D01*
X134448286Y-88141351D01*
X134309740Y-87761236D01*
X134216321Y-87430960D01*
X134006499Y-86770042D01*
X133714891Y-86054141D01*
X133380833Y-85359653D01*
X133043663Y-84762975D01*
X132742718Y-84340503D01*
X132539004Y-84173469D01*
X132137295Y-84141353D01*
X131965105Y-84179406D01*
X131646296Y-84442379D01*
X131325592Y-84933340D01*
X131060633Y-85549163D01*
X130934600Y-86023236D01*
X130848321Y-86374758D01*
X130758864Y-86491202D01*
X130659804Y-86353938D01*
X130544716Y-85944336D01*
X130407173Y-85243766D01*
X130240753Y-84233598D01*
X130178805Y-83831775D01*
X130042734Y-82949327D01*
X129918041Y-82160660D01*
X129816419Y-81538331D01*
X129749563Y-81154899D01*
X129738256Y-81098331D01*
X129589660Y-80831705D01*
X129367336Y-80718342D01*
X129191237Y-80792988D01*
X129157524Y-80930119D01*
X129188344Y-81190025D01*
X129277484Y-81746910D01*
X129419060Y-82567517D01*
X129607185Y-83618584D01*
X129835973Y-84866852D01*
X130099539Y-86279061D01*
X130174273Y-86675535D01*
X130324168Y-87397753D01*
X130474249Y-88000058D01*
X130603155Y-88402213D01*
X130664635Y-88517455D01*
X130892264Y-88606993D01*
X131081684Y-88377100D01*
X131235220Y-87822546D01*
X131351987Y-86970216D01*
X131460728Y-86108600D01*
X131598494Y-85508281D01*
X131790260Y-85094157D01*
X132061004Y-84791128D01*
X132082768Y-84772792D01*
X132330845Y-84742516D01*
X132623519Y-85029840D01*
X132962682Y-85638278D01*
X133350226Y-86571346D01*
X133788045Y-87832559D01*
X133873400Y-88098036D01*
X134204757Y-89086480D01*
X134479375Y-89794369D01*
X134690148Y-90204899D01*
X134807860Y-90307934D01*
X134934201Y-90275159D01*
G04 #@! TD*
M02*
